<mxfile modified="2021-09-08T14:45:12.696Z" host="app.diagrams.net" agent="5.0 (Macintosh; Intel Mac OS X 10_15_7) AppleWebKit/537.36 (KHTML, like Gecko) Chrome/92.0.4515.131 Safari/537.36 OPR/78.0.4093.147" etag="MxX8o8A5VL9JZtf46T7s" version="15.1.1" type="github">
  <diagram id="Ht1M8jgEwFfnCIfOTk4-" name="Page-1">
    <mxGraphModel dx="1146" dy="776" grid="1" gridSize="10" guides="1" tooltips="1" connect="1" arrows="1" fold="1" page="1" pageScale="1" pageWidth="827" pageHeight="1969" math="0" shadow="0">
      <root>
        <mxCell id="0" />
        <mxCell id="1" parent="0" />
        <mxCell id="UWv910rHTFWDrx02N8dY-64" style="edgeStyle=orthogonalEdgeStyle;rounded=0;orthogonalLoop=1;jettySize=auto;html=1;" edge="1" parent="1" source="UEzPUAAOIrF-is8g5C7q-109" target="UWv910rHTFWDrx02N8dY-60">
          <mxGeometry relative="1" as="geometry" />
        </mxCell>
        <mxCell id="UEzPUAAOIrF-is8g5C7q-109" value="Outlet 2" style="outlineConnect=0;gradientColor=none;fontColor=#545B64;strokeColor=none;fillColor=#879196;dashed=0;verticalLabelPosition=bottom;verticalAlign=top;align=center;html=1;fontSize=12;fontStyle=0;aspect=fixed;shape=mxgraph.aws4.illustration_desktop;pointerEvents=1;labelBackgroundColor=#ffffff;" parent="1" vertex="1">
          <mxGeometry x="29" y="384.5" width="100" height="91" as="geometry" />
        </mxCell>
        <mxCell id="UWv910rHTFWDrx02N8dY-22" value="" style="group" vertex="1" connectable="0" parent="1">
          <mxGeometry x="750" y="289.5" width="120" height="270" as="geometry" />
        </mxCell>
        <mxCell id="UWv910rHTFWDrx02N8dY-4" value="&amp;nbsp;CSV/Storage&lt;br&gt;&lt;br&gt;&lt;br&gt;&lt;br&gt;&lt;br&gt;&lt;br&gt;&lt;br&gt;&lt;br&gt;&lt;br&gt;&lt;br&gt;&lt;br&gt;&lt;br&gt;&lt;br&gt;&lt;br&gt;&lt;br&gt;&lt;br&gt;" style="rounded=1;whiteSpace=wrap;html=1;align=left;" vertex="1" parent="UWv910rHTFWDrx02N8dY-22">
          <mxGeometry width="120" height="269.99999999999994" as="geometry" />
        </mxCell>
        <mxCell id="UEzPUAAOIrF-is8g5C7q-116" value="Amazon S3" style="outlineConnect=0;fontColor=#232F3E;gradientColor=#60A337;gradientDirection=north;fillColor=#277116;strokeColor=#ffffff;dashed=0;verticalLabelPosition=bottom;verticalAlign=top;align=center;html=1;fontSize=12;fontStyle=0;aspect=fixed;shape=mxgraph.aws4.resourceIcon;resIcon=mxgraph.aws4.s3;labelBackgroundColor=#ffffff;" parent="UWv910rHTFWDrx02N8dY-22" vertex="1">
          <mxGeometry x="21.000000000000227" y="61.36363636363635" width="78" height="78" as="geometry" />
        </mxCell>
        <mxCell id="UWv910rHTFWDrx02N8dY-9" value="" style="shape=table;startSize=30;container=1;collapsible=0;childLayout=tableLayout;fontStyle=1;align=center;pointerEvents=1;" vertex="1" parent="UWv910rHTFWDrx02N8dY-22">
          <mxGeometry x="21" y="193.90909090909088" width="74" height="51.54545454545454" as="geometry" />
        </mxCell>
        <mxCell id="UWv910rHTFWDrx02N8dY-10" value="" style="shape=partialRectangle;html=1;whiteSpace=wrap;collapsible=0;dropTarget=0;pointerEvents=0;fillColor=none;top=0;left=0;bottom=0;right=0;points=[[0,0.5],[1,0.5]];portConstraint=eastwest;" vertex="1" parent="UWv910rHTFWDrx02N8dY-9">
          <mxGeometry y="30" width="74" height="8" as="geometry" />
        </mxCell>
        <mxCell id="UWv910rHTFWDrx02N8dY-11" value="" style="shape=partialRectangle;html=1;whiteSpace=wrap;connectable=0;fillColor=none;top=0;left=0;bottom=0;right=0;overflow=hidden;pointerEvents=1;" vertex="1" parent="UWv910rHTFWDrx02N8dY-10">
          <mxGeometry width="25" height="8" as="geometry" />
        </mxCell>
        <mxCell id="UWv910rHTFWDrx02N8dY-12" value="" style="shape=partialRectangle;html=1;whiteSpace=wrap;connectable=0;fillColor=none;top=0;left=0;bottom=0;right=0;overflow=hidden;pointerEvents=1;" vertex="1" parent="UWv910rHTFWDrx02N8dY-10">
          <mxGeometry x="25" width="24" height="8" as="geometry" />
        </mxCell>
        <mxCell id="UWv910rHTFWDrx02N8dY-13" value="" style="shape=partialRectangle;html=1;whiteSpace=wrap;connectable=0;fillColor=none;top=0;left=0;bottom=0;right=0;overflow=hidden;pointerEvents=1;" vertex="1" parent="UWv910rHTFWDrx02N8dY-10">
          <mxGeometry x="49" width="25" height="8" as="geometry" />
        </mxCell>
        <mxCell id="UWv910rHTFWDrx02N8dY-14" value="" style="shape=partialRectangle;html=1;whiteSpace=wrap;collapsible=0;dropTarget=0;pointerEvents=0;fillColor=none;top=0;left=0;bottom=0;right=0;points=[[0,0.5],[1,0.5]];portConstraint=eastwest;" vertex="1" parent="UWv910rHTFWDrx02N8dY-9">
          <mxGeometry y="38" width="74" height="7" as="geometry" />
        </mxCell>
        <mxCell id="UWv910rHTFWDrx02N8dY-15" value="" style="shape=partialRectangle;html=1;whiteSpace=wrap;connectable=0;fillColor=none;top=0;left=0;bottom=0;right=0;overflow=hidden;pointerEvents=1;" vertex="1" parent="UWv910rHTFWDrx02N8dY-14">
          <mxGeometry width="25" height="7" as="geometry" />
        </mxCell>
        <mxCell id="UWv910rHTFWDrx02N8dY-16" value="" style="shape=partialRectangle;html=1;whiteSpace=wrap;connectable=0;fillColor=none;top=0;left=0;bottom=0;right=0;overflow=hidden;pointerEvents=1;" vertex="1" parent="UWv910rHTFWDrx02N8dY-14">
          <mxGeometry x="25" width="24" height="7" as="geometry" />
        </mxCell>
        <mxCell id="UWv910rHTFWDrx02N8dY-17" value="" style="shape=partialRectangle;html=1;whiteSpace=wrap;connectable=0;fillColor=none;top=0;left=0;bottom=0;right=0;overflow=hidden;pointerEvents=1;" vertex="1" parent="UWv910rHTFWDrx02N8dY-14">
          <mxGeometry x="49" width="25" height="7" as="geometry" />
        </mxCell>
        <mxCell id="UWv910rHTFWDrx02N8dY-18" value="" style="shape=partialRectangle;html=1;whiteSpace=wrap;collapsible=0;dropTarget=0;pointerEvents=0;fillColor=none;top=0;left=0;bottom=0;right=0;points=[[0,0.5],[1,0.5]];portConstraint=eastwest;" vertex="1" parent="UWv910rHTFWDrx02N8dY-9">
          <mxGeometry y="45" width="74" height="7" as="geometry" />
        </mxCell>
        <mxCell id="UWv910rHTFWDrx02N8dY-19" value="" style="shape=partialRectangle;html=1;whiteSpace=wrap;connectable=0;fillColor=none;top=0;left=0;bottom=0;right=0;overflow=hidden;pointerEvents=1;" vertex="1" parent="UWv910rHTFWDrx02N8dY-18">
          <mxGeometry width="25" height="7" as="geometry" />
        </mxCell>
        <mxCell id="UWv910rHTFWDrx02N8dY-20" value="" style="shape=partialRectangle;html=1;whiteSpace=wrap;connectable=0;fillColor=none;top=0;left=0;bottom=0;right=0;overflow=hidden;pointerEvents=1;" vertex="1" parent="UWv910rHTFWDrx02N8dY-18">
          <mxGeometry x="25" width="24" height="7" as="geometry" />
        </mxCell>
        <mxCell id="UWv910rHTFWDrx02N8dY-21" value="" style="shape=partialRectangle;html=1;whiteSpace=wrap;connectable=0;fillColor=none;top=0;left=0;bottom=0;right=0;overflow=hidden;pointerEvents=1;" vertex="1" parent="UWv910rHTFWDrx02N8dY-18">
          <mxGeometry x="49" width="25" height="7" as="geometry" />
        </mxCell>
        <mxCell id="UWv910rHTFWDrx02N8dY-100" style="edgeStyle=orthogonalEdgeStyle;rounded=0;orthogonalLoop=1;jettySize=auto;html=1;entryX=0.003;entryY=0.575;entryDx=0;entryDy=0;entryPerimeter=0;" edge="1" parent="1" source="UWv910rHTFWDrx02N8dY-38" target="UWv910rHTFWDrx02N8dY-94">
          <mxGeometry relative="1" as="geometry" />
        </mxCell>
        <mxCell id="UWv910rHTFWDrx02N8dY-38" value="Outlet 3" style="outlineConnect=0;gradientColor=none;fontColor=#545B64;strokeColor=none;fillColor=#879196;dashed=0;verticalLabelPosition=bottom;verticalAlign=top;align=center;html=1;fontSize=12;fontStyle=0;aspect=fixed;shape=mxgraph.aws4.illustration_desktop;pointerEvents=1;labelBackgroundColor=#ffffff;" vertex="1" parent="1">
          <mxGeometry x="30" y="625.5" width="100" height="91" as="geometry" />
        </mxCell>
        <mxCell id="UWv910rHTFWDrx02N8dY-60" value="&amp;nbsp; AWS EC2 Central&lt;br&gt;&lt;br&gt;&lt;br&gt;&lt;br&gt;&lt;br&gt;&lt;br&gt;&lt;br&gt;&lt;br&gt;&lt;br&gt;&lt;br&gt;" style="rounded=1;whiteSpace=wrap;html=1;align=left;" vertex="1" parent="1">
          <mxGeometry x="220" y="350" width="390" height="160" as="geometry" />
        </mxCell>
        <mxCell id="UWv910rHTFWDrx02N8dY-90" style="edgeStyle=orthogonalEdgeStyle;rounded=0;orthogonalLoop=1;jettySize=auto;html=1;" edge="1" parent="1" source="UWv910rHTFWDrx02N8dY-62" target="UWv910rHTFWDrx02N8dY-88">
          <mxGeometry relative="1" as="geometry" />
        </mxCell>
        <mxCell id="UWv910rHTFWDrx02N8dY-62" value="SymmetricDS" style="shape=image;verticalLabelPosition=bottom;labelBackgroundColor=#ffffff;verticalAlign=top;aspect=fixed;imageAspect=0;image=data:image/png,iVBORw0KGgoAAAANSUhEUgAAAPoAAAD6CAYAAACI7Fo9AAAAGXRFWHRTb2Z0d2FyZQBBZG9iZSBJbWFnZVJlYWR5ccllPAAAowFJREFUeNrsfQe8XVWx/szNTU9ISE+AkJ7QAqGFHrpI71JUBHwUO/qEx1/F/lT0qaAooigWBDsgFnrvLZQACQRICCShppCeMP+9T+45Z83MN2sffDyfT7N/XO7Nvefss/faa9o3M9+wiNC6Y92x7vjnPnidoK871h3rBH3dse5Yd6wT9HXHumPdsU7Q1x3rjnXHOkFfd6w71h3rBH3dse5Yd6wT9HXHumPdsU7Q1x3rjnWHFnRm/rt+aOdjvz+w+LZroWLGk9A44tr3jYrf9S8upXtN9ZQKqPgHd/xYu9jiH/W/pdfc8VKq30tDdaU6jKl5Lu74G/re8b766dVnJ6/h9PTS/IzGv9PXpedOXp9+RuPe0nNL80LspcKHCW6b0Dnri5Fcq3qvWZPwszvOhdbKLouAa9GfKc1F7vhee5bJGtjrRc+G03swzx49rpbMnHl+az+7uQeD8y0r/vFq8cvZxc8zyq/i708U3+9YddnpL/895a12rX8PQW8/9vvtxSfsWyzC/sU/dy++NnOCwk0Bc5vCCBJ6aJEwhJsJPX3ObwB1LQTlxQu1+b19jRceIAkVGzAn4ASUCDpNKrg5iYTPB0gQvC//QLQy50A5BZ+NTmf/GCowt5G84EafCZUOvrXoXNOKH28uvv+5+Pe1qy87ffX/aUEvLPfWxY2cUPx4TPE1iL0xgBoTCaJ9PoKsTWIFGpZdYqGk4AGhzRBZpaoHL5E1DjwJeM/g99YTQOfmQH6pVYtvramzqMCDYn/t1sLDNf5blJ9ZALQu8XvNayi+FrhfI4WWucfgvl4qvl9eXMtPC0v/4P8pQS8E/ODitGcWP+6sHjKy3MnTT4WzYXgpfkChBk3Ma0NLZwQLCTrn3FizwTld0HTjt/wkfGhAGeMauvqEPQEUCkQWP/+5etc2PRz8UKxLDx+YFVrygszg2UBPJLLgwEBQJpwSsP+wMQBhBfnQIvYi3GvvKP5xbmHhr/qHFvTCRd+tONO5xTVPBp/WeGjQkmasGAceAHTRJVhoKyTSVC6RuxW65R0ndoqJYgWRxnbKxHHgsURxd0Ygqiw09IoouRd0bZlQBT7jjphdgtAlin3V80MWECnRjFLjCmGHnlAu1CD/DK3iUMpaKAwNvQBoDVZ8u6f4zZmFwN/6DyXohYAPKb6dX1z8UVEgWAleEY5hiarc2lhwqoCp0P021oZx+Oc3lDVjQLGlwmWtoLunKD5OFgjcusMAKkEo4w05IxWssRVyF+MSduOllRCiImSDGthIsfssCUBZgo8j8yzMszXCTjmQz4aVOeUp9Jvifx9ZffkH5v2vC3rhph9fXOAFxdn6EDgPR0CVVASclAd0rCup3U/B0G+AMeXCRuhaR1Y6+H0rVjCO46JNBTZgRlioFUuWCz0ES2mVZcx6bYF1W+td4PuCbrlkXOIA1OUgpIhCIq/YM6GHTT8QPhE6J/BaFhYv+GBh3S/9XxH0wor3KL5dWLzzPVRhIUJfNHiQoeDlYq4oNs9ZlQrAraWNA9Iu6SNE62D3RwjqSLDLg5AGKpQcEGf1YQW41xpAaMKaCi/OKVACrnvmHhiENVYYK5VN5C0iT0+72KG3BhWm2TzoNVF6sDh+XnydXgj8kr+boBdWfHjx7Y/FWydm0MTYZQ/ivQhcix4cBNlaAVkq4+BMsGfRbML5fvX3cGdg9zJKI0kmHo9c5giYyoIbOdRfgJYInpG81RRplAPMoPQwTm5BcLjiczmTsgsVrsN8AsyDgeeSM4TN+3qk+NdBhbDP/h8X9MKSTyw+8ZriIoZQLpZqJReJLH8UJ2Zi47CYxQgiVSgdmGqLtHgupQOAv2wRiYm5pUJ4BQXTkfdhvJsqhdFKxiAbioDFcBmF6J44D4ZxLlUocXqCo4xKVfouyIxUequUx5fCULTKI157jjJe368Q9of/xwS9sOQlmn5t8bVelC1AOJMEgFvT8mEfkivSYi0BbAZscZaWvWKoa1qYGsx8Brpnp9CjdJa0AEYGXgF6rbt2ChQuShVFQJZ74D7YhGBa7p6DzIdKVwYgj31f6DGBdKhkvJPQeISFCvnn5V18wS5mEGYCu7So+Pe+hbDf87YLeiHk2xUnv74Ucru5KQCk3kps5R6EeAQbPYTKKrZcBiAAVGPti1NVldbGpJ6iPSaZUKMVjKMqHkbei2RQZ1JxN/tzBGC8ZBDznHeXLeoJsIkI+ZaMB8JVKd2qKsZMZV221DcqQLJGIgKCtNJYVPy896rLTr/vbRP0wl0fXZz57uJTBlAmvRO6eJkURdaVJ1z5RBR4C1QBcITxdwYJRNYqCi0SCxLFZrZOOgueocKhCMBowfXM1SG4unqhMC4Ji3UiALFKykBmEgFyzisggNBHzwzsuaqsDuWAvsBAEfk8u01dCujjCJ9NBHqu/fZK8bVDYdln/rcFvRDyPsW3e4ozj8eBeC4lU52uqKgJhlYviwgHGyJFwLOxaKWLHrtbVJFvz+aYc6h3LjyRjAvbAthU1SQj1KI7DoRVCS7HGYUs+JgLJari6Rbvj6owCwnzYU5xUICNVKYSKQ59KI+JlA0zkwthX5AT9LYKS15K8M8bQl6/GG4+IFtTzmalGrnu4rvknpN0/Dt5QJyeJwJAgVCKyfOuvdCO51VehxiftVxwG3pJIjiSPFP2blR9L7gHJOCaknVKawHSe8/Kq1gXnxuXyBRrCAbXm14fmy+4mOm1pbtatHA5JWALU9J9lO6RVjwRMdfW+BJ13Y1tp24Y6IbGtbN6bnr9ksXjICGc7u+OBZJknZuvBqBRstkl0IcIRO5427ji2886l7KaOdryzj19uITzGw9KMug0e2FObyZdSBtXqe/JZlbPP3mQQn6TRqY1XWhSgpqm6TSkLmIteBIzE0Gtkz6zxrUBi596JpJch7sXMcKeYiIurpewdDi9VnX95kFIoqzEWFkhL1wiiRFk/Zkoqmi+Sd+fXShflaYVPrG1As0bkobxAWm8ZJ1R9JgqBrZtsBGwqx4c+70j+loESHG2gg69xtZgrP3VQcW3D2czJZHrXmiIcR15u67evc7kkmDuPNPWRaAyKJcjDfKxsPPKAGcQxMkAeS7ezlka4OvC1GGIY1DYcZYpD8ij4i38rRXQknNpQZA3zFa+5XCTVvLaRGHpa5otcaBZ0NcepiVbCYMC97wqNRqChSgfmwsjtAFYUfy4ZeHCT2/ZdS9d9uJNF3Ep5Madhi6H0cq2Zzt1fZgT0yJ6Ha3CEWAx65+ZfrTUtR9zsj4c5mA5sV6chA1sXFNRSWDt1qWXyqyvr/7ohSqEDzxtAYKXWpumOyjezTQuLkearOPmw7JkcEqnUJNnzua55EE58X39KtyRDtwn9SKEUKaHlUvNjbSp2HjEeHDssiGx62yfFZtzCgh/lH0T7+VZT6GxF2287+IPE0aIusTSIF/Ufgx24SPX/ZjiTVOEtDAiK8LgE6kK/GAOF1fMvWgBkMQNlcRaAjCQfWhHETgEXHbRT4DYpZbEhAiiraDdWEi9I4BJvJfqBIjrm0yQLk3wkfpSizFVrLwjtriS+Etquv3S+DAGeIBI7G0w4dJQZrM36q9h8x6kuMG6pPfhPH0TVrFR5GxADLbucsbNdvF0+ow5UHzm/lkpLVbP0uEc1u4y7Vb84ZiWXPfCmnfpQPI2hikFmAYDuV+VQqhOezEGJVvLjeZq1jP121XsIXEOO+7UqqySQrlzonwJL/9tqHJV7UDlazMIOFW5uBVuLM6TEiQTSfcR1OKZajjt8pJ3xyrqMWCoSn7PZ+u5I8Yhiv/2lrIM+jWzSoBu1WWnr6xy3U/iUsijeFCMhmFSYBUZq13XTKkFdL3HAsBU8wDDmIYQOIOVgYgGxYRi99bhAaCYXRBKbUAuRso8JyjsrXkONZbAxbP3JcoseyuHNmHD5exA3lKgLSziCbxAhOojV9pZxtTQdPjNzB5btQ829fo5ja8Yd1KpvZC4JQw80NBaCwhhrH+OOubs80QWnAOHwAOGGxfP66SsRS+53WrWXGhkSIiAGje4ReKETIFHy/ncIPcYYn+tVJQBWhsF7EQFGdACUVhkE0pqrrAk02hhPScCqRhVuWhq9lvqUqO4kg4ufCvWMiqXiwpkohJWYHWriCdQ8RXcx6lnGpFpEFWwJrVQXMTxdozphAKwrnktzxbfx9W56JxFL15zYPFtJHEOXBanfSymIUJh4puRGhLjWdlctAEj0jSKswAtuThirFm6w9lXW0VuIvp8Dqw2xy44B8CQDXxFNPAlxoIpSyv2ObFPHpgUXhpzC3iNWDDKpf4wtB49EgZYhiiMQbPf5IkgdSgVusZsDGwH1mP3UkP3MMOLT6+HMvsv9YYEJMY5wjbUggc5Wo831r2ckbRWljEYV5z3FJcfNm6Nq8JKNidbNcDNfKvKa9ucegLsOHcuSDGlG5u99+s3pnLbWXsm5mEKAreAEKscZypY1s0W8cUeiYsmZm3TG+MEPCOuZjtN78kWtQhCkJHnLzhM1UImMbiEBItMDt96s5CplpWiisIFGLlxBVbAXkFIJq2IdLAQQY4BFVJ0bG4Rf40oDrfhZdPDRBmKZB29sj8Vuu7tx3xvUPHD3Lrwu8YS4Dpb7jXY4mw0RtQRFuZ1I/ZOm1enOG/NVXlOCXwoc9+Q3qlYLXkTrxMEMgMwqorCulXmHSuxlhwz104c9VpTlMPNgWsgt065HHyuJrdKaClPUoG5BTOthVHWwHgZOBIJGp9ypB7JC8JmqSgMiMvD3yy+hhbu+0vadWc+nCQWcuU6JwAZcx1s026fTmHgfKoCI3KNDgLAKfaKRKL3UPjsdP5d/Ps0awypEtnyPeMHr2fK3er5c/Z6ypZDCkjXGSuFQhqE+xEj4Ia1EyGu8ldbIPELJObZcwWMzkH6RKzX1bGpGXgkDrkr3ti/VzeV+7dl1wgiYKA3BKQ/lRtnAVQnZKzKW11KtmMhIZ6SrIUx+M39YlwIQalY8c9I1N5b660XbznSu+4iB+oFZ4juUZRX5ChnLAqdFpT4p6Dvlpu4gFDwma7cURR+ofLthGPUhgAERSqk6qBFKbo+3ToDiQFYRuY+lWIQ49IHIJtVqGwxjRT9RdkJ0cIvBGIfcP0iHkNRiglqU3ZhjXLbxSP9NkvRv0fn0O0Rq+xt9gbgPkQmc5RIlWTSti2FLHUcKVk0MWbZYiCUQ9IJh3wO4bf1AiL7K0Gvoe3Mu6NFY5RuEu+bs7HgqeamVOAI910TSLsQiNVyjReS7Hoxnw/jCcbxN8JAmLFVG9th0dkAfc5iGEGxVpSB9+NiXVCVF3lRzsoAzwh6WkhZC1Y4KSgqxmQy59NIbMsTg+KS+nlrnhN5hQSvFQTctucB2i0jOMwo7GCIIRFnQMdkkTjKJ6ahLQPArSocsp712oaz3TsyaQ2LPqn46umaVkw+0qNenM+BpsIZ5CfELbx44MKVvKZAiOgQIfV3E+WigDjglikNH1hSEZ+yGzloPerTo6uiZxLxdQJsEGsxQZjD6urXzrrK2MWbSEg5SH8Bi4caYIQMOMraPDJArwmh8uYczmVOyUSAQ5F6I5NGDnACDEDoPH7AqDxbFfvBVKIKFVCprAshxOfEU89UgAkTceCc9X5SBQnpB7iOyzSuu2fxbetU0Le1FVNCPvFvEWfr8ooIdjFNCsNZ0bS7ihm2pbrcsJhiBhRdJBspbcvkRm5Wb17YLii+kCF1EspA6MDNh+kCefYbUIAjJJJJlygSCBxcCziZGMyDlYYi3+JpFXnT7dM2rKMlGXp2lM8FC4BmrHUSwUai/MAuXTrRNqMGwZAidbOjXgR3Hxn33zmrYQ82hp3ssyMlyOwwmoby46Y1tnvAZXmSDITPftmwgbahBGHfPHI9xApiCiIZwWAQgDJRtlwUteBxbvOAdEza4KFqhY0byQwWizhusKgj18AqpjXtB2yzsXujUAV9cw5NttWDyUKn6cn6QrDxrsTl8RlbsCi4S3xICSxLGnIiT04JlfEEdOMOTh+lz+TIrTai7l3bDfrlA/E0bhWLEbC/TU6Nl80xcrrHWYceglNszmNQeBR7LMF5RaKMnKsk5EwqETHnrP3VFg1BL0NNihBd8dYc5ZjDfnzSzSho51vEVzKeGIOut2aDh5hcck5riEfs7Z+jpnLTE7//dqOpe7f28KMoiLsRxuDo2XJxtC09zhUagDRPqriVFakrDTbAbFoNFZAlwPAzoU0SCfLYYuKy5D7evdsEhXhbfVT3NJhxSEaqGUoB7L6RhGMDLoS8WnGYBFLYuXSk6sYjD5Km4K8EHX0wA7H2F2OarrusrW1nQq6mQCYVsZaHPJ8B+5YvUxDAWvsILopxSCxKNXCcTBNg6axbFBKIoF4G1harZ7fO9PG9Nwl72zlI+vo6bb+pxLacRiVmCFxklCE11lUyoYrJnKgTCzkA0lbjpWXLEUrsU2ra7d1kaB/ac6uNGyEdI5c/Ic5wmQ0h+KGwB581SCopGxEHJcBJqMlRFkAA3kHeC4gIJmBNCXOeA7B5rRs3BZ2pPwEqJEa52By4AZpTbG6JASDkPIcoPytBG6SLMTIltVYbRtRDXN2AkR4fOGCrpnsZOQ+gSpCNxeEcKUauTp1wBs0ynrgaaXaRAKhtYGii6kLWbCPlYAI26/sCWRY2slMXsC8cuQ11auMGTmEBP2avrfEo5DjORik5Zpz1gbRYAopjKOeW2v3uwxHOeOdirwp5Ic016p9a9P4MqrMEuAWu9DZCP20sD6idRPBmFYACS5KXYvT5jMALQF0EVl5VwQpQAJzJaXccg/r2pK8csbU7t6BQgnW8rEFDgWCVVaZMntpKCZLlxEuLVwSHu95qWEvHzrXmtLxTAgUVWKvodfXf7z5uMB2y47hG8FAHsyQi1XClxzrFJUF6ynEAME73gOY1pDtxCOyooX2dRqqMkMdhOxXT7r6IYFMJugJIJAAkqDqvqtw4kEJD6spWs4llPmm4uWziY4GAnmPC0SVuSqiZfRmtBRmZ8xRObyxf1fj51P22oh1HD4DklqHGBiVYAvK6YhQbImAU1LbGzfhT1cCzLumszJGSaY4Rn4XIUdS4sk8BzT+JYu7cuY1+cNqecE5dCmaJ6bixjTHIMKmMkdmngqy6iE8B2zQoYeJJPBmIcVhnc+0WaJQkTc246SuV4VQW2mwqBMF6PiMixiUVFf0JyCdZkj67yYVijnjHKGrBEwBzs6WATrR6CnKkCD5qZHCWz7htS1c0Bb29vY1+9uF9qHf3Lr5mowL8s7EpB3l8HZ8KHhpSX2MDyOEUEru++ogWiyOkGWQDuCKlbXuu2WjVH524C40a2rfx8hWr1xgCToHeh7SST28x/y5oz6YAoqkLEOumquEmXlYc3ovGVycjoFMFp2orOO6SrG+7NogCIqWc1tE6XnPWRSFiwCDEBZfyniGCPfbxswumYYO/qf2FJaUC43cGwgTTUMnDeu7lN9S9jRjch37/0b21ByI49ehiYY551C0ARaKtq6soQyk049paaykAd2mkTYVgIRNMjaquPAnddIfcd7zozP02p+P22FS99IVXFzsgN0CP4V6TaEFR26ixmJ6RV2CGj40rnSygT40SwICQhybV92hvyYW0StA5P24aVpIYwjyL90Cuc4AuuHps0RZeazwwS1wCDZ26SKb+Mq2L10osnJqjAMr6S+6e9apb9N0nDqdfnDrFgtTgXgxdFoF6BURKmAAwyNtwKWEQTFpOz6hSGOIvmSDct/ezFyRQFlt/Ru/ZYSR96b27uNNPe/41uN91DCzae7RpSAIxu8ForMXkXKZAcEpWUGotxUnMeoXUXmi8NjtKBK3YCQPRbS6eMFVuIVLI7NMYKVGi2cAZZeRBoWAssAMkAhcMWUkhD9BxI15l7xpTqNfUBb3+xgqaOdcPyTh6twlNYSecAxdTdQWbM2xPv63AYyyEbNhuIVlmnNJXiiRNtdpzYSC2udulglkn/dx37zCKLvrgvlCobnx8ruoAS52rplCxCkUijDHKHAnyBFD6OJFMh6eACbuo4IwZ87zDrCkH03gBYBzNJGxzcaGAmNH04tUF2SKpnBAlVLUt67JXWywgGG1k7R5ZyqCwfNd1YZhiBAgMAU8DhGDl95seweOq3zVlE7rqjH2pc+dOPiSyrVMCcgKu0QG4Zk6YJJxsA2UOlddGDTTEoVGXKCGNSqbTtEHHG/99383o4o/sS+2d/K55dt4CmjZ3oQKklEcCpghliTOTNVP96S2wbKJ8PdzadjQVmvYScTMAwlVBKWwOCqxAOXEbqTcJLARrVkpxo+bZCZDtn6UYxLJunOfRCuohTUVajmwgTBcFBF5ofJAQhbO10s++5JYZ4cZ453aj6K7PHUKjBvbyZZnEPiTJpBvtyKq0NoGjeDNCgnOxCpmutIocNIPfajBQcKK/+KGtvY0uOmln+sr7dg0f4RV3z1TvFYDSV6b0LDLDZrtZCcnFxZBOS3wOn7ESQbz2zNqg2kpCDpQBCjNRqWybPok2BUK52U9iLA7eLMSeaw5tGgGkDGJOxGgqaUbtRtVPaEOzU9fB2wC6e8+zL9N9M+aGwj5x5CC6+z+PpOO2G0F2sAMDL8LWCUSbVqB+1CFVWBYKJzM0fyFRbJQBvAgh8w3D4LXqxA370L2fP5Tet/cW4dqtWLWGzrv2McWXxAClh/gS3MBYyTPS8lF1ofVoLWlF2hLMOuiH/A02HWMGpDDihgd2S9WdoBjdgTKMCxIYBmXi3CEkvEiyBQAmFqCyiidq1nAkeRzQawpII9WVRnKDNj0lwDlIrfPXr3gw6/Kt36sb/fSM/eg3H9lrLVsKAicMlXLkjKQhlZvVhghDyXvmbO8xMxmW0bVKsC9MDOt74ssLEDrnoC3pzi8fTVuWXWmZ41e3PEEvLlimNHKQWQP7TkAVmgefdY5epz4kwpCingv0LNm9TRN1iE+zZegA4NAU5wgnrc8uRlfIYTyz3aCdrB4kRy6O2z0MSz0R0wmzE20YUkrkQpnrsblzlf+3BAjBGlhl9IeHZtNND8+qjPEO3XEcPfaNd9FH99qEuK3N5FjzVsejtbg0E07KSnaVHabIHAizcjP9qFcOUHcBHkP9n3uMH0L3fvFw+syxO1LXLp2ya7VwyQo6+7f3A5wlABCtp9QY8AlCIMKzN6OQDyl4ZWklSCVKXBOBwLiQqsu6/2mlH6P70V0wbWQRabYuN5Z0CWh8BcVlufhGQIWP6+oSCqqC/QNSpY6iOMBaqKHwKREKyPNdzznTB358Gy1JKuWiY8B63ekbJ0+hx752FB2+9XAHBtohEzmXWYBHEEAifmQR+d5v4qDrio3iRYQTKB/dca7xQ9ajKz+2D137ucNo0ujB1Mrx+cvuopcWLffU26bk14+4lrAj2GVgCJV7i8tPi1CMQSVliy5s4GD6LxPkVFQTahOPjQFTMQWpSh0askmvpRZCvIZ38aKNOYRiX468tUlJK+puMzNI9tcb9lGODlAE67yqJvJDLnzs9qWVdIJd4eIfw/v1bDyYmS+/QWf99FZq9Ri3YT/61ScPKCzcoXT85BHUlrRzkoDOPSEPvAGJzyloBt4OrEQUn59VWVbQOYPCjO1G9KPLP7QnPfT1Y2j/7Ue3vDZ/vncmfffGJxsnXK9Hl6TAyoCSbrQyOwuL6ZbZWW+LkIsFjVBhCOuUKVtPKcJ8BIdXRHYGG8ZEbAmtGOuuss7lJu583IVibT+aJZ2b4mEBH8lQOdvJsNGUEwtxs01ZUAsZkWg6DOLeysx6i+KXrTZcn6bOeV3dxEUn7UIn7rMFvdVj1vyF9MNrH6WLbp1Bry9ZWYn2O4rgYHS1zetmlwSFD3A8tIT5pbY2pqMKT+XUfTenXTff6C2vw/Q5r9Lkc/5QeEerGx83tG/3tbG6xA0cUpV1MWFHJYV1sB84lxILsz9+4ove85npK+aiLa05nGSUnGfVL0/j9lCT1wN6tTNENUgIumGFsrNvv2VvjWvKkuOnUzsHo1E9lOXPVkoLTXmwnx0Umts2zvTzRg/svVbQk/ec9tM7aVi/XvSObUa+pQ2+8eA+9KX37ELnFPHrjVNn0aW3TqdfPTC7gzc+uVYBacCId95cu5AOh8QqZsYpICYwTtrogu1HDKATp4yjQ3ccS/2L8ORvOV58dTEd8vW/0JJlq9W1Txi8Xgcohw2DBLFtNANAolRuJkND3lN3P8M+3SRXKZn1hOPP2HscziNrzFoQ1SqcGtt2mOgXwm2fzC6WQKycegJmIFTBiJUGK3ZmCL1rPqHYnc8B/0QVRQ/Ziaprfx43dD3q9GgbrVn9ZuPJvVkI5qHfvo7+/O/voD223Pgtb/Yu7Z1ov21H1b4uWLqSbnvsebrmoVn0uwdn12LW1LVL42u2aG+A8KpqwETofRzbtA4I0e9UXOfBmw+j/QvrvcfE4TR8UB/67xxzX3uDDvzqn2jmS284dT9xeD+6cfp8CE6q62KMT7he8hanwqZGxjY8sVG+az8bz+RuGBsrnATnbrjRzoI0gOHvt357urfbfeymV8BNP7GtgsY1lASUyHWhaZJBM+kEaUqUFrFjcqOBdzCE0KOPo1G2gqDa5N9dOrfT3uMG0zWPz1XWcHUh+O8496/06w/uQYfuNO5v3vxlbHpAEduWX+cV/3581sv00MyX6N6n59ONT8yl6fMW+7W11o6ARVAbIijWMYy56/fuSnuPH0w7jhtCW48eTFuNGkQ9Sl77t+F4Zu4C2v+rV9MzZZOQ7TxsK2L9MYOJr3tCDxZxgtrhgdo9zRhscK4764EdtrRY0P5nn3ZG4a4NfRVbcORtgpBSkHyaUASNKG8PTRxWTDAuFw5c/yhed91W7M9FoG430aB2jpowOW52y6PFqTKKtCmD1JR1lUWPaz1g0nC6thB0lzQoLPtR37mRvjpvIX38sO2yXmIrR/n2zTYeWPt6956b1X634I0V9My812nmvAX01AsLaHohMM+/toSeK75eKFzd0rtQOW3GoEn9uQ1crxsNL+Lhjfr3pLFFKDFug740Zsj6NGpoHxrar/d/+x7QUXosR5x33Vpcwk7CLX7YfezgWqaCgIsbT8fQYFCo1E0TgBgWB91bwVBRCmJQtqKUykZuXjQHOIAQrKBCCVEBuEO7d4W0dDl+RA5CaRdnB3GtWRXn3hvXY20aL6UrwudH2BEMM4wbnuNIb24Scw5Jf8d0yA5j6aO/vMcVn9Rff/ZvH6B7Cyv83VP2oIF9erytQtK3V1faesyQ2hfCfxYsWU6LlqyoVZitLLyM5atW0ZtrhDp1aiu+mHp06UxtbaXn0LWw2N2pc6c2+nsda958k86/6kE669f3O/c2DRVOmDK+5iMKCKvSem8V9wrrabNBakptO2PR0+GXzS5HVuOqo3Ay9S6Y4i41xNyrzsfmO/B6xYmV96jbnYW2SWPRoJpEiogz89o6hFUVUKNeO+dWgaePvAtLssfYm0hBudxCsYkhxKRzxJx3WP9edNz2I+mX9zzrFG994/z+oefp5k/+ii46cRc6ZMexfxdBKi+/rMhbv16J9w90zHjhNTr1wpvo9pkvw2m49fUtQ5dyve6bPtdlbyVJvbrJp66bDrCAJund+maRhAXXc/mzmt1mhVcJOzOk0odCLhmLTsATIEBxxuSHiCSvbyPKzyZ3VRiWqRWwxyDWKFYMKuIFOtioZEA/651J5AKJ6dENADuVekVPBRAQoDjqk4duo3ngKK1+WvvL1xYvpyO/cwO991t/pRdeWUz/isfyVavp21c8QBP/4zd0+9MvqdoFSxJRfvv0gROpVwcOYFP36dADPBVWNGpmmu1Tr8wi8MjTE+AyO1ozIU9VlbZGu/sQzS8fAMxWNm09hZt+Y97TBsEnAEzpWeNpw4gfF5y2IkrIgythvwkjxBQwb8KSW9JtnYoLLwDyEd84A7YWVKpa/3GzjQfQKbuO1b3migiyGSdeft9zNObjl9OXf3U3LVq68l9CwMt98bs7ptPmZ1xGn/z1fbRmjbjmDevhbdSvB52y35YURaPpexGfI6cdKcwOFRYE9oLUFdlElKXgtki3mymgmYBsM4ylNUediNbSO5IXoFDSCsE28vvRmnRF3JgG3ZpAQY+Ntc0Evn/W97KijBvKo9kKIDUJhNDIIM3TBafbZ0gMXZ19IvArVq1uXP8Xjt+ZBpWgkZmqwUZhlR+7uoiZP3/lVBr7sUtrFu71N5b/Uwr46kKgr75nJu109m/omAtuolmvLQmaZHyDz0Un71bjzE9TSFVjsFPl7bxKonCoRdofryva9D61/RCWGLNigpO+JuRooFHj4hyDoOGs+WIxrm5begIRXxjfzIuTa9tDwEDqS6OZ24xiI8PD5sIJNutt63uTia0UpDxwDp3dzlC8C4n2E6RUiv+lte39enejn542xSk/S6ORgkivLV5Rs3DDP/wL+tTPbqdZ8xf9Uwj44mUr6cfXPkKbf/xSOuy86+j+2a/h7A7pZ1T/7Sf23Yz2njRCAXdEqEAlIPFGsbPNL1slYOf+pW2xEfaEYspwmIIk+0zCQhsJXHdEMNG8DlFzXu08k3adUmqCFpofIcizGhjftdrZfLujVmYFXuhF0moXVTf53nJWFX2wLNJWU4EQJEVUdcFMswKpjr6+8PpSdfq9thpBXztqGzrrNw80Hy5zuMHr51+xYjWd+5fH6Ny/Pkb7TBhMJ+y+Ce2/7Ujq3aPr/xnhXvOm0B3T5tDlt0+nS+56hlYVXgss66RglnrHWuw1fjB9/vid1Pvmvb7EeVxrgVH2Kdt0H4H0rGs756gAh30lHhGoUtOwPrsUbBPFTZugxJMRwmwWWjhhm1FiWOjHFnX3phkImCsaaVpSP0hR0l4eGFO4emPkOlMdCQXVTZxH9sU1nXsBw+Ri7MIENbsgaZR5ZI7niytz5s+/+gZ998bpxKDrDgGQ6bVc98R8uv7J+dTe+TZ619Yb0X6FZdt9i41o8Po9/+GEu6S7vvvJF+m6qbPpsnueqZWpikEsGYBXkliedG9tMawPXXrGftS1s25hfTrl5UP17ob+KmK1RbgRBFjFjXnzFcZJeatrRY0MjX3e4kM7W1jWfM9ambLVpWhkty0mard7Lm6NbFaq+CIY9qk1I/goPZfWG/u5VoyYJsIZ0g0WGpWu8IT+5la8JmeC5ZHq4SU38fTLi+mVRUtpwHo6P/7Nk/eglYVFu+i2p2GzD3PMUlR/kKVF/MXdz9Gl9zxXe92OowbQfhM3pG1GD6rlzd/unHyrgv3ocy/TQ0+/RDc9/gJd/diLay13kA+GViqt0zBC/tdPHQzr5O+YMR+376bWyOJtat2THJXFYxj370el1JJ6kEH1m6rSsxxxoSWPe0k4GcQBi09gL7V13aPOGzNmGMl/c2NydQdPJnWQIxHQi2RKXg11UupNCOrUSgIim79M3a0cCxWb8sfbp71Qa+SwLvl3TturNszhm9c+rtF7ZECCst30d3c98wrdXXzV/zxyYC/abewgmjBsfRpbfI0a0pdGDOnTSEf990C0N2nWS4vouXkLaMaLC+ipua/TfcVn31PG2m8KCOFwHFslTPVvO4wcQL87c3+ovMrqv1uefjnuVDQKWNDecjPLdeeYKDwqOB/KczPGEnEZuWWWsN4eu6xNWrdRr6XnpP06KvfGBTPsi/VhSagZoSyU6RqjDB2OEOb6su2rqJfSpEZUh19a3pqEHIKIvg1yothyQEwWEVGW//zVHU85Qa8hncX5vvq+3Wjs0L50+s/vqgkISl0ScN2IMDqc3ktZF/5s8WWvuVu3dhpVuPlleqps7+xTxPk9urRTl85t1K29E3Xr3E5riheW46TKuHrRsrWVcy++vpTmFF+zFyylVxavwAKL1iRxXe26ScXwzPIEx00eSRectmeCsOvjz/fNJHnzTVjDDRHtijZWKyDKMifur62IdCXe7LEqFwmm50irO4WhJ4eUFBsvAsmWVRB23XVTi8S95Iis3moSCRhWPdE12NUKYJDmQD/m2BQCUAJ6DECxUArkkG8IETP3TPDzqf2h7CqbU7jwGw7sDffeye+YSBNHDqTjv3tDTTCJQ05GX24QeFy2jTl9z/IVq+nxeQtrX1kgLNdfbr2dVDg6FghVhqGcLyFu+eIXnQrFc94xk+nU/bfMyu6F1z8OhdwJL6JPTlo3YUuyNDEgmFHjoAOOyccJwqoPw8mGqdCEXkNgTChnVCUBr8FY5mZ6zea5DZWOoA9GHOOo8AFWtJDqmvLVbazzgDnyukyIAi0yyKdHdMVKIBDNVbLg3/vz1Oxm3W7cUHrwa0fTR/eZYK5BEzzCKSaMK6HEuPa+8lOc14QwmdRtDJ0fhTHobAhJhm4ZPhehXcYMpEf+88hKIb/l0dl097OvVEeEptmcwWQJzlCZW1oq52W7Shcy2BEIbQMiFUstBZP/7jp96rCJh4uimmLQqdhmxdANUyA8Gslem6hNBRaCvAsnQfqLAVDByLKxYfkx5PYI9lQ0POD8AkynovwFwEr5439d/0Rt0EDu6FXE6984aXe68ewDaLOhfZS18WXD4hVTonnNCDqT19VgQlqmDIt4iGA7MGpDTj+MOUgNmYtOWxx6dG2n847fga7/3GE1Kq3cUXbefeqye50sMzKsiRlmMLeMKR9WSkBYgQZo2J5gl76TzLirYCS157MCo7HJlGODYSvNFmxdZ9CGBDe1NLmRsEjloAZ4opzVCSyB4KwXoX2FZrR5TARWykFUnjFvOqLFqw9meHP1Gjrjx63xxe26xUZ0/7nvoh+evCsN7N1NxbWWwSX9cNV4xGBtGKeI2HRROSDNUmoj5efondlMtCFA+yUqjv/4vpvS0+cdRx84cFKte67q+Ml1j9K9z60FH/v27KrOhypENStxDEwRmicRdMERZ3gR7by5gGYWlnKjQZZsueSkESp5rn5xYZMyvMYnaFN7SvzgbpcWS2d+ES4LTVURZwTMxs4cILKoai4Yt64bVAiTVtSLXsKCGsG3hHKefbp3brhuf3r0Rbr42kdaEvb2YqO/b+/Naca3j6NvHLMdDenbba0VFwkRTAbXYZUABx4L0qkp/z2aGCQoLAOuqSoOS+d5l25xcZ8f3GM8PfH1o+lr79vNpSGjo+xu+2hhzeuf1atrp0S5GGbfOoe5K3fF9MtqEgoZy52cxxKBOkPjNh5VTMkRVRnqPUkwCLJeDw+IHkIjnGYYbIzuXAD2YYOYCgMRPQJZxwdMYIhnPMMcpBaZfEyIYhQ0Jp1NYt4zvnKI2Frig2ZoIm6TjxnUW13/B39xNz3w1LyW01ilO/+Rg7ehmee/h35++h601Ub91DNI/4EonZQCC7yQdJOkr7M6xc7Us5vQxrLh1MLivz49u9AXD5tEs88/jr79b3vQ6GHrt7wmi5eupGO/dQ2tSGbPbzqkj8NwhHyopUfHRdODGKZMUQmHHuAYcLGY+D3mzmQtQ6j70nrBXO3xioifxGMUTrMfPc0hIwiw4ZJhBou0Z50Jc66lyKklAVHptHqeO3K9UgTV9uqm1XSJ32XPhcIA5ng4X+O+TSfb2GIDloMIlq9cWzRScscd/F9/pds/dyiNHNK35c3dpXMnOma3CbWvh2bOp1/fNoMuvuMpWrBkpUdsJZ/yc5sh5fozFknTb7GZtyiQBNJlH+ova2M6etJGdPyu42mvSRtT187tbzl/v7IIgU447xp69MWFKu7aoojnSxYfoiArRGAgYVQjUi+Y4oBbDzDGWO5Azb8gPvXDIF3KurISAoqMizg4SRmTXX9EX8Ugj57mEl2Bg+gRvZIIewM1R4T+Ji/INgYSMOmCmnW7qIwOpv4wIbanJAKRRZ4GGOGPCQ7RcQOd2zvVeNRKt72++CWB4zu/cjVd9+mDaaOB673lzV4OOCi/ynrvGjHk1Fn02wdm0fOvLQWFIEYwTWchka8liBomRPQGTrMirvSz419lzv6ILcsy3Y1p70nDW3bN0VEW6Zz2/Rvoj4++oAG3QoFsP24w0bXTIJKPWGmI4owLIWzGpN7EhKjusyQln2BK6TWVEQMpv4hRW2w2g3wFpbh9rTnimHFmux1qOA7SaKmLZxP3qC21QUOrCw6ECY58DTchAfLDKFdPARoKYk/rkzJCt40ZVGBZx9M4aOsRdHUh6KmSmPnSYtrnS1fR1WcdQGPegttqrfxek0bUvs49keiJ2a/SbY/PobtnzKMbn5y/tqEGVQxSpqwZ5GJVG3HiASDm4m5FrLzH2EG0y/ihtOOEobR98f1vsdz2KAkpTj7/Ovr1A7OMRyL0zs2HUd9e3byANLw6sB+BkEPPzVBS2arHnPdAIF9O5JljKZUF0hJrvcscz7vN/SvKLHQtifJqp6gIINgQqcWUgAOowZUFhs45C02e7dV2r9k+3QZVLse5fg5AI9ezzr5mRBCCC5XJ2l8cNHlMrfJNETEWLy4nt+z02Svoqo+/g3bYZNh/Wxg2Gd6/9lUnY5jzymJ67LmX6akXF9CTL7xOjxVfD76wgJaXgw/QbDTGCDSykqUVnTCoN00qPm/c0D40foP1aULhPk8o/t2p7e3llXt54VI6pgh3bnv6JceDWCra9+w23uW/cpzolMMRjHfj+g9AAZJE8bPEHpVL8YPe7hQQ9OXBrHGxtJvSUJxZVwXdRztKA6TaJzsxN3X16qR5DFpLwQZLF1jsG4x/ymwXkR15P3O+KMRXIIlra3UpN9BqiDT8wL496P07j6Ef3vaUwgrKHxcsWUFTvvxHOv/4yYWAbvW2sqhuOKB37Ws/8/tyOOFri5fVBOjVIox47Y3lNSW0ePlKWlO4x0tXrqHuXTrVXM3ePTpTJ26j9Xp2qTGt9u/dvVZvXlrQTm3/A5Sv5ijHTR993nW10luXsy+OwX270QHbjaa7p7/o4lhhr6yYPLcfg1FixLBDWc9KQ80IkafEpAgsG2xLmQmPAjLR2CPR8xRSS4Yo1C3HYVPQKUIH0RgawHkN3CZL4Ifme6fWmSjRVNYE1cE+zg9jCDDgkIFTxBNWasuOGT9VvrjjV2ccsjX96PanOwC75J7Kh72G6EM/v5v+/NBs+u6/7f43xe1v5ejTs2vt662AgX/vo6yt//rv76MvXPVwjRbbtpbWH945B0+i7l3bm8hylKoBLqud8IP2jaMBt9aCk/hZMiGBePJGNsCcLWFVeku0F+uARcabWwx+ls4rTO+pDaW6Eh3iUixBRgHmLhvjiE0+kgz1lBvtZBj5HErOBMsWCeWZCdBLBeNqfawaDmt2Gr2Mwz+x76bkKDATjfiXx16kzc/8Df3shmm1ZpJ/1ePBp+bRTmf/ukalpVKgBvyaMLg3nbD35v4JJOigop1jPbBBYHG8wNnmzGBTm7w6rCVAeJIRVEdfxgm3YuppMGNWZMspraID8XPaAVDbZnAlvTklMwQ+BL40Z7sfwcx+BnSkmYlgAwiTn+9df7Co0cLOfONk0irHz0vVs+uqGW4UaSxLcr3/7+jJNGJAL42amm1R9nO//+LbaLdP/4ZuffT5fykBn/3SIjrtgutph89eQY+8uFAttDMaxc784Sl7NAgoHFaSNp4IHmSgEHP3gzi6L0YVYJDcFBsN3AJri5dY98+nRQ0SuKTAHU272fxoNG/+2zyiZ+IHJjxc2larAX85qNPXsVEqSGKmOoDqNlu8ISnYwZRvsEAzrpO1d9fLukVR8+Gt/b5sZZN0oSx+ufRDe9U2qe5TZtfJde9zr9Fe//knOurcq2t583/mo6SB+vwv76Rx/345XXzH07oIS0zo17HeXzh0kgIwS2yBgkyqJkTEnpxyFsG0BFcIxMGsRGeYBA/0YWzp072j5MkIp8LL7IZPrlmATKBq6HaPIPqYGk2IwIFO8n7GoJ2aOZ5QRKn8uUEliQHRXjjORhwSATnDgOegUPi0MpC951K/njmvLVFLUXap/eB9O9MpP7kDnkeDhkJXTJ1DVxZfe44fTJ84aKtaKq2N+Z9CwJ+Y/Qp9/y+P0A9ue4reLAUVtRzXSUKSx3PEpI3ok0dsp841t77OKHsQtDJnh22C4hQ7iCQCdFUqOan5z6X0oLjYNBqoMbF9CjlgOM2rh3l0Rb4gwGVGs44ICIkwpK11o3ajzZxrh7VAeAI6qMmTIG2mUw+JMjL5Z5eaSzai9QzKFz4w+1V3C+Vs9DmvvlEDmojgyCyXfrxh+ny6cfo1NG7wevT+KePp8J3H0vD/YdDuf+IoySz+ct9M+ukt0+maaXPBJF5f7ZIK+c6jBtLFH97HpfCmv/i6Sq+6xp/M2GHJVJpZolCxiiMYTeZAv0Y4EE+OYZi1YsjpIEFPOuVSiHXkH4QbjngC8pmZsbqErCP58lJJFoKN1rFaGLbuAiHUNFAca+0UCa0jkYn2kZSHiwArShIfWcqpNN1XVqvNe+0NGtKvl1r/zxyzI61avYa+8ufHMA5BZlZ5xzpMn7+oRv9cfr1j0yH0rp3G1kYSl2m0f9Rj8dIVdMfjL9BV9z1DP7vnuRqjbdQzEHmI5Wt2GNmfrjj7QOrZrYv7jNtnvKRGJqUSkY52TlNbzlJSPlVMIJOkjJWT2OZeTEc22UGgzUEiZr+DCjwJCsgYfD6adCxWmJVFZwvzg8IRM8FFzYIW3OwOmVSU1WXIQpJ6AI5NKq21h4PtyVnRNJKKaoFhZRyBun3RLlX5882PPk/HTNnEbc4vvHsX6terG33yV/e7ziatPBhGFdc8Pq/2Vf5j0vD16bBtRtCum25AE0cNqs0k+986VhVueOmW3zt9Lv3podn052kv1lJklnMPhcMwhi5+2H+LYfTLj+8HhbysB7jr2Zc9V2CStXG8gNYtz7nWnE/NCvDA0ueGeggQ/XRa9BJ5rJ5iHJNo2D2v5grW93vizrbDmIbzvdoEcnJ49hX+m+R8kNw4DpAVcMoFxFdEEXmGT2jCmewmZ2k3yuV3PgUFvTw+dui2NHJwHzr+B7fULJ32MnwMbwlN67+f+vzr9FDxRVc8VPv7Vhv2pd3GD6GtRw6isRusTxsPWo8G9X376aCXrFhFz85dSM/MW0DTijDl9kK4b3r6ZVpVgpAcDOgEWRSHPyWC8LF9NqGvvHfXWusuOspJLyLeUkeMZ67xI3CDGbGyCuXbcU2cLkh5gOS8nRtnfyl26AggqSSABRAwzpoSjo2gJ7sKttiZumI3UMFoFddwHvG2mU0S4WUQJ2CdAqzX/lL04FzNuu53jQYKuPpncxllQ8szcxfQqKG4QKWcBnr/hv3ohO9eTw+WwiqaARTdXxST1Zf1odkLCuFfUPz4ZOMNZWvoVhv0pY369aRh6/eszTovueB7du1Mvbt3rr23V+EJ1Fd62crVtW6xkmNuafH1yuJlNPf1JfTKouVFSPIGPT53UW2EkgVV7Z7gCHEmDxw1nmvxQ8mQe9GJO9ORu4yPFXvxvu9eN81rbMDnxgTy1hwDZKr7rC5UwaReZVjIK33YWZZYTAGZuyicsP0GYdk4gflrAdjE5c12PvZCQSV1Kq9g42XJWEfKu0IoKPeLGp8vyqvn3hNeB8QGIm3kr7n++tN2H0ffOXXP7OeWQvWtP9xP51w5dW1dPPh8NxWEArrgYNRu5FgprAXSYKNdJJm25BCq8eckk5Epfj5kqw3p/PdPoWH989jDX4q4/+BvXYsCVkfh7HLxmbbj7H5Gwgx4TSFQDEIBJHucA9la6dqMXBrw91W/PI3b7Gb2Awb9p6TVc5wm9ckX86TBPSp8cwh78rkwWiDSLCzkubPcH8z4WsQ9RpZvzhUtmLy/CWt+cOsMmjbrleym7dLeic46ajI98KXDacrYQSqXDIdLsgUHNUCEePigdTPW0JITCmjQ1xkYkFQ2kzsNI1WjBFSzEjEN6dOdfnH67vTbsw6sFPJSMZ59+T1+Tag56jgkR+LMrAC7Fva+BRgRO5PNCbm4yj4dS4uSgXplHJycqrFgU3zlB6Iykjuzj1XBDHOQfe+wAloOGZNBuGoybqQRQtdKAD1P0Fdr0yr2Btk8TEbwpZqtKFn6H9T6LpZjreMcH774lpZKWzcfMZCu//zhdMXH9qFxg3u7+V4xT594kEjMeyXgSBPBdQOCs6QRUNUcaskqPnQbjpNx1MXPZb36V4/alp741nH0rt0mtIQPXPDHh2ja3IW+OpMCDCXa8GjMsbMS1CTSBPPK0/c7JWPkQUQ/q4bh4gQQJg4nhLgRy0HDFq7qxvuvDaQj/QZgPG3WWseUqwhVBznSRxEgNci9CKbsgrHHYt7gSxvN6iRjngV4I6kgRw0GdTT29qdfpm9fcX/LQNcB24+mB79+DP3slN1o82F9tLsOQSKTakx4zFL5wyUPmnwQpvtE/GgsoXA+WLop7TnqR4kJfO6QLempbx5Lnzhs23BIgz2mPjOf/uP3D2rgSfz4asdnSL4fghmTnKTGoFkVzYp+y7VRs6+mhCV59VbuTJYnykrYcns2bpPr5wGTR+1zrsXoXY670DVocQDj25jBpzXiGE4EoxyoFRYOJzC+KfrsHL1ShAZLMNfNVk/BeNTGcW1M15y5H+2x5cZvCd0u33vD1OfovD89Qn+d9qIj8HDTXSviOou5hCQKJohl1mOrbEbDFihF4OqYgb3pE+/cgo6ZMqFWGvxWjlcWLaOdPv27xrAL+NwlAxAkD5cxJASZhiv3c27gRaqIwBrBuBumb0Vb/ipwMFyf5v2vLGL0hqAja6ha5gLQAwkKJIRlzMZpgx2m/DgdauFGVT89VRDqV2XdKDN4JhC2Ek2+9TMHFy76gL8ppVU2f/z2jun0o1tm0FMvLcbrIrrUEab+EOBJ2JpHVWUwjRkojF49OtNJO46mo3cdR9uPG/Y39d6X8+YP+cof6ZayQIZaA3lD0FhiaiU0mMbunxwWq4BNETxRNTIyUU4/EGwOEkkimY2anHtVXdBL1D0SZg5iamgSQOycGzVjUWA0jzxCN5jjBUKvqazQoopBdeBSctH4kD7d6KbPHPI300g1XNiZ8+n6qbPoqgdn013PvuI+3I4PCh8iUGYqrZTL1WbudXi/HnTENiNony03ol0234i6d/nbaaXKTsDjv3kN/fHRObEHB3jSQpcsZ/GNG8hYVjwxJ+W9B5FMWgJX9uB0D2cyW7mZgEAWmoLeYdGr4PrsoD0iOB44527CkV9VbmFuXjtw63MCHYYFRC0TW2jNrp9TnyI+vf7/HUhbjhpEb8cx//UldOfjL9B9T8+nW6fPp3tnvZoQMoD9IkARZDazj/894Dqif0/aa5OhNHnMYNphwrAatdTb0YKzaOlKetc3/kzXPzkvTvdRpmHEhhUoxSbeGLkyazAwUXIeUcY1SMMg584HzL5uqKFSIF67V82kK39YdRmw6JTJJyMllPGevGUmvQiUcQ7CNEVVbBrGW0lOOIgxHAMsY+UdPSAGo2y7FhbuNx/ck9653Sh6u4+ygeTxWS/T0y8uoJnzFtK0Oa/Toy+8TjNffYPWrJEwLMnmejuuvUyDbTGsL2224fo0blgfGj2kL206fECtAOftPmbNX0iHfeMv9NgLC7ASRkoKcf5RJg9eqSh8/QBl8B4OnIlQoVC1IuZchWmQCcnWYLCx6DUwDgXVrcTEFNdwSOCuMxpPnNMiGRCpEqAA7jwFC54tVqHY5YceodmE5xy8JZ115PY1eui/x7GggzfupQVLaGmhEBYvW1XbgKXlrF9XOQetc6dO1K1Lp1r1XP/1utf479bv1f3vwhdXHtc+8Cwd+/2baNGSlVkcIeeJIYUbGQjkgUKC0MBzjHAKpjxVFLUC8kV7TmLhplwkELnuOZCpKiZ2cujobTFqH1bVteCOE8VDBiDILq1tnLCMKeciUQbc6/hh8sj+9MPT9qBNhg+gf/WjVDjnXHoHXXDTdKi8KYcVcUUWgYLUCBBqK1jaTeYwQ5PDQSTDqJyt/DTZlVzYjppAYcaqw3Vvs5tW0KQ2NqOXgsWt5x8lG+4KnIKS5gxdxRfr3Lkt3Klfl9gprykLRzL3Sltt8bfEqgTaPwwJCjOS39lRSOUb7nnuVdrqU7+nb/7hPlqRMNP8qx3XPfQcTTrzcvpeKeSCnrO4Ck0rYGhSl5r6mOb/k/lyzrwbH9zxt5GRATvCOmrTNkU6nm0WFH2ZFKrk5qSL+F4M9TrRSiKtdUf5yQh5lsi9byGOiTS4tIp0xsOt4Pspr9w9Yi151BZpdg4UtqOP7rjmkQN60deO2Z4O3XEc/ZMQylQeJQf9/7v0TvrrtLlUteRR7UIIjBHASnLAcbRvqDrjkEXf602iKL3bKuBdBRS3khpNNEYTjEtQ91xM6tBQyuerETARNWMIUAwIJUtnUEkASLgd0WoqLSpMidrpqoAgoPLt5tlx5AD6zJHb0t5bjfinFfjpc16l8/84lX54+1N6bjlQuFVTZRxijnKH3JpQUQuh3FspNKIKW9GS4AdFSTnMSYBlYRijH/t9QahUFeqdzU2DNAXlBL+FuDwHAlal8bIxHxnFZLIC+rUBp55UPNUAY6iftiyBPfPALenwncc3mE//rx9lKvC8P02l3z/0fBijcoClwHg4TrBAj61lL6/KWlco9qpnnSvkQh5MBBQjZK+Vug4g6OjkBg1MNQ6RH2SIALcg3YHa++zctkjTV6ZJInSfYsFzQwYJ5+59kULgPchbcBk73tu/Vzc6eZfRdPQu49+2/Pvf85j72ht0xV1P0Y9vmUFT57yet0JV4FUAUrWSXqMIDK4ATKuKpVA5OAUhL+VCw1baUCvWAgo68KZheq2q9zXuR/crGCLxlb3o1HqNb5RjDTjtqEp4K1ylqhiJKhSDTc9E2czy+8QN+tK7dx5De225ca2c9h+VHfaFVxbRTY88T3+499naJNR0vLRUZSsyWEvsReJMC1SuEUeBZCSyqnqyhcMi38jLSy11deELGAlFmd6Q5DN8rXtVvTRVCBVlgBLy2i8CVHJ56gg7cG5b0mBAuTgJVSRxYBWCReVcSEDVliVrBTqOsqT2qG1G0G6bDaOtRw+m4YP6/K8J9oIly+nhmS/RndPn0pUPzKIHZr1WmQMnony4Q6ZIBT0fIuX6Rk5VNk9eFaNXKWzBoVtlaJvJhUsOGAYeRBabInK9Gr4EttWHEtAkU4AwR4vPlC9mYDMSmHx1YMh+wlRROuxiInO9ucL/KLwBwF5Vdx8F7iZKt6bvH7ReN9prwhDafvSgWtXa6KF9a7xxXbu0v20CXX7cnJcX0bPzFtLMuQvokVmv0C0z5tOjLyzIWhO0ptlaiKqNS3F1XxZ/qYi7Gen5iurKMNOT837J4z+CAOvMxNsQXFCz1vD1aUFHDSfM2XZP6Oa3UpsM47S829RK6Wbr9ek5FCRAeVo4J6yGisIUhGdEKT3K9BSYv48d1JtG9OtJQ/v2oGHF90F9ulOfHl2pc3sb9ehSVsK1Ubeu7TUq6uUr19QYXcvKueWr1tC8BUtpfvE1t/h6ccEyenjuQlqzeo33eAFeYxVwFN1VusJhR2JM5YTr2oMxyAh3eguPuSoMqwQEKb8+2VCU8uB05EGVgt7uNjeYMOo0INvxReKnXAJCUBEc7krQ2SIUgHoVKGtYA5BMkWkSWTKe6JJzq4NYL2X5SEfdpsQFglg8IVKrd7Yw5s23pB5lW2va2loBIGOes1xcy7mCCXIEHmIkW6ossPWWzG7PjxdOPrP+DLga28qmmYKOPrGTWygpkIoIFtgrTOKgOxSQoDLHYUX6Vgtml0dbehH1KiLHVhmBVdwcghDms+z9Mjl+LkDZohcPgXuS53/CZLSenx6OtLG4QkLrY1lg8NBJ7QPacUBcMZvOcvClIYyh1fM0qHAj+4JGMTpdWzn2N5sulrk31ATkFKV65qKuG4/btu/n2GmDBC9xP7mbWMrshMgBrglLjNMNqgKPdfUkYJcRNytdnPKPtlREv+4bsvRQizbKxDVuo4recIhPLVca2nD3VMxj6KsMHZB1DVIy/cjqNrwHMWxRiULjdJHNJm+S9gk5ei8G1jDaaLast1HOKT4bYDW7ICXBflhgMMxPeV9mlLVlI45ahTlRWAzvnbG3YgYDwpibM3G2+AlOlhePzJhvNxvQslUiTJmr/PPm/UQgnthnl5BpqrJxwuXdYhYhmu4NWNMU32G6bs7IpYIueSWprFvdMkKlTwHJICUkegK4qxOFSPa8IlgrSgWjbDA3S9HNMUNJteGEkBF+o4E9Y58ot3zSRv1oyrhB1Klzmx6CB9yxSKu762e81k0uM/AhKcFkIvkChssJ4Kmrs7s6un7FVMl6MK6VkeLvJU6w5/hBNGHIem4DW+WEokq9L9l72KxpykL6KAGTWMUYH1OXzsYj5ZxXk/LHpcskWll77jdwHmvVmzNZjMIVF9q1IzeraqgAnPnEcPoMDuXY0uSyR8LRlFUA2SpPg/PAnR0y4MY8VQzts+6r7T+vX0OqxLbYoA/96oz9aGwH08wrC5fRR390M/36gVk+hjWyJqFbhp9Nur6OX9MOoUSuKZlxUy7rIeGi1p8TK5TCcMJ3fPAZ79iUPnvsjtSj61qiyLueeJGOPv9amrdwuTIIDjRjHNcjhN0ylbt42t44Y4DON5iZbBPrOWowjRqAhgLWXTKcjGqPU3NgiWe/jeaj58w5iCMU5pD4VIJcsMANTeeaq04v8i4MBCeA9kWTMEKGTRveKipeW8rrXcY03o9wl17dO9OVnzygIeTlMaBPd/rxR/ahcYN66zFRNpZLhVUSS2K6qNSEoCheNzTRNsRCVhfxwVte+BRMslzxkW9+wBYb0Nfet1tDyMtjx02G0e8+uq+yzAo7MvcZCXnKm67Ch1ymJMp9i/f+xNCWW5yBOdI4WGk0Q5EOznfLXCzYs9H7TdzQSiQnbRASZxB/Ws5n8YMCEYKaTr0hI/ycUtimI2pT5EuA5TEbGjLY5thSxdMDS6Mgw2t8C+A0Blgw/qz6Zf/wxF1oo0F+9HHXzu307p1G67gOhD2MRkolra9us7Of556aGyjkAQ2xCxYFXWB1bUS6ZuVnvXd3PH5p+wnD6POHbBkKIJktgZ6hLrjRw97YUl2beWrOU4+0IlEYutm4OHLBxUUFHZzvyeYW8RiVGOpt61WS8VbZWXSzMJVABUAuFcCGyPLtAHeSpktoBJnTaRxJD7lNL7lhDxLgA8kCMQdpHlSVBa2G9gCQe1D+6d2TR2Zniq3fsxvZjAcHAEzkarKHMQJk0D9Q1bOcAJdWwzvDLEH2A3iFLoVaejldY173fz9iO5o8oj+OzSueixgcxbrrQpiXn1tI9ZEBQ4kwjzy5lLP3zOx7hTBK6dbdeH11s6r0QZTpITOpxVlz80CVVgSevRvfwzgf2ExpeKgRuf+he0ieMCKdFsTkUxwiAeBSUSRhkecwtCi+D+3bnb558pTsOW+a9oLbaGJcbDfix2QnhFBcydCDsRNx2GhoZm0V6ydEQ/y04HE4isiWmZX/uqOIx6OjpLX68Qf3oi5dOhniCIQ1gAINwfE91HfWK02tJgXYhVViHGQTGBgCe62IvCKYZSLGisPsgHgvJj1fGwSvgnyIm00mepKF1VbphmSTIocjmak5Gw2GeCAeFzQlg1PlIzh+54zmDjerRvzFouwd//7Z6XvQ+r26hRv65odn0++nPu8xG0MZLJKpHYjqVpCZZ59OwzUEFTPjYZozWQ8JLiZ5Bt+47nF6+sXXw7UZu0E/+s7xOzQ2UtVjYeTlBPfnvT1phI8MwhFX5CXhFCW1Luhz0vDCjo3mTEYhXUIVnqSYGawN0O9v82Y5uhPjqqDqBcbaDcWT4mJkbWFEBCNnLt/KOq9MBOFmCXKBGi9AyBprIRDtFLGZeHfW/pvTlC2Ghxv5tcXL6b0X3hS6b2r2V8dGFwQHm2t144GSGWFO7kGogzYpkxmxJIQFivw4KFWrkOSVV65aQyddcAOtWhNTaZ24zxZ00MQN3FCENHRgzqSFgzJGawwbQmcHhFoBCgBqV7wUwBppWIjKd1UFKAIMGWNHaB9HSr9NKwB/w47zSjJzn5ICEzV8j2OtpzSb0q6G/IGRiyPOfVXWCORbCaS7wcBYRBmWnMObuvKfZVvpp961Q9Zl//jFN9PcBcs01qD4ypIsBLMPuBhcn5kyGmYZOS7EsMlySVM+adjCwHU1Au7ObdIt5SCKb/zuvjhUKk7y/VP3oH6FVyTIXRZQGJkplMRpsuoadwYQfY7eKZr+667NPjtQq54ZXuvxJ3BeY49MwQww+S5j4/LcnAwRwJMXGqSOiCmTPSgGjRZ0LVnFtxKhxELhdFYb48HMCJMvnbUbvFMbXfKBvbKTSn5965N06b3PuXhWjRc27bUpQMnA+Qq4K1XoI4EX47IYyTOlZOBiFAoitFAi5cHac/rslQ/TfTPmhms1eP1edPHJu2LvkTG7UBomsgn5JMMey5l8vEp4CxZalKLUIKRgIFHM/hKtxFCFoFfgQfqNgUUP0+iCXfQ0LkYkiSQml4kEOEOhzDmBRa5Z6sIzmJ7KGURYPHAgSKsw8BSSWP3cI7ehLUYODDfu8y8tolMuuQM8bFFYAqWsOgBTUzl1Caq97CZFQA9ojNF/bxKEhMNrWAeQLq1qlBSRLst97wU30hvLVoZrduDk0fRvu411mgbxCaSpXpR2pMDVV2W1kafDJkwz4Gmqi3w9A/uMDurTZfOVidQs8IhnTOp3tFHkpkfCKIaPlslNrSRTHcYG4GDwWZDowwoVx266EhZqCizbJGzG92GQwiL0frOB9hw/mD500Nbhhn2zeN8pF95YawdNN5cGktjRCNt520xBQUREvOYADbN3WU2N9t5NC+N8GwCR4LnqutxYn2fmy4vpUz+/I+s+f/W9u9YYc123XwKgpYoPWXZCeEKgIF09uoBcFdonli4aAckZEA/lxSCxSwokEg6F0TNpSwUcpk8cMusbjxnIEAduilV2QjHgpiwbopZyYJDt7GCjmRnH3PXKpNSVte4865RT/fflvO8fnr5XdrLJ9/74UG2mWDTI3jeFCdT8to4IAWTqvpQXwgpTEZNOEluTSYI9LKP3JJphL75v29UjFF/fv3k6/fWBZ8K1692jC/38g3vCxicfb4vzVpArr2aem8yEe/QoS4OwAcTTThjAszPsnfLmimxK4nGxvZagFbiNzPO1deposAGzTx6w7QkONrN7DSp9NS2qDrxLkMg6gJdu2KphEzoFW2f9MDfNicZL43/jV//gfTvTcFD9Vj8ee+4V+sSv7/PAZW6Wl4VgTazDGTZTSZQWNBRpw4lxFzXAx3o9GfiNDNBiE1oE2S4VAr3voltqo6OiY/L4YfSZgyYafIQBPyBD4NIqR502A8g+Bwg8UGIpLisC4m8T4kmUIciwh1qBtgpbIg3DFHevNWtvqWLDEKyAswvFRui8hWZcBGMYFtJOqzRyqINHDNFoduBJPT5MUWU4TJF08QgD5P/Y7UfQu3abEG7Q5StX0/suuJ7efFNUKOOtgngwNKGcjqrnYOdgUoiU7YITUK+N0GxUaGO710xs6QBBQVWTzVLPVxevoA9ddHPWhf+PI3egbUf0873twHVMsxlMFdwTHJeRsAlT3GcaTAD1xAp4flSREmTyBV/ps0GFUWJaYW19SxsMOxqxdabCiDQIIgD7Qb4H47pNZwXcKqAWVvaxo4A4ybn8Js0mYmryge8jpmGjrH771kn56rcvXn4XPTxnQeCv61LGqrxvSlSRlnkyY9DOs6MKqMQSnzhnzN0nqatr+s4lQHvFgpcdC6wIFjtO8Iepz9PPbngsXMuSCuuSD+5F7e2dwj3GtiINEHtGuXb36CUWQFsvjwyLw04sth3lzCNQ3KKQQeoYtsK6PLqgeFogxpNuNph2SF5sS0fVBheA86HKDRCvc84NMkVkArpOUB6aop54A9pdctrutemj0XHro8/TuddM88AM2jgZBg8m7EYy6x5nCzr6El3WhBeGxUY1dgg5thEX+4sXpAh4Ett4Ug8fTEbl9J/fRc/OWxCu6fgN+9P5x25PjJYq8dLEWJ1oeimTT2+p15vtbTMJyhvL9YhIHjdNU2Uw0cRBfi2TteK08MxZdMPEYnPVZFIYzOyK96M8N9KqHKUTGIMuzHHTh0v4W7omtosmLpbyuXKBiMkZ+25Ke265cbjYC95YTidceJP35CSy6BRWJSLgLQRKxYCSUbLdoE5iySdU3K7biHUTRcDCyjjBIaZk2oJQK1euoRO/ewOtXvNmuLYn7zex1urqasBB3YHNRaMuOwaYgQudQc29GGRN8agKhQ0ZEoBm6QtR1g0i/5bXIQBJfR4dkPulT4nh5MggArJCI75fW0wzAuSkQ5vcpFYIpFegAiMA+aMW2LR7zpT9lqOTPn/cTlmX/eM/voXmvL5U1RGgKkFbNOOsOEh1WeCHBChnatYWGBjPS1uOP8zG5cgC2bJoQ99lyRkAnqe0wB0zX6JvXXF/uLblEIsLTtmD+vTs6sAoJlCWmtCXQZyDQDqL/PX6bKUoheWyYAHpCcJNmnzx0FZl3SU4y8RUSvo8uht+ADSmKT1VueoMc6VtZhEDH1cyK1smDnNzSnaDWkTUAOPaqjMX0taJ6Sen70ndMtVvv71tOv387mcbi2wpg5RCFbzp0/VB9QI2bwwHSZjKOPUc2RSzoNw7g5DHbT52lXW4TFqHhbYzS52r+N+nfv8QPfT0vHCNh/XvRT86eWcX2kStGtYYCaoJN23MFgvy5CbsUHbr7RBR5cZOcSMR281oBD/FIIz7mYZyCMxvs56y7pDBXOKUlmxSHKcRyBKF3UhkGEIZCIApWkHTOlwjhnngmOTQdt2JSwuVP3/1yG1oq9GDw4c255XF9G+X3IEVhwGoyIYTglF0ARtHUSVlairEYC8MeL9904ypekR52UZcKpAc0VpCpUwyFYtpWvQ9F9xASzoKjNBRjps+aZfRuFGEfPu06rDLpSeDfKAADIsDKi53QgD2SWaPIE9UueQmwR+yTNs2VYdTodiugrIWkttJ3GUUpXuY2bnsqOglnEeekFcq11lgHQymbwIWYMrYQfSRg7fJXT6ddmGxOZet9KwlmPeo0vVW6DaDikKJGxwEKIr6c4UKN2ISAkCfc50kALYgoSFMxihXuHz9jPmL6TO/uD27Zb5+4hQa0b+nq5dIU3koq0BRZkjikNEJNoEWaJe9Ik8RlmY/zB5FAgqZ0K3cGb4GttdAaT+6FaYgkQ+bBsiPNPI14eLQR0tbnC2KyaSQXAiZFPWgZhznG9nziEYvu3drp4s/sHe2+u37f5pK1zw+L1YgRH5ch2FAcYrdEDo6bj02vfGA8jkNw1I/2wsvZeeWW28O57JFp7os9kF+c6YBsV277944na578Nlwzdfr0YUuOX2PgImUDachygqZtUJFPhEElex3EZ93F4nKXA05Z9oUJlh27LpA9h3xAKJnmAEtoGmfNkq/SAeZHRvgx1pNSTcZB1Rk7G9I5ebD2lHyFULRRBMAojiLJLhL7cITdqaNB8fVb9NmvUIfv/web4WRUrPsDxLFbBTQDemMAXO+Us5TFaNSQfapPzN5hoMNpLCapMzWIvVufLbLI4lOx3b8+cSLbqWXFy4N137nTTek/3fAFuoc4ZgniUvLJaBrjqYLoV55iA+JLasWZ3AsfbZ3dQMWUoDF2AcFa90disjAxZUUFGA9JCAzA6qKgs7eExN2mTRZoi2gF+VSwXDB8H6xfTimLfCobTam43bfJNxoK1atqVW/rVktDu0UUN/vXSKBnWUcpRmTGuVW5oZxpSfEyq2PNrXY6Som4NSTQVghvtZrxh2GDAGl+YuW0RkX35K9x7OPmkxbb7Q+QRICAsJFeJ8iMItYu9tp849OJ4o2dILqQdhNnIE19I49h3E2yrIEA9DV1bqrnmuAaNv0myfoZz8tJQBarIZKFQyacCRmvI3yIoyPKAEoiDAPMbG7dWzKiaXffn+++u0rv7mHppbVbwYMaEyhAe6XRW9T5DyMHzMSDNFsAnzwFOSJWaPxocpoyJHvYBKA09h6KrXe0B0Gnkzxv1/dP4suvenx8MrKLEhZNdepnVWJraR7JPCy9FoLrtFoKG1RWQLoOYmPj1GWQTcTeTzBjl+CY+G4mZZzY7+Me91m02lW0lH6DLKpcjwKzGVgTQudVSgOC2SNuIdpMPECH3hwjsNOLW7Hiy45dXca2KdHuMHumDaHvnz1I05wU3JAiSaDRGCaGNCNKfYlbShCMXprQ3GRqO5BwkmIrDa1xKCgfW45KwrSXC4NVHw/7Wd30LPz46q5TYYPoG8fOzkpumJfUARmq2vgsWIMLHNMKg96MaK2ZuXCm3BKMvRpSlYTA5t7i86jN0gJcf7cIoHeaoovxBc0ddRbAS/k4q2vmLQeknNruSWfxktBrNRjqF//x/bZhPaeNCLcWAuXrKD3fv8mmAFADxfSdXGKd+hNErOMsi5zrbvV0ZMGI4JhCWk6ZBN5QMGYJ0mple39GWvkePIEWFUGgxCLvy5fsYbe/70baU2mau6Ud25J+246RGWBIOcdAVIKMDnYCjSDuFiVW9sagqiJKS0DtiXPTpBIN3UlTWB2z7r1RJxxkgTlEuRd0fwyVspA3KgZhVAydiG1DmAI1jmy1RR0MeknOGnUpbsEAk/l38YPWa+y+u3MS26j2a8uwS25ZiMziK9c+SZw8zw67ksvc4SAKIayxUU27ebqEgzIw4Dr3IFBRmGL6POpklLxfe8uDOhQ8LfOeInOu+qB8JmUVXMXnrZXbUKOJB01EpVpmyL2aP2cIXcskwgMCwmKwoxPGr4wAlAZ5+ylynO0MTq5ec86HqCMt+ymtYA3Q7J8NIyPtYtiifJdx1fUXBHkMi1JhfLOihX56Qf2pB7d4kEDV9z5FP3kjqdx4wkiRRCtmNSGYbygkPYXupPeI4tcYgk9D4bAnXNBGYCFMLOw9n9OqYCBG5RQXAsKEcw2Ovt3D9LDz7wUPpsNB/Succ1hE0xwFDKDngzE7Gq9MliWLdrKounIDWvPsbeQKkc0aosRiMUxsONLYCWTqnG5iBzrJjvkWOAoWsE5Z+LKajGE2HsmE/FFHUQhl9p/Hr41bT1mSLiRXnz1DXr/j2/D+XJQeKGRctFdf4bl1Q2IkKDvwNJfiWH/sZVYQqGiTTWUAEsTbmyclfVdYJTJDADeOjcdzHgQZW//CRfcQEtXxFVzh+80jk7YaRQY5Y0vKGI45wCRhyO6VdutxGnkNB1plLC6dzsY0rQQi0jcrw20eZsTAs5YG1Cuoy9Y4s+z3UGQ3lKihrHQFbID512MnnTYCXpgiUu365iB9LFDtw03UMn9Vla/LVy6kloFxZXybMRl7C0u+7oVQh1YZPKu6Yz5qL49AsaAu48okdra29zrIio1lTpj33kFS0Q5cF1BdVj547S5C+nzv7wrG1p948QptGG/Hgmy7YXYufAUsCRJnOFAhUpk58qnc8yT4FoMkNreuRNFA168smHt0ruS6oAcUpMaGApi6+IluUU95E27wyWpn1g6pgwqX9/AbmgiqNLDFEfec2gS5WHXoH7t5SL/6PS9qL1TW7h5fnTNI/SXx150QZVnrRKtCJnCbIFE0zZNtkOQJ9Lxpn7BVJhocErqxqc4C+ouK//etxbzekmt6H71RSSwJsCkvez4J4R7Ff/75rWP0w1TZ4XPqm+vrvTjU3ZPHCdNdiFBqCTgOth0Y2GCFHFAXHMtOChl1Up1dP+eYa29twI6bLDraMOxNpSGgVTA5Kse0KDj1E1av3tnUsUTBgGFTCgAFZUo1ZSLy+3eCkby1o9Tdx1Do4b2Dc8/fc5r9JFL7/btpAnTrZAFJxPee+AKopbFVGkKoEKyZeblt8E9u0DXFCkKR9xh6idsd1xtllzvbh50kwyxZ67KC+EZQTrUpZKMB3DiD26mVxctC5/Z7hOH0y5jBirJ5Sh8qPRdNdaTCj+DOFYkSNOR7jdI9faAsvXWTh0m3+mpRnmrv7Hj1Nfda5y3BpFysRvTrsq4Ies1rbnoajGbshRrxSjDbilgoEEmCWlZbn1vOtG4YbGQr1r9Jp3wnevozTXiepYVm2rF4EMdwwoFxCcW1YLc7ekzGD2otx5wyb5YJqsgg+EQ9V9MKJ9jRIhO1dNSIEsKedfe01LhEKf+p7kLltLHKqrmJm7UD/Pnm4ahyEsJi3vsQ4jG44g3kAzKzcvfjRnc2wOWMD/sO3M4vRegpdpyewFR5DLIxzqG147XTBzeP6EPArPSrbZOAQ0KKoOEIP1xmoaxRAlOwAH49/wrb4Sb5Su/uZsemP26jznEorc4LCCjoMhSR2fqAmyzTcp+U7//SR2jhgl4S3YzOMDNWnNQRbrNqEEBNxQ7AkSUIrQXp5Slaeypw8y2YUoCwPfye5+jy295Inx2T81bqDez40AwRTSmYCiaHqzXUEBWKI5vxKD+5b+3KAxN3x5dYc0BIXASzcAizs9Hjzxim58Tk6KxpAq2BHNM4QoP69vdNwxw7PFxsMBi+9QtoYNUuF0ZQKp8ww9ufarWT26P2x59nr74x0c8BXaiPVOL4fL6HI9HcrUGQnnCAvaJ8Mkb96/F6MxBfUKykOKKXTzgh4Rq+7GDqb0OyKEuRQJeEkiFMLDS7FpC2adLTc28trRCp15yJz394mtuucqRT9c9Oc/l6YkskCAejARsOZrm2WtEV3nJWIGjzOk7J27ooxakJFLwNWfoTVVrG1ktn6GPQu4JAonqC1MWMByz/ShKaSbDAv58U5fuUwfNJ5CoIueumustRwPt9YUr6c/3zqQFb6yodUz95LpH6cBvXmusc1JDbc16il+ImQmXPmTvPWL/OeNv19fh0O1GwBBLEBoWFEClxIQILezVvQsdudVGjfDAEm42OedM2rVDGGCvvZ0US+SqCH1HoZhmmrUPr0y17fPlq+mqu5+u8fWVHPE/v2EaveNrf9YsvoY1wk0mBd6JykAByD5F2W3FpZoYAx5Q+oj332ZkbUW0Bye+JNi81+4n3YvevMf2dJURjViOEaZxz6wr0ppKX+ioncfSf5VsqLbbSvzsdjZgDxpyoIaMdrRGIjcJNeNoPjiP7j9TuO+Hfvs6zP+VUPZYVhZXRWYu1hWOEC791LKpBxRY6ysdWv2oncfTVfc85cA29ZlCMN+h6t5TUFEs6Cr0ninj6fL7Z4XsOWv3gS/5FJBhEVNQ459xM8emUXg0l3vte154fSkdcf71ZoOk1wZCxuRzBLGYMGFACWFMtqSV9LPShB36JaMH9qYdNhlGv7/7KZNDZ7/n4bOzWQkhy1bYFklxSr1kWU3Ip+9cOWrdSm0zdgjtOnagH/UEfBgxaKVuxROIpEfWTGCdsmVYMQGqtRhkhkmkYKJghaUtJuu8rAT8ZqBYRCiDhnb8fPQ2G3f0yXNIeuiqGlO+PanwGBITsPfWo2izoX083ZJFmS0/gOCsoMtJqwo4VqXCgrodbUhpQgM35ttwhaecfLCWAFWjBVWMYim0DNccp1kf9vvlrAMn1rxfNn0QylsyoTIawqncAdYVoG0UIKQCEFgBEy3t9Eg2gFp5nHPEdj4fHlXDgAEAFmiI6oRzm1V1NInOdSoGByZY7cYtApYonE4fOqLgYusiIrOYKuCOzz3zsG3UJ9vJKy5NyvE92N5m7UAIleQ6Xzx6OzzGmAg09+vr50j5OtRadA0++YGBqEgnYl21CXpbqyABGYVVAI6L0Ia1aP1NrIyez+iBvei4PTaNMpQ+TSogzWciECZvHNuSUArwnEvYrG/rtdXMNmMVd99yOB1WxngUFO2DtJcD5Vh7GmpvUTz4NZ0Yija2Ky4Qn79li5qTq15VoJONy3PttWKyDrm8dPqn06eMo4kjB2klKOTq0D19lhdC63I6coqOPx40eQztt9mwMLWW1nzbyjYJ3F4XEpshgAwamizzEUo5BgNIw5FToYIWHzpwkA5VnAnWixKs2L79np2oS3snih+TuKGnHOBQgrSVm70mFbO6EmvKtlBAsHYv2Vfqx7dP3q3WVWRphFONh+ZB2yYKxKojOWshuEEhSnuk7bBpbt4OMBBXK8/Y9TPttc5nBlierROwgMsGfbur7jq7CdIwyqL8Ea88dBmBojn//VNqE2RhIwjgfguzCEaZ5l7GICVjuSzV/gh6JFSNAaKDFdAJxkGYEE1PRfUUgSdy0s6jab9tRzX+vWDpCvA8OGZTDkqa0f5us6knlSdMy2BBFZMmyff96EuSxoNh/XvTz0/d3edZE3QwdMODJoTMmDasuEwtvQBkDFEtiRkXa+uD2EikBFTXBFBeO1SFMqFTvWzysg/vTX2TstelK1eH/HKcKf6A+W9QYpnSLo8Y3Id+espuQJBE02gDT0xncximVcV6VeznsiuhNLUYrs6eyLGuCoq5xBiyKHRzboQfBZ6SSjhj1WHUNhnSh75x4m7qY5asWI2NARGcFecyOSDEU4IuKYhGzWoupB1wasYvfnm88KouQjlw+9H0xcMmOaZLzoR8vopMwhy5Bcd8EwtjWhtEHCA+Jcz2yRLpSSBKiMVTGUeFVKiRg/w8ufLf33vvjrTjJhuoW3++XGf2Hg0KpZgyM8IIsfsSzXlZ1xccssNY+tLhk9wbYabDpdZFDbawXW9slBSuNDRxNuE6BfHpeXiSEKwM07LsCo/ITDoVUKRf9wT69OxCV5z5Turdo6s6/4x5i/zzR4w/rJVK+kc1PTpRWm1phGpTNKjhImwBZW/lHpvjixjOPHJ7On33ce5BWIHSBBZsaIwyJbpMWU0IidWCHLVyq0EJI6ptT4vFU8QehSR2BJQFG22N+6cPnEjvf8dEt6YPz34NAnAuLowaUoQUvqAUefF92vOvus8866jJ9JG9Ngm7wRAdtE3Nifg1dpWRSaWcHczIaZgUFKs7CnEKKhiRy2OUs1hgiPS4bjueRvWnd7yne9fOdO1ZB9CoIbrkelnhlT0ydyGofWDlDdjr1vUchr4syRK1WcvhkGKIKEqo/dJ1umnGS7X+YRUrFO/5r5N3p1OnjHWTLHThBj6vQyMTjYf6jhnEqBZYgbTQuHbExeeO+y1BiEU8KsoUo+qK2MA0wvzH/lvQZwHrzZLlK+nuWa96oIYJDk4UwhNJ2GQ30uu88fG50Pp//aTdapRbqirQhh7BxkRgGB4twL5WwrL8chDsG2vvinQMQGiNlfMSDFCLvEiVhzcZkb49utANZ+9Pk8b4aT/lCCp5U1wGwuIfiLdMje+Cw9jQAAfKzGg2g9vcuGSjDV97YwVNnTnf3VTZCnr+KXvS2Qds7tkyrYYOXUBgYV17quYQRyWsdYScoxDFcLqpZ2iKb9ymddNtxI/ENSFD081sphO/ccx29IV37wyF7fZpc8pG+YR91tBYMTlGDjaoIgPENiU2uL/wGJ5/aZH77FJpn3viFDr3XdvFoQC4Ryfk7HPEFjh27CwIcnYTTBiStqOBDbbewXk6iXTnxqmxDWM6rmFEv550++cOpW3HDYXvu27qbCB/7MNaCYY/ijfY6f21oSA5JAcQz4KhgDwwXeK3dz4Nb6zcJF949y704/fvSp0KwXcbgHFuMO0JVsi9SZSJTa9ZpdwQJMbYQOJhsBnJmwMBmXOoIcM1dhWwHX8s0e3ff2Tv7CioX93xlHYXkh3bXBf9N1X4xTkuq2ZI8rs7Z4TXcMah29KVZ+xbXG97NN3B0UQ5zMXOEIi8KxHlgks2x4SVNyR+zSaxBadEKWbHSXGbd2w2lO768pE0fsN+cP3KMdE/um2Grq8HhgI2lBEOz+y6taGaBQJCh3KAaMiCtYwX3jqDFi1ZEW6Sd++5Gd33hcNo4rA+vvaC8I0qMCKwpGiqpbMkwaRQgQoBTxe1FXK22EKx73AAIYhVQkQ7jx5ID3z5cDpw8phw7ea++gb98r5ZQaqFg1FQrkLUT+sExQzfvGYarUzSpfbYf7tRNPUrR9Ee4wd5vIRzCo5VkYyyWng0qmMQdntUAho1E7uLYOvnLKcJHThICem9V1jjwoCde3ShBM8+iAb06R6u3R/veZrmL1yuarZSryytnm06YqKVonisAKPuXgkrACAqYVRuJyjiX7xsJV1y/WOUO7YYOZDu/MrRdM7BW7qRyEgAIdsr4xwtBTOubVynNg6Y2IqUjn2B60kRXVnOwCRYi1DSNn2zcNWv//xhNHro+tl1+87VD9XojxHg5ZpDSI9Lcu4q+TLLNMyZu3AZ/fLmx7PXU6be/vrZw+k7796ROpe0SOh5wDX0PNRKYYLpuGTWOTfSK6VIdtWCmfZJSaZ7eBdaXCdfalQnjxhAU798RM3b6ZRhLSqt+Rd+/4A6pULXRQJrzbg+wN6jAIsOR8XYwgAhzI9tKKPSCz7nyodqHUW5o2uxMT59zI507xcPpSnjBpEIJucwmIgrXeMEbQSsS8Zk+7jOsnmgfpCo6srmva2CSC02AW7wd24+jB75ypH04cJV79TWll2vmS8uoP+6/gldy21cE8RiAgFmBik5QGtz1m/up9cWL8teV1kqe+r+W9KTX38XvWeHUXgPEcBMGADADWyE3T3aGgZGfIFmMAnIRhFkGbMcikmdh9oj7OP1Ab270kUn7kw3f/Fw2mR4f6o6fnbDNHrshQVNnWGqCBl0QrnZbZTHymq/Lxez87EXios9xe/qVPFKxsqhIobjJ4+kn3z0HdTKUb7vT4U78x+X30vT5y1SYFdVC6q2VOK7yzL3Bf1ZMbFgrqEHgIcALHb3MWmj9elrx+1Ae2y5ccvrc8AXrqDrnpgXzgS38Cti9wnA//Cey+PkncfQhR/cm1o9Hnx6Hp196V104/T5Jn3BBDA5zykveQ4xW8HoKvYst7gZu50FoClTX29qINrbO9E5B06kDx64Fa1n8uPR8fzLi2izM39Ny+qFMkkhkdqmYqm32Q2bELCW9Zevuuw0Xivox10onpERoMMZQXYFEcWPg3p3o5cWLW+869LT96Cjd5vQ8iYpY8Ir736Kvn71wzT1+dc9ss7JpgYP0F0v6BSEBV6MHzjaM/CB2HOgNtnia8dRA+iTB21F+28/htq45WWh7/7xQTrjsnsb99Cze2d6Y9kqJ0hu9hpozYVhjxGsvj270IIlKxuvv/xDe9ARO4+nt3Lc/eSLdN7VU+l3D80meZMyCspLGaTFyikrq6SD9lHY/gW8D7EPO3ld/15d6cx3bkEn7LUZ9V+ve8vrsapw2ff/4hV084yXGp81dlDv2lx4l9NONq1vWyU8cDO5v1W/PI3bGwtU3xgM2j1dnCuUugCiJKhpOQb17tIh6GuF/30X30YTNuxHE0cNamkxuhTu/FG7Tqh93fzIbPruXx6hKx+eo2+M10afkjeofpAkU9ynjgpKQK28S/8gQTKaoa2Q6GO23ZhO328L2mHCBvRWj1sfe54+8av7lNbv372LEnRn1aJwg5xxIPGT8qhv184NQS9P/d6LbqUxQ9anLUcPavm6d5gwrPb11Auv0SWFu3rx7TPp1TeWN/u1jTmKsju62YBdj34U6yML70k6WCk7R0yRCPmuowfSyXtuUii8cbUhj2/1OOuSW+nm6S+p1HKvru2O/VhE8wQIE+RPdArLcH7XLHqXwqIjzW9b9OqbCLrR9gEVPxy4xQb0p0dfUPI0tE93uv3zh9HwQevR33LMfXUx/eHup+nim5+kR+Ys1OFEC9YJvq7CRSNKy4QTggHx2pbQBi03+sgBdOKUcXTw5LFZBDZ3PPbcyzTlS1fRoqWr1EPcc/xguvHJ+aEXJgHGwLm0UvKrsmOtRnOdnHBo3+500zkHVwKGobe2eg3d/PBs+sVt0+m3Dz5Pq4t/C/CsWgmLnK9uvRk0djvxPCNPzq7jiAG96KRdx9IRO42lsRv0o//P3nXAV1Vk728g9BZqIAihhiJNkN5FuggKKsLaG7j2rn/dta0FXREL1tVVQHBFelFEkd5BOgkQQgsdQi8J3P/MzStTzsx7obguZn6/y3u8vHLvnTlnTvnOd851/HPMYjw7eqmxI9/UOAHfBrMolOvhsDhteXb/Xn8jm+7KxGs3wWKiO/mXhdbqWgdvTl1tzE3l0oXx8/M9cVnpIjifkbz9AH7hi2XistQsbjCiashz+DGyrc0sLZo8x832NFdF1iC58+RC99rl0L1hAtrXS0DlssXO+1o7/GOCn4bxNNvtoatr4T0RmGP0pEcTz2CO8Mwz3ergjSmrjXsqePunPNsd1c5R2IPjxKkMzFuX5oNGRi9JxZYDxyykJjAZbg3GWy9MsS2z+xCum6NILRTU7VirLLpfUREd6idY8+DZGe9zt+uxbxYZa6l88YLo0ygB7/60ztpmONK523gRTgdNd3MLY+ZN0X1bRlf6M8mUr1epFPLny+13wpRPImXvUbR7aRymPNMdiedx88RnxTGgewO/u+mi5J1YumkP5qzfiRkb9+D06TPkDiaXo+p0zOSuz+w7SnCHL1QgBh0S49CiRjk04ibtldXL+lxrF2Is37gbnd+cjIPCfPbUGU8oWQiVyxShI1rMvZjlHcVjplAFtX/zGvHA5NVhly1wDzbvO4oOL0/EhCe7oH6VMud8fQL/3aFBgn+8cXtrbN1zGL+l7MFCPp9zuA+7cOt+nM08K1nWXphZGOoaFf94hFTohU6U9VO6SH60q14GzRPL8vmL8+v9Czl68GVniC4/r4ycn9Vmm1hPnWvHm4Lr6LNAsgk5aKtj9Dy1M1oMjXvL2pM76z/5YnLj+noVMHJxqhE0EFq7+YtjMebhjmhbt+J538hihfKh4xWV/CMrP+khZedBbNqVjo1pB5G88xDWpaUjdf8xbDt0wl84ts6X+qIInrPYpSvGFkSVUoVQKz4WifHFUb1cLN+tY/0ccu7sRNSiHBMWbMBNQ39FZkamRkCZ9bQ33wU83eVy5ZyhB6rC/pzH6KBUHL/mNollMGvDHvVz/MnOQ8fR8uUJ+GZAO1zbrNoFuWbh1okj+H0i17xt32Fs3nWIzyWfwz1HsOPgUW7dnECKmM/0E77pL7vZFF12LF8jlUoURHl+PfHi4LtoYvnifoGJsLhKFCmAizEE8ej9n/yCkYtStU0ifKpd+TzOWZumzqHmCtsaq5DtsjR3Mgaa2UPmkJnaU5wRQmAEMLL0P/q2SvQFHVowTDw/wn3Njm9MwRt9GuHhnldeUEGJyc1COz41Dhw5iYP8SD920j/Po8dP++cuarsL5o3xg2aFAwQLxQsXQHGu7cVC+b2GIO149dsFeGPyKqXjpxL85KNPy+pYmLSTRO0ZfqqmmEnCRUlRhzcAD7e1ScTsDXvUzwV2ylP8nvV5bzoeWbcDL97cwtmJ9tzmMhcqx8X6x1WWFOSZs2dxkltwQikEGzDm5udYsEAeP1hb6AKfU9TW2KbduP3Dn7F252GTjjnwf3FunfgGNXvtDiWLFKk5JUWzrpBhSmsiRg44MhCBJpgVbTo7qT/nUr46hDMQpIL8AiqWKIQt+4/RfsZZD09/txQTlm7FpwPan5cpn51RgguuOP6IQyyOez6egRU70tXydk04G1UswU3Mcr6gU2adpwWTqTytM1kvfZ/oUCp8S7/BJAEXFA+DuX85ecV2fMF396bnkFE4nyEARoXy5wpZd//tcZpbjIPHLcHfxi0PVXDqqeDgfDx6dS3ffTGw5lKthgdHstzijslAolyUX8B0u0IzNSgOQJ0TO8sX9pAnJhee79nALC7xVIrSuSl7Ue+50XhvwlK+Q5zBn3EIE+/VUfPR9G/jsGJ7uipzBLrruV4NzcwP1G4jarEQ04lCNXsPCueZDN8V8YYXrq1vsEXorbGSuVnd+pWJePar2c6+aJfyEBWFrZ/7Ds9/v0wpPZVpyoLP8+XNjYHd6htzG8b7e0SrrvAblZZWWhpMzpblUmx6mIQW4VJPSzdUW6ELC6O7+7evjdoyVXDgi5nGfSz85sdHLkbdJ0ZirKNa6lIbwtwcMWMtaj32DV6asELBNxv1/oEJbVe9NHroPjEDSZOkEyvomAO546gSl/HCLpgY93ap77OWUo025aYw4rNv/7Aa1R4d6YN7Tp7O/FPMY9L2/bjxzclo/49JWLb9IN2+WpOx13o3QpnYQoZCV4KOsg3uqSW4niTtqpvGwo1BoHHGUWcl10cDdP6OJCPkz88GTi5PTG58cncbe4pHA3iIaO6NH/yCNv83GlMXp3D/y7skF0ZG5hmMmZuEJk9/izs+m+WnzgB75DQ0F9xn/fDe9vR7dboqLT1DVeEpPPlyrYYWtS+QLwaf3dPWaCOsYsDDJqmwUASC73KuwD6ZsgJHtL7yl8pYkbIH9334E+o+PRrjVmwjO6Lq5adiNE4oiQHdGoS+5/ipTLN8Vt4YYQYYlYUhyZ5eeJfLtrJ06mMyFmAQRKjRHhmt1axWefy9ZwPSDZS5rWQTdcHmfbj2nWlowHf44b+sCQVZ/tfH4eOn8PHk31DjkRG46cMZWLXjENliBxY37IP+TZEoATZOy2ATRhexGHnpUDknTVslf/bMmfD/WtepgBeuqa+akp6OV1EDSVsPHMcDw+cj4cHheOmbediy+9AlYIV5mL48FT1enYDGz4/Bl3M3+Wa6RyDzZAUYNNbyc6X59YNXI49U2Xb05GkNC8L022xPjcmWdOD+y/MYo0ocjDwsRdLnWX5AH7u1irVn+jTBMu6LT1y1Q/sIM81MCZ23fudh3PH5bL5YFuCullVxY8tENK0Z/z+1MERUeN7aHRg5OwlfLdjs4/gpnrtIHOu3t6iKe7rU1+7zCdW809GAzFKowcxZ8JgZ80k7oJJ8PntDU/y2ZR8mrNghbVdm/3Q9OyNKll+dtNI/OtYsi1vb1kC3K6ug6B8geBbtWMOvW5BwfDYrGbvST9oxFoGJlNuHybvY6Ac6oFq8CjRK3XdMjXFSn4UlHS5hWDyCVzFG8a+Z2gImlDKjCkmoch8NdCFy1/IQaZJ/P9wZ3bgWXJi6T6myohhP5aCEeO8xbiG89/N6vM+PKtxX7N+8KjrUq4jGNcopmvGPMkTaSRRz/LRiK0YsSPH7g4X8Lgv4gZrI4GOHmnH44N6rjN9Zn5ZOg+z1AA0FF/ZAAmvk392Qlq7OY0wufPVIZ3R9eTyfx/1KPzDZuDN6x0k+hEAyiiPPF3PQs255dLsiAe3qVUCF0kX/UHOYceYMlibvws8rt+H7Janc+ko33SJGIRCZVE/OlAzWJ7e1ROdGlZV3Czd3uX+fPbUXHhFFNystw2hANQ0r6ZZgmSoFLdStA48AU9jj+0DVMoWxfshfjD+L2vSu/5iIleKmaQtOb0BAVWHp7xN5yD5XVESb2vFoWDUONSuU8JXK755S4bv02q37sGTjbvy6ZgfGrdyB06czSXyRLY1pZFEC77ua74DfPdUNhfPn1SwFDyXv/heOncyMiNeXf1fvPx5qaqilaMSpdapdDpOe72lcr+g62+P1CViQso+szab6pJMlx5IhUq98LK6+PB6Nq8WhIT8qa2ypF3sI93BV6l4s43M4P3k3Jq1O82MNJGUUVc5swegHQUZDuZDf08Vk8l2/bT/qPf0diXOnqiStzTEI2c0IYd0Dgk45djqxpdPvIwQx+Z2+5GSJRdJ70GTM2riHLraAWiaodxdV65DVD+fNmxvtq5VB46qlUY3/drX4LLBFmdiCF2xBiOKazXsO+wQQSWkHsYS7JL9u3BtifPEsK17GYYNcDKa5LYqDhj/ahQR9LEneieYvjjctA8f36TsFI5qFKhDoXAz7PrmdNLGPHD+FW4ZM84uXqDXnBJgTSlueV3GvRIlsi8qlUZPPYc3yYh6LISGumI+BiLbu23Cj+BwdOHoSuw8eQ8qudGzadQjrth/0CSCWbjuAs2fOkjuqXBYd8oNhqXjVlDXLzTDs3ra4yVKm/eGkZXhUYOCJJW0QZDDH7xIlrOF6dFnQbQLsIFNQNJmmhd7p1wQP9mhIXtzJjEw8+MkM/HveJmNxMmapwNKDgYwQFtAaTgRAKhcvhMtiC6B8iYIoywW/YN48KMIFyEfCBbDp4u0CMScmU2DoBVoujZvdAu657eAJbN5/FBkCQmspfKfqoq2RNdi1tPivoFN+7dY2PtKPGs8Pm+MXDsHSYiiixo9AAhH8jmED2qJv21rW9OCzX8/Gu9PWGYy8FGOpa25BwDtlwZfflidPLiTEFkICn8tCfG4L5I1B/jwxyMdfL8CVffqxDP+d6cczfNDKrsMnsD39OHYdOmGUlpOFTNpNkMFGZIUnaKUlMPTfP9wRzWvbQURNn/o2KyUHSzm6Zym3JdafvoaM6jW6al/9MoKajZTE4EvVShfBmnf7+ayvtvHZ1BV4cORCnJGEhzH77kT6tlolWsSb5PA+SDfFwbpCyZahCOFwTyTTKfi3gvny4PM7W/q1+C4zs9IDw/mCPuW2tFwCZLsfmqnYrHJJzH7tBudOOW7+Btz9+ews9BzUfvKkWU9UD9raiNsovUiFb3Elqbp80t3xrNoG1mJ5ZiomcSHd65TH0PvaI75kYevpLUraiVYvjSf3DdfGa6M007FuwnRXkHEyCyhjxC3wiHuhNbhi2n3YuOcIJi7Y6Fwg93St73OltapSWuXN8rSUkaOFk0G2DrX6h2ieaiLD5EAg0/IjzN7YwaVkw4UjIHuc6RzlPk0UN9VXv3mDU8jFECCbg0LIPUvJtebnkQtbr2/UyteC/12Quh8zVmx1nk+v5tWx+u0b0efKiqrgQqVv9uRrl8hKXA1lldSjFI22oQaZ/n6d1lkCgZkMtEzlopNpchHuEMOY2do0+DX5fEXdCmOf7eEUcjHeGr/MjMvA/E6PkEGq67DnmTt/LvnqPaLJoNISBp59sXsgO2yK9/3ffxYrnVWpIfLC01++DoP7NUX+vLkVVWbrnCGjsZj+d6kxA0mY51lIF5jJUmzrQBppE1FYSAGDrFxJo/CjOPeB/3VXa4x9pgcqRCDmEOCTF8YuUxWa3AQBNBGj55GFhgqVdigIGjzBwHbwzDcLIoKXyhYvjJGPd8M397dHxZKFDCVtKDxGpIc8ekErikC2AmCaM0ozDGNxE34Fg4WtBVpfPJX8lAIn3dQowVfUt11dJ2LceubKrRj32zYz60W4XcocAQb/PaMoi1XADNNAFDC6e8g3xuYnBBu7BV8vF2BSSd59GB9OWh4xSCIKE/56zRVIebc/Hu5YM1xz7Ll3T/oPDDbgEGBnBiUb++kc2oQweZoAU4pB/lF5AeSOyYUXrqmHDdzFubXD5REXhxiism3/kVP+bxQpmJe8NqVXmEe4XLIl4VnIWPgLJbgCEq8v23YAH02OPI9i9GlVA2ve6Ye3brzSd0N0xcpsGQGNN1uGZisBKA2UY3S+MSxxSXFB7TSkbBIaP78ndcBRizw8IwXaokopzH3xWgx/vKtfthxpiH5r9385J/T/GnFF7Txonua3E76HJ3cLlskXgoJuNF8Ime6e24wiuP7l5umlC+cLvf7smGVYuXlPVIukdGxBvH1nO6wedAPubV0duXLbpd2TupLoFrwHS9cZz9SIzGXJSqkj5poIo/mixj2vdS7JHZMbj3asjeR/9sXf+rWIuupK7ALv/LQ2dOKlhKB7lvZFug3ILPEFxedjSrPLWCna/wS3zlZu3hvVeQoutUd6XYmUIf3wep9GKFEkn/K9MGIVRLyEmT6n0nJKtlg8yybAaCvGgJlq50ApHiab94H3CSqvSY93xq+v9EGTGtEDuV4YPhfJuw6FvrOYKIumwBRMxUDIrcZU94RpLmb4qpUGDp7nadqchXt3UYECz73DVi1dJHSuomCl77vTcPDoyahvhDDnPxzYAalD+vuVU4WN9JLZHtOjBJog6Ve0P7O38WIwW+2Q5idz5JA1AStVtABe790Q2z7oj0F3tEHFbIBEtu87gps//FnR6lVLFSL5AygXzLA6GN3mTnYHagUKkrJSUx76DpkWkd9dHoId9YnejbHlg1u4a9IKl8cXVVwuJq81wg/1tJ7ljLr/us9JMKmQDT+UJphEA0ioxSSh6c/F8JdmVbDgpV748e/X+QAYlg06hW9nrgvQf4Wt6ep8Rzdak2mWh940k3bszfuYS715zDATDA3vqU3qyMxRQOXUuay4stA37D2K/u9Mjeiv66NcycL4280tsOOjW/HdA1fh2nrlw72utUijqe7h7ONm9D8nij08XQKIe202C1MFXKTvbroyARMe64RUvuCf6N2EC3z28vrpXEn2fmsq9h4+pWj4BgmlyUVNrQmnDyQVJclWSYOEksr7RID1pren+p1cszPEDn8r91uXv90Pi165Dk92udwn86C8xPA8SchJm+uhszAHy2eZ3R2jgnwqKpRwAfkbWlUrjc+5strJ1+IXD3VCo+pls53Hn7VqK279fLay9qqUKoxSAX4Ej9ggGFPdCWboLEYt+dCTGMK1NdM0TO1AE5GZM/Ch2hVLomihPFmspYHx0/rduGXwDxj2aBe/O0t2hvD1erVI9I+dB47ihyWbMWX5VkxcsyMrNacpGn1Wqc4tnv6RYJyCRAaqDSE8zR7UqYzy5YtBL66Uul6RgC5c42eH91sfx05m4GauJJdvU3vOVytTBPElChrRaoP/m2ADIu1kDZYs3iV48NikVSEXSVzjzA17cBvf2Yc90jlAmpC90aBqnH+82L8FFqxLw/QVWzFm6RYk7T6seTrMxEkwMzOpBLE0dleP4P1XKc3DuHSjOWFMLlxzeTkfotu+XkVUKXd+SD2RSuvxzk9ZoBzptzrXiVcmiiT1DOLYFSZikPyA+gYfY8sjG4IRKoJnZPMGmds9KDR5uG8toKlfzNmkTIiIMv6FL9qvHu58zrRD5UoUxh2d6vqH2FkEi+hsLvBzN+zGnJR9IU44mvDeRNp5hO9mNmpg9jwsy/K523GN37JGWbSuVR7NasVnW5nRO3kYRcg07XpD40rKxOr92GV3w5MYTKhFZPg2gYeSRfPj6ppxWUy7kgcgOPav5+c16rGu58zqkpffszZ1K/iHaA2dsjPdJ/lcuGEXZibtDmHLyU2IiN4b5Cah7TBwDxgj+OTCHxKgqvZ8DlvXFHDqMmjKldyFIvn8WVS7Df7JL09WLG7+pFvDSpi+cpvJvqzIooQTYeZm5cqlx+jbnbEDyLsYY8Zu58EVpeLmaqtEfDF3k7GrjOOLpMsr4/HdE10RV7zQed3AQvnzKsSQJ09n+FVGq7fsR9KOg1ibdhDLtx70GwWa5PyUNaJGnSl8uGBfbVChOGqXFwSRxXzGUNFrSyzcCzlSdx9CzzcnY+2uw4ovGVRS1zev5is4Chbp6S4ZLEAZia+e6jAjHm5vVzNL0LXPT1+3C+1fHIMxT3SLKtIcaYgdUxxBFJ6I6SRv34+NOw9h4650rN3G55Mrg5QDx8nurqqByZSOqLIuK8Otqyp8DmuXj/XnsAqfw+rxJVCV//bFqJP4148rcf+w+SFaKdkiKVk4P9rXr+gLurPEmGUpa0+zMpU0o+5+MGJHV3pd6bsYsYJULqvwLhn2dTy0q1vRTxsIk0w3L+bznbfJc9/jPw93uKAcY/nz5uG+Uzn/UM3f09h76Dj2cYHfd/gE9qQfx+ETp30I57FTmX4p6ZETGSjKNXiQHFLwVQp2UGF2lynGH/lzkRUomO/ikw3+tGwz+g6dwV2f08biEEM0o6xfJc4XdIPgQKNG9iwuWWiXI7AJ8hCMrGVHLgiXZkrnsXrHITT6v+8x/L526Nq4ygW9B8W5EIi1Qa0PMZ9iLgVuXdT4CyESHAhnA6QnAo0pYLGi2k48Cmx8aT6HYj5/r6Kno9zleurLWfhs9gZSI4lb+ESXy7nlFwO9Et1zhFMYCDdFy56Y9eghq4AmhKRQZboGyeKC15xCZAWh/t67IfoN/dW8AP4fgR9v/cokv2Xyk9c19jm0LtYQO784KsX9vhVR2V4cXPm8NHK+T+bPbJA3AUS6vpEUmSZy5l5wXmBUppm95MK7uqe14RWqXgTSXurVEPd9NY/08YUy6jl4Gu5uXR2v3dISsYUvPvFmcD4TLoAlcTHG7NXbcNenM33GJB2rH9z0inHlc1enOqEoj7M0Qo+HWVK9FBo0lxGMgen3KLAqT0OjaUgFRnxX75Y1/ZZERtpJCoa8NP43tPy/77B0wy78mYfordbw6f+EhNyzgNivrXdZqPsq0/O8hN9KNmdQ3stUJBnk3ulZ777l6jqoF1/McADl7/qc71z1n/wPpi5J+dPOoag9ePKLmbjqtclZQi65WzIWTdzFN29s5NOJUyETJesDBaLiVASMmVmgXFTO0UjHSCAa2RxQT8AzJj1IQSTM36F3t/Fzj0qWSkMmCXrjZi+Ow4Ch0/188Z9piCYT/f45BR3+MRmpYnFI6RR9fvLx3XXwnW3ICKvneSR/u5Xxi+A38/TsZOADgtzjs/va+1YaFZYJKu00bqUJCrBuL4/zqav/LENQen36wwokPjICQwK9642ae+m+tUuMw+0d64atohOnQcSEQ2vA0+aTbA0NCQMj/TFXyK7XYZKE1lBRV56baCzgnwRH3cplMLhvE4PNVHEBAse/5mxE9cdG4eWR83yf+lIeQqGJzpq1n/gW3y3dainhVG/sF3e2UppUns48Y0p2MLugz6Oeg9GQhEomJfC6HPRqWL2sD2uF1cQM/++ndTvR5IWxuPv9aVizZe8lLeCjZq5D/cdH4oGv5+Pg0dPGVDCNo69E4Xz48oGrlarOExlnVPitrrw1dKVrXsPuHAv76EpZJiytYxU+32B7BnNHkSV3d7oqpAO7N/A5475ekGKAbfRgkWix88qElXh96hrc3zYRA7vWMzi2/pfHqs178eHUFX5Gwjt7Fjr1ELNkNETgRu8xv0NuSsgkXDjVSZaASCrAMsKR37Ffta4e7NEIK7bsx9fzU5wxnKDPL9731bwUvyrv0R710aZOxWyhyP6wJvrRUxj2yxoMmrrKbw9lw9pDVtgBP2rco51QvpTaZDRl9xEy8KYXv+sZMBkSa3b1kYJxHnWGFHxI22o8sn8yQpzuSTtVrjGhvT4YcBV2pB/Dz+t3K+g6piurwAUIgX//53V4/5d16Fn/MvRvnYgujaqcU0/qP0KQbfLiFPx75no/LRWSCxltx+wNH0Vf9Vf+0tL43vX8PusMr2r1mmc2xQzu+JJZ5TEiesv/WRcgRJCXxtABHbD/yElMFu2UIwCpgucvWGgmr97hZ2Hu4spb9Bav+AfjiIs0BDvNrDXbMXJWEoYvTkVGoJEniHttYDgCru93D3RA81pqFkFkfpalHSRtI4+Kn8HsmS4XKOlNX9T+6CBaClM2mtFbWmXgCI7LShREyge3GjdLpEX6DJqM6QFht3YxJXIL4icK5o/BHS2qoWeTKmhWM/4PLfRCuOet3Y6xi1K4JZPF/opIfGMEN1+vBpdh+KNdDQCOYLopfvcXPhGlLUeuE1so7hLMPuG6J9ae+5LTXryOmMcM9B88lQtwmjs6LHt7Wo5XtCW+ns+jQJ1VLffHzIYIyPbC9Tvw04pt+Gruxiw8hpaxUHIUlq6tIkY1fEBb3NDK5BlYkbIbVz4/VrGmbfwWJGUUdZ8DfyCppCjUm/FhRgsmhT1ZM+hGsp+a4LC+872fMHb5NtPN12k0CIEPvp6XL3yfRbRhgi/0AmyR679oFwo8RNK2/T7768SlqZiyNi0rKElNTBQ95sW4s2VVfMh3UCr3Kyik2706UfLlGMlAQj2nFpK8JYTx1Qy7Pr6V7DYqFMwDgg5s/iYabwGT/JKaYvG0ZlwRXNeoEprXKIcrqpZB2RKF/ytzKJBr6/gcLt+0B9NXbcO4ldtx6tQZZbcErUcJxqOs/+bnm9P3D3ZAp4aVyd8cPG4pnvp2sb0oQbuvpAUFmgVJJYcEItLTGFxaBHur6rd7eK1PIzzZuwl57oIE/+8j5mLQD6tBOieMzvdSAO7g+RUtmBdX8x2oWfU41K9c2iemrFC6yEUBSIggjOjlLWCbK1L3YV7yTvySvBfHA8UeCswWFk43ja5XF3zRafax6xpb9cETX/yKIdPXm16WmxGM5mqkmEYDr4tCDkGkYFuD74xZjGe+X8pNRIIhFXYvEITAB0dCiUK4qmZZ1EsoiWoCMcfnMqFMUT/rcKHGvsPHkbr7MDbyOUzecRALN+7BDH5kSAFIK3W75fz1NSuqOL/jPnmdSqWt51HvsZFYv+tQRK5G2990uZPXXnhH7/fxPv5SSdM5pFeGTurpoim+rHhBJA3p74SGij5rd/5rNo4ezzCjzpYtibxgj6DGFbEBLuT1yhVDrfhi/HwKo1TRfIgrVhCl+CHQb8L0F4qggLSABCmA4PQ+cTITx05l+Ei63T6x4HGkHTiO1WnpWM8XiAxp1M/XystGkUhCVVqli+bHsIHtrW2CxTh07CQSHhzBFUuGvbd9lCa10bpJU6p1y8di6aC+TgNk5qqtuOOTX7Gd3x+XEEAxd1Vn1mYlyuWhggxSQJBFj/Ny/BBwVrG+gm2tiwaIOITJnXVk4iR/FLRbYg538mP7weNI2X8c6cdP0QSZFmJPi7FCW2n86e3cGnvr9tZOANEsbjV0eH2yycAr5a+NTQ5ULYaeUfFfOMB39JJBQU/iLyTqV0Dt0tYKKM1UkQV22H12BtHgSNt/FA999ismcDOJ2NjN3U6jn6U4wvUJ0Cl6DWHwCO5ji69LvsdmVoFQUg421tuaV8Wbt7WKWO323oRleHzUIoKzUJsElzkImgWW+ty4Rzuie+OqznMSrLl/GzEPQ2ckWTcGMs7jOi8LU6s1pmNxXfRdONJUw6I89eVOfaYMV9Sf3tka3ZtUjWhVdHlpbFZw2sLfThNY2l1obe6SuaDXCNqzW6j0iF5iLVPrmFF5ZrRTDrHL/Gexv+u4hiDQG/3MNRg+oJ1/kwCNPYSp9D8qosQsLzSokaSiBo/yFQMfNor+XdQyFoiS53kEeSU0RhNPa2zAUJnvUuMf6YjPH+wYUciFyfni+N9oU1IvxgZNmcU0wkOlFxtBUvHMyIURuQREFduQe9tj+rPd0EDwEVDWnwejA1B40jyTo4/RxCZeIKdEAryg4jM8eV4C+cdQrtkL/80zTDNTh4SWn4ZaCSadH+5QC6veuikqIZ+yeBN+TtotXaOJnFDWMsljR7BEhT/oy3ZQ0DfQzKoayYaFsE4+Mw9mSej2A8fw5veLovKZRI54/eB++Mf1Df16blkglHQBI+w6Xag8B+GADDiQUhGeDDvyYCeU9yzEE7rwWOU9rLaLFsyD9/7SDCv/eTO6RbE4xHh+2Dy/lxnVEUT+HYUsklmIMg3p15Vm1geSdh3GO2MXR3V+betVxII3bsRX97TxuQONkmdZmQQFMDCpVMNI+Ro9WTHrVoGGM1XgwaH3atx9wTbDRu6a2PE0+iYmffd1DSr49Gdv39WWDFzqQ9QH/PXLudpaYfQmAUsDDhZmwzVFwZ/wjXJ6bSD/+9CoUlyULweaY1sxc7hKmfHcNWh5+WVRB0pEk8aPpqzAu9PX+akcF6227RytAUbK/Inkz9paUlkCX7pZrpuSxQvnwxOd6+CuTnX9ziPRjokLN+L6IdPpbIiD2N8Z13C4I2pPNYaZz/dA81rRc6OJ/ugCOTZo8kqfncbGQe8yrW1xEN3tYQ49Bj1GYHE1bc0qDdcGWeu6X5PKeKh7fTSslj22mTvfm4Zh81OsATcykh/MhlBRdkJP8Yf7T38z4KOgj96Yv7rIFSGlFADta9ojFkKzL3y1t08NlZ0hShBHzFiHt6asxLYDx62pBWOFRMgaMGYqJ3LRROMjak6SzGuu++I1yxXD413r4sbWNbNNvLFhxwE0+dvYUEtqCzux9ZpA8QzAkkWxuPpxgXmMz+Y8CqroH5am4KMfV+PHNTtpH96jg4G2CLinhamZVndu9dttTRCMmA+dsowtmA/3tK6Ge7vUPadqSMGm+9CIhc4UmjWmQ+Ef7GnUptxHXxTc0WP4CwJeVUiP/nqUQFCPcKQCpOei+fsPL1x7Tn2zxEIR4BPRevjrhalZDQyNHY0W1KjyJIze1UiQAjURgLWDiIju39WqGm5qWR1XJsafEwRUNKds9+I4bOC7ItWKheqK4rRkPEca07X4+GiUUBw/PN/znMtRt+49jDFzk/H5zCQk7z5CL1hbexLA2lDSFvyj+7uBLt+11PWK772hYUX0b10DVzVIOGeg1qRFWRaZztbrwqQAhAxaPA1piD7MsVzQM1mwDjmm70eTRAcZVzqITicQN9aSigv+SXQGHf1Ud7JpYLRDIM5E55BpK7Zg9LJt2HfkJCnEdDNGzx6Rtmp6SxoDWj23dHNE+ueGxgnoVL8iWtetoKTvsp3vPXQC3V4bj+Vb0+07nhc53Gy7BteC8ywE6s2qlMTEZ3ucd+35uq378QufywnLUjEjeQ+8s57V5dJ7sdm6mtp8WptpT+3s4vuFeyXo0DqLbr11K4ZSeOc6pizahOvem+5fo0elyWybD+W6EMKnkMd4mJw5auA1/toMLtA8N380kD8fSsEhrfBJFjlHa7uxraqWxpinu5G1uNkdYl38tmk35q3bgfmil3XSHuwXtNI2FWnzzYkUWiSfTx5li+VHhxpl0ZwfLWuVdwIksjN2HTiKbq9PUvnTXOkwIkVqhd2ClgBrA1RtMTWpVBLfP9H1gqHYBHXUkg27sHTTHsxZvxMzNuzhltsZK5w3qk6mLBrYaJYciPx8h1rl0LR6HBpVjfPnMFiWe75j9Jwk9Pv4V3/BeoRrS4KZHGlY5riOwPz8NXPkwKGKoMf0HVqGP9npR+K9CJpfSegzBzIO9u6DfNQuWwzjnuqGymUvLEOI+KnUXYf80kjBNbaO+7Wrt6djOReUjMwzUQXSTAUQjtqKllENLyuOuvyo4XPGxaJ2QqmLUqCxOnUvegya6ncBpcxqqhzBkVM1LBxT2G3QY49sjSruiQBFTXiy6wVTbLq7lrLzILbsOYzktIPYsDMdSXxOt+w/hi3pJ3wILhmQZBa7l79RpG8rFCuAKmWKoAafu+rxxVGNr8Eq8bHZpuCOdj0OGr0QL4xZ7nZRIgWDbe4ofd1n+dNyGSMH7lEEXQxuvk/lb+wCwt+0WYamSeGRKQ8K8SZeK1QgD0YMaIdujavi9xgC0CGaDwi+OFF9JVJUAjkVRFEFz6tAvhifaEH4YYJDTqDoROMFkd8ucoFYQSONUbPW447PZvmVTTbUH7NFpV0LxxZVtmUV4IhnBEZMTG58eltz3NKhDn7PIVy4/YdP4lRmJo4F+OJEHYVALIq5yxuTNYd5cmch50pwQba1oL4YQ/ApDPz4F58xlwIMIYJVkp2hzf2PfDfvEnTxVEG/+aNe/NWxZJ1yJNPBi5DKihBgGNgu0S/BLHaePtClMMTieOLLWfhmYao7cuxIiVl3Yjjep1ln0cQudMUiSonfv7tdtjMrl+IYP38D7v1iDg4cPWUv45XMKT34DZipM2v2x3RJr+O7+TiboItoUTL/QGVSOm0mkiuPTLkBlq2oAjcBP727Na6+ovKfdnEI3P/Af8/LijHYAn6aY60EpWy7fLQ2JrO7LjIW3eXaCYtnSL+m6Ne+NnLnYn+6ORREHc99PQcjF29xFhfZmpXqUi4HeSlZIuZiM3+ayAU9kxT0gLAP4P/7yBVwozQJGeRwVLoBZt118C3d68bjtf4tULtiqT/N4liSvBPPjJiPWRv20AAki3CxCHFRa47cqkAI8IgBCrekMLXV26BCCbzRrxk6NEj4U8yhwHu8P3E5Xp28yidMoQSYxPvrVYyEuxsJv6+FwgZys/3j8M9Qgt53KHdAWTJ/muBCx5EVa/oFWHwIEs1DAAMGtE3EIz0aomp87CW7OETA8K2xS/HNotTIpZs6ZXAEE9tQpp65+9viKK44qmdx4WjiC6BT7XJ4uldDtK5T4ZKgkKLiPsN/WYuXJ/6GA0dO2fEaRIyD2tltZcXO4Gv4P1v5HFfnu/lpp6AHgnI38w99EykoR+WjCTi58QcbGsl2c25uUgkPdKmHJjXjL4mFIS531uqteIcvjCmr0+hcf4TgV/T5YCuYwpm6QXYCfVG6Aw0rFMeT19THtc2q+4Qh/+tDcBF8Pm0VBk9fi1Onz8ACkjStJIsydc0dcwTatfvdL3PUwJHqerMJ+s0fiRdm8KNtxCCObWKtPjmdqzaUCPG9TSuVxO3taqBX82oXJQ1ysUca993GLdiIz39NysqJOwKbLrYdCnln9aWUDV1tvWTNwRLxFWvsBXbUGbkzeVkY/3taV8cNraqjQZW4/6k5FDUXU5dswtczkzBVwHgVIBIRSXNhTVxKWJ9gC/RcE/ZZojkSF3QvKkEPCHsN/rCCH/nIQI2OLdaCA7p/ac3lSo6n+6LDN0UAGARa6fqmVdC2bgU/9fVHHaLrq0DwjV6Qgkmrtweq42RfjMBSE44ZiZ5CZPPbhZm2dVwF3EUuLuVvBehYzlX0Xr+Jz2PH+hV8KuncuXL94eZQoBJF15Upy1MxcslWnDqVSVpCDp/ZFGDt/dadPsJ7JQV6ir+tPjfZk8yfcwh6QNgf4n8ZYq3qskFJHaygVKouqsXh2V0AgbLr1agSmtUqh3qVSp9TG98LNY4cP4WVm/di7ro0jF+2BYtS91tdFLJqDBbwEYtsatMJWY9mlo12V3GY7i4OOP0UPSciL+tFUSjS+4oKaFlTcMbFoVbFEv8VwRd96EXjCYHO+2HFNr+LrVyFbCNgUQhSsuPiUBU9EVw04m+PZI4cOITWK5EFXfxlPP+yHjqzJMVC41nIDvUFS7n3tgVvk3VbmaqgGmpeqRRaJZZBg8qlUUUgnsoWR/EiF74XmCgyCfKNreDCPTNpF5aJ/uWeS5vbI9fR4LjJGwO6zFNNzdjho65qLldZKIti5yfPK4riJzGCLYwbJJRCYvlYVC2b1fU0LrbQBZk/wfknEJSbdx/y+eKS0g5iHhfuVdsPZU+hInu0XVS1nkdtopDov20J9qzXBDtoTy7o3jkJekDYRchb1NMlulI5JL3UOfj3OrTWMAcJM5Sq29XTFKIrZ4PyxRAfWwDl+EIRnVFFu+aCeWNQkC+o3Llz+Y+COy4j4yxOZmTyhXDWb8F89GSmXxu/7/BJbOOmeNrBE/iNL4rDxzPs1gos5jHoHdcKlGDZXEiaoqB/11JG68zTWfz3KE18RmQAnBhvKkYQeINA4VUolh+VShb2S5/jSxT0C6TE7l8k8ChgygI1JyC0R7mpffbMWew9ctLn/BOlzgJSvJvPZ8QSUEsFYzSBUOZScEZ2hHaDrVG78EOyCF9xIU+3u/pRCHogCl+Vf+sC/rSUYcJFUaOu3kPLbqA5+Ew7USexdYTv8FzEjOSipauC4JhI5hJQF48cA0nx5rKOPJ3/zrHTk/NiY3vNhufkue4vtXVF8D/tZIuOVBSzm7cMll3TEij0smE+OysbgegIPxwmuy1zRQRGBalrcy7kG91ZHg9ROUCZowZu4g/d+LcfDp0fM1NvCucWNBoq6YOhGyvv0DJPlBemxwnyxTG9JTAlBCzcXC74G3qHUHK3YSa/XGjRyY3l5RWoNScM/ZZF/3gG9ZR+3vq8M7PXVohGidmlz2ZNwaK0qPnTqLk86Vo9j2inzVR6peBFaWx+JvZCsipkKi/ta5T5BCIrNeU7Yc6fO91o6yRH5LS172eM+IB+PTCbJ+r0UTI1VPCHGNOWfZYsdosk5KFTiWZHl8z4pvwspvH3F/Usu5HOzuoMIEWqi9a1JYNRDEBpxqiI9W2fs2UYXP6pK1/qCEKxbPiu1C6gF0VYq9ps5P42Cm8LE2kk3932GqLTP5asgJl5sOL9Ycd1WEuRLUHQaEgq5LWuk354niUHabFuIkXftUsVQt6JC/nCqGJ90ZrumrDX5w8/8k/HkfWpiAhpt6YJPMt9oWmjVD/TlVaK4k6Q+WyzYQQ9OxSizHOZzXCYszblYfFeaB/F4U87lKItQxLZHYvgGlEKz9aOKpq0YYSYR7TwO3t3FQsvAUUlHsVvOnEPNleOWdOVoo9ZZy7kK6KV2ahNd8WMz/qBJvzCVtpsRbm9sm7yKo3dHerLAx1Eknu1B+l65Q6iYXPXI6VHN5+D4k31sTZopnUpJr6Xak5vMJ8y80bptEIWPaSa/toPsoCdKws5I2aHSds7aQ0zy2Va+n2rFMDSNcuMrJQbpFnMynd65rqRT9Sjzp3Bqi2YQ8AVZl7pPiptxOlyfGtciVG7NWXlyGzDjLCQoLAfr+SPTbIj5MFxTklK/kNb+Rm04Bc4zNh9AHqGtEatTL9QfYcgeLWZNIme7vQa82tytOvKVG5oqOGFFb9UmTnJ+QsKrZUhmqDnVHSQTK/MtLWtN7f3PFUpEFTXlDXgEQEBwz3RqLEpfxJMlyE1hmJ8UHeSdV8+yINOSKARA3LRVHu0oiIDuhZef325ea5tWdvlmaShbIFZz2LCMjk+RTe7lX18IWstfNk7h5Ft052IyPfnZ/EhP5tikWCuJMFiJJMPUZhPsH+HDZ8dNWiEmD1ruSGRSiKrkSKwhzCHFelFSGtF67tSqTMgCvRdFDERGxW+7HKRxU0uXm4XCCUaDjz9d6k4RoSMhDNtSsR+DFwE4MZE0IHcQ/ylv2aMHDjiXGX0nHx0i98uCK3f48cNzgCDq7zRkn5wEebRtMuRA0SRgn/uqAyc1XsGUSSRTrJdiy5DgA5SUhesMydmLSmm0psmBDkSF74rhkKRhZJkNo6Al62llStN5kzFgagfsASFoyr9dcUyYInbOFJ4ltjOd/zhIS7ku85HPi+YoEsC34Z/0yCRwHeVM5JBJkefKVt3UCdtEiSeNxueO0qCS8B9fi5zMqqiBssCjdTzLhrKY7g2SM8VLbJkVSIoAmfgkcIr2IJeFkphK1jLdg6Wc7ZmKRwBUFLgo2FvdXSptWA6FnK5fCpz1P2zLoRcXnBBDwi7+LZr+fk+yR9bRrXYWGRaKvsO40jXUak4m6ls0dBKKoUgwpTzzhSmPGK01QXecGQlrAIXgRgSjqwH7RpYKuEMAaFLXKOJ6rtSXFEXiljurXWibRkHwFp+bVUMOqzbZdEBrgj9XP6htzJHDRyPCzguiqBr/ntDfpW38ZPvyx/LONk6tZsQgQ/LTsxP+GBW7asJqQoWYUTelDCno3AHbCadlbCBkECGyPXMTqSdy9JwpQVtro3uewI0zbTDkqBy/VbUIlndh6jr9A03zma6U9ZONC6Cs1+5owsxsIcfo/grX3ETfdnFkMOLLujBkefmj0QnmE78Srvxn23Hr/Ry0nQ3Q6XOhoXq5NNwSs9DRGK+SJxrNpivrd6aLN818jKMbNtrrWRyKTp7EWHEhjRRmezETmXrD2bd2WygnWgCa56lgIois4wC/GNz8+Q5oXxx6wLUNJltLqWna/j5/8qfTOEvTcsMcLtdrPG7CTph3pfhD634UYPfjBr8DiTyxwr8saRgWo7Ynoe5/TsqwOzynUhB8tyRdkTcdRwlqZYdzHa+0TATUZuUc8eOgAiDyx2A1CSA5ICPjmc9Eh7d5stGipW6LB2906+1NzwcEIpIRJxZyvwE/4L9/I/b+ItJTJCuAkn8L7O5YO/9PeUtJOg5I2fkjEt75Ah6zsgZOYKeM3JGzsgR9JyRM3JGjqDnjJyRM3IEPWfkjJyRI+g5I2fkjBxBzxk5I2fkCHrOyBk5I0fQc0bO+FON/xdgAOGrqpU/PPf1AAAAAElFTkSuQmCC;" vertex="1" parent="1">
          <mxGeometry x="250" y="384.5" width="80" height="80" as="geometry" />
        </mxCell>
        <mxCell id="UWv910rHTFWDrx02N8dY-92" style="edgeStyle=orthogonalEdgeStyle;rounded=0;orthogonalLoop=1;jettySize=auto;html=1;entryX=0;entryY=0.5;entryDx=0;entryDy=0;" edge="1" parent="1" source="UWv910rHTFWDrx02N8dY-63" target="UWv910rHTFWDrx02N8dY-4">
          <mxGeometry relative="1" as="geometry">
            <mxPoint x="650" y="424.5" as="targetPoint" />
          </mxGeometry>
        </mxCell>
        <mxCell id="UWv910rHTFWDrx02N8dY-63" value="Custom Program&lt;br&gt;" style="sketch=0;points=[[0,0,0],[0.25,0,0],[0.5,0,0],[0.75,0,0],[1,0,0],[0,1,0],[0.25,1,0],[0.5,1,0],[0.75,1,0],[1,1,0],[0,0.25,0],[0,0.5,0],[0,0.75,0],[1,0.25,0],[1,0.5,0],[1,0.75,0]];points=[[0,0,0],[0.25,0,0],[0.5,0,0],[0.75,0,0],[1,0,0],[0,1,0],[0.25,1,0],[0.5,1,0],[0.75,1,0],[1,1,0],[0,0.25,0],[0,0.5,0],[0,0.75,0],[1,0.25,0],[1,0.5,0],[1,0.75,0]];outlineConnect=0;fontColor=#232F3E;gradientColor=#F34482;gradientDirection=north;fillColor=#BC1356;strokeColor=#ffffff;dashed=0;verticalLabelPosition=bottom;verticalAlign=top;align=center;html=1;fontSize=12;fontStyle=0;aspect=fixed;shape=mxgraph.aws4.resourceIcon;resIcon=mxgraph.aws4.cloudformation;" vertex="1" parent="1">
          <mxGeometry x="520" y="385.5" width="78" height="78" as="geometry" />
        </mxCell>
        <mxCell id="UWv910rHTFWDrx02N8dY-108" style="edgeStyle=orthogonalEdgeStyle;rounded=0;orthogonalLoop=1;jettySize=auto;html=1;entryX=0;entryY=0.566;entryDx=0;entryDy=0;entryPerimeter=0;" edge="1" parent="1" source="UWv910rHTFWDrx02N8dY-66" target="UWv910rHTFWDrx02N8dY-102">
          <mxGeometry relative="1" as="geometry" />
        </mxCell>
        <mxCell id="UWv910rHTFWDrx02N8dY-66" value="Outlet 1" style="outlineConnect=0;gradientColor=none;fontColor=#545B64;strokeColor=none;fillColor=#879196;dashed=0;verticalLabelPosition=bottom;verticalAlign=top;align=center;html=1;fontSize=12;fontStyle=0;aspect=fixed;shape=mxgraph.aws4.illustration_desktop;pointerEvents=1;labelBackgroundColor=#ffffff;" vertex="1" parent="1">
          <mxGeometry x="29" y="165" width="100" height="91" as="geometry" />
        </mxCell>
        <mxCell id="UWv910rHTFWDrx02N8dY-86" value="" style="group" vertex="1" connectable="0" parent="1">
          <mxGeometry x="990" y="344.5" width="360" height="160" as="geometry" />
        </mxCell>
        <mxCell id="UWv910rHTFWDrx02N8dY-57" value="&lt;div style=&quot;text-align: right&quot;&gt;&lt;span&gt;AWS Analytic&lt;/span&gt;&lt;/div&gt;&lt;div style=&quot;text-align: right&quot;&gt;&lt;br&gt;&lt;/div&gt;&lt;br&gt;&lt;br&gt;&lt;br&gt;&lt;br&gt;&lt;br&gt;&lt;br&gt;&lt;br&gt;&lt;br&gt;" style="rounded=1;whiteSpace=wrap;html=1;" vertex="1" parent="UWv910rHTFWDrx02N8dY-86">
          <mxGeometry width="360" height="160" as="geometry" />
        </mxCell>
        <mxCell id="UEzPUAAOIrF-is8g5C7q-117" value="AWS Glue" style="outlineConnect=0;fontColor=#232F3E;gradientColor=#945DF2;gradientDirection=north;fillColor=#5A30B5;strokeColor=#ffffff;dashed=0;verticalLabelPosition=bottom;verticalAlign=top;align=center;html=1;fontSize=12;fontStyle=0;aspect=fixed;shape=mxgraph.aws4.resourceIcon;resIcon=mxgraph.aws4.glue;labelBackgroundColor=#ffffff;" parent="UWv910rHTFWDrx02N8dY-86" vertex="1">
          <mxGeometry x="20.004285714286198" y="31" width="78" height="78" as="geometry" />
        </mxCell>
        <mxCell id="UEzPUAAOIrF-is8g5C7q-118" value="Amazon Athena" style="outlineConnect=0;fontColor=#232F3E;gradientColor=#945DF2;gradientDirection=north;fillColor=#5A30B5;strokeColor=#ffffff;dashed=0;verticalLabelPosition=bottom;verticalAlign=top;align=center;html=1;fontSize=12;fontStyle=0;aspect=fixed;shape=mxgraph.aws4.resourceIcon;resIcon=mxgraph.aws4.athena;labelBackgroundColor=#ffffff;" parent="UWv910rHTFWDrx02N8dY-86" vertex="1">
          <mxGeometry x="150.00428571428574" y="31" width="78" height="78" as="geometry" />
        </mxCell>
        <mxCell id="UEzPUAAOIrF-is8g5C7q-137" value="" style="edgeStyle=orthogonalEdgeStyle;rounded=0;orthogonalLoop=1;jettySize=auto;html=1;startArrow=none;startFill=0;endArrow=open;endFill=0;strokeWidth=2;strokeColor=#808080;" parent="UWv910rHTFWDrx02N8dY-86" source="UEzPUAAOIrF-is8g5C7q-117" target="UEzPUAAOIrF-is8g5C7q-118" edge="1">
          <mxGeometry relative="1" as="geometry" />
        </mxCell>
        <mxCell id="UWv910rHTFWDrx02N8dY-1" value="QuickSight" style="sketch=0;points=[[0,0,0],[0.25,0,0],[0.5,0,0],[0.75,0,0],[1,0,0],[0,1,0],[0.25,1,0],[0.5,1,0],[0.75,1,0],[1,1,0],[0,0.25,0],[0,0.5,0],[0,0.75,0],[1,0.25,0],[1,0.5,0],[1,0.75,0]];outlineConnect=0;fontColor=#232F3E;gradientColor=#945DF2;gradientDirection=north;fillColor=#5A30B5;strokeColor=#ffffff;dashed=0;verticalLabelPosition=bottom;verticalAlign=top;align=center;html=1;fontSize=12;fontStyle=0;aspect=fixed;shape=mxgraph.aws4.resourceIcon;resIcon=mxgraph.aws4.quicksight;" vertex="1" parent="UWv910rHTFWDrx02N8dY-86">
          <mxGeometry x="270.00428571428574" y="31" width="78" height="78" as="geometry" />
        </mxCell>
        <mxCell id="UWv910rHTFWDrx02N8dY-85" style="edgeStyle=orthogonalEdgeStyle;rounded=0;orthogonalLoop=1;jettySize=auto;html=1;entryX=0;entryY=0.5;entryDx=0;entryDy=0;entryPerimeter=0;" edge="1" parent="UWv910rHTFWDrx02N8dY-86" source="UEzPUAAOIrF-is8g5C7q-118" target="UWv910rHTFWDrx02N8dY-1">
          <mxGeometry relative="1" as="geometry" />
        </mxCell>
        <mxCell id="UWv910rHTFWDrx02N8dY-91" style="edgeStyle=orthogonalEdgeStyle;rounded=0;orthogonalLoop=1;jettySize=auto;html=1;entryX=0;entryY=0.5;entryDx=0;entryDy=0;entryPerimeter=0;" edge="1" parent="1" source="UWv910rHTFWDrx02N8dY-88" target="UWv910rHTFWDrx02N8dY-63">
          <mxGeometry relative="1" as="geometry" />
        </mxCell>
        <mxCell id="UWv910rHTFWDrx02N8dY-88" value="SQLite" style="sketch=0;points=[[0,0,0],[0.25,0,0],[0.5,0,0],[0.75,0,0],[1,0,0],[0,1,0],[0.25,1,0],[0.5,1,0],[0.75,1,0],[1,1,0],[0,0.25,0],[0,0.5,0],[0,0.75,0],[1,0.25,0],[1,0.5,0],[1,0.75,0]];outlineConnect=0;fontColor=#232F3E;gradientColor=#F78E04;gradientDirection=north;fillColor=#D05C17;strokeColor=#ffffff;dashed=0;verticalLabelPosition=bottom;verticalAlign=top;align=center;html=1;fontSize=12;fontStyle=0;aspect=fixed;shape=mxgraph.aws4.resourceIcon;resIcon=mxgraph.aws4.quantum_ledger_database;" vertex="1" parent="1">
          <mxGeometry x="390" y="385.5" width="78" height="78" as="geometry" />
        </mxCell>
        <mxCell id="UWv910rHTFWDrx02N8dY-93" style="edgeStyle=orthogonalEdgeStyle;rounded=0;orthogonalLoop=1;jettySize=auto;html=1;entryX=0;entryY=0.5;entryDx=0;entryDy=0;" edge="1" parent="1" source="UWv910rHTFWDrx02N8dY-4" target="UWv910rHTFWDrx02N8dY-57">
          <mxGeometry relative="1" as="geometry" />
        </mxCell>
        <mxCell id="UWv910rHTFWDrx02N8dY-101" style="edgeStyle=orthogonalEdgeStyle;rounded=0;orthogonalLoop=1;jettySize=auto;html=1;" edge="1" parent="1" source="UWv910rHTFWDrx02N8dY-94">
          <mxGeometry relative="1" as="geometry">
            <mxPoint x="820" y="560" as="targetPoint" />
          </mxGeometry>
        </mxCell>
        <mxCell id="UWv910rHTFWDrx02N8dY-94" value="&amp;nbsp; AWS EC2 Central&lt;br&gt;&lt;br&gt;&lt;br&gt;&lt;br&gt;&lt;br&gt;&lt;br&gt;&lt;br&gt;&lt;br&gt;&lt;br&gt;&lt;br&gt;" style="rounded=1;whiteSpace=wrap;html=1;align=left;" vertex="1" parent="1">
          <mxGeometry x="220" y="580" width="390" height="160" as="geometry" />
        </mxCell>
        <mxCell id="UWv910rHTFWDrx02N8dY-95" style="edgeStyle=orthogonalEdgeStyle;rounded=0;orthogonalLoop=1;jettySize=auto;html=1;" edge="1" source="UWv910rHTFWDrx02N8dY-96" target="UWv910rHTFWDrx02N8dY-99" parent="1">
          <mxGeometry relative="1" as="geometry" />
        </mxCell>
        <mxCell id="UWv910rHTFWDrx02N8dY-96" value="SymmetricDS" style="shape=image;verticalLabelPosition=bottom;labelBackgroundColor=#ffffff;verticalAlign=top;aspect=fixed;imageAspect=0;image=data:image/png,iVBORw0KGgoAAAANSUhEUgAAAPoAAAD6CAYAAACI7Fo9AAAAGXRFWHRTb2Z0d2FyZQBBZG9iZSBJbWFnZVJlYWR5ccllPAAAowFJREFUeNrsfQe8XVWx/szNTU9ISE+AkJ7QAqGFHrpI71JUBHwUO/qEx1/F/lT0qaAooigWBDsgFnrvLZQACQRICCShppCeMP+9T+45Z83MN2sffDyfT7N/XO7Nvefss/faa9o3M9+wiNC6Y92x7vjnPnidoK871h3rBH3dse5Yd6wT9HXHumPdsU7Q1x3rjnXHOkFfd6w71h3rBH3dse5Yd6wT9HXHumPdsU7Q1x3rjnWHFnRm/rt+aOdjvz+w+LZroWLGk9A44tr3jYrf9S8upXtN9ZQKqPgHd/xYu9jiH/W/pdfc8VKq30tDdaU6jKl5Lu74G/re8b766dVnJ6/h9PTS/IzGv9PXpedOXp9+RuPe0nNL80LspcKHCW6b0Dnri5Fcq3qvWZPwszvOhdbKLouAa9GfKc1F7vhee5bJGtjrRc+G03swzx49rpbMnHl+az+7uQeD8y0r/vFq8cvZxc8zyq/i708U3+9YddnpL/895a12rX8PQW8/9vvtxSfsWyzC/sU/dy++NnOCwk0Bc5vCCBJ6aJEwhJsJPX3ObwB1LQTlxQu1+b19jRceIAkVGzAn4ASUCDpNKrg5iYTPB0gQvC//QLQy50A5BZ+NTmf/GCowt5G84EafCZUOvrXoXNOKH28uvv+5+Pe1qy87ffX/aUEvLPfWxY2cUPx4TPE1iL0xgBoTCaJ9PoKsTWIFGpZdYqGk4AGhzRBZpaoHL5E1DjwJeM/g99YTQOfmQH6pVYtvramzqMCDYn/t1sLDNf5blJ9ZALQu8XvNayi+FrhfI4WWucfgvl4qvl9eXMtPC0v/4P8pQS8E/ODitGcWP+6sHjKy3MnTT4WzYXgpfkChBk3Ma0NLZwQLCTrn3FizwTld0HTjt/wkfGhAGeMauvqEPQEUCkQWP/+5etc2PRz8UKxLDx+YFVrygszg2UBPJLLgwEBQJpwSsP+wMQBhBfnQIvYi3GvvKP5xbmHhr/qHFvTCRd+tONO5xTVPBp/WeGjQkmasGAceAHTRJVhoKyTSVC6RuxW65R0ndoqJYgWRxnbKxHHgsURxd0Ygqiw09IoouRd0bZlQBT7jjphdgtAlin3V80MWECnRjFLjCmGHnlAu1CD/DK3iUMpaKAwNvQBoDVZ8u6f4zZmFwN/6DyXohYAPKb6dX1z8UVEgWAleEY5hiarc2lhwqoCp0P021oZx+Oc3lDVjQLGlwmWtoLunKD5OFgjcusMAKkEo4w05IxWssRVyF+MSduOllRCiImSDGthIsfssCUBZgo8j8yzMszXCTjmQz4aVOeUp9Jvifx9ZffkH5v2vC3rhph9fXOAFxdn6EDgPR0CVVASclAd0rCup3U/B0G+AMeXCRuhaR1Y6+H0rVjCO46JNBTZgRlioFUuWCz0ES2mVZcx6bYF1W+td4PuCbrlkXOIA1OUgpIhCIq/YM6GHTT8QPhE6J/BaFhYv+GBh3S/9XxH0wor3KL5dWLzzPVRhIUJfNHiQoeDlYq4oNs9ZlQrAraWNA9Iu6SNE62D3RwjqSLDLg5AGKpQcEGf1YQW41xpAaMKaCi/OKVACrnvmHhiENVYYK5VN5C0iT0+72KG3BhWm2TzoNVF6sDh+XnydXgj8kr+boBdWfHjx7Y/FWydm0MTYZQ/ivQhcix4cBNlaAVkq4+BMsGfRbML5fvX3cGdg9zJKI0kmHo9c5giYyoIbOdRfgJYInpG81RRplAPMoPQwTm5BcLjiczmTsgsVrsN8AsyDgeeSM4TN+3qk+NdBhbDP/h8X9MKSTyw+8ZriIoZQLpZqJReJLH8UJ2Zi47CYxQgiVSgdmGqLtHgupQOAv2wRiYm5pUJ4BQXTkfdhvJsqhdFKxiAbioDFcBmF6J44D4ZxLlUocXqCo4xKVfouyIxUequUx5fCULTKI157jjJe368Q9of/xwS9sOQlmn5t8bVelC1AOJMEgFvT8mEfkivSYi0BbAZscZaWvWKoa1qYGsx8Brpnp9CjdJa0AEYGXgF6rbt2ChQuShVFQJZ74D7YhGBa7p6DzIdKVwYgj31f6DGBdKhkvJPQeISFCvnn5V18wS5mEGYCu7So+Pe+hbDf87YLeiHk2xUnv74Ucru5KQCk3kps5R6EeAQbPYTKKrZcBiAAVGPti1NVldbGpJ6iPSaZUKMVjKMqHkbei2RQZ1JxN/tzBGC8ZBDznHeXLeoJsIkI+ZaMB8JVKd2qKsZMZV221DcqQLJGIgKCtNJYVPy896rLTr/vbRP0wl0fXZz57uJTBlAmvRO6eJkURdaVJ1z5RBR4C1QBcITxdwYJRNYqCi0SCxLFZrZOOgueocKhCMBowfXM1SG4unqhMC4Ji3UiALFKykBmEgFyzisggNBHzwzsuaqsDuWAvsBAEfk8u01dCujjCJ9NBHqu/fZK8bVDYdln/rcFvRDyPsW3e4ozj8eBeC4lU52uqKgJhlYviwgHGyJFwLOxaKWLHrtbVJFvz+aYc6h3LjyRjAvbAthU1SQj1KI7DoRVCS7HGYUs+JgLJari6Rbvj6owCwnzYU5xUICNVKYSKQ59KI+JlA0zkwthX5AT9LYKS15K8M8bQl6/GG4+IFtTzmalGrnu4rvknpN0/Dt5QJyeJwJAgVCKyfOuvdCO51VehxiftVxwG3pJIjiSPFP2blR9L7gHJOCaknVKawHSe8/Kq1gXnxuXyBRrCAbXm14fmy+4mOm1pbtatHA5JWALU9J9lO6RVjwRMdfW+BJ13Y1tp24Y6IbGtbN6bnr9ksXjICGc7u+OBZJknZuvBqBRstkl0IcIRO5427ji2886l7KaOdryzj19uITzGw9KMug0e2FObyZdSBtXqe/JZlbPP3mQQn6TRqY1XWhSgpqm6TSkLmIteBIzE0Gtkz6zxrUBi596JpJch7sXMcKeYiIurpewdDi9VnX95kFIoqzEWFkhL1wiiRFk/Zkoqmi+Sd+fXShflaYVPrG1As0bkobxAWm8ZJ1R9JgqBrZtsBGwqx4c+70j+loESHG2gg69xtZgrP3VQcW3D2czJZHrXmiIcR15u67evc7kkmDuPNPWRaAyKJcjDfKxsPPKAGcQxMkAeS7ezlka4OvC1GGIY1DYcZYpD8ij4i38rRXQknNpQZA3zFa+5XCTVvLaRGHpa5otcaBZ0NcepiVbCYMC97wqNRqChSgfmwsjtAFYUfy4ZeHCT2/ZdS9d9uJNF3Ep5Madhi6H0cq2Zzt1fZgT0yJ6Ha3CEWAx65+ZfrTUtR9zsj4c5mA5sV6chA1sXFNRSWDt1qWXyqyvr/7ohSqEDzxtAYKXWpumOyjezTQuLkearOPmw7JkcEqnUJNnzua55EE58X39KtyRDtwn9SKEUKaHlUvNjbSp2HjEeHDssiGx62yfFZtzCgh/lH0T7+VZT6GxF2287+IPE0aIusTSIF/Ufgx24SPX/ZjiTVOEtDAiK8LgE6kK/GAOF1fMvWgBkMQNlcRaAjCQfWhHETgEXHbRT4DYpZbEhAiiraDdWEi9I4BJvJfqBIjrm0yQLk3wkfpSizFVrLwjtriS+Etquv3S+DAGeIBI7G0w4dJQZrM36q9h8x6kuMG6pPfhPH0TVrFR5GxADLbucsbNdvF0+ow5UHzm/lkpLVbP0uEc1u4y7Vb84ZiWXPfCmnfpQPI2hikFmAYDuV+VQqhOezEGJVvLjeZq1jP121XsIXEOO+7UqqySQrlzonwJL/9tqHJV7UDlazMIOFW5uBVuLM6TEiQTSfcR1OKZajjt8pJ3xyrqMWCoSn7PZ+u5I8Yhiv/2lrIM+jWzSoBu1WWnr6xy3U/iUsijeFCMhmFSYBUZq13XTKkFdL3HAsBU8wDDmIYQOIOVgYgGxYRi99bhAaCYXRBKbUAuRso8JyjsrXkONZbAxbP3JcoseyuHNmHD5exA3lKgLSziCbxAhOojV9pZxtTQdPjNzB5btQ829fo5ja8Yd1KpvZC4JQw80NBaCwhhrH+OOubs80QWnAOHwAOGGxfP66SsRS+53WrWXGhkSIiAGje4ReKETIFHy/ncIPcYYn+tVJQBWhsF7EQFGdACUVhkE0pqrrAk02hhPScCqRhVuWhq9lvqUqO4kg4ufCvWMiqXiwpkohJWYHWriCdQ8RXcx6lnGpFpEFWwJrVQXMTxdozphAKwrnktzxbfx9W56JxFL15zYPFtJHEOXBanfSymIUJh4puRGhLjWdlctAEj0jSKswAtuThirFm6w9lXW0VuIvp8Dqw2xy44B8CQDXxFNPAlxoIpSyv2ObFPHpgUXhpzC3iNWDDKpf4wtB49EgZYhiiMQbPf5IkgdSgVusZsDGwH1mP3UkP3MMOLT6+HMvsv9YYEJMY5wjbUggc5Wo831r2ckbRWljEYV5z3FJcfNm6Nq8JKNidbNcDNfKvKa9ucegLsOHcuSDGlG5u99+s3pnLbWXsm5mEKAreAEKscZypY1s0W8cUeiYsmZm3TG+MEPCOuZjtN78kWtQhCkJHnLzhM1UImMbiEBItMDt96s5CplpWiisIFGLlxBVbAXkFIJq2IdLAQQY4BFVJ0bG4Rf40oDrfhZdPDRBmKZB29sj8Vuu7tx3xvUPHD3Lrwu8YS4Dpb7jXY4mw0RtQRFuZ1I/ZOm1enOG/NVXlOCXwoc9+Q3qlYLXkTrxMEMgMwqorCulXmHSuxlhwz104c9VpTlMPNgWsgt065HHyuJrdKaClPUoG5BTOthVHWwHgZOBIJGp9ypB7JC8JmqSgMiMvD3yy+hhbu+0vadWc+nCQWcuU6JwAZcx1s026fTmHgfKoCI3KNDgLAKfaKRKL3UPjsdP5d/Ps0awypEtnyPeMHr2fK3er5c/Z6ypZDCkjXGSuFQhqE+xEj4Ia1EyGu8ldbIPELJObZcwWMzkH6RKzX1bGpGXgkDrkr3ti/VzeV+7dl1wgiYKA3BKQ/lRtnAVQnZKzKW11KtmMhIZ6SrIUx+M39YlwIQalY8c9I1N5b660XbznSu+4iB+oFZ4juUZRX5ChnLAqdFpT4p6Dvlpu4gFDwma7cURR+ofLthGPUhgAERSqk6qBFKbo+3ToDiQFYRuY+lWIQ49IHIJtVqGwxjRT9RdkJ0cIvBGIfcP0iHkNRiglqU3ZhjXLbxSP9NkvRv0fn0O0Rq+xt9gbgPkQmc5RIlWTSti2FLHUcKVk0MWbZYiCUQ9IJh3wO4bf1AiL7K0Gvoe3Mu6NFY5RuEu+bs7HgqeamVOAI910TSLsQiNVyjReS7Hoxnw/jCcbxN8JAmLFVG9th0dkAfc5iGEGxVpSB9+NiXVCVF3lRzsoAzwh6WkhZC1Y4KSgqxmQy59NIbMsTg+KS+nlrnhN5hQSvFQTctucB2i0jOMwo7GCIIRFnQMdkkTjKJ6ahLQPArSocsp712oaz3TsyaQ2LPqn46umaVkw+0qNenM+BpsIZ5CfELbx44MKVvKZAiOgQIfV3E+WigDjglikNH1hSEZ+yGzloPerTo6uiZxLxdQJsEGsxQZjD6urXzrrK2MWbSEg5SH8Bi4caYIQMOMraPDJArwmh8uYczmVOyUSAQ5F6I5NGDnACDEDoPH7AqDxbFfvBVKIKFVCprAshxOfEU89UgAkTceCc9X5SBQnpB7iOyzSuu2fxbetU0Le1FVNCPvFvEWfr8ooIdjFNCsNZ0bS7ihm2pbrcsJhiBhRdJBspbcvkRm5Wb17YLii+kCF1EspA6MDNh+kCefYbUIAjJJJJlygSCBxcCziZGMyDlYYi3+JpFXnT7dM2rKMlGXp2lM8FC4BmrHUSwUai/MAuXTrRNqMGwZAidbOjXgR3Hxn33zmrYQ82hp3ssyMlyOwwmoby46Y1tnvAZXmSDITPftmwgbahBGHfPHI9xApiCiIZwWAQgDJRtlwUteBxbvOAdEza4KFqhY0byQwWizhusKgj18AqpjXtB2yzsXujUAV9cw5NttWDyUKn6cn6QrDxrsTl8RlbsCi4S3xICSxLGnIiT04JlfEEdOMOTh+lz+TIrTai7l3bDfrlA/E0bhWLEbC/TU6Nl80xcrrHWYceglNszmNQeBR7LMF5RaKMnKsk5EwqETHnrP3VFg1BL0NNihBd8dYc5ZjDfnzSzSho51vEVzKeGIOut2aDh5hcck5riEfs7Z+jpnLTE7//dqOpe7f28KMoiLsRxuDo2XJxtC09zhUagDRPqriVFakrDTbAbFoNFZAlwPAzoU0SCfLYYuKy5D7evdsEhXhbfVT3NJhxSEaqGUoB7L6RhGMDLoS8WnGYBFLYuXSk6sYjD5Km4K8EHX0wA7H2F2OarrusrW1nQq6mQCYVsZaHPJ8B+5YvUxDAWvsILopxSCxKNXCcTBNg6axbFBKIoF4G1harZ7fO9PG9Nwl72zlI+vo6bb+pxLacRiVmCFxklCE11lUyoYrJnKgTCzkA0lbjpWXLEUrsU2ra7d1kaB/ac6uNGyEdI5c/Ic5wmQ0h+KGwB581SCopGxEHJcBJqMlRFkAA3kHeC4gIJmBNCXOeA7B5rRs3BZ2pPwEqJEa52By4AZpTbG6JASDkPIcoPytBG6SLMTIltVYbRtRDXN2AkR4fOGCrpnsZOQ+gSpCNxeEcKUauTp1wBs0ynrgaaXaRAKhtYGii6kLWbCPlYAI26/sCWRY2slMXsC8cuQ11auMGTmEBP2avrfEo5DjORik5Zpz1gbRYAopjKOeW2v3uwxHOeOdirwp5Ic016p9a9P4MqrMEuAWu9DZCP20sD6idRPBmFYACS5KXYvT5jMALQF0EVl5VwQpQAJzJaXccg/r2pK8csbU7t6BQgnW8rEFDgWCVVaZMntpKCZLlxEuLVwSHu95qWEvHzrXmtLxTAgUVWKvodfXf7z5uMB2y47hG8FAHsyQi1XClxzrFJUF6ynEAME73gOY1pDtxCOyooX2dRqqMkMdhOxXT7r6IYFMJugJIJAAkqDqvqtw4kEJD6spWs4llPmm4uWziY4GAnmPC0SVuSqiZfRmtBRmZ8xRObyxf1fj51P22oh1HD4DklqHGBiVYAvK6YhQbImAU1LbGzfhT1cCzLumszJGSaY4Rn4XIUdS4sk8BzT+JYu7cuY1+cNqecE5dCmaJ6bixjTHIMKmMkdmngqy6iE8B2zQoYeJJPBmIcVhnc+0WaJQkTc246SuV4VQW2mwqBMF6PiMixiUVFf0JyCdZkj67yYVijnjHKGrBEwBzs6WATrR6CnKkCD5qZHCWz7htS1c0Bb29vY1+9uF9qHf3Lr5mowL8s7EpB3l8HZ8KHhpSX2MDyOEUEru++ogWiyOkGWQDuCKlbXuu2WjVH524C40a2rfx8hWr1xgCToHeh7SST28x/y5oz6YAoqkLEOumquEmXlYc3ovGVycjoFMFp2orOO6SrG+7NogCIqWc1tE6XnPWRSFiwCDEBZfyniGCPfbxswumYYO/qf2FJaUC43cGwgTTUMnDeu7lN9S9jRjch37/0b21ByI49ehiYY551C0ARaKtq6soQyk049paaykAd2mkTYVgIRNMjaquPAnddIfcd7zozP02p+P22FS99IVXFzsgN0CP4V6TaEFR26ixmJ6RV2CGj40rnSygT40SwICQhybV92hvyYW0StA5P24aVpIYwjyL90Cuc4AuuHps0RZeazwwS1wCDZ26SKb+Mq2L10osnJqjAMr6S+6e9apb9N0nDqdfnDrFgtTgXgxdFoF6BURKmAAwyNtwKWEQTFpOz6hSGOIvmSDct/ezFyRQFlt/Ru/ZYSR96b27uNNPe/41uN91DCzae7RpSAIxu8ForMXkXKZAcEpWUGotxUnMeoXUXmi8NjtKBK3YCQPRbS6eMFVuIVLI7NMYKVGi2cAZZeRBoWAssAMkAhcMWUkhD9BxI15l7xpTqNfUBb3+xgqaOdcPyTh6twlNYSecAxdTdQWbM2xPv63AYyyEbNhuIVlmnNJXiiRNtdpzYSC2udulglkn/dx37zCKLvrgvlCobnx8ruoAS52rplCxCkUijDHKHAnyBFD6OJFMh6eACbuo4IwZ87zDrCkH03gBYBzNJGxzcaGAmNH04tUF2SKpnBAlVLUt67JXWywgGG1k7R5ZyqCwfNd1YZhiBAgMAU8DhGDl95seweOq3zVlE7rqjH2pc+dOPiSyrVMCcgKu0QG4Zk6YJJxsA2UOlddGDTTEoVGXKCGNSqbTtEHHG/99383o4o/sS+2d/K55dt4CmjZ3oQKklEcCpghliTOTNVP96S2wbKJ8PdzadjQVmvYScTMAwlVBKWwOCqxAOXEbqTcJLARrVkpxo+bZCZDtn6UYxLJunOfRCuohTUVajmwgTBcFBF5ofJAQhbO10s++5JYZ4cZ453aj6K7PHUKjBvbyZZnEPiTJpBvtyKq0NoGjeDNCgnOxCpmutIocNIPfajBQcKK/+KGtvY0uOmln+sr7dg0f4RV3z1TvFYDSV6b0LDLDZrtZCcnFxZBOS3wOn7ESQbz2zNqg2kpCDpQBCjNRqWybPok2BUK52U9iLA7eLMSeaw5tGgGkDGJOxGgqaUbtRtVPaEOzU9fB2wC6e8+zL9N9M+aGwj5x5CC6+z+PpOO2G0F2sAMDL8LWCUSbVqB+1CFVWBYKJzM0fyFRbJQBvAgh8w3D4LXqxA370L2fP5Tet/cW4dqtWLWGzrv2McWXxAClh/gS3MBYyTPS8lF1ofVoLWlF2hLMOuiH/A02HWMGpDDihgd2S9WdoBjdgTKMCxIYBmXi3CEkvEiyBQAmFqCyiidq1nAkeRzQawpII9WVRnKDNj0lwDlIrfPXr3gw6/Kt36sb/fSM/eg3H9lrLVsKAicMlXLkjKQhlZvVhghDyXvmbO8xMxmW0bVKsC9MDOt74ssLEDrnoC3pzi8fTVuWXWmZ41e3PEEvLlimNHKQWQP7TkAVmgefdY5epz4kwpCingv0LNm9TRN1iE+zZegA4NAU5wgnrc8uRlfIYTyz3aCdrB4kRy6O2z0MSz0R0wmzE20YUkrkQpnrsblzlf+3BAjBGlhl9IeHZtNND8+qjPEO3XEcPfaNd9FH99qEuK3N5FjzVsejtbg0E07KSnaVHabIHAizcjP9qFcOUHcBHkP9n3uMH0L3fvFw+syxO1LXLp2ya7VwyQo6+7f3A5wlABCtp9QY8AlCIMKzN6OQDyl4ZWklSCVKXBOBwLiQqsu6/2mlH6P70V0wbWQRabYuN5Z0CWh8BcVlufhGQIWP6+oSCqqC/QNSpY6iOMBaqKHwKREKyPNdzznTB358Gy1JKuWiY8B63ekbJ0+hx752FB2+9XAHBtohEzmXWYBHEEAifmQR+d5v4qDrio3iRYQTKB/dca7xQ9ajKz+2D137ucNo0ujB1Mrx+cvuopcWLffU26bk14+4lrAj2GVgCJV7i8tPi1CMQSVliy5s4GD6LxPkVFQTahOPjQFTMQWpSh0askmvpRZCvIZ38aKNOYRiX468tUlJK+puMzNI9tcb9lGODlAE67yqJvJDLnzs9qWVdIJd4eIfw/v1bDyYmS+/QWf99FZq9Ri3YT/61ScPKCzcoXT85BHUlrRzkoDOPSEPvAGJzyloBt4OrEQUn59VWVbQOYPCjO1G9KPLP7QnPfT1Y2j/7Ue3vDZ/vncmfffGJxsnXK9Hl6TAyoCSbrQyOwuL6ZbZWW+LkIsFjVBhCOuUKVtPKcJ8BIdXRHYGG8ZEbAmtGOuuss7lJu583IVibT+aJZ2b4mEBH8lQOdvJsNGUEwtxs01ZUAsZkWg6DOLeysx6i+KXrTZcn6bOeV3dxEUn7UIn7rMFvdVj1vyF9MNrH6WLbp1Bry9ZWYn2O4rgYHS1zetmlwSFD3A8tIT5pbY2pqMKT+XUfTenXTff6C2vw/Q5r9Lkc/5QeEerGx83tG/3tbG6xA0cUpV1MWFHJYV1sB84lxILsz9+4ove85npK+aiLa05nGSUnGfVL0/j9lCT1wN6tTNENUgIumGFsrNvv2VvjWvKkuOnUzsHo1E9lOXPVkoLTXmwnx0Umts2zvTzRg/svVbQk/ec9tM7aVi/XvSObUa+pQ2+8eA+9KX37ELnFPHrjVNn0aW3TqdfPTC7gzc+uVYBacCId95cu5AOh8QqZsYpICYwTtrogu1HDKATp4yjQ3ccS/2L8ORvOV58dTEd8vW/0JJlq9W1Txi8Xgcohw2DBLFtNANAolRuJkND3lN3P8M+3SRXKZn1hOPP2HscziNrzFoQ1SqcGtt2mOgXwm2fzC6WQKycegJmIFTBiJUGK3ZmCL1rPqHYnc8B/0QVRQ/Ziaprfx43dD3q9GgbrVn9ZuPJvVkI5qHfvo7+/O/voD223Pgtb/Yu7Z1ov21H1b4uWLqSbnvsebrmoVn0uwdn12LW1LVL42u2aG+A8KpqwETofRzbtA4I0e9UXOfBmw+j/QvrvcfE4TR8UB/67xxzX3uDDvzqn2jmS284dT9xeD+6cfp8CE6q62KMT7he8hanwqZGxjY8sVG+az8bz+RuGBsrnATnbrjRzoI0gOHvt357urfbfeymV8BNP7GtgsY1lASUyHWhaZJBM+kEaUqUFrFjcqOBdzCE0KOPo1G2gqDa5N9dOrfT3uMG0zWPz1XWcHUh+O8496/06w/uQYfuNO5v3vxlbHpAEduWX+cV/3581sv00MyX6N6n59ONT8yl6fMW+7W11o6ARVAbIijWMYy56/fuSnuPH0w7jhtCW48eTFuNGkQ9Sl77t+F4Zu4C2v+rV9MzZZOQ7TxsK2L9MYOJr3tCDxZxgtrhgdo9zRhscK4764EdtrRY0P5nn3ZG4a4NfRVbcORtgpBSkHyaUASNKG8PTRxWTDAuFw5c/yhed91W7M9FoG430aB2jpowOW52y6PFqTKKtCmD1JR1lUWPaz1g0nC6thB0lzQoLPtR37mRvjpvIX38sO2yXmIrR/n2zTYeWPt6956b1X634I0V9My812nmvAX01AsLaHohMM+/toSeK75eKFzd0rtQOW3GoEn9uQ1crxsNL+Lhjfr3pLFFKDFug740Zsj6NGpoHxrar/d/+x7QUXosR5x33Vpcwk7CLX7YfezgWqaCgIsbT8fQYFCo1E0TgBgWB91bwVBRCmJQtqKUykZuXjQHOIAQrKBCCVEBuEO7d4W0dDl+RA5CaRdnB3GtWRXn3hvXY20aL6UrwudH2BEMM4wbnuNIb24Scw5Jf8d0yA5j6aO/vMcVn9Rff/ZvH6B7Cyv83VP2oIF9erytQtK3V1faesyQ2hfCfxYsWU6LlqyoVZitLLyM5atW0ZtrhDp1aiu+mHp06UxtbaXn0LWw2N2pc6c2+nsda958k86/6kE669f3O/c2DRVOmDK+5iMKCKvSem8V9wrrabNBakptO2PR0+GXzS5HVuOqo3Ay9S6Y4i41xNyrzsfmO/B6xYmV96jbnYW2SWPRoJpEiogz89o6hFUVUKNeO+dWgaePvAtLssfYm0hBudxCsYkhxKRzxJx3WP9edNz2I+mX9zzrFG994/z+oefp5k/+ii46cRc6ZMexfxdBKi+/rMhbv16J9w90zHjhNTr1wpvo9pkvw2m49fUtQ5dyve6bPtdlbyVJvbrJp66bDrCAJund+maRhAXXc/mzmt1mhVcJOzOk0odCLhmLTsATIEBxxuSHiCSvbyPKzyZ3VRiWqRWwxyDWKFYMKuIFOtioZEA/651J5AKJ6dENADuVekVPBRAQoDjqk4duo3ngKK1+WvvL1xYvpyO/cwO991t/pRdeWUz/isfyVavp21c8QBP/4zd0+9MvqdoFSxJRfvv0gROpVwcOYFP36dADPBVWNGpmmu1Tr8wi8MjTE+AyO1ozIU9VlbZGu/sQzS8fAMxWNm09hZt+Y97TBsEnAEzpWeNpw4gfF5y2IkrIgythvwkjxBQwb8KSW9JtnYoLLwDyEd84A7YWVKpa/3GzjQfQKbuO1b3migiyGSdeft9zNObjl9OXf3U3LVq68l9CwMt98bs7ptPmZ1xGn/z1fbRmjbjmDevhbdSvB52y35YURaPpexGfI6cdKcwOFRYE9oLUFdlElKXgtki3mymgmYBsM4ylNUediNbSO5IXoFDSCsE28vvRmnRF3JgG3ZpAQY+Ntc0Evn/W97KijBvKo9kKIDUJhNDIIM3TBafbZ0gMXZ19IvArVq1uXP8Xjt+ZBpWgkZmqwUZhlR+7uoiZP3/lVBr7sUtrFu71N5b/Uwr46kKgr75nJu109m/omAtuolmvLQmaZHyDz0Un71bjzE9TSFVjsFPl7bxKonCoRdofryva9D61/RCWGLNigpO+JuRooFHj4hyDoOGs+WIxrm5begIRXxjfzIuTa9tDwEDqS6OZ24xiI8PD5sIJNutt63uTia0UpDxwDp3dzlC8C4n2E6RUiv+lte39enejn542xSk/S6ORgkivLV5Rs3DDP/wL+tTPbqdZ8xf9Uwj44mUr6cfXPkKbf/xSOuy86+j+2a/h7A7pZ1T/7Sf23Yz2njRCAXdEqEAlIPFGsbPNL1slYOf+pW2xEfaEYspwmIIk+0zCQhsJXHdEMNG8DlFzXu08k3adUmqCFpofIcizGhjftdrZfLujVmYFXuhF0moXVTf53nJWFX2wLNJWU4EQJEVUdcFMswKpjr6+8PpSdfq9thpBXztqGzrrNw80Hy5zuMHr51+xYjWd+5fH6Ny/Pkb7TBhMJ+y+Ce2/7Ujq3aPr/xnhXvOm0B3T5tDlt0+nS+56hlYVXgss66RglnrHWuw1fjB9/vid1Pvmvb7EeVxrgVH2Kdt0H4H0rGs756gAh30lHhGoUtOwPrsUbBPFTZugxJMRwmwWWjhhm1FiWOjHFnX3phkImCsaaVpSP0hR0l4eGFO4emPkOlMdCQXVTZxH9sU1nXsBw+Ri7MIENbsgaZR5ZI7niytz5s+/+gZ998bpxKDrDgGQ6bVc98R8uv7J+dTe+TZ619Yb0X6FZdt9i41o8Po9/+GEu6S7vvvJF+m6qbPpsnueqZWpikEsGYBXkliedG9tMawPXXrGftS1s25hfTrl5UP17ob+KmK1RbgRBFjFjXnzFcZJeatrRY0MjX3e4kM7W1jWfM9ambLVpWhkty0mard7Lm6NbFaq+CIY9qk1I/goPZfWG/u5VoyYJsIZ0g0WGpWu8IT+5la8JmeC5ZHq4SU38fTLi+mVRUtpwHo6P/7Nk/eglYVFu+i2p2GzD3PMUlR/kKVF/MXdz9Gl9zxXe92OowbQfhM3pG1GD6rlzd/unHyrgv3ocy/TQ0+/RDc9/gJd/diLay13kA+GViqt0zBC/tdPHQzr5O+YMR+376bWyOJtat2THJXFYxj370el1JJ6kEH1m6rSsxxxoSWPe0k4GcQBi09gL7V13aPOGzNmGMl/c2NydQdPJnWQIxHQi2RKXg11UupNCOrUSgIim79M3a0cCxWb8sfbp71Qa+SwLvl3TturNszhm9c+rtF7ZECCst30d3c98wrdXXzV/zxyYC/abewgmjBsfRpbfI0a0pdGDOnTSEf990C0N2nWS4vouXkLaMaLC+ipua/TfcVn31PG2m8KCOFwHFslTPVvO4wcQL87c3+ovMrqv1uefjnuVDQKWNDecjPLdeeYKDwqOB/KczPGEnEZuWWWsN4eu6xNWrdRr6XnpP06KvfGBTPsi/VhSagZoSyU6RqjDB2OEOb6su2rqJfSpEZUh19a3pqEHIKIvg1yothyQEwWEVGW//zVHU85Qa8hncX5vvq+3Wjs0L50+s/vqgkISl0ScN2IMDqc3ktZF/5s8WWvuVu3dhpVuPlleqps7+xTxPk9urRTl85t1K29E3Xr3E5riheW46TKuHrRsrWVcy++vpTmFF+zFyylVxavwAKL1iRxXe26ScXwzPIEx00eSRectmeCsOvjz/fNJHnzTVjDDRHtijZWKyDKMifur62IdCXe7LEqFwmm50irO4WhJ4eUFBsvAsmWVRB23XVTi8S95Iis3moSCRhWPdE12NUKYJDmQD/m2BQCUAJ6DECxUArkkG8IETP3TPDzqf2h7CqbU7jwGw7sDffeye+YSBNHDqTjv3tDTTCJQ05GX24QeFy2jTl9z/IVq+nxeQtrX1kgLNdfbr2dVDg6FghVhqGcLyFu+eIXnQrFc94xk+nU/bfMyu6F1z8OhdwJL6JPTlo3YUuyNDEgmFHjoAOOyccJwqoPw8mGqdCEXkNgTChnVCUBr8FY5mZ6zea5DZWOoA9GHOOo8AFWtJDqmvLVbazzgDnyukyIAi0yyKdHdMVKIBDNVbLg3/vz1Oxm3W7cUHrwa0fTR/eZYK5BEzzCKSaMK6HEuPa+8lOc14QwmdRtDJ0fhTHobAhJhm4ZPhehXcYMpEf+88hKIb/l0dl097OvVEeEptmcwWQJzlCZW1oq52W7Shcy2BEIbQMiFUstBZP/7jp96rCJh4uimmLQqdhmxdANUyA8Gslem6hNBRaCvAsnQfqLAVDByLKxYfkx5PYI9lQ0POD8AkynovwFwEr5439d/0Rt0EDu6FXE6984aXe68ewDaLOhfZS18WXD4hVTonnNCDqT19VgQlqmDIt4iGA7MGpDTj+MOUgNmYtOWxx6dG2n847fga7/3GE1Kq3cUXbefeqye50sMzKsiRlmMLeMKR9WSkBYgQZo2J5gl76TzLirYCS157MCo7HJlGODYSvNFmxdZ9CGBDe1NLmRsEjloAZ4opzVCSyB4KwXoX2FZrR5TARWykFUnjFvOqLFqw9meHP1Gjrjx63xxe26xUZ0/7nvoh+evCsN7N1NxbWWwSX9cNV4xGBtGKeI2HRROSDNUmoj5efondlMtCFA+yUqjv/4vpvS0+cdRx84cFKte67q+Ml1j9K9z60FH/v27KrOhypENStxDEwRmicRdMERZ3gR7by5gGYWlnKjQZZsueSkESp5rn5xYZMyvMYnaFN7SvzgbpcWS2d+ES4LTVURZwTMxs4cILKoai4Yt64bVAiTVtSLXsKCGsG3hHKefbp3brhuf3r0Rbr42kdaEvb2YqO/b+/Naca3j6NvHLMdDenbba0VFwkRTAbXYZUABx4L0qkp/z2aGCQoLAOuqSoOS+d5l25xcZ8f3GM8PfH1o+lr79vNpSGjo+xu+2hhzeuf1atrp0S5GGbfOoe5K3fF9MtqEgoZy52cxxKBOkPjNh5VTMkRVRnqPUkwCLJeDw+IHkIjnGYYbIzuXAD2YYOYCgMRPQJZxwdMYIhnPMMcpBaZfEyIYhQ0Jp1NYt4zvnKI2Frig2ZoIm6TjxnUW13/B39xNz3w1LyW01ilO/+Rg7ehmee/h35++h601Ub91DNI/4EonZQCC7yQdJOkr7M6xc7Us5vQxrLh1MLivz49u9AXD5tEs88/jr79b3vQ6GHrt7wmi5eupGO/dQ2tSGbPbzqkj8NwhHyopUfHRdODGKZMUQmHHuAYcLGY+D3mzmQtQ6j70nrBXO3xioifxGMUTrMfPc0hIwiw4ZJhBou0Z50Jc66lyKklAVHptHqeO3K9UgTV9uqm1XSJ32XPhcIA5ng4X+O+TSfb2GIDloMIlq9cWzRScscd/F9/pds/dyiNHNK35c3dpXMnOma3CbWvh2bOp1/fNoMuvuMpWrBkpUdsJZ/yc5sh5fozFknTb7GZtyiQBNJlH+ova2M6etJGdPyu42mvSRtT187tbzl/v7IIgU447xp69MWFKu7aoojnSxYfoiArRGAgYVQjUi+Y4oBbDzDGWO5Azb8gPvXDIF3KurISAoqMizg4SRmTXX9EX8Ugj57mEl2Bg+gRvZIIewM1R4T+Ji/INgYSMOmCmnW7qIwOpv4wIbanJAKRRZ4GGOGPCQ7RcQOd2zvVeNRKt72++CWB4zu/cjVd9+mDaaOB673lzV4OOCi/ynrvGjHk1Fn02wdm0fOvLQWFIEYwTWchka8liBomRPQGTrMirvSz419lzv6ILcsy3Y1p70nDW3bN0VEW6Zz2/Rvoj4++oAG3QoFsP24w0bXTIJKPWGmI4owLIWzGpN7EhKjusyQln2BK6TWVEQMpv4hRW2w2g3wFpbh9rTnimHFmux1qOA7SaKmLZxP3qC21QUOrCw6ECY58DTchAfLDKFdPARoKYk/rkzJCt40ZVGBZx9M4aOsRdHUh6KmSmPnSYtrnS1fR1WcdQGPegttqrfxek0bUvs49keiJ2a/SbY/PobtnzKMbn5y/tqEGVQxSpqwZ5GJVG3HiASDm4m5FrLzH2EG0y/ihtOOEobR98f1vsdz2KAkpTj7/Ovr1A7OMRyL0zs2HUd9e3byANLw6sB+BkEPPzVBS2arHnPdAIF9O5JljKZUF0hJrvcscz7vN/SvKLHQtifJqp6gIINgQqcWUgAOowZUFhs45C02e7dV2r9k+3QZVLse5fg5AI9ezzr5mRBCCC5XJ2l8cNHlMrfJNETEWLy4nt+z02Svoqo+/g3bYZNh/Wxg2Gd6/9lUnY5jzymJ67LmX6akXF9CTL7xOjxVfD76wgJaXgw/QbDTGCDSykqUVnTCoN00qPm/c0D40foP1aULhPk8o/t2p7e3llXt54VI6pgh3bnv6JceDWCra9+w23uW/cpzolMMRjHfj+g9AAZJE8bPEHpVL8YPe7hQQ9OXBrHGxtJvSUJxZVwXdRztKA6TaJzsxN3X16qR5DFpLwQZLF1jsG4x/ymwXkR15P3O+KMRXIIlra3UpN9BqiDT8wL496P07j6Ef3vaUwgrKHxcsWUFTvvxHOv/4yYWAbvW2sqhuOKB37Ws/8/tyOOFri5fVBOjVIox47Y3lNSW0ePlKWlO4x0tXrqHuXTrVXM3ePTpTJ26j9Xp2qTGt9u/dvVZvXlrQTm3/A5Sv5ijHTR993nW10luXsy+OwX270QHbjaa7p7/o4lhhr6yYPLcfg1FixLBDWc9KQ80IkafEpAgsG2xLmQmPAjLR2CPR8xRSS4Yo1C3HYVPQKUIH0RgawHkN3CZL4Ifme6fWmSjRVNYE1cE+zg9jCDDgkIFTxBNWasuOGT9VvrjjV2ccsjX96PanOwC75J7Kh72G6EM/v5v+/NBs+u6/7f43xe1v5ejTs2vt662AgX/vo6yt//rv76MvXPVwjRbbtpbWH945B0+i7l3bm8hylKoBLqud8IP2jaMBt9aCk/hZMiGBePJGNsCcLWFVeku0F+uARcabWwx+ls4rTO+pDaW6Eh3iUixBRgHmLhvjiE0+kgz1lBvtZBj5HErOBMsWCeWZCdBLBeNqfawaDmt2Gr2Mwz+x76bkKDATjfiXx16kzc/8Df3shmm1ZpJ/1ePBp+bRTmf/ukalpVKgBvyaMLg3nbD35v4JJOigop1jPbBBYHG8wNnmzGBTm7w6rCVAeJIRVEdfxgm3YuppMGNWZMspraID8XPaAVDbZnAlvTklMwQ+BL40Z7sfwcx+BnSkmYlgAwiTn+9df7Co0cLOfONk0irHz0vVs+uqGW4UaSxLcr3/7+jJNGJAL42amm1R9nO//+LbaLdP/4ZuffT5fykBn/3SIjrtgutph89eQY+8uFAttDMaxc784Sl7NAgoHFaSNp4IHmSgEHP3gzi6L0YVYJDcFBsN3AJri5dY98+nRQ0SuKTAHU272fxoNG/+2zyiZ+IHJjxc2larAX85qNPXsVEqSGKmOoDqNlu8ISnYwZRvsEAzrpO1d9fLukVR8+Gt/b5sZZN0oSx+ufRDe9U2qe5TZtfJde9zr9Fe//knOurcq2t583/mo6SB+vwv76Rx/345XXzH07oIS0zo17HeXzh0kgIwS2yBgkyqJkTEnpxyFsG0BFcIxMGsRGeYBA/0YWzp072j5MkIp8LL7IZPrlmATKBq6HaPIPqYGk2IwIFO8n7GoJ2aOZ5QRKn8uUEliQHRXjjORhwSATnDgOegUPi0MpC951K/njmvLVFLUXap/eB9O9MpP7kDnkeDhkJXTJ1DVxZfe44fTJ84aKtaKq2N+Z9CwJ+Y/Qp9/y+P0A9ue4reLAUVtRzXSUKSx3PEpI3ok0dsp841t77OKHsQtDJnh22C4hQ7iCQCdFUqOan5z6X0oLjYNBqoMbF9CjlgOM2rh3l0Rb4gwGVGs44ICIkwpK11o3ajzZxrh7VAeAI6qMmTIG2mUw+JMjL5Z5eaSzai9QzKFz4w+1V3C+Vs9DmvvlEDmojgyCyXfrxh+ny6cfo1NG7wevT+KePp8J3H0vD/YdDuf+IoySz+ct9M+ukt0+maaXPBJF5f7ZIK+c6jBtLFH97HpfCmv/i6Sq+6xp/M2GHJVJpZolCxiiMYTeZAv0Y4EE+OYZi1YsjpIEFPOuVSiHXkH4QbjngC8pmZsbqErCP58lJJFoKN1rFaGLbuAiHUNFAca+0UCa0jkYn2kZSHiwArShIfWcqpNN1XVqvNe+0NGtKvl1r/zxyzI61avYa+8ufHMA5BZlZ5xzpMn7+oRv9cfr1j0yH0rp3G1kYSl2m0f9Rj8dIVdMfjL9BV9z1DP7vnuRqjbdQzEHmI5Wt2GNmfrjj7QOrZrYv7jNtnvKRGJqUSkY52TlNbzlJSPlVMIJOkjJWT2OZeTEc22UGgzUEiZr+DCjwJCsgYfD6adCxWmJVFZwvzg8IRM8FFzYIW3OwOmVSU1WXIQpJ6AI5NKq21h4PtyVnRNJKKaoFhZRyBun3RLlX5882PPk/HTNnEbc4vvHsX6terG33yV/e7ziatPBhGFdc8Pq/2Vf5j0vD16bBtRtCum25AE0cNqs0k+986VhVueOmW3zt9Lv3podn052kv1lJklnMPhcMwhi5+2H+LYfTLj+8HhbysB7jr2Zc9V2CStXG8gNYtz7nWnE/NCvDA0ueGeggQ/XRa9BJ5rJ5iHJNo2D2v5grW93vizrbDmIbzvdoEcnJ49hX+m+R8kNw4DpAVcMoFxFdEEXmGT2jCmewmZ2k3yuV3PgUFvTw+dui2NHJwHzr+B7fULJ32MnwMbwlN67+f+vzr9FDxRVc8VPv7Vhv2pd3GD6GtRw6isRusTxsPWo8G9X376aCXrFhFz85dSM/MW0DTijDl9kK4b3r6ZVpVgpAcDOgEWRSHPyWC8LF9NqGvvHfXWusuOspJLyLeUkeMZ67xI3CDGbGyCuXbcU2cLkh5gOS8nRtnfyl26AggqSSABRAwzpoSjo2gJ7sKttiZumI3UMFoFddwHvG2mU0S4WUQJ2CdAqzX/lL04FzNuu53jQYKuPpncxllQ8szcxfQqKG4QKWcBnr/hv3ohO9eTw+WwiqaARTdXxST1Zf1odkLCuFfUPz4ZOMNZWvoVhv0pY369aRh6/eszTovueB7du1Mvbt3rr23V+EJ1Fd62crVtW6xkmNuafH1yuJlNPf1JfTKouVFSPIGPT53UW2EkgVV7Z7gCHEmDxw1nmvxQ8mQe9GJO9ORu4yPFXvxvu9eN81rbMDnxgTy1hwDZKr7rC5UwaReZVjIK33YWZZYTAGZuyicsP0GYdk4gflrAdjE5c12PvZCQSV1Kq9g42XJWEfKu0IoKPeLGp8vyqvn3hNeB8QGIm3kr7n++tN2H0ffOXXP7OeWQvWtP9xP51w5dW1dPPh8NxWEArrgYNRu5FgprAXSYKNdJJm25BCq8eckk5Epfj5kqw3p/PdPoWH989jDX4q4/+BvXYsCVkfh7HLxmbbj7H5Gwgx4TSFQDEIBJHucA9la6dqMXBrw91W/PI3b7Gb2Awb9p6TVc5wm9ckX86TBPSp8cwh78rkwWiDSLCzkubPcH8z4WsQ9RpZvzhUtmLy/CWt+cOsMmjbrleym7dLeic46ajI98KXDacrYQSqXDIdLsgUHNUCEePigdTPW0JITCmjQ1xkYkFQ2kzsNI1WjBFSzEjEN6dOdfnH67vTbsw6sFPJSMZ59+T1+Tag56jgkR+LMrAC7Fva+BRgRO5PNCbm4yj4dS4uSgXplHJycqrFgU3zlB6Iykjuzj1XBDHOQfe+wAloOGZNBuGoybqQRQtdKAD1P0Fdr0yr2Btk8TEbwpZqtKFn6H9T6LpZjreMcH774lpZKWzcfMZCu//zhdMXH9qFxg3u7+V4xT594kEjMeyXgSBPBdQOCs6QRUNUcaskqPnQbjpNx1MXPZb36V4/alp741nH0rt0mtIQPXPDHh2ja3IW+OpMCDCXa8GjMsbMS1CTSBPPK0/c7JWPkQUQ/q4bh4gQQJg4nhLgRy0HDFq7qxvuvDaQj/QZgPG3WWseUqwhVBznSRxEgNci9CKbsgrHHYt7gSxvN6iRjngV4I6kgRw0GdTT29qdfpm9fcX/LQNcB24+mB79+DP3slN1o82F9tLsOQSKTakx4zFL5wyUPmnwQpvtE/GgsoXA+WLop7TnqR4kJfO6QLempbx5Lnzhs23BIgz2mPjOf/uP3D2rgSfz4asdnSL4fghmTnKTGoFkVzYp+y7VRs6+mhCV59VbuTJYnykrYcns2bpPr5wGTR+1zrsXoXY670DVocQDj25jBpzXiGE4EoxyoFRYOJzC+KfrsHL1ShAZLMNfNVk/BeNTGcW1M15y5H+2x5cZvCd0u33vD1OfovD89Qn+d9qIj8HDTXSviOou5hCQKJohl1mOrbEbDFihF4OqYgb3pE+/cgo6ZMqFWGvxWjlcWLaOdPv27xrAL+NwlAxAkD5cxJASZhiv3c27gRaqIwBrBuBumb0Vb/ipwMFyf5v2vLGL0hqAja6ha5gLQAwkKJIRlzMZpgx2m/DgdauFGVT89VRDqV2XdKDN4JhC2Ek2+9TMHFy76gL8ppVU2f/z2jun0o1tm0FMvLcbrIrrUEab+EOBJ2JpHVWUwjRkojF49OtNJO46mo3cdR9uPG/Y39d6X8+YP+cof6ZayQIZaA3lD0FhiaiU0mMbunxwWq4BNETxRNTIyUU4/EGwOEkkimY2anHtVXdBL1D0SZg5iamgSQOycGzVjUWA0jzxCN5jjBUKvqazQoopBdeBSctH4kD7d6KbPHPI300g1XNiZ8+n6qbPoqgdn013PvuI+3I4PCh8iUGYqrZTL1WbudXi/HnTENiNony03ol0234i6d/nbaaXKTsDjv3kN/fHRObEHB3jSQpcsZ/GNG8hYVjwxJ+W9B5FMWgJX9uB0D2cyW7mZgEAWmoLeYdGr4PrsoD0iOB44527CkV9VbmFuXjtw63MCHYYFRC0TW2jNrp9TnyI+vf7/HUhbjhpEb8cx//UldOfjL9B9T8+nW6fPp3tnvZoQMoD9IkARZDazj/894Dqif0/aa5OhNHnMYNphwrAatdTb0YKzaOlKetc3/kzXPzkvTvdRpmHEhhUoxSbeGLkyazAwUXIeUcY1SMMg584HzL5uqKFSIF67V82kK39YdRmw6JTJJyMllPGevGUmvQiUcQ7CNEVVbBrGW0lOOIgxHAMsY+UdPSAGo2y7FhbuNx/ck9653Sh6u4+ygeTxWS/T0y8uoJnzFtK0Oa/Toy+8TjNffYPWrJEwLMnmejuuvUyDbTGsL2224fo0blgfGj2kL206fECtAOftPmbNX0iHfeMv9NgLC7ASRkoKcf5RJg9eqSh8/QBl8B4OnIlQoVC1IuZchWmQCcnWYLCx6DUwDgXVrcTEFNdwSOCuMxpPnNMiGRCpEqAA7jwFC54tVqHY5YceodmE5xy8JZ115PY1eui/x7GggzfupQVLaGmhEBYvW1XbgKXlrF9XOQetc6dO1K1Lp1r1XP/1utf479bv1f3vwhdXHtc+8Cwd+/2baNGSlVkcIeeJIYUbGQjkgUKC0MBzjHAKpjxVFLUC8kV7TmLhplwkELnuOZCpKiZ2cujobTFqH1bVteCOE8VDBiDILq1tnLCMKeciUQbc6/hh8sj+9MPT9qBNhg+gf/WjVDjnXHoHXXDTdKi8KYcVcUUWgYLUCBBqK1jaTeYwQ5PDQSTDqJyt/DTZlVzYjppAYcaqw3Vvs5tW0KQ2NqOXgsWt5x8lG+4KnIKS5gxdxRfr3Lkt3Klfl9gprykLRzL3Sltt8bfEqgTaPwwJCjOS39lRSOUb7nnuVdrqU7+nb/7hPlqRMNP8qx3XPfQcTTrzcvpeKeSCnrO4Ck0rYGhSl5r6mOb/k/lyzrwbH9zxt5GRATvCOmrTNkU6nm0WFH2ZFKrk5qSL+F4M9TrRSiKtdUf5yQh5lsi9byGOiTS4tIp0xsOt4Pspr9w9Yi151BZpdg4UtqOP7rjmkQN60deO2Z4O3XEc/ZMQylQeJQf9/7v0TvrrtLlUteRR7UIIjBHASnLAcbRvqDrjkEXf602iKL3bKuBdBRS3khpNNEYTjEtQ91xM6tBQyuerETARNWMIUAwIJUtnUEkASLgd0WoqLSpMidrpqoAgoPLt5tlx5AD6zJHb0t5bjfinFfjpc16l8/84lX54+1N6bjlQuFVTZRxijnKH3JpQUQuh3FspNKIKW9GS4AdFSTnMSYBlYRijH/t9QahUFeqdzU2DNAXlBL+FuDwHAlal8bIxHxnFZLIC+rUBp55UPNUAY6iftiyBPfPALenwncc3mE//rx9lKvC8P02l3z/0fBijcoClwHg4TrBAj61lL6/KWlco9qpnnSvkQh5MBBQjZK+Vug4g6OjkBg1MNQ6RH2SIALcg3YHa++zctkjTV6ZJInSfYsFzQwYJ5+59kULgPchbcBk73tu/Vzc6eZfRdPQu49+2/Pvf85j72ht0xV1P0Y9vmUFT57yet0JV4FUAUrWSXqMIDK4ATKuKpVA5OAUhL+VCw1baUCvWAgo68KZheq2q9zXuR/crGCLxlb3o1HqNb5RjDTjtqEp4K1ylqhiJKhSDTc9E2czy+8QN+tK7dx5De225ca2c9h+VHfaFVxbRTY88T3+499naJNR0vLRUZSsyWEvsReJMC1SuEUeBZCSyqnqyhcMi38jLSy11deELGAlFmd6Q5DN8rXtVvTRVCBVlgBLy2i8CVHJ56gg7cG5b0mBAuTgJVSRxYBWCReVcSEDVliVrBTqOsqT2qG1G0G6bDaOtRw+m4YP6/K8J9oIly+nhmS/RndPn0pUPzKIHZr1WmQMnony4Q6ZIBT0fIuX6Rk5VNk9eFaNXKWzBoVtlaJvJhUsOGAYeRBabInK9Gr4EttWHEtAkU4AwR4vPlC9mYDMSmHx1YMh+wlRROuxiInO9ucL/KLwBwF5Vdx8F7iZKt6bvH7ReN9prwhDafvSgWtXa6KF9a7xxXbu0v20CXX7cnJcX0bPzFtLMuQvokVmv0C0z5tOjLyzIWhO0ptlaiKqNS3F1XxZ/qYi7Gen5iurKMNOT837J4z+CAOvMxNsQXFCz1vD1aUFHDSfM2XZP6Oa3UpsM47S829RK6Wbr9ek5FCRAeVo4J6yGisIUhGdEKT3K9BSYv48d1JtG9OtJQ/v2oGHF90F9ulOfHl2pc3sb9ehSVsK1Ubeu7TUq6uUr19QYXcvKueWr1tC8BUtpfvE1t/h6ccEyenjuQlqzeo33eAFeYxVwFN1VusJhR2JM5YTr2oMxyAh3eguPuSoMqwQEKb8+2VCU8uB05EGVgt7uNjeYMOo0INvxReKnXAJCUBEc7krQ2SIUgHoVKGtYA5BMkWkSWTKe6JJzq4NYL2X5SEfdpsQFglg8IVKrd7Yw5s23pB5lW2va2loBIGOes1xcy7mCCXIEHmIkW6ossPWWzG7PjxdOPrP+DLga28qmmYKOPrGTWygpkIoIFtgrTOKgOxSQoDLHYUX6Vgtml0dbehH1KiLHVhmBVdwcghDms+z9Mjl+LkDZohcPgXuS53/CZLSenx6OtLG4QkLrY1lg8NBJ7QPacUBcMZvOcvClIYyh1fM0qHAj+4JGMTpdWzn2N5sulrk31ATkFKV65qKuG4/btu/n2GmDBC9xP7mbWMrshMgBrglLjNMNqgKPdfUkYJcRNytdnPKPtlREv+4bsvRQizbKxDVuo4recIhPLVca2nD3VMxj6KsMHZB1DVIy/cjqNrwHMWxRiULjdJHNJm+S9gk5ei8G1jDaaLast1HOKT4bYDW7ICXBflhgMMxPeV9mlLVlI45ahTlRWAzvnbG3YgYDwpibM3G2+AlOlhePzJhvNxvQslUiTJmr/PPm/UQgnthnl5BpqrJxwuXdYhYhmu4NWNMU32G6bs7IpYIueSWprFvdMkKlTwHJICUkegK4qxOFSPa8IlgrSgWjbDA3S9HNMUNJteGEkBF+o4E9Y58ot3zSRv1oyrhB1Klzmx6CB9yxSKu762e81k0uM/AhKcFkIvkChssJ4Kmrs7s6un7FVMl6MK6VkeLvJU6w5/hBNGHIem4DW+WEokq9L9l72KxpykL6KAGTWMUYH1OXzsYj5ZxXk/LHpcskWll77jdwHmvVmzNZjMIVF9q1IzeraqgAnPnEcPoMDuXY0uSyR8LRlFUA2SpPg/PAnR0y4MY8VQzts+6r7T+vX0OqxLbYoA/96oz9aGwH08wrC5fRR390M/36gVk+hjWyJqFbhp9Nur6OX9MOoUSuKZlxUy7rIeGi1p8TK5TCcMJ3fPAZ79iUPnvsjtSj61qiyLueeJGOPv9amrdwuTIIDjRjHNcjhN0ylbt42t44Y4DON5iZbBPrOWowjRqAhgLWXTKcjGqPU3NgiWe/jeaj58w5iCMU5pD4VIJcsMANTeeaq04v8i4MBCeA9kWTMEKGTRveKipeW8rrXcY03o9wl17dO9OVnzygIeTlMaBPd/rxR/ahcYN66zFRNpZLhVUSS2K6qNSEoCheNzTRNsRCVhfxwVte+BRMslzxkW9+wBYb0Nfet1tDyMtjx02G0e8+uq+yzAo7MvcZCXnKm67Ch1ymJMp9i/f+xNCWW5yBOdI4WGk0Q5EOznfLXCzYs9H7TdzQSiQnbRASZxB/Ws5n8YMCEYKaTr0hI/ycUtimI2pT5EuA5TEbGjLY5thSxdMDS6Mgw2t8C+A0Blgw/qz6Zf/wxF1oo0F+9HHXzu307p1G67gOhD2MRkolra9us7Of556aGyjkAQ2xCxYFXWB1bUS6ZuVnvXd3PH5p+wnD6POHbBkKIJktgZ6hLrjRw97YUl2beWrOU4+0IlEYutm4OHLBxUUFHZzvyeYW8RiVGOpt61WS8VbZWXSzMJVABUAuFcCGyPLtAHeSpktoBJnTaRxJD7lNL7lhDxLgA8kCMQdpHlSVBa2G9gCQe1D+6d2TR2Zniq3fsxvZjAcHAEzkarKHMQJk0D9Q1bOcAJdWwzvDLEH2A3iFLoVaejldY173fz9iO5o8oj+OzSueixgcxbrrQpiXn1tI9ZEBQ4kwjzy5lLP3zOx7hTBK6dbdeH11s6r0QZTpITOpxVlz80CVVgSevRvfwzgf2ExpeKgRuf+he0ieMCKdFsTkUxwiAeBSUSRhkecwtCi+D+3bnb558pTsOW+a9oLbaGJcbDfix2QnhFBcydCDsRNx2GhoZm0V6ydEQ/y04HE4isiWmZX/uqOIx6OjpLX68Qf3oi5dOhniCIQ1gAINwfE91HfWK02tJgXYhVViHGQTGBgCe62IvCKYZSLGisPsgHgvJj1fGwSvgnyIm00mepKF1VbphmSTIocjmak5Gw2GeCAeFzQlg1PlIzh+54zmDjerRvzFouwd//7Z6XvQ+r26hRv65odn0++nPu8xG0MZLJKpHYjqVpCZZ59OwzUEFTPjYZozWQ8JLiZ5Bt+47nF6+sXXw7UZu0E/+s7xOzQ2UtVjYeTlBPfnvT1phI8MwhFX5CXhFCW1Luhz0vDCjo3mTEYhXUIVnqSYGawN0O9v82Y5uhPjqqDqBcbaDcWT4mJkbWFEBCNnLt/KOq9MBOFmCXKBGi9AyBprIRDtFLGZeHfW/pvTlC2Ghxv5tcXL6b0X3hS6b2r2V8dGFwQHm2t144GSGWFO7kGogzYpkxmxJIQFivw4KFWrkOSVV65aQyddcAOtWhNTaZ24zxZ00MQN3FCENHRgzqSFgzJGawwbQmcHhFoBCgBqV7wUwBppWIjKd1UFKAIMGWNHaB9HSr9NKwB/w47zSjJzn5ICEzV8j2OtpzSb0q6G/IGRiyPOfVXWCORbCaS7wcBYRBmWnMObuvKfZVvpp961Q9Zl//jFN9PcBcs01qD4ypIsBLMPuBhcn5kyGmYZOS7EsMlySVM+adjCwHU1Au7ObdIt5SCKb/zuvjhUKk7y/VP3oH6FVyTIXRZQGJkplMRpsuoadwYQfY7eKZr+667NPjtQq54ZXuvxJ3BeY49MwQww+S5j4/LcnAwRwJMXGqSOiCmTPSgGjRZ0LVnFtxKhxELhdFYb48HMCJMvnbUbvFMbXfKBvbKTSn5965N06b3PuXhWjRc27bUpQMnA+Qq4K1XoI4EX47IYyTOlZOBiFAoitFAi5cHac/rslQ/TfTPmhms1eP1edPHJu2LvkTG7UBomsgn5JMMey5l8vEp4CxZalKLUIKRgIFHM/hKtxFCFoFfgQfqNgUUP0+iCXfQ0LkYkiSQml4kEOEOhzDmBRa5Z6sIzmJ7KGURYPHAgSKsw8BSSWP3cI7ehLUYODDfu8y8tolMuuQM8bFFYAqWsOgBTUzl1Caq97CZFQA9ojNF/bxKEhMNrWAeQLq1qlBSRLst97wU30hvLVoZrduDk0fRvu411mgbxCaSpXpR2pMDVV2W1kafDJkwz4Gmqi3w9A/uMDurTZfOVidQs8IhnTOp3tFHkpkfCKIaPlslNrSRTHcYG4GDwWZDowwoVx266EhZqCizbJGzG92GQwiL0frOB9hw/mD500Nbhhn2zeN8pF95YawdNN5cGktjRCNt520xBQUREvOYADbN3WU2N9t5NC+N8GwCR4LnqutxYn2fmy4vpUz+/I+s+f/W9u9YYc123XwKgpYoPWXZCeEKgIF09uoBcFdonli4aAckZEA/lxSCxSwokEg6F0TNpSwUcpk8cMusbjxnIEAduilV2QjHgpiwbopZyYJDt7GCjmRnH3PXKpNSVte4865RT/fflvO8fnr5XdrLJ9/74UG2mWDTI3jeFCdT8to4IAWTqvpQXwgpTEZNOEluTSYI9LKP3JJphL75v29UjFF/fv3k6/fWBZ8K1692jC/38g3vCxicfb4vzVpArr2aem8yEe/QoS4OwAcTTThjAszPsnfLmimxK4nGxvZagFbiNzPO1deposAGzTx6w7QkONrN7DSp9NS2qDrxLkMg6gJdu2KphEzoFW2f9MDfNicZL43/jV//gfTvTcFD9Vj8ee+4V+sSv7/PAZW6Wl4VgTazDGTZTSZQWNBRpw4lxFzXAx3o9GfiNDNBiE1oE2S4VAr3voltqo6OiY/L4YfSZgyYafIQBPyBD4NIqR502A8g+Bwg8UGIpLisC4m8T4kmUIciwh1qBtgpbIg3DFHevNWtvqWLDEKyAswvFRui8hWZcBGMYFtJOqzRyqINHDNFoduBJPT5MUWU4TJF08QgD5P/Y7UfQu3abEG7Q5StX0/suuJ7efFNUKOOtgngwNKGcjqrnYOdgUoiU7YITUK+N0GxUaGO710xs6QBBQVWTzVLPVxevoA9ddHPWhf+PI3egbUf0873twHVMsxlMFdwTHJeRsAlT3GcaTAD1xAp4flSREmTyBV/ps0GFUWJaYW19SxsMOxqxdabCiDQIIgD7Qb4H47pNZwXcKqAWVvaxo4A4ybn8Js0mYmryge8jpmGjrH771kn56rcvXn4XPTxnQeCv61LGqrxvSlSRlnkyY9DOs6MKqMQSnzhnzN0nqatr+s4lQHvFgpcdC6wIFjtO8Iepz9PPbngsXMuSCuuSD+5F7e2dwj3GtiINEHtGuXb36CUWQFsvjwyLw04sth3lzCNQ3KKQQeoYtsK6PLqgeFogxpNuNph2SF5sS0fVBheA86HKDRCvc84NMkVkArpOUB6aop54A9pdctrutemj0XHro8/TuddM88AM2jgZBg8m7EYy6x5nCzr6El3WhBeGxUY1dgg5thEX+4sXpAh4Ett4Ug8fTEbl9J/fRc/OWxCu6fgN+9P5x25PjJYq8dLEWJ1oeimTT2+p15vtbTMJyhvL9YhIHjdNU2Uw0cRBfi2TteK08MxZdMPEYnPVZFIYzOyK96M8N9KqHKUTGIMuzHHTh0v4W7omtosmLpbyuXKBiMkZ+25Ke265cbjYC95YTidceJP35CSy6BRWJSLgLQRKxYCSUbLdoE5iySdU3K7biHUTRcDCyjjBIaZk2oJQK1euoRO/ewOtXvNmuLYn7zex1urqasBB3YHNRaMuOwaYgQudQc29GGRN8agKhQ0ZEoBm6QtR1g0i/5bXIQBJfR4dkPulT4nh5MggArJCI75fW0wzAuSkQ5vcpFYIpFegAiMA+aMW2LR7zpT9lqOTPn/cTlmX/eM/voXmvL5U1RGgKkFbNOOsOEh1WeCHBChnatYWGBjPS1uOP8zG5cgC2bJoQ99lyRkAnqe0wB0zX6JvXXF/uLblEIsLTtmD+vTs6sAoJlCWmtCXQZyDQDqL/PX6bKUoheWyYAHpCcJNmnzx0FZl3SU4y8RUSvo8uht+ADSmKT1VueoMc6VtZhEDH1cyK1smDnNzSnaDWkTUAOPaqjMX0taJ6Sen70ndMtVvv71tOv387mcbi2wpg5RCFbzp0/VB9QI2bwwHSZjKOPUc2RSzoNw7g5DHbT52lXW4TFqHhbYzS52r+N+nfv8QPfT0vHCNh/XvRT86eWcX2kStGtYYCaoJN23MFgvy5CbsUHbr7RBR5cZOcSMR281oBD/FIIz7mYZyCMxvs56y7pDBXOKUlmxSHKcRyBKF3UhkGEIZCIApWkHTOlwjhnngmOTQdt2JSwuVP3/1yG1oq9GDw4c255XF9G+X3IEVhwGoyIYTglF0ARtHUSVlairEYC8MeL9904ypekR52UZcKpAc0VpCpUwyFYtpWvQ9F9xASzoKjNBRjps+aZfRuFGEfPu06rDLpSeDfKAADIsDKi53QgD2SWaPIE9UueQmwR+yTNs2VYdTodiugrIWkttJ3GUUpXuY2bnsqOglnEeekFcq11lgHQymbwIWYMrYQfSRg7fJXT6ddmGxOZet9KwlmPeo0vVW6DaDikKJGxwEKIr6c4UKN2ISAkCfc50kALYgoSFMxihXuHz9jPmL6TO/uD27Zb5+4hQa0b+nq5dIU3koq0BRZkjikNEJNoEWaJe9Ik8RlmY/zB5FAgqZ0K3cGb4GttdAaT+6FaYgkQ+bBsiPNPI14eLQR0tbnC2KyaSQXAiZFPWgZhznG9nziEYvu3drp4s/sHe2+u37f5pK1zw+L1YgRH5ch2FAcYrdEDo6bj02vfGA8jkNw1I/2wsvZeeWW28O57JFp7os9kF+c6YBsV277944na578Nlwzdfr0YUuOX2PgImUDachygqZtUJFPhEElex3EZ93F4nKXA05Z9oUJlh27LpA9h3xAKJnmAEtoGmfNkq/SAeZHRvgx1pNSTcZB1Rk7G9I5ebD2lHyFULRRBMAojiLJLhL7cITdqaNB8fVb9NmvUIfv/web4WRUrPsDxLFbBTQDemMAXO+Us5TFaNSQfapPzN5hoMNpLCapMzWIvVufLbLI4lOx3b8+cSLbqWXFy4N137nTTek/3fAFuoc4ZgniUvLJaBrjqYLoV55iA+JLasWZ3AsfbZ3dQMWUoDF2AcFa90disjAxZUUFGA9JCAzA6qKgs7eExN2mTRZoi2gF+VSwXDB8H6xfTimLfCobTam43bfJNxoK1atqVW/rVktDu0UUN/vXSKBnWUcpRmTGuVW5oZxpSfEyq2PNrXY6Som4NSTQVghvtZrxh2GDAGl+YuW0RkX35K9x7OPmkxbb7Q+QRICAsJFeJ8iMItYu9tp849OJ4o2dILqQdhNnIE19I49h3E2yrIEA9DV1bqrnmuAaNv0myfoZz8tJQBarIZKFQyacCRmvI3yIoyPKAEoiDAPMbG7dWzKiaXffn+++u0rv7mHppbVbwYMaEyhAe6XRW9T5DyMHzMSDNFsAnzwFOSJWaPxocpoyJHvYBKA09h6KrXe0B0Gnkzxv1/dP4suvenx8MrKLEhZNdepnVWJraR7JPCy9FoLrtFoKG1RWQLoOYmPj1GWQTcTeTzBjl+CY+G4mZZzY7+Me91m02lW0lH6DLKpcjwKzGVgTQudVSgOC2SNuIdpMPECH3hwjsNOLW7Hiy45dXca2KdHuMHumDaHvnz1I05wU3JAiSaDRGCaGNCNKfYlbShCMXprQ3GRqO5BwkmIrDa1xKCgfW45KwrSXC4NVHw/7Wd30LPz46q5TYYPoG8fOzkpumJfUARmq2vgsWIMLHNMKg96MaK2ZuXCm3BKMvRpSlYTA5t7i86jN0gJcf7cIoHeaoovxBc0ddRbAS/k4q2vmLQeknNruSWfxktBrNRjqF//x/bZhPaeNCLcWAuXrKD3fv8mmAFADxfSdXGKd+hNErOMsi5zrbvV0ZMGI4JhCWk6ZBN5QMGYJ0mple39GWvkePIEWFUGgxCLvy5fsYbe/70baU2mau6Ud25J+246RGWBIOcdAVIKMDnYCjSDuFiVW9sagqiJKS0DtiXPTpBIN3UlTWB2z7r1RJxxkgTlEuRd0fwyVspA3KgZhVAydiG1DmAI1jmy1RR0MeknOGnUpbsEAk/l38YPWa+y+u3MS26j2a8uwS25ZiMziK9c+SZw8zw67ksvc4SAKIayxUU27ebqEgzIw4Dr3IFBRmGL6POpklLxfe8uDOhQ8LfOeInOu+qB8JmUVXMXnrZXbUKOJB01EpVpmyL2aP2cIXcskwgMCwmKwoxPGr4wAlAZ5+ylynO0MTq5ec86HqCMt+ymtYA3Q7J8NIyPtYtiifJdx1fUXBHkMi1JhfLOihX56Qf2pB7d4kEDV9z5FP3kjqdx4wkiRRCtmNSGYbygkPYXupPeI4tcYgk9D4bAnXNBGYCFMLOw9n9OqYCBG5RQXAsKEcw2Ovt3D9LDz7wUPpsNB/Succ1hE0xwFDKDngzE7Gq9MliWLdrKounIDWvPsbeQKkc0aosRiMUxsONLYCWTqnG5iBzrJjvkWOAoWsE5Z+LKajGE2HsmE/FFHUQhl9p/Hr41bT1mSLiRXnz1DXr/j2/D+XJQeKGRctFdf4bl1Q2IkKDvwNJfiWH/sZVYQqGiTTWUAEsTbmyclfVdYJTJDADeOjcdzHgQZW//CRfcQEtXxFVzh+80jk7YaRQY5Y0vKGI45wCRhyO6VdutxGnkNB1plLC6dzsY0rQQi0jcrw20eZsTAs5YG1Cuoy9Y4s+z3UGQ3lKihrHQFbID512MnnTYCXpgiUu365iB9LFDtw03UMn9Vla/LVy6kloFxZXybMRl7C0u+7oVQh1YZPKu6Yz5qL49AsaAu48okdra29zrIio1lTpj33kFS0Q5cF1BdVj547S5C+nzv7wrG1p948QptGG/Hgmy7YXYufAUsCRJnOFAhUpk58qnc8yT4FoMkNreuRNFA168smHt0ruS6oAcUpMaGApi6+IluUU95E27wyWpn1g6pgwqX9/AbmgiqNLDFEfec2gS5WHXoH7t5SL/6PS9qL1TW7h5fnTNI/SXx150QZVnrRKtCJnCbIFE0zZNtkOQJ9Lxpn7BVJhocErqxqc4C+ouK//etxbzekmt6H71RSSwJsCkvez4J4R7Ff/75rWP0w1TZ4XPqm+vrvTjU3ZPHCdNdiFBqCTgOth0Y2GCFHFAXHMtOChl1Up1dP+eYa29twI6bLDraMOxNpSGgVTA5Kse0KDj1E1av3tnUsUTBgGFTCgAFZUo1ZSLy+3eCkby1o9Tdx1Do4b2Dc8/fc5r9JFL7/btpAnTrZAFJxPee+AKopbFVGkKoEKyZeblt8E9u0DXFCkKR9xh6idsd1xtllzvbh50kwyxZ67KC+EZQTrUpZKMB3DiD26mVxctC5/Z7hOH0y5jBirJ5Sh8qPRdNdaTCj+DOFYkSNOR7jdI9faAsvXWTh0m3+mpRnmrv7Hj1Nfda5y3BpFysRvTrsq4Ies1rbnoajGbshRrxSjDbilgoEEmCWlZbn1vOtG4YbGQr1r9Jp3wnevozTXiepYVm2rF4EMdwwoFxCcW1YLc7ekzGD2otx5wyb5YJqsgg+EQ9V9MKJ9jRIhO1dNSIEsKedfe01LhEKf+p7kLltLHKqrmJm7UD/Pnm4ahyEsJi3vsQ4jG44g3kAzKzcvfjRnc2wOWMD/sO3M4vRegpdpyewFR5DLIxzqG147XTBzeP6EPArPSrbZOAQ0KKoOEIP1xmoaxRAlOwAH49/wrb4Sb5Su/uZsemP26jznEorc4LCCjoMhSR2fqAmyzTcp+U7//SR2jhgl4S3YzOMDNWnNQRbrNqEEBNxQ7AkSUIrQXp5Slaeypw8y2YUoCwPfye5+jy295Inx2T81bqDez40AwRTSmYCiaHqzXUEBWKI5vxKD+5b+3KAxN3x5dYc0BIXASzcAizs9Hjzxim58Tk6KxpAq2BHNM4QoP69vdNwxw7PFxsMBi+9QtoYNUuF0ZQKp8ww9ufarWT26P2x59nr74x0c8BXaiPVOL4fL6HI9HcrUGQnnCAvaJ8Mkb96/F6MxBfUKykOKKXTzgh4Rq+7GDqb0OyKEuRQJeEkiFMLDS7FpC2adLTc28trRCp15yJz394mtuucqRT9c9Oc/l6YkskCAejARsOZrm2WtEV3nJWIGjzOk7J27ooxakJFLwNWfoTVVrG1ktn6GPQu4JAonqC1MWMByz/ShKaSbDAv58U5fuUwfNJ5CoIueumustRwPt9YUr6c/3zqQFb6yodUz95LpH6cBvXmusc1JDbc16il+ImQmXPmTvPWL/OeNv19fh0O1GwBBLEBoWFEClxIQILezVvQsdudVGjfDAEm42OedM2rVDGGCvvZ0US+SqCH1HoZhmmrUPr0y17fPlq+mqu5+u8fWVHPE/v2EaveNrf9YsvoY1wk0mBd6JykAByD5F2W3FpZoYAx5Q+oj332ZkbUW0Bye+JNi81+4n3YvevMf2dJURjViOEaZxz6wr0ppKX+ioncfSf5VsqLbbSvzsdjZgDxpyoIaMdrRGIjcJNeNoPjiP7j9TuO+Hfvs6zP+VUPZYVhZXRWYu1hWOEC791LKpBxRY6ysdWv2oncfTVfc85cA29ZlCMN+h6t5TUFEs6Cr0ninj6fL7Z4XsOWv3gS/5FJBhEVNQ459xM8emUXg0l3vte154fSkdcf71ZoOk1wZCxuRzBLGYMGFACWFMtqSV9LPShB36JaMH9qYdNhlGv7/7KZNDZ7/n4bOzWQkhy1bYFklxSr1kWU3Ip+9cOWrdSm0zdgjtOnagH/UEfBgxaKVuxROIpEfWTGCdsmVYMQGqtRhkhkmkYKJghaUtJuu8rAT8ZqBYRCiDhnb8fPQ2G3f0yXNIeuiqGlO+PanwGBITsPfWo2izoX083ZJFmS0/gOCsoMtJqwo4VqXCgrodbUhpQgM35ttwhaecfLCWAFWjBVWMYim0DNccp1kf9vvlrAMn1rxfNn0QylsyoTIawqncAdYVoG0UIKQCEFgBEy3t9Eg2gFp5nHPEdj4fHlXDgAEAFmiI6oRzm1V1NInOdSoGByZY7cYtApYonE4fOqLgYusiIrOYKuCOzz3zsG3UJ9vJKy5NyvE92N5m7UAIleQ6Xzx6OzzGmAg09+vr50j5OtRadA0++YGBqEgnYl21CXpbqyABGYVVAI6L0Ia1aP1NrIyez+iBvei4PTaNMpQ+TSogzWciECZvHNuSUArwnEvYrG/rtdXMNmMVd99yOB1WxngUFO2DtJcD5Vh7GmpvUTz4NZ0Yija2Ky4Qn79li5qTq15VoJONy3PttWKyDrm8dPqn06eMo4kjB2klKOTq0D19lhdC63I6coqOPx40eQztt9mwMLWW1nzbyjYJ3F4XEpshgAwamizzEUo5BgNIw5FToYIWHzpwkA5VnAnWixKs2L79np2oS3snih+TuKGnHOBQgrSVm70mFbO6EmvKtlBAsHYv2Vfqx7dP3q3WVWRphFONh+ZB2yYKxKojOWshuEEhSnuk7bBpbt4OMBBXK8/Y9TPttc5nBlierROwgMsGfbur7jq7CdIwyqL8Ea88dBmBojn//VNqE2RhIwjgfguzCEaZ5l7GICVjuSzV/gh6JFSNAaKDFdAJxkGYEE1PRfUUgSdy0s6jab9tRzX+vWDpCvA8OGZTDkqa0f5us6knlSdMy2BBFZMmyff96EuSxoNh/XvTz0/d3edZE3QwdMODJoTMmDasuEwtvQBkDFEtiRkXa+uD2EikBFTXBFBeO1SFMqFTvWzysg/vTX2TstelK1eH/HKcKf6A+W9QYpnSLo8Y3Id+espuQJBE02gDT0xncximVcV6VeznsiuhNLUYrs6eyLGuCoq5xBiyKHRzboQfBZ6SSjhj1WHUNhnSh75x4m7qY5asWI2NARGcFecyOSDEU4IuKYhGzWoupB1wasYvfnm88KouQjlw+9H0xcMmOaZLzoR8vopMwhy5Bcd8EwtjWhtEHCA+Jcz2yRLpSSBKiMVTGUeFVKiRg/w8ufLf33vvjrTjJhuoW3++XGf2Hg0KpZgyM8IIsfsSzXlZ1xccssNY+tLhk9wbYabDpdZFDbawXW9slBSuNDRxNuE6BfHpeXiSEKwM07LsCo/ITDoVUKRf9wT69OxCV5z5Turdo6s6/4x5i/zzR4w/rJVK+kc1PTpRWm1phGpTNKjhImwBZW/lHpvjixjOPHJ7On33ce5BWIHSBBZsaIwyJbpMWU0IidWCHLVyq0EJI6ptT4vFU8QehSR2BJQFG22N+6cPnEjvf8dEt6YPz34NAnAuLowaUoQUvqAUefF92vOvus8866jJ9JG9Ngm7wRAdtE3Nifg1dpWRSaWcHczIaZgUFKs7CnEKKhiRy2OUs1hgiPS4bjueRvWnd7yne9fOdO1ZB9CoIbrkelnhlT0ydyGofWDlDdjr1vUchr4syRK1WcvhkGKIKEqo/dJ1umnGS7X+YRUrFO/5r5N3p1OnjHWTLHThBj6vQyMTjYf6jhnEqBZYgbTQuHbExeeO+y1BiEU8KsoUo+qK2MA0wvzH/lvQZwHrzZLlK+nuWa96oIYJDk4UwhNJ2GQ30uu88fG50Pp//aTdapRbqirQhh7BxkRgGB4twL5WwrL8chDsG2vvinQMQGiNlfMSDFCLvEiVhzcZkb49utANZ+9Pk8b4aT/lCCp5U1wGwuIfiLdMje+Cw9jQAAfKzGg2g9vcuGSjDV97YwVNnTnf3VTZCnr+KXvS2Qds7tkyrYYOXUBgYV17quYQRyWsdYScoxDFcLqpZ2iKb9ymddNtxI/ENSFD081sphO/ccx29IV37wyF7fZpc8pG+YR91tBYMTlGDjaoIgPENiU2uL/wGJ5/aZH77FJpn3viFDr3XdvFoQC4Ryfk7HPEFjh27CwIcnYTTBiStqOBDbbewXk6iXTnxqmxDWM6rmFEv550++cOpW3HDYXvu27qbCB/7MNaCYY/ijfY6f21oSA5JAcQz4KhgDwwXeK3dz4Nb6zcJF949y704/fvSp0KwXcbgHFuMO0JVsi9SZSJTa9ZpdwQJMbYQOJhsBnJmwMBmXOoIcM1dhWwHX8s0e3ff2Tv7CioX93xlHYXkh3bXBf9N1X4xTkuq2ZI8rs7Z4TXcMah29KVZ+xbXG97NN3B0UQ5zMXOEIi8KxHlgks2x4SVNyR+zSaxBadEKWbHSXGbd2w2lO768pE0fsN+cP3KMdE/um2Grq8HhgI2lBEOz+y6taGaBQJCh3KAaMiCtYwX3jqDFi1ZEW6Sd++5Gd33hcNo4rA+vvaC8I0qMCKwpGiqpbMkwaRQgQoBTxe1FXK22EKx73AAIYhVQkQ7jx5ID3z5cDpw8phw7ea++gb98r5ZQaqFg1FQrkLUT+sExQzfvGYarUzSpfbYf7tRNPUrR9Ee4wd5vIRzCo5VkYyyWng0qmMQdntUAho1E7uLYOvnLKcJHThICem9V1jjwoCde3ShBM8+iAb06R6u3R/veZrmL1yuarZSryytnm06YqKVonisAKPuXgkrACAqYVRuJyjiX7xsJV1y/WOUO7YYOZDu/MrRdM7BW7qRyEgAIdsr4xwtBTOubVynNg6Y2IqUjn2B60kRXVnOwCRYi1DSNn2zcNWv//xhNHro+tl1+87VD9XojxHg5ZpDSI9Lcu4q+TLLNMyZu3AZ/fLmx7PXU6be/vrZw+k7796ROpe0SOh5wDX0PNRKYYLpuGTWOTfSK6VIdtWCmfZJSaZ7eBdaXCdfalQnjxhAU798RM3b6ZRhLSqt+Rd+/4A6pULXRQJrzbg+wN6jAIsOR8XYwgAhzI9tKKPSCz7nyodqHUW5o2uxMT59zI507xcPpSnjBpEIJucwmIgrXeMEbQSsS8Zk+7jOsnmgfpCo6srmva2CSC02AW7wd24+jB75ypH04cJV79TWll2vmS8uoP+6/gldy21cE8RiAgFmBik5QGtz1m/up9cWL8teV1kqe+r+W9KTX38XvWeHUXgPEcBMGADADWyE3T3aGgZGfIFmMAnIRhFkGbMcikmdh9oj7OP1Ab270kUn7kw3f/Fw2mR4f6o6fnbDNHrshQVNnWGqCBl0QrnZbZTHymq/Lxez87EXios9xe/qVPFKxsqhIobjJ4+kn3z0HdTKUb7vT4U78x+X30vT5y1SYFdVC6q2VOK7yzL3Bf1ZMbFgrqEHgIcALHb3MWmj9elrx+1Ae2y5ccvrc8AXrqDrnpgXzgS38Cti9wnA//Cey+PkncfQhR/cm1o9Hnx6Hp196V104/T5Jn3BBDA5zykveQ4xW8HoKvYst7gZu50FoClTX29qINrbO9E5B06kDx64Fa1n8uPR8fzLi2izM39Ny+qFMkkhkdqmYqm32Q2bELCW9Zevuuw0Xivox10onpERoMMZQXYFEcWPg3p3o5cWLW+869LT96Cjd5vQ8iYpY8Ir736Kvn71wzT1+dc9ss7JpgYP0F0v6BSEBV6MHzjaM/CB2HOgNtnia8dRA+iTB21F+28/htq45WWh7/7xQTrjsnsb99Cze2d6Y9kqJ0hu9hpozYVhjxGsvj270IIlKxuvv/xDe9ARO4+nt3Lc/eSLdN7VU+l3D80meZMyCspLGaTFyikrq6SD9lHY/gW8D7EPO3ld/15d6cx3bkEn7LUZ9V+ve8vrsapw2ff/4hV084yXGp81dlDv2lx4l9NONq1vWyU8cDO5v1W/PI3bGwtU3xgM2j1dnCuUugCiJKhpOQb17tIh6GuF/30X30YTNuxHE0cNamkxuhTu/FG7Tqh93fzIbPruXx6hKx+eo2+M10afkjeofpAkU9ynjgpKQK28S/8gQTKaoa2Q6GO23ZhO328L2mHCBvRWj1sfe54+8av7lNbv372LEnRn1aJwg5xxIPGT8qhv184NQS9P/d6LbqUxQ9anLUcPavm6d5gwrPb11Auv0SWFu3rx7TPp1TeWN/u1jTmKsju62YBdj34U6yML70k6WCk7R0yRCPmuowfSyXtuUii8cbUhj2/1OOuSW+nm6S+p1HKvru2O/VhE8wQIE+RPdArLcH7XLHqXwqIjzW9b9OqbCLrR9gEVPxy4xQb0p0dfUPI0tE93uv3zh9HwQevR33LMfXUx/eHup+nim5+kR+Ys1OFEC9YJvq7CRSNKy4QTggHx2pbQBi03+sgBdOKUcXTw5LFZBDZ3PPbcyzTlS1fRoqWr1EPcc/xguvHJ+aEXJgHGwLm0UvKrsmOtRnOdnHBo3+500zkHVwKGobe2eg3d/PBs+sVt0+m3Dz5Pq4t/C/CsWgmLnK9uvRk0djvxPCNPzq7jiAG96KRdx9IRO42lsRv0o//P3nXAV1Vk728g9BZqIAihhiJNkN5FuggKKsLaG7j2rn/dta0FXREL1tVVQHBFelFEkd5BOgkQQgsdQi8J3P/MzStTzsx7obguZn6/y3u8vHLvnTlnTvnOd851/HPMYjw7eqmxI9/UOAHfBrMolOvhsDhteXb/Xn8jm+7KxGs3wWKiO/mXhdbqWgdvTl1tzE3l0oXx8/M9cVnpIjifkbz9AH7hi2XistQsbjCiashz+DGyrc0sLZo8x832NFdF1iC58+RC99rl0L1hAtrXS0DlssXO+1o7/GOCn4bxNNvtoatr4T0RmGP0pEcTz2CO8Mwz3ergjSmrjXsqePunPNsd1c5R2IPjxKkMzFuX5oNGRi9JxZYDxyykJjAZbg3GWy9MsS2z+xCum6NILRTU7VirLLpfUREd6idY8+DZGe9zt+uxbxYZa6l88YLo0ygB7/60ztpmONK523gRTgdNd3MLY+ZN0X1bRlf6M8mUr1epFPLny+13wpRPImXvUbR7aRymPNMdiedx88RnxTGgewO/u+mi5J1YumkP5qzfiRkb9+D06TPkDiaXo+p0zOSuz+w7SnCHL1QgBh0S49CiRjk04ibtldXL+lxrF2Is37gbnd+cjIPCfPbUGU8oWQiVyxShI1rMvZjlHcVjplAFtX/zGvHA5NVhly1wDzbvO4oOL0/EhCe7oH6VMud8fQL/3aFBgn+8cXtrbN1zGL+l7MFCPp9zuA+7cOt+nM08K1nWXphZGOoaFf94hFTohU6U9VO6SH60q14GzRPL8vmL8+v9Czl68GVniC4/r4ycn9Vmm1hPnWvHm4Lr6LNAsgk5aKtj9Dy1M1oMjXvL2pM76z/5YnLj+noVMHJxqhE0EFq7+YtjMebhjmhbt+J538hihfKh4xWV/CMrP+khZedBbNqVjo1pB5G88xDWpaUjdf8xbDt0wl84ts6X+qIInrPYpSvGFkSVUoVQKz4WifHFUb1cLN+tY/0ccu7sRNSiHBMWbMBNQ39FZkamRkCZ9bQ33wU83eVy5ZyhB6rC/pzH6KBUHL/mNollMGvDHvVz/MnOQ8fR8uUJ+GZAO1zbrNoFuWbh1okj+H0i17xt32Fs3nWIzyWfwz1HsOPgUW7dnECKmM/0E77pL7vZFF12LF8jlUoURHl+PfHi4LtoYvnifoGJsLhKFCmAizEE8ej9n/yCkYtStU0ifKpd+TzOWZumzqHmCtsaq5DtsjR3Mgaa2UPmkJnaU5wRQmAEMLL0P/q2SvQFHVowTDw/wn3Njm9MwRt9GuHhnldeUEGJyc1COz41Dhw5iYP8SD920j/Po8dP++cuarsL5o3xg2aFAwQLxQsXQHGu7cVC+b2GIO149dsFeGPyKqXjpxL85KNPy+pYmLSTRO0ZfqqmmEnCRUlRhzcAD7e1ScTsDXvUzwV2ylP8nvV5bzoeWbcDL97cwtmJ9tzmMhcqx8X6x1WWFOSZs2dxkltwQikEGzDm5udYsEAeP1hb6AKfU9TW2KbduP3Dn7F252GTjjnwf3FunfgGNXvtDiWLFKk5JUWzrpBhSmsiRg44MhCBJpgVbTo7qT/nUr46hDMQpIL8AiqWKIQt+4/RfsZZD09/txQTlm7FpwPan5cpn51RgguuOP6IQyyOez6egRU70tXydk04G1UswU3Mcr6gU2adpwWTqTytM1kvfZ/oUCp8S7/BJAEXFA+DuX85ecV2fMF396bnkFE4nyEARoXy5wpZd//tcZpbjIPHLcHfxi0PVXDqqeDgfDx6dS3ffTGw5lKthgdHstzijslAolyUX8B0u0IzNSgOQJ0TO8sX9pAnJhee79nALC7xVIrSuSl7Ue+50XhvwlK+Q5zBn3EIE+/VUfPR9G/jsGJ7uipzBLrruV4NzcwP1G4jarEQ04lCNXsPCueZDN8V8YYXrq1vsEXorbGSuVnd+pWJePar2c6+aJfyEBWFrZ/7Ds9/v0wpPZVpyoLP8+XNjYHd6htzG8b7e0SrrvAblZZWWhpMzpblUmx6mIQW4VJPSzdUW6ELC6O7+7evjdoyVXDgi5nGfSz85sdHLkbdJ0ZirKNa6lIbwtwcMWMtaj32DV6asELBNxv1/oEJbVe9NHroPjEDSZOkEyvomAO546gSl/HCLpgY93ap77OWUo025aYw4rNv/7Aa1R4d6YN7Tp7O/FPMY9L2/bjxzclo/49JWLb9IN2+WpOx13o3QpnYQoZCV4KOsg3uqSW4niTtqpvGwo1BoHHGUWcl10cDdP6OJCPkz88GTi5PTG58cncbe4pHA3iIaO6NH/yCNv83GlMXp3D/y7skF0ZG5hmMmZuEJk9/izs+m+WnzgB75DQ0F9xn/fDe9vR7dboqLT1DVeEpPPlyrYYWtS+QLwaf3dPWaCOsYsDDJqmwUASC73KuwD6ZsgJHtL7yl8pYkbIH9334E+o+PRrjVmwjO6Lq5adiNE4oiQHdGoS+5/ipTLN8Vt4YYQYYlYUhyZ5eeJfLtrJ06mMyFmAQRKjRHhmt1axWefy9ZwPSDZS5rWQTdcHmfbj2nWlowHf44b+sCQVZ/tfH4eOn8PHk31DjkRG46cMZWLXjENliBxY37IP+TZEoATZOy2ATRhexGHnpUDknTVslf/bMmfD/WtepgBeuqa+akp6OV1EDSVsPHMcDw+cj4cHheOmbediy+9AlYIV5mL48FT1enYDGz4/Bl3M3+Wa6RyDzZAUYNNbyc6X59YNXI49U2Xb05GkNC8L022xPjcmWdOD+y/MYo0ocjDwsRdLnWX5AH7u1irVn+jTBMu6LT1y1Q/sIM81MCZ23fudh3PH5bL5YFuCullVxY8tENK0Z/z+1MERUeN7aHRg5OwlfLdjs4/gpnrtIHOu3t6iKe7rU1+7zCdW809GAzFKowcxZ8JgZ80k7oJJ8PntDU/y2ZR8mrNghbVdm/3Q9OyNKll+dtNI/OtYsi1vb1kC3K6ug6B8geBbtWMOvW5BwfDYrGbvST9oxFoGJlNuHybvY6Ac6oFq8CjRK3XdMjXFSn4UlHS5hWDyCVzFG8a+Z2gImlDKjCkmoch8NdCFy1/IQaZJ/P9wZ3bgWXJi6T6myohhP5aCEeO8xbiG89/N6vM+PKtxX7N+8KjrUq4jGNcopmvGPMkTaSRRz/LRiK0YsSPH7g4X8Lgv4gZrI4GOHmnH44N6rjN9Zn5ZOg+z1AA0FF/ZAAmvk392Qlq7OY0wufPVIZ3R9eTyfx/1KPzDZuDN6x0k+hEAyiiPPF3PQs255dLsiAe3qVUCF0kX/UHOYceYMlibvws8rt+H7Janc+ko33SJGIRCZVE/OlAzWJ7e1ROdGlZV3Czd3uX+fPbUXHhFFNystw2hANQ0r6ZZgmSoFLdStA48AU9jj+0DVMoWxfshfjD+L2vSu/5iIleKmaQtOb0BAVWHp7xN5yD5XVESb2vFoWDUONSuU8JXK755S4bv02q37sGTjbvy6ZgfGrdyB06czSXyRLY1pZFEC77ua74DfPdUNhfPn1SwFDyXv/heOncyMiNeXf1fvPx5qaqilaMSpdapdDpOe72lcr+g62+P1CViQso+szab6pJMlx5IhUq98LK6+PB6Nq8WhIT8qa2ypF3sI93BV6l4s43M4P3k3Jq1O82MNJGUUVc5swegHQUZDuZDf08Vk8l2/bT/qPf0diXOnqiStzTEI2c0IYd0Dgk45djqxpdPvIwQx+Z2+5GSJRdJ70GTM2riHLraAWiaodxdV65DVD+fNmxvtq5VB46qlUY3/drX4LLBFmdiCF2xBiOKazXsO+wQQSWkHsYS7JL9u3BtifPEsK17GYYNcDKa5LYqDhj/ahQR9LEneieYvjjctA8f36TsFI5qFKhDoXAz7PrmdNLGPHD+FW4ZM84uXqDXnBJgTSlueV3GvRIlsi8qlUZPPYc3yYh6LISGumI+BiLbu23Cj+BwdOHoSuw8eQ8qudGzadQjrth/0CSCWbjuAs2fOkjuqXBYd8oNhqXjVlDXLzTDs3ra4yVKm/eGkZXhUYOCJJW0QZDDH7xIlrOF6dFnQbQLsIFNQNJmmhd7p1wQP9mhIXtzJjEw8+MkM/HveJmNxMmapwNKDgYwQFtAaTgRAKhcvhMtiC6B8iYIoywW/YN48KMIFyEfCBbDp4u0CMScmU2DoBVoujZvdAu657eAJbN5/FBkCQmspfKfqoq2RNdi1tPivoFN+7dY2PtKPGs8Pm+MXDsHSYiiixo9AAhH8jmED2qJv21rW9OCzX8/Gu9PWGYy8FGOpa25BwDtlwZfflidPLiTEFkICn8tCfG4L5I1B/jwxyMdfL8CVffqxDP+d6cczfNDKrsMnsD39OHYdOmGUlpOFTNpNkMFGZIUnaKUlMPTfP9wRzWvbQURNn/o2KyUHSzm6Zym3JdafvoaM6jW6al/9MoKajZTE4EvVShfBmnf7+ayvtvHZ1BV4cORCnJGEhzH77kT6tlolWsSb5PA+SDfFwbpCyZahCOFwTyTTKfi3gvny4PM7W/q1+C4zs9IDw/mCPuW2tFwCZLsfmqnYrHJJzH7tBudOOW7+Btz9+ews9BzUfvKkWU9UD9raiNsovUiFb3Elqbp80t3xrNoG1mJ5ZiomcSHd65TH0PvaI75kYevpLUraiVYvjSf3DdfGa6M007FuwnRXkHEyCyhjxC3wiHuhNbhi2n3YuOcIJi7Y6Fwg93St73OltapSWuXN8rSUkaOFk0G2DrX6h2ieaiLD5EAg0/IjzN7YwaVkw4UjIHuc6RzlPk0UN9VXv3mDU8jFECCbg0LIPUvJtebnkQtbr2/UyteC/12Quh8zVmx1nk+v5tWx+u0b0efKiqrgQqVv9uRrl8hKXA1lldSjFI22oQaZ/n6d1lkCgZkMtEzlopNpchHuEMOY2do0+DX5fEXdCmOf7eEUcjHeGr/MjMvA/E6PkEGq67DnmTt/LvnqPaLJoNISBp59sXsgO2yK9/3ffxYrnVWpIfLC01++DoP7NUX+vLkVVWbrnCGjsZj+d6kxA0mY51lIF5jJUmzrQBppE1FYSAGDrFxJo/CjOPeB/3VXa4x9pgcqRCDmEOCTF8YuUxWa3AQBNBGj55GFhgqVdigIGjzBwHbwzDcLIoKXyhYvjJGPd8M397dHxZKFDCVtKDxGpIc8ekErikC2AmCaM0ozDGNxE34Fg4WtBVpfPJX8lAIn3dQowVfUt11dJ2LceubKrRj32zYz60W4XcocAQb/PaMoi1XADNNAFDC6e8g3xuYnBBu7BV8vF2BSSd59GB9OWh4xSCIKE/56zRVIebc/Hu5YM1xz7Ll3T/oPDDbgEGBnBiUb++kc2oQweZoAU4pB/lF5AeSOyYUXrqmHDdzFubXD5REXhxiism3/kVP+bxQpmJe8NqVXmEe4XLIl4VnIWPgLJbgCEq8v23YAH02OPI9i9GlVA2ve6Ye3brzSd0N0xcpsGQGNN1uGZisBKA2UY3S+MSxxSXFB7TSkbBIaP78ndcBRizw8IwXaokopzH3xWgx/vKtfthxpiH5r9385J/T/GnFF7Txonua3E76HJ3cLlskXgoJuNF8Ime6e24wiuP7l5umlC+cLvf7smGVYuXlPVIukdGxBvH1nO6wedAPubV0duXLbpd2TupLoFrwHS9cZz9SIzGXJSqkj5poIo/mixj2vdS7JHZMbj3asjeR/9sXf+rWIuupK7ALv/LQ2dOKlhKB7lvZFug3ILPEFxedjSrPLWCna/wS3zlZu3hvVeQoutUd6XYmUIf3wep9GKFEkn/K9MGIVRLyEmT6n0nJKtlg8yybAaCvGgJlq50ApHiab94H3CSqvSY93xq+v9EGTGtEDuV4YPhfJuw6FvrOYKIumwBRMxUDIrcZU94RpLmb4qpUGDp7nadqchXt3UYECz73DVi1dJHSuomCl77vTcPDoyahvhDDnPxzYAalD+vuVU4WN9JLZHtOjBJog6Ve0P7O38WIwW+2Q5idz5JA1AStVtABe790Q2z7oj0F3tEHFbIBEtu87gps//FnR6lVLFSL5AygXzLA6GN3mTnYHagUKkrJSUx76DpkWkd9dHoId9YnejbHlg1u4a9IKl8cXVVwuJq81wg/1tJ7ljLr/us9JMKmQDT+UJphEA0ioxSSh6c/F8JdmVbDgpV748e/X+QAYlg06hW9nrgvQf4Wt6ep8Rzdak2mWh940k3bszfuYS715zDATDA3vqU3qyMxRQOXUuay4stA37D2K/u9Mjeiv66NcycL4280tsOOjW/HdA1fh2nrlw72utUijqe7h7ONm9D8nij08XQKIe202C1MFXKTvbroyARMe64RUvuCf6N2EC3z28vrpXEn2fmsq9h4+pWj4BgmlyUVNrQmnDyQVJclWSYOEksr7RID1pren+p1cszPEDn8r91uXv90Pi165Dk92udwn86C8xPA8SchJm+uhszAHy2eZ3R2jgnwqKpRwAfkbWlUrjc+5strJ1+IXD3VCo+pls53Hn7VqK279fLay9qqUKoxSAX4Ej9ggGFPdCWboLEYt+dCTGMK1NdM0TO1AE5GZM/Ch2hVLomihPFmspYHx0/rduGXwDxj2aBe/O0t2hvD1erVI9I+dB47ihyWbMWX5VkxcsyMrNacpGn1Wqc4tnv6RYJyCRAaqDSE8zR7UqYzy5YtBL66Uul6RgC5c42eH91sfx05m4GauJJdvU3vOVytTBPElChrRaoP/m2ADIu1kDZYs3iV48NikVSEXSVzjzA17cBvf2Yc90jlAmpC90aBqnH+82L8FFqxLw/QVWzFm6RYk7T6seTrMxEkwMzOpBLE0dleP4P1XKc3DuHSjOWFMLlxzeTkfotu+XkVUKXd+SD2RSuvxzk9ZoBzptzrXiVcmiiT1DOLYFSZikPyA+gYfY8sjG4IRKoJnZPMGmds9KDR5uG8toKlfzNmkTIiIMv6FL9qvHu58zrRD5UoUxh2d6vqH2FkEi+hsLvBzN+zGnJR9IU44mvDeRNp5hO9mNmpg9jwsy/K523GN37JGWbSuVR7NasVnW5nRO3kYRcg07XpD40rKxOr92GV3w5MYTKhFZPg2gYeSRfPj6ppxWUy7kgcgOPav5+c16rGu58zqkpffszZ1K/iHaA2dsjPdJ/lcuGEXZibtDmHLyU2IiN4b5Cah7TBwDxgj+OTCHxKgqvZ8DlvXFHDqMmjKldyFIvn8WVS7Df7JL09WLG7+pFvDSpi+cpvJvqzIooQTYeZm5cqlx+jbnbEDyLsYY8Zu58EVpeLmaqtEfDF3k7GrjOOLpMsr4/HdE10RV7zQed3AQvnzKsSQJ09n+FVGq7fsR9KOg1ibdhDLtx70GwWa5PyUNaJGnSl8uGBfbVChOGqXFwSRxXzGUNFrSyzcCzlSdx9CzzcnY+2uw4ovGVRS1zev5is4Chbp6S4ZLEAZia+e6jAjHm5vVzNL0LXPT1+3C+1fHIMxT3SLKtIcaYgdUxxBFJ6I6SRv34+NOw9h4650rN3G55Mrg5QDx8nurqqByZSOqLIuK8Otqyp8DmuXj/XnsAqfw+rxJVCV//bFqJP4148rcf+w+SFaKdkiKVk4P9rXr+gLurPEmGUpa0+zMpU0o+5+MGJHV3pd6bsYsYJULqvwLhn2dTy0q1vRTxsIk0w3L+bznbfJc9/jPw93uKAcY/nz5uG+Uzn/UM3f09h76Dj2cYHfd/gE9qQfx+ETp30I57FTmX4p6ZETGSjKNXiQHFLwVQp2UGF2lynGH/lzkRUomO/ikw3+tGwz+g6dwV2f08biEEM0o6xfJc4XdIPgQKNG9iwuWWiXI7AJ8hCMrGVHLgiXZkrnsXrHITT6v+8x/L526Nq4ygW9B8W5EIi1Qa0PMZ9iLgVuXdT4CyESHAhnA6QnAo0pYLGi2k48Cmx8aT6HYj5/r6Kno9zleurLWfhs9gZSI4lb+ESXy7nlFwO9Et1zhFMYCDdFy56Y9eghq4AmhKRQZboGyeKC15xCZAWh/t67IfoN/dW8AP4fgR9v/cokv2Xyk9c19jm0LtYQO784KsX9vhVR2V4cXPm8NHK+T+bPbJA3AUS6vpEUmSZy5l5wXmBUppm95MK7uqe14RWqXgTSXurVEPd9NY/08YUy6jl4Gu5uXR2v3dISsYUvPvFmcD4TLoAlcTHG7NXbcNenM33GJB2rH9z0inHlc1enOqEoj7M0Qo+HWVK9FBo0lxGMgen3KLAqT0OjaUgFRnxX75Y1/ZZERtpJCoa8NP43tPy/77B0wy78mYfordbw6f+EhNyzgNivrXdZqPsq0/O8hN9KNmdQ3stUJBnk3ulZ777l6jqoF1/McADl7/qc71z1n/wPpi5J+dPOoag9ePKLmbjqtclZQi65WzIWTdzFN29s5NOJUyETJesDBaLiVASMmVmgXFTO0UjHSCAa2RxQT8AzJj1IQSTM36F3t/Fzj0qWSkMmCXrjZi+Ow4Ch0/188Z9piCYT/f45BR3+MRmpYnFI6RR9fvLx3XXwnW3ICKvneSR/u5Xxi+A38/TsZOADgtzjs/va+1YaFZYJKu00bqUJCrBuL4/zqav/LENQen36wwokPjICQwK9642ae+m+tUuMw+0d64atohOnQcSEQ2vA0+aTbA0NCQMj/TFXyK7XYZKE1lBRV56baCzgnwRH3cplMLhvE4PNVHEBAse/5mxE9cdG4eWR83yf+lIeQqGJzpq1n/gW3y3dainhVG/sF3e2UppUns48Y0p2MLugz6Oeg9GQhEomJfC6HPRqWL2sD2uF1cQM/++ndTvR5IWxuPv9aVizZe8lLeCjZq5D/cdH4oGv5+Pg0dPGVDCNo69E4Xz48oGrlarOExlnVPitrrw1dKVrXsPuHAv76EpZJiytYxU+32B7BnNHkSV3d7oqpAO7N/A5475ekGKAbfRgkWix88qElXh96hrc3zYRA7vWMzi2/pfHqs178eHUFX5Gwjt7Fjr1ELNkNETgRu8xv0NuSsgkXDjVSZaASCrAMsKR37Ffta4e7NEIK7bsx9fzU5wxnKDPL9731bwUvyrv0R710aZOxWyhyP6wJvrRUxj2yxoMmrrKbw9lw9pDVtgBP2rco51QvpTaZDRl9xEy8KYXv+sZMBkSa3b1kYJxHnWGFHxI22o8sn8yQpzuSTtVrjGhvT4YcBV2pB/Dz+t3K+g6piurwAUIgX//53V4/5d16Fn/MvRvnYgujaqcU0/qP0KQbfLiFPx75no/LRWSCxltx+wNH0Vf9Vf+0tL43vX8PusMr2r1mmc2xQzu+JJZ5TEiesv/WRcgRJCXxtABHbD/yElMFu2UIwCpgucvWGgmr97hZ2Hu4spb9Bav+AfjiIs0BDvNrDXbMXJWEoYvTkVGoJEniHttYDgCru93D3RA81pqFkFkfpalHSRtI4+Kn8HsmS4XKOlNX9T+6CBaClM2mtFbWmXgCI7LShREyge3GjdLpEX6DJqM6QFht3YxJXIL4icK5o/BHS2qoWeTKmhWM/4PLfRCuOet3Y6xi1K4JZPF/opIfGMEN1+vBpdh+KNdDQCOYLopfvcXPhGlLUeuE1so7hLMPuG6J9ae+5LTXryOmMcM9B88lQtwmjs6LHt7Wo5XtCW+ns+jQJ1VLffHzIYIyPbC9Tvw04pt+Gruxiw8hpaxUHIUlq6tIkY1fEBb3NDK5BlYkbIbVz4/VrGmbfwWJGUUdZ8DfyCppCjUm/FhRgsmhT1ZM+hGsp+a4LC+872fMHb5NtPN12k0CIEPvp6XL3yfRbRhgi/0AmyR679oFwo8RNK2/T7768SlqZiyNi0rKElNTBQ95sW4s2VVfMh3UCr3Kyik2706UfLlGMlAQj2nFpK8JYTx1Qy7Pr6V7DYqFMwDgg5s/iYabwGT/JKaYvG0ZlwRXNeoEprXKIcrqpZB2RKF/ytzKJBr6/gcLt+0B9NXbcO4ldtx6tQZZbcErUcJxqOs/+bnm9P3D3ZAp4aVyd8cPG4pnvp2sb0oQbuvpAUFmgVJJYcEItLTGFxaBHur6rd7eK1PIzzZuwl57oIE/+8j5mLQD6tBOieMzvdSAO7g+RUtmBdX8x2oWfU41K9c2iemrFC6yEUBSIggjOjlLWCbK1L3YV7yTvySvBfHA8UeCswWFk43ja5XF3zRafax6xpb9cETX/yKIdPXm16WmxGM5mqkmEYDr4tCDkGkYFuD74xZjGe+X8pNRIIhFXYvEITAB0dCiUK4qmZZ1EsoiWoCMcfnMqFMUT/rcKHGvsPHkbr7MDbyOUzecRALN+7BDH5kSAFIK3W75fz1NSuqOL/jPnmdSqWt51HvsZFYv+tQRK5G2990uZPXXnhH7/fxPv5SSdM5pFeGTurpoim+rHhBJA3p74SGij5rd/5rNo4ezzCjzpYtibxgj6DGFbEBLuT1yhVDrfhi/HwKo1TRfIgrVhCl+CHQb8L0F4qggLSABCmA4PQ+cTITx05l+Ei63T6x4HGkHTiO1WnpWM8XiAxp1M/XystGkUhCVVqli+bHsIHtrW2CxTh07CQSHhzBFUuGvbd9lCa10bpJU6p1y8di6aC+TgNk5qqtuOOTX7Gd3x+XEEAxd1Vn1mYlyuWhggxSQJBFj/Ny/BBwVrG+gm2tiwaIOITJnXVk4iR/FLRbYg538mP7weNI2X8c6cdP0QSZFmJPi7FCW2n86e3cGnvr9tZOANEsbjV0eH2yycAr5a+NTQ5ULYaeUfFfOMB39JJBQU/iLyTqV0Dt0tYKKM1UkQV22H12BtHgSNt/FA999ismcDOJ2NjN3U6jn6U4wvUJ0Cl6DWHwCO5ji69LvsdmVoFQUg421tuaV8Wbt7WKWO323oRleHzUIoKzUJsElzkImgWW+ty4Rzuie+OqznMSrLl/GzEPQ2ckWTcGMs7jOi8LU6s1pmNxXfRdONJUw6I89eVOfaYMV9Sf3tka3ZtUjWhVdHlpbFZw2sLfThNY2l1obe6SuaDXCNqzW6j0iF5iLVPrmFF5ZrRTDrHL/Gexv+u4hiDQG/3MNRg+oJ1/kwCNPYSp9D8qosQsLzSokaSiBo/yFQMfNor+XdQyFoiS53kEeSU0RhNPa2zAUJnvUuMf6YjPH+wYUciFyfni+N9oU1IvxgZNmcU0wkOlFxtBUvHMyIURuQREFduQe9tj+rPd0EDwEVDWnwejA1B40jyTo4/RxCZeIKdEAryg4jM8eV4C+cdQrtkL/80zTDNTh4SWn4ZaCSadH+5QC6veuikqIZ+yeBN+TtotXaOJnFDWMsljR7BEhT/oy3ZQ0DfQzKoayYaFsE4+Mw9mSej2A8fw5veLovKZRI54/eB++Mf1Df16blkglHQBI+w6Xag8B+GADDiQUhGeDDvyYCeU9yzEE7rwWOU9rLaLFsyD9/7SDCv/eTO6RbE4xHh+2Dy/lxnVEUT+HYUsklmIMg3p15Vm1geSdh3GO2MXR3V+betVxII3bsRX97TxuQONkmdZmQQFMDCpVMNI+Ro9WTHrVoGGM1XgwaH3atx9wTbDRu6a2PE0+iYmffd1DSr49Gdv39WWDFzqQ9QH/PXLudpaYfQmAUsDDhZmwzVFwZ/wjXJ6bSD/+9CoUlyULweaY1sxc7hKmfHcNWh5+WVRB0pEk8aPpqzAu9PX+akcF6227RytAUbK/Inkz9paUlkCX7pZrpuSxQvnwxOd6+CuTnX9ziPRjokLN+L6IdPpbIiD2N8Z13C4I2pPNYaZz/dA81rRc6OJ/ugCOTZo8kqfncbGQe8yrW1xEN3tYQ49Bj1GYHE1bc0qDdcGWeu6X5PKeKh7fTSslj22mTvfm4Zh81OsATcykh/MhlBRdkJP8Yf7T38z4KOgj96Yv7rIFSGlFADta9ojFkKzL3y1t08NlZ0hShBHzFiHt6asxLYDx62pBWOFRMgaMGYqJ3LRROMjak6SzGuu++I1yxXD413r4sbWNbNNvLFhxwE0+dvYUEtqCzux9ZpA8QzAkkWxuPpxgXmMz+Y8CqroH5am4KMfV+PHNTtpH96jg4G2CLinhamZVndu9dttTRCMmA+dsowtmA/3tK6Ge7vUPadqSMGm+9CIhc4UmjWmQ+Ef7GnUptxHXxTc0WP4CwJeVUiP/nqUQFCPcKQCpOei+fsPL1x7Tn2zxEIR4BPRevjrhalZDQyNHY0W1KjyJIze1UiQAjURgLWDiIju39WqGm5qWR1XJsafEwRUNKds9+I4bOC7ItWKheqK4rRkPEca07X4+GiUUBw/PN/znMtRt+49jDFzk/H5zCQk7z5CL1hbexLA2lDSFvyj+7uBLt+11PWK772hYUX0b10DVzVIOGeg1qRFWRaZztbrwqQAhAxaPA1piD7MsVzQM1mwDjmm70eTRAcZVzqITicQN9aSigv+SXQGHf1Ud7JpYLRDIM5E55BpK7Zg9LJt2HfkJCnEdDNGzx6Rtmp6SxoDWj23dHNE+ueGxgnoVL8iWtetoKTvsp3vPXQC3V4bj+Vb0+07nhc53Gy7BteC8ywE6s2qlMTEZ3ucd+35uq378QufywnLUjEjeQ+8s57V5dJ7sdm6mtp8WptpT+3s4vuFeyXo0DqLbr11K4ZSeOc6pizahOvem+5fo0elyWybD+W6EMKnkMd4mJw5auA1/toMLtA8N380kD8fSsEhrfBJFjlHa7uxraqWxpinu5G1uNkdYl38tmk35q3bgfmil3XSHuwXtNI2FWnzzYkUWiSfTx5li+VHhxpl0ZwfLWuVdwIksjN2HTiKbq9PUvnTXOkwIkVqhd2ClgBrA1RtMTWpVBLfP9H1gqHYBHXUkg27sHTTHsxZvxMzNuzhltsZK5w3qk6mLBrYaJYciPx8h1rl0LR6HBpVjfPnMFiWe75j9Jwk9Pv4V3/BeoRrS4KZHGlY5riOwPz8NXPkwKGKoMf0HVqGP9npR+K9CJpfSegzBzIO9u6DfNQuWwzjnuqGymUvLEOI+KnUXYf80kjBNbaO+7Wrt6djOReUjMwzUQXSTAUQjtqKllENLyuOuvyo4XPGxaJ2QqmLUqCxOnUvegya6ncBpcxqqhzBkVM1LBxT2G3QY49sjSruiQBFTXiy6wVTbLq7lrLzILbsOYzktIPYsDMdSXxOt+w/hi3pJ3wILhmQZBa7l79RpG8rFCuAKmWKoAafu+rxxVGNr8Eq8bHZpuCOdj0OGr0QL4xZ7nZRIgWDbe4ofd1n+dNyGSMH7lEEXQxuvk/lb+wCwt+0WYamSeGRKQ8K8SZeK1QgD0YMaIdujavi9xgC0CGaDwi+OFF9JVJUAjkVRFEFz6tAvhifaEH4YYJDTqDoROMFkd8ucoFYQSONUbPW447PZvmVTTbUH7NFpV0LxxZVtmUV4IhnBEZMTG58eltz3NKhDn7PIVy4/YdP4lRmJo4F+OJEHYVALIq5yxuTNYd5cmch50pwQba1oL4YQ/ApDPz4F58xlwIMIYJVkp2hzf2PfDfvEnTxVEG/+aNe/NWxZJ1yJNPBi5DKihBgGNgu0S/BLHaePtClMMTieOLLWfhmYao7cuxIiVl3Yjjep1ln0cQudMUiSonfv7tdtjMrl+IYP38D7v1iDg4cPWUv45XMKT34DZipM2v2x3RJr+O7+TiboItoUTL/QGVSOm0mkiuPTLkBlq2oAjcBP727Na6+ovKfdnEI3P/Af8/LijHYAn6aY60EpWy7fLQ2JrO7LjIW3eXaCYtnSL+m6Ne+NnLnYn+6ORREHc99PQcjF29xFhfZmpXqUi4HeSlZIuZiM3+ayAU9kxT0gLAP4P/7yBVwozQJGeRwVLoBZt118C3d68bjtf4tULtiqT/N4liSvBPPjJiPWRv20AAki3CxCHFRa47cqkAI8IgBCrekMLXV26BCCbzRrxk6NEj4U8yhwHu8P3E5Xp28yidMoQSYxPvrVYyEuxsJv6+FwgZys/3j8M9Qgt53KHdAWTJ/muBCx5EVa/oFWHwIEs1DAAMGtE3EIz0aomp87CW7OETA8K2xS/HNotTIpZs6ZXAEE9tQpp65+9viKK44qmdx4WjiC6BT7XJ4uldDtK5T4ZKgkKLiPsN/WYuXJ/6GA0dO2fEaRIyD2tltZcXO4Gv4P1v5HFfnu/lpp6AHgnI38w99EykoR+WjCTi58QcbGsl2c25uUgkPdKmHJjXjL4mFIS531uqteIcvjCmr0+hcf4TgV/T5YCuYwpm6QXYCfVG6Aw0rFMeT19THtc2q+4Qh/+tDcBF8Pm0VBk9fi1Onz8ACkjStJIsydc0dcwTatfvdL3PUwJHqerMJ+s0fiRdm8KNtxCCObWKtPjmdqzaUCPG9TSuVxO3taqBX82oXJQ1ysUca993GLdiIz39NysqJOwKbLrYdCnln9aWUDV1tvWTNwRLxFWvsBXbUGbkzeVkY/3taV8cNraqjQZW4/6k5FDUXU5dswtczkzBVwHgVIBIRSXNhTVxKWJ9gC/RcE/ZZojkSF3QvKkEPCHsN/rCCH/nIQI2OLdaCA7p/ac3lSo6n+6LDN0UAGARa6fqmVdC2bgU/9fVHHaLrq0DwjV6Qgkmrtweq42RfjMBSE44ZiZ5CZPPbhZm2dVwF3EUuLuVvBehYzlX0Xr+Jz2PH+hV8KuncuXL94eZQoBJF15Upy1MxcslWnDqVSVpCDp/ZFGDt/dadPsJ7JQV6ir+tPjfZk8yfcwh6QNgf4n8ZYq3qskFJHaygVKouqsXh2V0AgbLr1agSmtUqh3qVSp9TG98LNY4cP4WVm/di7ro0jF+2BYtS91tdFLJqDBbwEYtsatMJWY9mlo12V3GY7i4OOP0UPSciL+tFUSjS+4oKaFlTcMbFoVbFEv8VwRd96EXjCYHO+2HFNr+LrVyFbCNgUQhSsuPiUBU9EVw04m+PZI4cOITWK5EFXfxlPP+yHjqzJMVC41nIDvUFS7n3tgVvk3VbmaqgGmpeqRRaJZZBg8qlUUUgnsoWR/EiF74XmCgyCfKNreDCPTNpF5aJ/uWeS5vbI9fR4LjJGwO6zFNNzdjho65qLldZKIti5yfPK4riJzGCLYwbJJRCYvlYVC2b1fU0LrbQBZk/wfknEJSbdx/y+eKS0g5iHhfuVdsPZU+hInu0XVS1nkdtopDov20J9qzXBDtoTy7o3jkJekDYRchb1NMlulI5JL3UOfj3OrTWMAcJM5Sq29XTFKIrZ4PyxRAfWwDl+EIRnVFFu+aCeWNQkC+o3Llz+Y+COy4j4yxOZmTyhXDWb8F89GSmXxu/7/BJbOOmeNrBE/iNL4rDxzPs1gos5jHoHdcKlGDZXEiaoqB/11JG68zTWfz3KE18RmQAnBhvKkYQeINA4VUolh+VShb2S5/jSxT0C6TE7l8k8ChgygI1JyC0R7mpffbMWew9ctLn/BOlzgJSvJvPZ8QSUEsFYzSBUOZScEZ2hHaDrVG78EOyCF9xIU+3u/pRCHogCl+Vf+sC/rSUYcJFUaOu3kPLbqA5+Ew7USexdYTv8FzEjOSipauC4JhI5hJQF48cA0nx5rKOPJ3/zrHTk/NiY3vNhufkue4vtXVF8D/tZIuOVBSzm7cMll3TEij0smE+OysbgegIPxwmuy1zRQRGBalrcy7kG91ZHg9ROUCZowZu4g/d+LcfDp0fM1NvCucWNBoq6YOhGyvv0DJPlBemxwnyxTG9JTAlBCzcXC74G3qHUHK3YSa/XGjRyY3l5RWoNScM/ZZF/3gG9ZR+3vq8M7PXVohGidmlz2ZNwaK0qPnTqLk86Vo9j2inzVR6peBFaWx+JvZCsipkKi/ta5T5BCIrNeU7Yc6fO91o6yRH5LS172eM+IB+PTCbJ+r0UTI1VPCHGNOWfZYsdosk5KFTiWZHl8z4pvwspvH3F/Usu5HOzuoMIEWqi9a1JYNRDEBpxqiI9W2fs2UYXP6pK1/qCEKxbPiu1C6gF0VYq9ps5P42Cm8LE2kk3932GqLTP5asgJl5sOL9Ycd1WEuRLUHQaEgq5LWuk354niUHabFuIkXftUsVQt6JC/nCqGJ90ZrumrDX5w8/8k/HkfWpiAhpt6YJPMt9oWmjVD/TlVaK4k6Q+WyzYQQ9OxSizHOZzXCYszblYfFeaB/F4U87lKItQxLZHYvgGlEKz9aOKpq0YYSYR7TwO3t3FQsvAUUlHsVvOnEPNleOWdOVoo9ZZy7kK6KV2ahNd8WMz/qBJvzCVtpsRbm9sm7yKo3dHerLAx1Eknu1B+l65Q6iYXPXI6VHN5+D4k31sTZopnUpJr6Xak5vMJ8y80bptEIWPaSa/toPsoCdKws5I2aHSds7aQ0zy2Va+n2rFMDSNcuMrJQbpFnMynd65rqRT9Sjzp3Bqi2YQ8AVZl7pPiptxOlyfGtciVG7NWXlyGzDjLCQoLAfr+SPTbIj5MFxTklK/kNb+Rm04Bc4zNh9AHqGtEatTL9QfYcgeLWZNIme7vQa82tytOvKVG5oqOGFFb9UmTnJ+QsKrZUhmqDnVHSQTK/MtLWtN7f3PFUpEFTXlDXgEQEBwz3RqLEpfxJMlyE1hmJ8UHeSdV8+yINOSKARA3LRVHu0oiIDuhZef325ea5tWdvlmaShbIFZz2LCMjk+RTe7lX18IWstfNk7h5Ft052IyPfnZ/EhP5tikWCuJMFiJJMPUZhPsH+HDZ8dNWiEmD1ruSGRSiKrkSKwhzCHFelFSGtF67tSqTMgCvRdFDERGxW+7HKRxU0uXm4XCCUaDjz9d6k4RoSMhDNtSsR+DFwE4MZE0IHcQ/ylv2aMHDjiXGX0nHx0i98uCK3f48cNzgCDq7zRkn5wEebRtMuRA0SRgn/uqAyc1XsGUSSRTrJdiy5DgA5SUhesMydmLSmm0psmBDkSF74rhkKRhZJkNo6Al62llStN5kzFgagfsASFoyr9dcUyYInbOFJ4ltjOd/zhIS7ku85HPi+YoEsC34Z/0yCRwHeVM5JBJkefKVt3UCdtEiSeNxueO0qCS8B9fi5zMqqiBssCjdTzLhrKY7g2SM8VLbJkVSIoAmfgkcIr2IJeFkphK1jLdg6Wc7ZmKRwBUFLgo2FvdXSptWA6FnK5fCpz1P2zLoRcXnBBDwi7+LZr+fk+yR9bRrXYWGRaKvsO40jXUak4m6ls0dBKKoUgwpTzzhSmPGK01QXecGQlrAIXgRgSjqwH7RpYKuEMAaFLXKOJ6rtSXFEXiljurXWibRkHwFp+bVUMOqzbZdEBrgj9XP6htzJHDRyPCzguiqBr/ntDfpW38ZPvyx/LONk6tZsQgQ/LTsxP+GBW7asJqQoWYUTelDCno3AHbCadlbCBkECGyPXMTqSdy9JwpQVtro3uewI0zbTDkqBy/VbUIlndh6jr9A03zma6U9ZONC6Cs1+5owsxsIcfo/grX3ETfdnFkMOLLujBkefmj0QnmE78Srvxn23Hr/Ry0nQ3Q6XOhoXq5NNwSs9DRGK+SJxrNpivrd6aLN818jKMbNtrrWRyKTp7EWHEhjRRmezETmXrD2bd2WygnWgCa56lgIois4wC/GNz8+Q5oXxx6wLUNJltLqWna/j5/8qfTOEvTcsMcLtdrPG7CTph3pfhD634UYPfjBr8DiTyxwr8saRgWo7Ynoe5/TsqwOzynUhB8tyRdkTcdRwlqZYdzHa+0TATUZuUc8eOgAiDyx2A1CSA5ICPjmc9Eh7d5stGipW6LB2906+1NzwcEIpIRJxZyvwE/4L9/I/b+ItJTJCuAkn8L7O5YO/9PeUtJOg5I2fkjEt75Ah6zsgZOYKeM3JGzsgR9JyRM3JGjqDnjJyRM3IEPWfkjJyRI+g5I2fkjBxBzxk5I2fkCHrOyBk5I0fQc0bO+FON/xdgAOGrqpU/PPf1AAAAAElFTkSuQmCC;" vertex="1" parent="1">
          <mxGeometry x="250" y="614.5" width="80" height="80" as="geometry" />
        </mxCell>
        <mxCell id="UWv910rHTFWDrx02N8dY-97" value="Custom Program&lt;br&gt;" style="sketch=0;points=[[0,0,0],[0.25,0,0],[0.5,0,0],[0.75,0,0],[1,0,0],[0,1,0],[0.25,1,0],[0.5,1,0],[0.75,1,0],[1,1,0],[0,0.25,0],[0,0.5,0],[0,0.75,0],[1,0.25,0],[1,0.5,0],[1,0.75,0]];points=[[0,0,0],[0.25,0,0],[0.5,0,0],[0.75,0,0],[1,0,0],[0,1,0],[0.25,1,0],[0.5,1,0],[0.75,1,0],[1,1,0],[0,0.25,0],[0,0.5,0],[0,0.75,0],[1,0.25,0],[1,0.5,0],[1,0.75,0]];outlineConnect=0;fontColor=#232F3E;gradientColor=#F34482;gradientDirection=north;fillColor=#BC1356;strokeColor=#ffffff;dashed=0;verticalLabelPosition=bottom;verticalAlign=top;align=center;html=1;fontSize=12;fontStyle=0;aspect=fixed;shape=mxgraph.aws4.resourceIcon;resIcon=mxgraph.aws4.cloudformation;" vertex="1" parent="1">
          <mxGeometry x="520" y="615.5" width="78" height="78" as="geometry" />
        </mxCell>
        <mxCell id="UWv910rHTFWDrx02N8dY-98" style="edgeStyle=orthogonalEdgeStyle;rounded=0;orthogonalLoop=1;jettySize=auto;html=1;entryX=0;entryY=0.5;entryDx=0;entryDy=0;entryPerimeter=0;" edge="1" source="UWv910rHTFWDrx02N8dY-99" target="UWv910rHTFWDrx02N8dY-97" parent="1">
          <mxGeometry relative="1" as="geometry" />
        </mxCell>
        <mxCell id="UWv910rHTFWDrx02N8dY-99" value="SQLite" style="sketch=0;points=[[0,0,0],[0.25,0,0],[0.5,0,0],[0.75,0,0],[1,0,0],[0,1,0],[0.25,1,0],[0.5,1,0],[0.75,1,0],[1,1,0],[0,0.25,0],[0,0.5,0],[0,0.75,0],[1,0.25,0],[1,0.5,0],[1,0.75,0]];outlineConnect=0;fontColor=#232F3E;gradientColor=#F78E04;gradientDirection=north;fillColor=#D05C17;strokeColor=#ffffff;dashed=0;verticalLabelPosition=bottom;verticalAlign=top;align=center;html=1;fontSize=12;fontStyle=0;aspect=fixed;shape=mxgraph.aws4.resourceIcon;resIcon=mxgraph.aws4.quantum_ledger_database;" vertex="1" parent="1">
          <mxGeometry x="390" y="615.5" width="78" height="78" as="geometry" />
        </mxCell>
        <mxCell id="UWv910rHTFWDrx02N8dY-109" style="edgeStyle=orthogonalEdgeStyle;rounded=0;orthogonalLoop=1;jettySize=auto;html=1;" edge="1" parent="1" source="UWv910rHTFWDrx02N8dY-102" target="UWv910rHTFWDrx02N8dY-4">
          <mxGeometry relative="1" as="geometry">
            <mxPoint x="810" y="319.5" as="targetPoint" />
          </mxGeometry>
        </mxCell>
        <mxCell id="UWv910rHTFWDrx02N8dY-102" value="&amp;nbsp; AWS EC2 Central&lt;br&gt;&lt;br&gt;&lt;br&gt;&lt;br&gt;&lt;br&gt;&lt;br&gt;&lt;br&gt;&lt;br&gt;&lt;br&gt;&lt;br&gt;" style="rounded=1;whiteSpace=wrap;html=1;align=left;" vertex="1" parent="1">
          <mxGeometry x="220" y="120" width="390" height="160" as="geometry" />
        </mxCell>
        <mxCell id="UWv910rHTFWDrx02N8dY-103" style="edgeStyle=orthogonalEdgeStyle;rounded=0;orthogonalLoop=1;jettySize=auto;html=1;" edge="1" source="UWv910rHTFWDrx02N8dY-104" target="UWv910rHTFWDrx02N8dY-107" parent="1">
          <mxGeometry relative="1" as="geometry" />
        </mxCell>
        <mxCell id="UWv910rHTFWDrx02N8dY-104" value="SymmetricDS" style="shape=image;verticalLabelPosition=bottom;labelBackgroundColor=#ffffff;verticalAlign=top;aspect=fixed;imageAspect=0;image=data:image/png,iVBORw0KGgoAAAANSUhEUgAAAPoAAAD6CAYAAACI7Fo9AAAAGXRFWHRTb2Z0d2FyZQBBZG9iZSBJbWFnZVJlYWR5ccllPAAAowFJREFUeNrsfQe8XVWx/szNTU9ISE+AkJ7QAqGFHrpI71JUBHwUO/qEx1/F/lT0qaAooigWBDsgFnrvLZQACQRICCShppCeMP+9T+45Z83MN2sffDyfT7N/XO7Nvefss/faa9o3M9+wiNC6Y92x7vjnPnidoK871h3rBH3dse5Yd6wT9HXHumPdsU7Q1x3rjnXHOkFfd6w71h3rBH3dse5Yd6wT9HXHumPdsU7Q1x3rjnWHFnRm/rt+aOdjvz+w+LZroWLGk9A44tr3jYrf9S8upXtN9ZQKqPgHd/xYu9jiH/W/pdfc8VKq30tDdaU6jKl5Lu74G/re8b766dVnJ6/h9PTS/IzGv9PXpedOXp9+RuPe0nNL80LspcKHCW6b0Dnri5Fcq3qvWZPwszvOhdbKLouAa9GfKc1F7vhee5bJGtjrRc+G03swzx49rpbMnHl+az+7uQeD8y0r/vFq8cvZxc8zyq/i708U3+9YddnpL/895a12rX8PQW8/9vvtxSfsWyzC/sU/dy++NnOCwk0Bc5vCCBJ6aJEwhJsJPX3ObwB1LQTlxQu1+b19jRceIAkVGzAn4ASUCDpNKrg5iYTPB0gQvC//QLQy50A5BZ+NTmf/GCowt5G84EafCZUOvrXoXNOKH28uvv+5+Pe1qy87ffX/aUEvLPfWxY2cUPx4TPE1iL0xgBoTCaJ9PoKsTWIFGpZdYqGk4AGhzRBZpaoHL5E1DjwJeM/g99YTQOfmQH6pVYtvramzqMCDYn/t1sLDNf5blJ9ZALQu8XvNayi+FrhfI4WWucfgvl4qvl9eXMtPC0v/4P8pQS8E/ODitGcWP+6sHjKy3MnTT4WzYXgpfkChBk3Ma0NLZwQLCTrn3FizwTld0HTjt/wkfGhAGeMauvqEPQEUCkQWP/+5etc2PRz8UKxLDx+YFVrygszg2UBPJLLgwEBQJpwSsP+wMQBhBfnQIvYi3GvvKP5xbmHhr/qHFvTCRd+tONO5xTVPBp/WeGjQkmasGAceAHTRJVhoKyTSVC6RuxW65R0ndoqJYgWRxnbKxHHgsURxd0Ygqiw09IoouRd0bZlQBT7jjphdgtAlin3V80MWECnRjFLjCmGHnlAu1CD/DK3iUMpaKAwNvQBoDVZ8u6f4zZmFwN/6DyXohYAPKb6dX1z8UVEgWAleEY5hiarc2lhwqoCp0P021oZx+Oc3lDVjQLGlwmWtoLunKD5OFgjcusMAKkEo4w05IxWssRVyF+MSduOllRCiImSDGthIsfssCUBZgo8j8yzMszXCTjmQz4aVOeUp9Jvifx9ZffkH5v2vC3rhph9fXOAFxdn6EDgPR0CVVASclAd0rCup3U/B0G+AMeXCRuhaR1Y6+H0rVjCO46JNBTZgRlioFUuWCz0ES2mVZcx6bYF1W+td4PuCbrlkXOIA1OUgpIhCIq/YM6GHTT8QPhE6J/BaFhYv+GBh3S/9XxH0wor3KL5dWLzzPVRhIUJfNHiQoeDlYq4oNs9ZlQrAraWNA9Iu6SNE62D3RwjqSLDLg5AGKpQcEGf1YQW41xpAaMKaCi/OKVACrnvmHhiENVYYK5VN5C0iT0+72KG3BhWm2TzoNVF6sDh+XnydXgj8kr+boBdWfHjx7Y/FWydm0MTYZQ/ivQhcix4cBNlaAVkq4+BMsGfRbML5fvX3cGdg9zJKI0kmHo9c5giYyoIbOdRfgJYInpG81RRplAPMoPQwTm5BcLjiczmTsgsVrsN8AsyDgeeSM4TN+3qk+NdBhbDP/h8X9MKSTyw+8ZriIoZQLpZqJReJLH8UJ2Zi47CYxQgiVSgdmGqLtHgupQOAv2wRiYm5pUJ4BQXTkfdhvJsqhdFKxiAbioDFcBmF6J44D4ZxLlUocXqCo4xKVfouyIxUequUx5fCULTKI157jjJe368Q9of/xwS9sOQlmn5t8bVelC1AOJMEgFvT8mEfkivSYi0BbAZscZaWvWKoa1qYGsx8Brpnp9CjdJa0AEYGXgF6rbt2ChQuShVFQJZ74D7YhGBa7p6DzIdKVwYgj31f6DGBdKhkvJPQeISFCvnn5V18wS5mEGYCu7So+Pe+hbDf87YLeiHk2xUnv74Ucru5KQCk3kps5R6EeAQbPYTKKrZcBiAAVGPti1NVldbGpJ6iPSaZUKMVjKMqHkbei2RQZ1JxN/tzBGC8ZBDznHeXLeoJsIkI+ZaMB8JVKd2qKsZMZV221DcqQLJGIgKCtNJYVPy896rLTr/vbRP0wl0fXZz57uJTBlAmvRO6eJkURdaVJ1z5RBR4C1QBcITxdwYJRNYqCi0SCxLFZrZOOgueocKhCMBowfXM1SG4unqhMC4Ji3UiALFKykBmEgFyzisggNBHzwzsuaqsDuWAvsBAEfk8u01dCujjCJ9NBHqu/fZK8bVDYdln/rcFvRDyPsW3e4ozj8eBeC4lU52uqKgJhlYviwgHGyJFwLOxaKWLHrtbVJFvz+aYc6h3LjyRjAvbAthU1SQj1KI7DoRVCS7HGYUs+JgLJari6Rbvj6owCwnzYU5xUICNVKYSKQ59KI+JlA0zkwthX5AT9LYKS15K8M8bQl6/GG4+IFtTzmalGrnu4rvknpN0/Dt5QJyeJwJAgVCKyfOuvdCO51VehxiftVxwG3pJIjiSPFP2blR9L7gHJOCaknVKawHSe8/Kq1gXnxuXyBRrCAbXm14fmy+4mOm1pbtatHA5JWALU9J9lO6RVjwRMdfW+BJ13Y1tp24Y6IbGtbN6bnr9ksXjICGc7u+OBZJknZuvBqBRstkl0IcIRO5427ji2886l7KaOdryzj19uITzGw9KMug0e2FObyZdSBtXqe/JZlbPP3mQQn6TRqY1XWhSgpqm6TSkLmIteBIzE0Gtkz6zxrUBi596JpJch7sXMcKeYiIurpewdDi9VnX95kFIoqzEWFkhL1wiiRFk/Zkoqmi+Sd+fXShflaYVPrG1As0bkobxAWm8ZJ1R9JgqBrZtsBGwqx4c+70j+loESHG2gg69xtZgrP3VQcW3D2czJZHrXmiIcR15u67evc7kkmDuPNPWRaAyKJcjDfKxsPPKAGcQxMkAeS7ezlka4OvC1GGIY1DYcZYpD8ij4i38rRXQknNpQZA3zFa+5XCTVvLaRGHpa5otcaBZ0NcepiVbCYMC97wqNRqChSgfmwsjtAFYUfy4ZeHCT2/ZdS9d9uJNF3Ep5Madhi6H0cq2Zzt1fZgT0yJ6Ha3CEWAx65+ZfrTUtR9zsj4c5mA5sV6chA1sXFNRSWDt1qWXyqyvr/7ohSqEDzxtAYKXWpumOyjezTQuLkearOPmw7JkcEqnUJNnzua55EE58X39KtyRDtwn9SKEUKaHlUvNjbSp2HjEeHDssiGx62yfFZtzCgh/lH0T7+VZT6GxF2287+IPE0aIusTSIF/Ufgx24SPX/ZjiTVOEtDAiK8LgE6kK/GAOF1fMvWgBkMQNlcRaAjCQfWhHETgEXHbRT4DYpZbEhAiiraDdWEi9I4BJvJfqBIjrm0yQLk3wkfpSizFVrLwjtriS+Etquv3S+DAGeIBI7G0w4dJQZrM36q9h8x6kuMG6pPfhPH0TVrFR5GxADLbucsbNdvF0+ow5UHzm/lkpLVbP0uEc1u4y7Vb84ZiWXPfCmnfpQPI2hikFmAYDuV+VQqhOezEGJVvLjeZq1jP121XsIXEOO+7UqqySQrlzonwJL/9tqHJV7UDlazMIOFW5uBVuLM6TEiQTSfcR1OKZajjt8pJ3xyrqMWCoSn7PZ+u5I8Yhiv/2lrIM+jWzSoBu1WWnr6xy3U/iUsijeFCMhmFSYBUZq13XTKkFdL3HAsBU8wDDmIYQOIOVgYgGxYRi99bhAaCYXRBKbUAuRso8JyjsrXkONZbAxbP3JcoseyuHNmHD5exA3lKgLSziCbxAhOojV9pZxtTQdPjNzB5btQ829fo5ja8Yd1KpvZC4JQw80NBaCwhhrH+OOubs80QWnAOHwAOGGxfP66SsRS+53WrWXGhkSIiAGje4ReKETIFHy/ncIPcYYn+tVJQBWhsF7EQFGdACUVhkE0pqrrAk02hhPScCqRhVuWhq9lvqUqO4kg4ufCvWMiqXiwpkohJWYHWriCdQ8RXcx6lnGpFpEFWwJrVQXMTxdozphAKwrnktzxbfx9W56JxFL15zYPFtJHEOXBanfSymIUJh4puRGhLjWdlctAEj0jSKswAtuThirFm6w9lXW0VuIvp8Dqw2xy44B8CQDXxFNPAlxoIpSyv2ObFPHpgUXhpzC3iNWDDKpf4wtB49EgZYhiiMQbPf5IkgdSgVusZsDGwH1mP3UkP3MMOLT6+HMvsv9YYEJMY5wjbUggc5Wo831r2ckbRWljEYV5z3FJcfNm6Nq8JKNidbNcDNfKvKa9ucegLsOHcuSDGlG5u99+s3pnLbWXsm5mEKAreAEKscZypY1s0W8cUeiYsmZm3TG+MEPCOuZjtN78kWtQhCkJHnLzhM1UImMbiEBItMDt96s5CplpWiisIFGLlxBVbAXkFIJq2IdLAQQY4BFVJ0bG4Rf40oDrfhZdPDRBmKZB29sj8Vuu7tx3xvUPHD3Lrwu8YS4Dpb7jXY4mw0RtQRFuZ1I/ZOm1enOG/NVXlOCXwoc9+Q3qlYLXkTrxMEMgMwqorCulXmHSuxlhwz104c9VpTlMPNgWsgt065HHyuJrdKaClPUoG5BTOthVHWwHgZOBIJGp9ypB7JC8JmqSgMiMvD3yy+hhbu+0vadWc+nCQWcuU6JwAZcx1s026fTmHgfKoCI3KNDgLAKfaKRKL3UPjsdP5d/Ps0awypEtnyPeMHr2fK3er5c/Z6ypZDCkjXGSuFQhqE+xEj4Ia1EyGu8ldbIPELJObZcwWMzkH6RKzX1bGpGXgkDrkr3ti/VzeV+7dl1wgiYKA3BKQ/lRtnAVQnZKzKW11KtmMhIZ6SrIUx+M39YlwIQalY8c9I1N5b660XbznSu+4iB+oFZ4juUZRX5ChnLAqdFpT4p6Dvlpu4gFDwma7cURR+ofLthGPUhgAERSqk6qBFKbo+3ToDiQFYRuY+lWIQ49IHIJtVqGwxjRT9RdkJ0cIvBGIfcP0iHkNRiglqU3ZhjXLbxSP9NkvRv0fn0O0Rq+xt9gbgPkQmc5RIlWTSti2FLHUcKVk0MWbZYiCUQ9IJh3wO4bf1AiL7K0Gvoe3Mu6NFY5RuEu+bs7HgqeamVOAI910TSLsQiNVyjReS7Hoxnw/jCcbxN8JAmLFVG9th0dkAfc5iGEGxVpSB9+NiXVCVF3lRzsoAzwh6WkhZC1Y4KSgqxmQy59NIbMsTg+KS+nlrnhN5hQSvFQTctucB2i0jOMwo7GCIIRFnQMdkkTjKJ6ahLQPArSocsp712oaz3TsyaQ2LPqn46umaVkw+0qNenM+BpsIZ5CfELbx44MKVvKZAiOgQIfV3E+WigDjglikNH1hSEZ+yGzloPerTo6uiZxLxdQJsEGsxQZjD6urXzrrK2MWbSEg5SH8Bi4caYIQMOMraPDJArwmh8uYczmVOyUSAQ5F6I5NGDnACDEDoPH7AqDxbFfvBVKIKFVCprAshxOfEU89UgAkTceCc9X5SBQnpB7iOyzSuu2fxbetU0Le1FVNCPvFvEWfr8ooIdjFNCsNZ0bS7ihm2pbrcsJhiBhRdJBspbcvkRm5Wb17YLii+kCF1EspA6MDNh+kCefYbUIAjJJJJlygSCBxcCziZGMyDlYYi3+JpFXnT7dM2rKMlGXp2lM8FC4BmrHUSwUai/MAuXTrRNqMGwZAidbOjXgR3Hxn33zmrYQ82hp3ssyMlyOwwmoby46Y1tnvAZXmSDITPftmwgbahBGHfPHI9xApiCiIZwWAQgDJRtlwUteBxbvOAdEza4KFqhY0byQwWizhusKgj18AqpjXtB2yzsXujUAV9cw5NttWDyUKn6cn6QrDxrsTl8RlbsCi4S3xICSxLGnIiT04JlfEEdOMOTh+lz+TIrTai7l3bDfrlA/E0bhWLEbC/TU6Nl80xcrrHWYceglNszmNQeBR7LMF5RaKMnKsk5EwqETHnrP3VFg1BL0NNihBd8dYc5ZjDfnzSzSho51vEVzKeGIOut2aDh5hcck5riEfs7Z+jpnLTE7//dqOpe7f28KMoiLsRxuDo2XJxtC09zhUagDRPqriVFakrDTbAbFoNFZAlwPAzoU0SCfLYYuKy5D7evdsEhXhbfVT3NJhxSEaqGUoB7L6RhGMDLoS8WnGYBFLYuXSk6sYjD5Km4K8EHX0wA7H2F2OarrusrW1nQq6mQCYVsZaHPJ8B+5YvUxDAWvsILopxSCxKNXCcTBNg6axbFBKIoF4G1harZ7fO9PG9Nwl72zlI+vo6bb+pxLacRiVmCFxklCE11lUyoYrJnKgTCzkA0lbjpWXLEUrsU2ra7d1kaB/ac6uNGyEdI5c/Ic5wmQ0h+KGwB581SCopGxEHJcBJqMlRFkAA3kHeC4gIJmBNCXOeA7B5rRs3BZ2pPwEqJEa52By4AZpTbG6JASDkPIcoPytBG6SLMTIltVYbRtRDXN2AkR4fOGCrpnsZOQ+gSpCNxeEcKUauTp1wBs0ynrgaaXaRAKhtYGii6kLWbCPlYAI26/sCWRY2slMXsC8cuQ11auMGTmEBP2avrfEo5DjORik5Zpz1gbRYAopjKOeW2v3uwxHOeOdirwp5Ic016p9a9P4MqrMEuAWu9DZCP20sD6idRPBmFYACS5KXYvT5jMALQF0EVl5VwQpQAJzJaXccg/r2pK8csbU7t6BQgnW8rEFDgWCVVaZMntpKCZLlxEuLVwSHu95qWEvHzrXmtLxTAgUVWKvodfXf7z5uMB2y47hG8FAHsyQi1XClxzrFJUF6ynEAME73gOY1pDtxCOyooX2dRqqMkMdhOxXT7r6IYFMJugJIJAAkqDqvqtw4kEJD6spWs4llPmm4uWziY4GAnmPC0SVuSqiZfRmtBRmZ8xRObyxf1fj51P22oh1HD4DklqHGBiVYAvK6YhQbImAU1LbGzfhT1cCzLumszJGSaY4Rn4XIUdS4sk8BzT+JYu7cuY1+cNqecE5dCmaJ6bixjTHIMKmMkdmngqy6iE8B2zQoYeJJPBmIcVhnc+0WaJQkTc246SuV4VQW2mwqBMF6PiMixiUVFf0JyCdZkj67yYVijnjHKGrBEwBzs6WATrR6CnKkCD5qZHCWz7htS1c0Bb29vY1+9uF9qHf3Lr5mowL8s7EpB3l8HZ8KHhpSX2MDyOEUEru++ogWiyOkGWQDuCKlbXuu2WjVH524C40a2rfx8hWr1xgCToHeh7SST28x/y5oz6YAoqkLEOumquEmXlYc3ovGVycjoFMFp2orOO6SrG+7NogCIqWc1tE6XnPWRSFiwCDEBZfyniGCPfbxswumYYO/qf2FJaUC43cGwgTTUMnDeu7lN9S9jRjch37/0b21ByI49ehiYY551C0ARaKtq6soQyk049paaykAd2mkTYVgIRNMjaquPAnddIfcd7zozP02p+P22FS99IVXFzsgN0CP4V6TaEFR26ixmJ6RV2CGj40rnSygT40SwICQhybV92hvyYW0StA5P24aVpIYwjyL90Cuc4AuuHps0RZeazwwS1wCDZ26SKb+Mq2L10osnJqjAMr6S+6e9apb9N0nDqdfnDrFgtTgXgxdFoF6BURKmAAwyNtwKWEQTFpOz6hSGOIvmSDct/ezFyRQFlt/Ru/ZYSR96b27uNNPe/41uN91DCzae7RpSAIxu8ForMXkXKZAcEpWUGotxUnMeoXUXmi8NjtKBK3YCQPRbS6eMFVuIVLI7NMYKVGi2cAZZeRBoWAssAMkAhcMWUkhD9BxI15l7xpTqNfUBb3+xgqaOdcPyTh6twlNYSecAxdTdQWbM2xPv63AYyyEbNhuIVlmnNJXiiRNtdpzYSC2udulglkn/dx37zCKLvrgvlCobnx8ruoAS52rplCxCkUijDHKHAnyBFD6OJFMh6eACbuo4IwZ87zDrCkH03gBYBzNJGxzcaGAmNH04tUF2SKpnBAlVLUt67JXWywgGG1k7R5ZyqCwfNd1YZhiBAgMAU8DhGDl95seweOq3zVlE7rqjH2pc+dOPiSyrVMCcgKu0QG4Zk6YJJxsA2UOlddGDTTEoVGXKCGNSqbTtEHHG/99383o4o/sS+2d/K55dt4CmjZ3oQKklEcCpghliTOTNVP96S2wbKJ8PdzadjQVmvYScTMAwlVBKWwOCqxAOXEbqTcJLARrVkpxo+bZCZDtn6UYxLJunOfRCuohTUVajmwgTBcFBF5ofJAQhbO10s++5JYZ4cZ453aj6K7PHUKjBvbyZZnEPiTJpBvtyKq0NoGjeDNCgnOxCpmutIocNIPfajBQcKK/+KGtvY0uOmln+sr7dg0f4RV3z1TvFYDSV6b0LDLDZrtZCcnFxZBOS3wOn7ESQbz2zNqg2kpCDpQBCjNRqWybPok2BUK52U9iLA7eLMSeaw5tGgGkDGJOxGgqaUbtRtVPaEOzU9fB2wC6e8+zL9N9M+aGwj5x5CC6+z+PpOO2G0F2sAMDL8LWCUSbVqB+1CFVWBYKJzM0fyFRbJQBvAgh8w3D4LXqxA370L2fP5Tet/cW4dqtWLWGzrv2McWXxAClh/gS3MBYyTPS8lF1ofVoLWlF2hLMOuiH/A02HWMGpDDihgd2S9WdoBjdgTKMCxIYBmXi3CEkvEiyBQAmFqCyiidq1nAkeRzQawpII9WVRnKDNj0lwDlIrfPXr3gw6/Kt36sb/fSM/eg3H9lrLVsKAicMlXLkjKQhlZvVhghDyXvmbO8xMxmW0bVKsC9MDOt74ssLEDrnoC3pzi8fTVuWXWmZ41e3PEEvLlimNHKQWQP7TkAVmgefdY5epz4kwpCingv0LNm9TRN1iE+zZegA4NAU5wgnrc8uRlfIYTyz3aCdrB4kRy6O2z0MSz0R0wmzE20YUkrkQpnrsblzlf+3BAjBGlhl9IeHZtNND8+qjPEO3XEcPfaNd9FH99qEuK3N5FjzVsejtbg0E07KSnaVHabIHAizcjP9qFcOUHcBHkP9n3uMH0L3fvFw+syxO1LXLp2ya7VwyQo6+7f3A5wlABCtp9QY8AlCIMKzN6OQDyl4ZWklSCVKXBOBwLiQqsu6/2mlH6P70V0wbWQRabYuN5Z0CWh8BcVlufhGQIWP6+oSCqqC/QNSpY6iOMBaqKHwKREKyPNdzznTB358Gy1JKuWiY8B63ekbJ0+hx752FB2+9XAHBtohEzmXWYBHEEAifmQR+d5v4qDrio3iRYQTKB/dca7xQ9ajKz+2D137ucNo0ujB1Mrx+cvuopcWLffU26bk14+4lrAj2GVgCJV7i8tPi1CMQSVliy5s4GD6LxPkVFQTahOPjQFTMQWpSh0askmvpRZCvIZ38aKNOYRiX468tUlJK+puMzNI9tcb9lGODlAE67yqJvJDLnzs9qWVdIJd4eIfw/v1bDyYmS+/QWf99FZq9Ri3YT/61ScPKCzcoXT85BHUlrRzkoDOPSEPvAGJzyloBt4OrEQUn59VWVbQOYPCjO1G9KPLP7QnPfT1Y2j/7Ue3vDZ/vncmfffGJxsnXK9Hl6TAyoCSbrQyOwuL6ZbZWW+LkIsFjVBhCOuUKVtPKcJ8BIdXRHYGG8ZEbAmtGOuuss7lJu583IVibT+aJZ2b4mEBH8lQOdvJsNGUEwtxs01ZUAsZkWg6DOLeysx6i+KXrTZcn6bOeV3dxEUn7UIn7rMFvdVj1vyF9MNrH6WLbp1Bry9ZWYn2O4rgYHS1zetmlwSFD3A8tIT5pbY2pqMKT+XUfTenXTff6C2vw/Q5r9Lkc/5QeEerGx83tG/3tbG6xA0cUpV1MWFHJYV1sB84lxILsz9+4ove85npK+aiLa05nGSUnGfVL0/j9lCT1wN6tTNENUgIumGFsrNvv2VvjWvKkuOnUzsHo1E9lOXPVkoLTXmwnx0Umts2zvTzRg/svVbQk/ec9tM7aVi/XvSObUa+pQ2+8eA+9KX37ELnFPHrjVNn0aW3TqdfPTC7gzc+uVYBacCId95cu5AOh8QqZsYpICYwTtrogu1HDKATp4yjQ3ccS/2L8ORvOV58dTEd8vW/0JJlq9W1Txi8Xgcohw2DBLFtNANAolRuJkND3lN3P8M+3SRXKZn1hOPP2HscziNrzFoQ1SqcGtt2mOgXwm2fzC6WQKycegJmIFTBiJUGK3ZmCL1rPqHYnc8B/0QVRQ/Ziaprfx43dD3q9GgbrVn9ZuPJvVkI5qHfvo7+/O/voD223Pgtb/Yu7Z1ov21H1b4uWLqSbnvsebrmoVn0uwdn12LW1LVL42u2aG+A8KpqwETofRzbtA4I0e9UXOfBmw+j/QvrvcfE4TR8UB/67xxzX3uDDvzqn2jmS284dT9xeD+6cfp8CE6q62KMT7he8hanwqZGxjY8sVG+az8bz+RuGBsrnATnbrjRzoI0gOHvt357urfbfeymV8BNP7GtgsY1lASUyHWhaZJBM+kEaUqUFrFjcqOBdzCE0KOPo1G2gqDa5N9dOrfT3uMG0zWPz1XWcHUh+O8496/06w/uQYfuNO5v3vxlbHpAEduWX+cV/3581sv00MyX6N6n59ONT8yl6fMW+7W11o6ARVAbIijWMYy56/fuSnuPH0w7jhtCW48eTFuNGkQ9Sl77t+F4Zu4C2v+rV9MzZZOQ7TxsK2L9MYOJr3tCDxZxgtrhgdo9zRhscK4764EdtrRY0P5nn3ZG4a4NfRVbcORtgpBSkHyaUASNKG8PTRxWTDAuFw5c/yhed91W7M9FoG430aB2jpowOW52y6PFqTKKtCmD1JR1lUWPaz1g0nC6thB0lzQoLPtR37mRvjpvIX38sO2yXmIrR/n2zTYeWPt6956b1X634I0V9My812nmvAX01AsLaHohMM+/toSeK75eKFzd0rtQOW3GoEn9uQ1crxsNL+Lhjfr3pLFFKDFug740Zsj6NGpoHxrar/d/+x7QUXosR5x33Vpcwk7CLX7YfezgWqaCgIsbT8fQYFCo1E0TgBgWB91bwVBRCmJQtqKUykZuXjQHOIAQrKBCCVEBuEO7d4W0dDl+RA5CaRdnB3GtWRXn3hvXY20aL6UrwudH2BEMM4wbnuNIb24Scw5Jf8d0yA5j6aO/vMcVn9Rff/ZvH6B7Cyv83VP2oIF9erytQtK3V1faesyQ2hfCfxYsWU6LlqyoVZitLLyM5atW0ZtrhDp1aiu+mHp06UxtbaXn0LWw2N2pc6c2+nsda958k86/6kE669f3O/c2DRVOmDK+5iMKCKvSem8V9wrrabNBakptO2PR0+GXzS5HVuOqo3Ay9S6Y4i41xNyrzsfmO/B6xYmV96jbnYW2SWPRoJpEiogz89o6hFUVUKNeO+dWgaePvAtLssfYm0hBudxCsYkhxKRzxJx3WP9edNz2I+mX9zzrFG994/z+oefp5k/+ii46cRc6ZMexfxdBKi+/rMhbv16J9w90zHjhNTr1wpvo9pkvw2m49fUtQ5dyve6bPtdlbyVJvbrJp66bDrCAJund+maRhAXXc/mzmt1mhVcJOzOk0odCLhmLTsATIEBxxuSHiCSvbyPKzyZ3VRiWqRWwxyDWKFYMKuIFOtioZEA/651J5AKJ6dENADuVekVPBRAQoDjqk4duo3ngKK1+WvvL1xYvpyO/cwO991t/pRdeWUz/isfyVavp21c8QBP/4zd0+9MvqdoFSxJRfvv0gROpVwcOYFP36dADPBVWNGpmmu1Tr8wi8MjTE+AyO1ozIU9VlbZGu/sQzS8fAMxWNm09hZt+Y97TBsEnAEzpWeNpw4gfF5y2IkrIgythvwkjxBQwb8KSW9JtnYoLLwDyEd84A7YWVKpa/3GzjQfQKbuO1b3migiyGSdeft9zNObjl9OXf3U3LVq68l9CwMt98bs7ptPmZ1xGn/z1fbRmjbjmDevhbdSvB52y35YURaPpexGfI6cdKcwOFRYE9oLUFdlElKXgtki3mymgmYBsM4ylNUediNbSO5IXoFDSCsE28vvRmnRF3JgG3ZpAQY+Ntc0Evn/W97KijBvKo9kKIDUJhNDIIM3TBafbZ0gMXZ19IvArVq1uXP8Xjt+ZBpWgkZmqwUZhlR+7uoiZP3/lVBr7sUtrFu71N5b/Uwr46kKgr75nJu109m/omAtuolmvLQmaZHyDz0Un71bjzE9TSFVjsFPl7bxKonCoRdofryva9D61/RCWGLNigpO+JuRooFHj4hyDoOGs+WIxrm5begIRXxjfzIuTa9tDwEDqS6OZ24xiI8PD5sIJNutt63uTia0UpDxwDp3dzlC8C4n2E6RUiv+lte39enejn542xSk/S6ORgkivLV5Rs3DDP/wL+tTPbqdZ8xf9Uwj44mUr6cfXPkKbf/xSOuy86+j+2a/h7A7pZ1T/7Sf23Yz2njRCAXdEqEAlIPFGsbPNL1slYOf+pW2xEfaEYspwmIIk+0zCQhsJXHdEMNG8DlFzXu08k3adUmqCFpofIcizGhjftdrZfLujVmYFXuhF0moXVTf53nJWFX2wLNJWU4EQJEVUdcFMswKpjr6+8PpSdfq9thpBXztqGzrrNw80Hy5zuMHr51+xYjWd+5fH6Ny/Pkb7TBhMJ+y+Ce2/7Ujq3aPr/xnhXvOm0B3T5tDlt0+nS+56hlYVXgss66RglnrHWuw1fjB9/vid1Pvmvb7EeVxrgVH2Kdt0H4H0rGs756gAh30lHhGoUtOwPrsUbBPFTZugxJMRwmwWWjhhm1FiWOjHFnX3phkImCsaaVpSP0hR0l4eGFO4emPkOlMdCQXVTZxH9sU1nXsBw+Ri7MIENbsgaZR5ZI7niytz5s+/+gZ998bpxKDrDgGQ6bVc98R8uv7J+dTe+TZ619Yb0X6FZdt9i41o8Po9/+GEu6S7vvvJF+m6qbPpsnueqZWpikEsGYBXkliedG9tMawPXXrGftS1s25hfTrl5UP17ob+KmK1RbgRBFjFjXnzFcZJeatrRY0MjX3e4kM7W1jWfM9ambLVpWhkty0mard7Lm6NbFaq+CIY9qk1I/goPZfWG/u5VoyYJsIZ0g0WGpWu8IT+5la8JmeC5ZHq4SU38fTLi+mVRUtpwHo6P/7Nk/eglYVFu+i2p2GzD3PMUlR/kKVF/MXdz9Gl9zxXe92OowbQfhM3pG1GD6rlzd/unHyrgv3ocy/TQ0+/RDc9/gJd/diLay13kA+GViqt0zBC/tdPHQzr5O+YMR+376bWyOJtat2THJXFYxj370el1JJ6kEH1m6rSsxxxoSWPe0k4GcQBi09gL7V13aPOGzNmGMl/c2NydQdPJnWQIxHQi2RKXg11UupNCOrUSgIim79M3a0cCxWb8sfbp71Qa+SwLvl3TturNszhm9c+rtF7ZECCst30d3c98wrdXXzV/zxyYC/abewgmjBsfRpbfI0a0pdGDOnTSEf990C0N2nWS4vouXkLaMaLC+ipua/TfcVn31PG2m8KCOFwHFslTPVvO4wcQL87c3+ovMrqv1uefjnuVDQKWNDecjPLdeeYKDwqOB/KczPGEnEZuWWWsN4eu6xNWrdRr6XnpP06KvfGBTPsi/VhSagZoSyU6RqjDB2OEOb6su2rqJfSpEZUh19a3pqEHIKIvg1yothyQEwWEVGW//zVHU85Qa8hncX5vvq+3Wjs0L50+s/vqgkISl0ScN2IMDqc3ktZF/5s8WWvuVu3dhpVuPlleqps7+xTxPk9urRTl85t1K29E3Xr3E5riheW46TKuHrRsrWVcy++vpTmFF+zFyylVxavwAKL1iRxXe26ScXwzPIEx00eSRectmeCsOvjz/fNJHnzTVjDDRHtijZWKyDKMifur62IdCXe7LEqFwmm50irO4WhJ4eUFBsvAsmWVRB23XVTi8S95Iis3moSCRhWPdE12NUKYJDmQD/m2BQCUAJ6DECxUArkkG8IETP3TPDzqf2h7CqbU7jwGw7sDffeye+YSBNHDqTjv3tDTTCJQ05GX24QeFy2jTl9z/IVq+nxeQtrX1kgLNdfbr2dVDg6FghVhqGcLyFu+eIXnQrFc94xk+nU/bfMyu6F1z8OhdwJL6JPTlo3YUuyNDEgmFHjoAOOyccJwqoPw8mGqdCEXkNgTChnVCUBr8FY5mZ6zea5DZWOoA9GHOOo8AFWtJDqmvLVbazzgDnyukyIAi0yyKdHdMVKIBDNVbLg3/vz1Oxm3W7cUHrwa0fTR/eZYK5BEzzCKSaMK6HEuPa+8lOc14QwmdRtDJ0fhTHobAhJhm4ZPhehXcYMpEf+88hKIb/l0dl097OvVEeEptmcwWQJzlCZW1oq52W7Shcy2BEIbQMiFUstBZP/7jp96rCJh4uimmLQqdhmxdANUyA8Gslem6hNBRaCvAsnQfqLAVDByLKxYfkx5PYI9lQ0POD8AkynovwFwEr5439d/0Rt0EDu6FXE6984aXe68ewDaLOhfZS18WXD4hVTonnNCDqT19VgQlqmDIt4iGA7MGpDTj+MOUgNmYtOWxx6dG2n847fga7/3GE1Kq3cUXbefeqye50sMzKsiRlmMLeMKR9WSkBYgQZo2J5gl76TzLirYCS157MCo7HJlGODYSvNFmxdZ9CGBDe1NLmRsEjloAZ4opzVCSyB4KwXoX2FZrR5TARWykFUnjFvOqLFqw9meHP1Gjrjx63xxe26xUZ0/7nvoh+evCsN7N1NxbWWwSX9cNV4xGBtGKeI2HRROSDNUmoj5efondlMtCFA+yUqjv/4vpvS0+cdRx84cFKte67q+Ml1j9K9z60FH/v27KrOhypENStxDEwRmicRdMERZ3gR7by5gGYWlnKjQZZsueSkESp5rn5xYZMyvMYnaFN7SvzgbpcWS2d+ES4LTVURZwTMxs4cILKoai4Yt64bVAiTVtSLXsKCGsG3hHKefbp3brhuf3r0Rbr42kdaEvb2YqO/b+/Naca3j6NvHLMdDenbba0VFwkRTAbXYZUABx4L0qkp/z2aGCQoLAOuqSoOS+d5l25xcZ8f3GM8PfH1o+lr79vNpSGjo+xu+2hhzeuf1atrp0S5GGbfOoe5K3fF9MtqEgoZy52cxxKBOkPjNh5VTMkRVRnqPUkwCLJeDw+IHkIjnGYYbIzuXAD2YYOYCgMRPQJZxwdMYIhnPMMcpBaZfEyIYhQ0Jp1NYt4zvnKI2Frig2ZoIm6TjxnUW13/B39xNz3w1LyW01ilO/+Rg7ehmee/h35++h601Ub91DNI/4EonZQCC7yQdJOkr7M6xc7Us5vQxrLh1MLivz49u9AXD5tEs88/jr79b3vQ6GHrt7wmi5eupGO/dQ2tSGbPbzqkj8NwhHyopUfHRdODGKZMUQmHHuAYcLGY+D3mzmQtQ6j70nrBXO3xioifxGMUTrMfPc0hIwiw4ZJhBou0Z50Jc66lyKklAVHptHqeO3K9UgTV9uqm1XSJ32XPhcIA5ng4X+O+TSfb2GIDloMIlq9cWzRScscd/F9/pds/dyiNHNK35c3dpXMnOma3CbWvh2bOp1/fNoMuvuMpWrBkpUdsJZ/yc5sh5fozFknTb7GZtyiQBNJlH+ova2M6etJGdPyu42mvSRtT187tbzl/v7IIgU447xp69MWFKu7aoojnSxYfoiArRGAgYVQjUi+Y4oBbDzDGWO5Azb8gPvXDIF3KurISAoqMizg4SRmTXX9EX8Ugj57mEl2Bg+gRvZIIewM1R4T+Ji/INgYSMOmCmnW7qIwOpv4wIbanJAKRRZ4GGOGPCQ7RcQOd2zvVeNRKt72++CWB4zu/cjVd9+mDaaOB673lzV4OOCi/ynrvGjHk1Fn02wdm0fOvLQWFIEYwTWchka8liBomRPQGTrMirvSz419lzv6ILcsy3Y1p70nDW3bN0VEW6Zz2/Rvoj4++oAG3QoFsP24w0bXTIJKPWGmI4owLIWzGpN7EhKjusyQln2BK6TWVEQMpv4hRW2w2g3wFpbh9rTnimHFmux1qOA7SaKmLZxP3qC21QUOrCw6ECY58DTchAfLDKFdPARoKYk/rkzJCt40ZVGBZx9M4aOsRdHUh6KmSmPnSYtrnS1fR1WcdQGPegttqrfxek0bUvs49keiJ2a/SbY/PobtnzKMbn5y/tqEGVQxSpqwZ5GJVG3HiASDm4m5FrLzH2EG0y/ihtOOEobR98f1vsdz2KAkpTj7/Ovr1A7OMRyL0zs2HUd9e3byANLw6sB+BkEPPzVBS2arHnPdAIF9O5JljKZUF0hJrvcscz7vN/SvKLHQtifJqp6gIINgQqcWUgAOowZUFhs45C02e7dV2r9k+3QZVLse5fg5AI9ezzr5mRBCCC5XJ2l8cNHlMrfJNETEWLy4nt+z02Svoqo+/g3bYZNh/Wxg2Gd6/9lUnY5jzymJ67LmX6akXF9CTL7xOjxVfD76wgJaXgw/QbDTGCDSykqUVnTCoN00qPm/c0D40foP1aULhPk8o/t2p7e3llXt54VI6pgh3bnv6JceDWCra9+w23uW/cpzolMMRjHfj+g9AAZJE8bPEHpVL8YPe7hQQ9OXBrHGxtJvSUJxZVwXdRztKA6TaJzsxN3X16qR5DFpLwQZLF1jsG4x/ymwXkR15P3O+KMRXIIlra3UpN9BqiDT8wL496P07j6Ef3vaUwgrKHxcsWUFTvvxHOv/4yYWAbvW2sqhuOKB37Ws/8/tyOOFri5fVBOjVIox47Y3lNSW0ePlKWlO4x0tXrqHuXTrVXM3ePTpTJ26j9Xp2qTGt9u/dvVZvXlrQTm3/A5Sv5ijHTR993nW10luXsy+OwX270QHbjaa7p7/o4lhhr6yYPLcfg1FixLBDWc9KQ80IkafEpAgsG2xLmQmPAjLR2CPR8xRSS4Yo1C3HYVPQKUIH0RgawHkN3CZL4Ifme6fWmSjRVNYE1cE+zg9jCDDgkIFTxBNWasuOGT9VvrjjV2ccsjX96PanOwC75J7Kh72G6EM/v5v+/NBs+u6/7f43xe1v5ejTs2vt662AgX/vo6yt//rv76MvXPVwjRbbtpbWH945B0+i7l3bm8hylKoBLqud8IP2jaMBt9aCk/hZMiGBePJGNsCcLWFVeku0F+uARcabWwx+ls4rTO+pDaW6Eh3iUixBRgHmLhvjiE0+kgz1lBvtZBj5HErOBMsWCeWZCdBLBeNqfawaDmt2Gr2Mwz+x76bkKDATjfiXx16kzc/8Df3shmm1ZpJ/1ePBp+bRTmf/ukalpVKgBvyaMLg3nbD35v4JJOigop1jPbBBYHG8wNnmzGBTm7w6rCVAeJIRVEdfxgm3YuppMGNWZMspraID8XPaAVDbZnAlvTklMwQ+BL40Z7sfwcx+BnSkmYlgAwiTn+9df7Co0cLOfONk0irHz0vVs+uqGW4UaSxLcr3/7+jJNGJAL42amm1R9nO//+LbaLdP/4ZuffT5fykBn/3SIjrtgutph89eQY+8uFAttDMaxc784Sl7NAgoHFaSNp4IHmSgEHP3gzi6L0YVYJDcFBsN3AJri5dY98+nRQ0SuKTAHU272fxoNG/+2zyiZ+IHJjxc2larAX85qNPXsVEqSGKmOoDqNlu8ISnYwZRvsEAzrpO1d9fLukVR8+Gt/b5sZZN0oSx+ufRDe9U2qe5TZtfJde9zr9Fe//knOurcq2t583/mo6SB+vwv76Rx/345XXzH07oIS0zo17HeXzh0kgIwS2yBgkyqJkTEnpxyFsG0BFcIxMGsRGeYBA/0YWzp072j5MkIp8LL7IZPrlmATKBq6HaPIPqYGk2IwIFO8n7GoJ2aOZ5QRKn8uUEliQHRXjjORhwSATnDgOegUPi0MpC951K/njmvLVFLUXap/eB9O9MpP7kDnkeDhkJXTJ1DVxZfe44fTJ84aKtaKq2N+Z9CwJ+Y/Qp9/y+P0A9ue4reLAUVtRzXSUKSx3PEpI3ok0dsp841t77OKHsQtDJnh22C4hQ7iCQCdFUqOan5z6X0oLjYNBqoMbF9CjlgOM2rh3l0Rb4gwGVGs44ICIkwpK11o3ajzZxrh7VAeAI6qMmTIG2mUw+JMjL5Z5eaSzai9QzKFz4w+1V3C+Vs9DmvvlEDmojgyCyXfrxh+ny6cfo1NG7wevT+KePp8J3H0vD/YdDuf+IoySz+ct9M+ukt0+maaXPBJF5f7ZIK+c6jBtLFH97HpfCmv/i6Sq+6xp/M2GHJVJpZolCxiiMYTeZAv0Y4EE+OYZi1YsjpIEFPOuVSiHXkH4QbjngC8pmZsbqErCP58lJJFoKN1rFaGLbuAiHUNFAca+0UCa0jkYn2kZSHiwArShIfWcqpNN1XVqvNe+0NGtKvl1r/zxyzI61avYa+8ufHMA5BZlZ5xzpMn7+oRv9cfr1j0yH0rp3G1kYSl2m0f9Rj8dIVdMfjL9BV9z1DP7vnuRqjbdQzEHmI5Wt2GNmfrjj7QOrZrYv7jNtnvKRGJqUSkY52TlNbzlJSPlVMIJOkjJWT2OZeTEc22UGgzUEiZr+DCjwJCsgYfD6adCxWmJVFZwvzg8IRM8FFzYIW3OwOmVSU1WXIQpJ6AI5NKq21h4PtyVnRNJKKaoFhZRyBun3RLlX5882PPk/HTNnEbc4vvHsX6terG33yV/e7ziatPBhGFdc8Pq/2Vf5j0vD16bBtRtCum25AE0cNqs0k+986VhVueOmW3zt9Lv3podn052kv1lJklnMPhcMwhi5+2H+LYfTLj+8HhbysB7jr2Zc9V2CStXG8gNYtz7nWnE/NCvDA0ueGeggQ/XRa9BJ5rJ5iHJNo2D2v5grW93vizrbDmIbzvdoEcnJ49hX+m+R8kNw4DpAVcMoFxFdEEXmGT2jCmewmZ2k3yuV3PgUFvTw+dui2NHJwHzr+B7fULJ32MnwMbwlN67+f+vzr9FDxRVc8VPv7Vhv2pd3GD6GtRw6isRusTxsPWo8G9X376aCXrFhFz85dSM/MW0DTijDl9kK4b3r6ZVpVgpAcDOgEWRSHPyWC8LF9NqGvvHfXWusuOspJLyLeUkeMZ67xI3CDGbGyCuXbcU2cLkh5gOS8nRtnfyl26AggqSSABRAwzpoSjo2gJ7sKttiZumI3UMFoFddwHvG2mU0S4WUQJ2CdAqzX/lL04FzNuu53jQYKuPpncxllQ8szcxfQqKG4QKWcBnr/hv3ohO9eTw+WwiqaARTdXxST1Zf1odkLCuFfUPz4ZOMNZWvoVhv0pY369aRh6/eszTovueB7du1Mvbt3rr23V+EJ1Fd62crVtW6xkmNuafH1yuJlNPf1JfTKouVFSPIGPT53UW2EkgVV7Z7gCHEmDxw1nmvxQ8mQe9GJO9ORu4yPFXvxvu9eN81rbMDnxgTy1hwDZKr7rC5UwaReZVjIK33YWZZYTAGZuyicsP0GYdk4gflrAdjE5c12PvZCQSV1Kq9g42XJWEfKu0IoKPeLGp8vyqvn3hNeB8QGIm3kr7n++tN2H0ffOXXP7OeWQvWtP9xP51w5dW1dPPh8NxWEArrgYNRu5FgprAXSYKNdJJm25BCq8eckk5Epfj5kqw3p/PdPoWH989jDX4q4/+BvXYsCVkfh7HLxmbbj7H5Gwgx4TSFQDEIBJHucA9la6dqMXBrw91W/PI3b7Gb2Awb9p6TVc5wm9ckX86TBPSp8cwh78rkwWiDSLCzkubPcH8z4WsQ9RpZvzhUtmLy/CWt+cOsMmjbrleym7dLeic46ajI98KXDacrYQSqXDIdLsgUHNUCEePigdTPW0JITCmjQ1xkYkFQ2kzsNI1WjBFSzEjEN6dOdfnH67vTbsw6sFPJSMZ59+T1+Tag56jgkR+LMrAC7Fva+BRgRO5PNCbm4yj4dS4uSgXplHJycqrFgU3zlB6Iykjuzj1XBDHOQfe+wAloOGZNBuGoybqQRQtdKAD1P0Fdr0yr2Btk8TEbwpZqtKFn6H9T6LpZjreMcH774lpZKWzcfMZCu//zhdMXH9qFxg3u7+V4xT594kEjMeyXgSBPBdQOCs6QRUNUcaskqPnQbjpNx1MXPZb36V4/alp741nH0rt0mtIQPXPDHh2ja3IW+OpMCDCXa8GjMsbMS1CTSBPPK0/c7JWPkQUQ/q4bh4gQQJg4nhLgRy0HDFq7qxvuvDaQj/QZgPG3WWseUqwhVBznSRxEgNci9CKbsgrHHYt7gSxvN6iRjngV4I6kgRw0GdTT29qdfpm9fcX/LQNcB24+mB79+DP3slN1o82F9tLsOQSKTakx4zFL5wyUPmnwQpvtE/GgsoXA+WLop7TnqR4kJfO6QLempbx5Lnzhs23BIgz2mPjOf/uP3D2rgSfz4asdnSL4fghmTnKTGoFkVzYp+y7VRs6+mhCV59VbuTJYnykrYcns2bpPr5wGTR+1zrsXoXY670DVocQDj25jBpzXiGE4EoxyoFRYOJzC+KfrsHL1ShAZLMNfNVk/BeNTGcW1M15y5H+2x5cZvCd0u33vD1OfovD89Qn+d9qIj8HDTXSviOou5hCQKJohl1mOrbEbDFihF4OqYgb3pE+/cgo6ZMqFWGvxWjlcWLaOdPv27xrAL+NwlAxAkD5cxJASZhiv3c27gRaqIwBrBuBumb0Vb/ipwMFyf5v2vLGL0hqAja6ha5gLQAwkKJIRlzMZpgx2m/DgdauFGVT89VRDqV2XdKDN4JhC2Ek2+9TMHFy76gL8ppVU2f/z2jun0o1tm0FMvLcbrIrrUEab+EOBJ2JpHVWUwjRkojF49OtNJO46mo3cdR9uPG/Y39d6X8+YP+cof6ZayQIZaA3lD0FhiaiU0mMbunxwWq4BNETxRNTIyUU4/EGwOEkkimY2anHtVXdBL1D0SZg5iamgSQOycGzVjUWA0jzxCN5jjBUKvqazQoopBdeBSctH4kD7d6KbPHPI300g1XNiZ8+n6qbPoqgdn013PvuI+3I4PCh8iUGYqrZTL1WbudXi/HnTENiNony03ol0234i6d/nbaaXKTsDjv3kN/fHRObEHB3jSQpcsZ/GNG8hYVjwxJ+W9B5FMWgJX9uB0D2cyW7mZgEAWmoLeYdGr4PrsoD0iOB44527CkV9VbmFuXjtw63MCHYYFRC0TW2jNrp9TnyI+vf7/HUhbjhpEb8cx//UldOfjL9B9T8+nW6fPp3tnvZoQMoD9IkARZDazj/894Dqif0/aa5OhNHnMYNphwrAatdTb0YKzaOlKetc3/kzXPzkvTvdRpmHEhhUoxSbeGLkyazAwUXIeUcY1SMMg584HzL5uqKFSIF67V82kK39YdRmw6JTJJyMllPGevGUmvQiUcQ7CNEVVbBrGW0lOOIgxHAMsY+UdPSAGo2y7FhbuNx/ck9653Sh6u4+ygeTxWS/T0y8uoJnzFtK0Oa/Toy+8TjNffYPWrJEwLMnmejuuvUyDbTGsL2224fo0blgfGj2kL206fECtAOftPmbNX0iHfeMv9NgLC7ASRkoKcf5RJg9eqSh8/QBl8B4OnIlQoVC1IuZchWmQCcnWYLCx6DUwDgXVrcTEFNdwSOCuMxpPnNMiGRCpEqAA7jwFC54tVqHY5YceodmE5xy8JZ115PY1eui/x7GggzfupQVLaGmhEBYvW1XbgKXlrF9XOQetc6dO1K1Lp1r1XP/1utf479bv1f3vwhdXHtc+8Cwd+/2baNGSlVkcIeeJIYUbGQjkgUKC0MBzjHAKpjxVFLUC8kV7TmLhplwkELnuOZCpKiZ2cujobTFqH1bVteCOE8VDBiDILq1tnLCMKeciUQbc6/hh8sj+9MPT9qBNhg+gf/WjVDjnXHoHXXDTdKi8KYcVcUUWgYLUCBBqK1jaTeYwQ5PDQSTDqJyt/DTZlVzYjppAYcaqw3Vvs5tW0KQ2NqOXgsWt5x8lG+4KnIKS5gxdxRfr3Lkt3Klfl9gprykLRzL3Sltt8bfEqgTaPwwJCjOS39lRSOUb7nnuVdrqU7+nb/7hPlqRMNP8qx3XPfQcTTrzcvpeKeSCnrO4Ck0rYGhSl5r6mOb/k/lyzrwbH9zxt5GRATvCOmrTNkU6nm0WFH2ZFKrk5qSL+F4M9TrRSiKtdUf5yQh5lsi9byGOiTS4tIp0xsOt4Pspr9w9Yi151BZpdg4UtqOP7rjmkQN60deO2Z4O3XEc/ZMQylQeJQf9/7v0TvrrtLlUteRR7UIIjBHASnLAcbRvqDrjkEXf602iKL3bKuBdBRS3khpNNEYTjEtQ91xM6tBQyuerETARNWMIUAwIJUtnUEkASLgd0WoqLSpMidrpqoAgoPLt5tlx5AD6zJHb0t5bjfinFfjpc16l8/84lX54+1N6bjlQuFVTZRxijnKH3JpQUQuh3FspNKIKW9GS4AdFSTnMSYBlYRijH/t9QahUFeqdzU2DNAXlBL+FuDwHAlal8bIxHxnFZLIC+rUBp55UPNUAY6iftiyBPfPALenwncc3mE//rx9lKvC8P02l3z/0fBijcoClwHg4TrBAj61lL6/KWlco9qpnnSvkQh5MBBQjZK+Vug4g6OjkBg1MNQ6RH2SIALcg3YHa++zctkjTV6ZJInSfYsFzQwYJ5+59kULgPchbcBk73tu/Vzc6eZfRdPQu49+2/Pvf85j72ht0xV1P0Y9vmUFT57yet0JV4FUAUrWSXqMIDK4ATKuKpVA5OAUhL+VCw1baUCvWAgo68KZheq2q9zXuR/crGCLxlb3o1HqNb5RjDTjtqEp4K1ylqhiJKhSDTc9E2czy+8QN+tK7dx5De225ca2c9h+VHfaFVxbRTY88T3+499naJNR0vLRUZSsyWEvsReJMC1SuEUeBZCSyqnqyhcMi38jLSy11deELGAlFmd6Q5DN8rXtVvTRVCBVlgBLy2i8CVHJ56gg7cG5b0mBAuTgJVSRxYBWCReVcSEDVliVrBTqOsqT2qG1G0G6bDaOtRw+m4YP6/K8J9oIly+nhmS/RndPn0pUPzKIHZr1WmQMnony4Q6ZIBT0fIuX6Rk5VNk9eFaNXKWzBoVtlaJvJhUsOGAYeRBabInK9Gr4EttWHEtAkU4AwR4vPlC9mYDMSmHx1YMh+wlRROuxiInO9ucL/KLwBwF5Vdx8F7iZKt6bvH7ReN9prwhDafvSgWtXa6KF9a7xxXbu0v20CXX7cnJcX0bPzFtLMuQvokVmv0C0z5tOjLyzIWhO0ptlaiKqNS3F1XxZ/qYi7Gen5iurKMNOT837J4z+CAOvMxNsQXFCz1vD1aUFHDSfM2XZP6Oa3UpsM47S829RK6Wbr9ek5FCRAeVo4J6yGisIUhGdEKT3K9BSYv48d1JtG9OtJQ/v2oGHF90F9ulOfHl2pc3sb9ehSVsK1Ubeu7TUq6uUr19QYXcvKueWr1tC8BUtpfvE1t/h6ccEyenjuQlqzeo33eAFeYxVwFN1VusJhR2JM5YTr2oMxyAh3eguPuSoMqwQEKb8+2VCU8uB05EGVgt7uNjeYMOo0INvxReKnXAJCUBEc7krQ2SIUgHoVKGtYA5BMkWkSWTKe6JJzq4NYL2X5SEfdpsQFglg8IVKrd7Yw5s23pB5lW2va2loBIGOes1xcy7mCCXIEHmIkW6ossPWWzG7PjxdOPrP+DLga28qmmYKOPrGTWygpkIoIFtgrTOKgOxSQoDLHYUX6Vgtml0dbehH1KiLHVhmBVdwcghDms+z9Mjl+LkDZohcPgXuS53/CZLSenx6OtLG4QkLrY1lg8NBJ7QPacUBcMZvOcvClIYyh1fM0qHAj+4JGMTpdWzn2N5sulrk31ATkFKV65qKuG4/btu/n2GmDBC9xP7mbWMrshMgBrglLjNMNqgKPdfUkYJcRNytdnPKPtlREv+4bsvRQizbKxDVuo4recIhPLVca2nD3VMxj6KsMHZB1DVIy/cjqNrwHMWxRiULjdJHNJm+S9gk5ei8G1jDaaLast1HOKT4bYDW7ICXBflhgMMxPeV9mlLVlI45ahTlRWAzvnbG3YgYDwpibM3G2+AlOlhePzJhvNxvQslUiTJmr/PPm/UQgnthnl5BpqrJxwuXdYhYhmu4NWNMU32G6bs7IpYIueSWprFvdMkKlTwHJICUkegK4qxOFSPa8IlgrSgWjbDA3S9HNMUNJteGEkBF+o4E9Y58ot3zSRv1oyrhB1Klzmx6CB9yxSKu762e81k0uM/AhKcFkIvkChssJ4Kmrs7s6un7FVMl6MK6VkeLvJU6w5/hBNGHIem4DW+WEokq9L9l72KxpykL6KAGTWMUYH1OXzsYj5ZxXk/LHpcskWll77jdwHmvVmzNZjMIVF9q1IzeraqgAnPnEcPoMDuXY0uSyR8LRlFUA2SpPg/PAnR0y4MY8VQzts+6r7T+vX0OqxLbYoA/96oz9aGwH08wrC5fRR390M/36gVk+hjWyJqFbhp9Nur6OX9MOoUSuKZlxUy7rIeGi1p8TK5TCcMJ3fPAZ79iUPnvsjtSj61qiyLueeJGOPv9amrdwuTIIDjRjHNcjhN0ylbt42t44Y4DON5iZbBPrOWowjRqAhgLWXTKcjGqPU3NgiWe/jeaj58w5iCMU5pD4VIJcsMANTeeaq04v8i4MBCeA9kWTMEKGTRveKipeW8rrXcY03o9wl17dO9OVnzygIeTlMaBPd/rxR/ahcYN66zFRNpZLhVUSS2K6qNSEoCheNzTRNsRCVhfxwVte+BRMslzxkW9+wBYb0Nfet1tDyMtjx02G0e8+uq+yzAo7MvcZCXnKm67Ch1ymJMp9i/f+xNCWW5yBOdI4WGk0Q5EOznfLXCzYs9H7TdzQSiQnbRASZxB/Ws5n8YMCEYKaTr0hI/ycUtimI2pT5EuA5TEbGjLY5thSxdMDS6Mgw2t8C+A0Blgw/qz6Zf/wxF1oo0F+9HHXzu307p1G67gOhD2MRkolra9us7Of556aGyjkAQ2xCxYFXWB1bUS6ZuVnvXd3PH5p+wnD6POHbBkKIJktgZ6hLrjRw97YUl2beWrOU4+0IlEYutm4OHLBxUUFHZzvyeYW8RiVGOpt61WS8VbZWXSzMJVABUAuFcCGyPLtAHeSpktoBJnTaRxJD7lNL7lhDxLgA8kCMQdpHlSVBa2G9gCQe1D+6d2TR2Zniq3fsxvZjAcHAEzkarKHMQJk0D9Q1bOcAJdWwzvDLEH2A3iFLoVaejldY173fz9iO5o8oj+OzSueixgcxbrrQpiXn1tI9ZEBQ4kwjzy5lLP3zOx7hTBK6dbdeH11s6r0QZTpITOpxVlz80CVVgSevRvfwzgf2ExpeKgRuf+he0ieMCKdFsTkUxwiAeBSUSRhkecwtCi+D+3bnb558pTsOW+a9oLbaGJcbDfix2QnhFBcydCDsRNx2GhoZm0V6ydEQ/y04HE4isiWmZX/uqOIx6OjpLX68Qf3oi5dOhniCIQ1gAINwfE91HfWK02tJgXYhVViHGQTGBgCe62IvCKYZSLGisPsgHgvJj1fGwSvgnyIm00mepKF1VbphmSTIocjmak5Gw2GeCAeFzQlg1PlIzh+54zmDjerRvzFouwd//7Z6XvQ+r26hRv65odn0++nPu8xG0MZLJKpHYjqVpCZZ59OwzUEFTPjYZozWQ8JLiZ5Bt+47nF6+sXXw7UZu0E/+s7xOzQ2UtVjYeTlBPfnvT1phI8MwhFX5CXhFCW1Luhz0vDCjo3mTEYhXUIVnqSYGawN0O9v82Y5uhPjqqDqBcbaDcWT4mJkbWFEBCNnLt/KOq9MBOFmCXKBGi9AyBprIRDtFLGZeHfW/pvTlC2Ghxv5tcXL6b0X3hS6b2r2V8dGFwQHm2t144GSGWFO7kGogzYpkxmxJIQFivw4KFWrkOSVV65aQyddcAOtWhNTaZ24zxZ00MQN3FCENHRgzqSFgzJGawwbQmcHhFoBCgBqV7wUwBppWIjKd1UFKAIMGWNHaB9HSr9NKwB/w47zSjJzn5ICEzV8j2OtpzSb0q6G/IGRiyPOfVXWCORbCaS7wcBYRBmWnMObuvKfZVvpp961Q9Zl//jFN9PcBcs01qD4ypIsBLMPuBhcn5kyGmYZOS7EsMlySVM+adjCwHU1Au7ObdIt5SCKb/zuvjhUKk7y/VP3oH6FVyTIXRZQGJkplMRpsuoadwYQfY7eKZr+667NPjtQq54ZXuvxJ3BeY49MwQww+S5j4/LcnAwRwJMXGqSOiCmTPSgGjRZ0LVnFtxKhxELhdFYb48HMCJMvnbUbvFMbXfKBvbKTSn5965N06b3PuXhWjRc27bUpQMnA+Qq4K1XoI4EX47IYyTOlZOBiFAoitFAi5cHac/rslQ/TfTPmhms1eP1edPHJu2LvkTG7UBomsgn5JMMey5l8vEp4CxZalKLUIKRgIFHM/hKtxFCFoFfgQfqNgUUP0+iCXfQ0LkYkiSQml4kEOEOhzDmBRa5Z6sIzmJ7KGURYPHAgSKsw8BSSWP3cI7ehLUYODDfu8y8tolMuuQM8bFFYAqWsOgBTUzl1Caq97CZFQA9ojNF/bxKEhMNrWAeQLq1qlBSRLst97wU30hvLVoZrduDk0fRvu411mgbxCaSpXpR2pMDVV2W1kafDJkwz4Gmqi3w9A/uMDurTZfOVidQs8IhnTOp3tFHkpkfCKIaPlslNrSRTHcYG4GDwWZDowwoVx266EhZqCizbJGzG92GQwiL0frOB9hw/mD500Nbhhn2zeN8pF95YawdNN5cGktjRCNt520xBQUREvOYADbN3WU2N9t5NC+N8GwCR4LnqutxYn2fmy4vpUz+/I+s+f/W9u9YYc123XwKgpYoPWXZCeEKgIF09uoBcFdonli4aAckZEA/lxSCxSwokEg6F0TNpSwUcpk8cMusbjxnIEAduilV2QjHgpiwbopZyYJDt7GCjmRnH3PXKpNSVte4865RT/fflvO8fnr5XdrLJ9/74UG2mWDTI3jeFCdT8to4IAWTqvpQXwgpTEZNOEluTSYI9LKP3JJphL75v29UjFF/fv3k6/fWBZ8K1692jC/38g3vCxicfb4vzVpArr2aem8yEe/QoS4OwAcTTThjAszPsnfLmimxK4nGxvZagFbiNzPO1deposAGzTx6w7QkONrN7DSp9NS2qDrxLkMg6gJdu2KphEzoFW2f9MDfNicZL43/jV//gfTvTcFD9Vj8ee+4V+sSv7/PAZW6Wl4VgTazDGTZTSZQWNBRpw4lxFzXAx3o9GfiNDNBiE1oE2S4VAr3voltqo6OiY/L4YfSZgyYafIQBPyBD4NIqR502A8g+Bwg8UGIpLisC4m8T4kmUIciwh1qBtgpbIg3DFHevNWtvqWLDEKyAswvFRui8hWZcBGMYFtJOqzRyqINHDNFoduBJPT5MUWU4TJF08QgD5P/Y7UfQu3abEG7Q5StX0/suuJ7efFNUKOOtgngwNKGcjqrnYOdgUoiU7YITUK+N0GxUaGO710xs6QBBQVWTzVLPVxevoA9ddHPWhf+PI3egbUf0873twHVMsxlMFdwTHJeRsAlT3GcaTAD1xAp4flSREmTyBV/ps0GFUWJaYW19SxsMOxqxdabCiDQIIgD7Qb4H47pNZwXcKqAWVvaxo4A4ybn8Js0mYmryge8jpmGjrH771kn56rcvXn4XPTxnQeCv61LGqrxvSlSRlnkyY9DOs6MKqMQSnzhnzN0nqatr+s4lQHvFgpcdC6wIFjtO8Iepz9PPbngsXMuSCuuSD+5F7e2dwj3GtiINEHtGuXb36CUWQFsvjwyLw04sth3lzCNQ3KKQQeoYtsK6PLqgeFogxpNuNph2SF5sS0fVBheA86HKDRCvc84NMkVkArpOUB6aop54A9pdctrutemj0XHro8/TuddM88AM2jgZBg8m7EYy6x5nCzr6El3WhBeGxUY1dgg5thEX+4sXpAh4Ett4Ug8fTEbl9J/fRc/OWxCu6fgN+9P5x25PjJYq8dLEWJ1oeimTT2+p15vtbTMJyhvL9YhIHjdNU2Uw0cRBfi2TteK08MxZdMPEYnPVZFIYzOyK96M8N9KqHKUTGIMuzHHTh0v4W7omtosmLpbyuXKBiMkZ+25Ke265cbjYC95YTidceJP35CSy6BRWJSLgLQRKxYCSUbLdoE5iySdU3K7biHUTRcDCyjjBIaZk2oJQK1euoRO/ewOtXvNmuLYn7zex1urqasBB3YHNRaMuOwaYgQudQc29GGRN8agKhQ0ZEoBm6QtR1g0i/5bXIQBJfR4dkPulT4nh5MggArJCI75fW0wzAuSkQ5vcpFYIpFegAiMA+aMW2LR7zpT9lqOTPn/cTlmX/eM/voXmvL5U1RGgKkFbNOOsOEh1WeCHBChnatYWGBjPS1uOP8zG5cgC2bJoQ99lyRkAnqe0wB0zX6JvXXF/uLblEIsLTtmD+vTs6sAoJlCWmtCXQZyDQDqL/PX6bKUoheWyYAHpCcJNmnzx0FZl3SU4y8RUSvo8uht+ADSmKT1VueoMc6VtZhEDH1cyK1smDnNzSnaDWkTUAOPaqjMX0taJ6Sen70ndMtVvv71tOv387mcbi2wpg5RCFbzp0/VB9QI2bwwHSZjKOPUc2RSzoNw7g5DHbT52lXW4TFqHhbYzS52r+N+nfv8QPfT0vHCNh/XvRT86eWcX2kStGtYYCaoJN23MFgvy5CbsUHbr7RBR5cZOcSMR281oBD/FIIz7mYZyCMxvs56y7pDBXOKUlmxSHKcRyBKF3UhkGEIZCIApWkHTOlwjhnngmOTQdt2JSwuVP3/1yG1oq9GDw4c255XF9G+X3IEVhwGoyIYTglF0ARtHUSVlairEYC8MeL9904ypekR52UZcKpAc0VpCpUwyFYtpWvQ9F9xASzoKjNBRjps+aZfRuFGEfPu06rDLpSeDfKAADIsDKi53QgD2SWaPIE9UueQmwR+yTNs2VYdTodiugrIWkttJ3GUUpXuY2bnsqOglnEeekFcq11lgHQymbwIWYMrYQfSRg7fJXT6ddmGxOZet9KwlmPeo0vVW6DaDikKJGxwEKIr6c4UKN2ISAkCfc50kALYgoSFMxihXuHz9jPmL6TO/uD27Zb5+4hQa0b+nq5dIU3koq0BRZkjikNEJNoEWaJe9Ik8RlmY/zB5FAgqZ0K3cGb4GttdAaT+6FaYgkQ+bBsiPNPI14eLQR0tbnC2KyaSQXAiZFPWgZhznG9nziEYvu3drp4s/sHe2+u37f5pK1zw+L1YgRH5ch2FAcYrdEDo6bj02vfGA8jkNw1I/2wsvZeeWW28O57JFp7os9kF+c6YBsV277944na578Nlwzdfr0YUuOX2PgImUDachygqZtUJFPhEElex3EZ93F4nKXA05Z9oUJlh27LpA9h3xAKJnmAEtoGmfNkq/SAeZHRvgx1pNSTcZB1Rk7G9I5ebD2lHyFULRRBMAojiLJLhL7cITdqaNB8fVb9NmvUIfv/web4WRUrPsDxLFbBTQDemMAXO+Us5TFaNSQfapPzN5hoMNpLCapMzWIvVufLbLI4lOx3b8+cSLbqWXFy4N137nTTek/3fAFuoc4ZgniUvLJaBrjqYLoV55iA+JLasWZ3AsfbZ3dQMWUoDF2AcFa90disjAxZUUFGA9JCAzA6qKgs7eExN2mTRZoi2gF+VSwXDB8H6xfTimLfCobTam43bfJNxoK1atqVW/rVktDu0UUN/vXSKBnWUcpRmTGuVW5oZxpSfEyq2PNrXY6Som4NSTQVghvtZrxh2GDAGl+YuW0RkX35K9x7OPmkxbb7Q+QRICAsJFeJ8iMItYu9tp849OJ4o2dILqQdhNnIE19I49h3E2yrIEA9DV1bqrnmuAaNv0myfoZz8tJQBarIZKFQyacCRmvI3yIoyPKAEoiDAPMbG7dWzKiaXffn+++u0rv7mHppbVbwYMaEyhAe6XRW9T5DyMHzMSDNFsAnzwFOSJWaPxocpoyJHvYBKA09h6KrXe0B0Gnkzxv1/dP4suvenx8MrKLEhZNdepnVWJraR7JPCy9FoLrtFoKG1RWQLoOYmPj1GWQTcTeTzBjl+CY+G4mZZzY7+Me91m02lW0lH6DLKpcjwKzGVgTQudVSgOC2SNuIdpMPECH3hwjsNOLW7Hiy45dXca2KdHuMHumDaHvnz1I05wU3JAiSaDRGCaGNCNKfYlbShCMXprQ3GRqO5BwkmIrDa1xKCgfW45KwrSXC4NVHw/7Wd30LPz46q5TYYPoG8fOzkpumJfUARmq2vgsWIMLHNMKg96MaK2ZuXCm3BKMvRpSlYTA5t7i86jN0gJcf7cIoHeaoovxBc0ddRbAS/k4q2vmLQeknNruSWfxktBrNRjqF//x/bZhPaeNCLcWAuXrKD3fv8mmAFADxfSdXGKd+hNErOMsi5zrbvV0ZMGI4JhCWk6ZBN5QMGYJ0mple39GWvkePIEWFUGgxCLvy5fsYbe/70baU2mau6Ud25J+246RGWBIOcdAVIKMDnYCjSDuFiVW9sagqiJKS0DtiXPTpBIN3UlTWB2z7r1RJxxkgTlEuRd0fwyVspA3KgZhVAydiG1DmAI1jmy1RR0MeknOGnUpbsEAk/l38YPWa+y+u3MS26j2a8uwS25ZiMziK9c+SZw8zw67ksvc4SAKIayxUU27ebqEgzIw4Dr3IFBRmGL6POpklLxfe8uDOhQ8LfOeInOu+qB8JmUVXMXnrZXbUKOJB01EpVpmyL2aP2cIXcskwgMCwmKwoxPGr4wAlAZ5+ylynO0MTq5ec86HqCMt+ymtYA3Q7J8NIyPtYtiifJdx1fUXBHkMi1JhfLOihX56Qf2pB7d4kEDV9z5FP3kjqdx4wkiRRCtmNSGYbygkPYXupPeI4tcYgk9D4bAnXNBGYCFMLOw9n9OqYCBG5RQXAsKEcw2Ovt3D9LDz7wUPpsNB/Succ1hE0xwFDKDngzE7Gq9MliWLdrKounIDWvPsbeQKkc0aosRiMUxsONLYCWTqnG5iBzrJjvkWOAoWsE5Z+LKajGE2HsmE/FFHUQhl9p/Hr41bT1mSLiRXnz1DXr/j2/D+XJQeKGRctFdf4bl1Q2IkKDvwNJfiWH/sZVYQqGiTTWUAEsTbmyclfVdYJTJDADeOjcdzHgQZW//CRfcQEtXxFVzh+80jk7YaRQY5Y0vKGI45wCRhyO6VdutxGnkNB1plLC6dzsY0rQQi0jcrw20eZsTAs5YG1Cuoy9Y4s+z3UGQ3lKihrHQFbID512MnnTYCXpgiUu365iB9LFDtw03UMn9Vla/LVy6kloFxZXybMRl7C0u+7oVQh1YZPKu6Yz5qL49AsaAu48okdra29zrIio1lTpj33kFS0Q5cF1BdVj547S5C+nzv7wrG1p948QptGG/Hgmy7YXYufAUsCRJnOFAhUpk58qnc8yT4FoMkNreuRNFA168smHt0ruS6oAcUpMaGApi6+IluUU95E27wyWpn1g6pgwqX9/AbmgiqNLDFEfec2gS5WHXoH7t5SL/6PS9qL1TW7h5fnTNI/SXx150QZVnrRKtCJnCbIFE0zZNtkOQJ9Lxpn7BVJhocErqxqc4C+ouK//etxbzekmt6H71RSSwJsCkvez4J4R7Ff/75rWP0w1TZ4XPqm+vrvTjU3ZPHCdNdiFBqCTgOth0Y2GCFHFAXHMtOChl1Up1dP+eYa29twI6bLDraMOxNpSGgVTA5Kse0KDj1E1av3tnUsUTBgGFTCgAFZUo1ZSLy+3eCkby1o9Tdx1Do4b2Dc8/fc5r9JFL7/btpAnTrZAFJxPee+AKopbFVGkKoEKyZeblt8E9u0DXFCkKR9xh6idsd1xtllzvbh50kwyxZ67KC+EZQTrUpZKMB3DiD26mVxctC5/Z7hOH0y5jBirJ5Sh8qPRdNdaTCj+DOFYkSNOR7jdI9faAsvXWTh0m3+mpRnmrv7Hj1Nfda5y3BpFysRvTrsq4Ies1rbnoajGbshRrxSjDbilgoEEmCWlZbn1vOtG4YbGQr1r9Jp3wnevozTXiepYVm2rF4EMdwwoFxCcW1YLc7ekzGD2otx5wyb5YJqsgg+EQ9V9MKJ9jRIhO1dNSIEsKedfe01LhEKf+p7kLltLHKqrmJm7UD/Pnm4ahyEsJi3vsQ4jG44g3kAzKzcvfjRnc2wOWMD/sO3M4vRegpdpyewFR5DLIxzqG147XTBzeP6EPArPSrbZOAQ0KKoOEIP1xmoaxRAlOwAH49/wrb4Sb5Su/uZsemP26jznEorc4LCCjoMhSR2fqAmyzTcp+U7//SR2jhgl4S3YzOMDNWnNQRbrNqEEBNxQ7AkSUIrQXp5Slaeypw8y2YUoCwPfye5+jy295Inx2T81bqDez40AwRTSmYCiaHqzXUEBWKI5vxKD+5b+3KAxN3x5dYc0BIXASzcAizs9Hjzxim58Tk6KxpAq2BHNM4QoP69vdNwxw7PFxsMBi+9QtoYNUuF0ZQKp8ww9ufarWT26P2x59nr74x0c8BXaiPVOL4fL6HI9HcrUGQnnCAvaJ8Mkb96/F6MxBfUKykOKKXTzgh4Rq+7GDqb0OyKEuRQJeEkiFMLDS7FpC2adLTc28trRCp15yJz394mtuucqRT9c9Oc/l6YkskCAejARsOZrm2WtEV3nJWIGjzOk7J27ooxakJFLwNWfoTVVrG1ktn6GPQu4JAonqC1MWMByz/ShKaSbDAv58U5fuUwfNJ5CoIueumustRwPt9YUr6c/3zqQFb6yodUz95LpH6cBvXmusc1JDbc16il+ImQmXPmTvPWL/OeNv19fh0O1GwBBLEBoWFEClxIQILezVvQsdudVGjfDAEm42OedM2rVDGGCvvZ0US+SqCH1HoZhmmrUPr0y17fPlq+mqu5+u8fWVHPE/v2EaveNrf9YsvoY1wk0mBd6JykAByD5F2W3FpZoYAx5Q+oj332ZkbUW0Bye+JNi81+4n3YvevMf2dJURjViOEaZxz6wr0ppKX+ioncfSf5VsqLbbSvzsdjZgDxpyoIaMdrRGIjcJNeNoPjiP7j9TuO+Hfvs6zP+VUPZYVhZXRWYu1hWOEC791LKpBxRY6ysdWv2oncfTVfc85cA29ZlCMN+h6t5TUFEs6Cr0ninj6fL7Z4XsOWv3gS/5FJBhEVNQ459xM8emUXg0l3vte154fSkdcf71ZoOk1wZCxuRzBLGYMGFACWFMtqSV9LPShB36JaMH9qYdNhlGv7/7KZNDZ7/n4bOzWQkhy1bYFklxSr1kWU3Ip+9cOWrdSm0zdgjtOnagH/UEfBgxaKVuxROIpEfWTGCdsmVYMQGqtRhkhkmkYKJghaUtJuu8rAT8ZqBYRCiDhnb8fPQ2G3f0yXNIeuiqGlO+PanwGBITsPfWo2izoX083ZJFmS0/gOCsoMtJqwo4VqXCgrodbUhpQgM35ttwhaecfLCWAFWjBVWMYim0DNccp1kf9vvlrAMn1rxfNn0QylsyoTIawqncAdYVoG0UIKQCEFgBEy3t9Eg2gFp5nHPEdj4fHlXDgAEAFmiI6oRzm1V1NInOdSoGByZY7cYtApYonE4fOqLgYusiIrOYKuCOzz3zsG3UJ9vJKy5NyvE92N5m7UAIleQ6Xzx6OzzGmAg09+vr50j5OtRadA0++YGBqEgnYl21CXpbqyABGYVVAI6L0Ia1aP1NrIyez+iBvei4PTaNMpQ+TSogzWciECZvHNuSUArwnEvYrG/rtdXMNmMVd99yOB1WxngUFO2DtJcD5Vh7GmpvUTz4NZ0Yija2Ky4Qn79li5qTq15VoJONy3PttWKyDrm8dPqn06eMo4kjB2klKOTq0D19lhdC63I6coqOPx40eQztt9mwMLWW1nzbyjYJ3F4XEpshgAwamizzEUo5BgNIw5FToYIWHzpwkA5VnAnWixKs2L79np2oS3snih+TuKGnHOBQgrSVm70mFbO6EmvKtlBAsHYv2Vfqx7dP3q3WVWRphFONh+ZB2yYKxKojOWshuEEhSnuk7bBpbt4OMBBXK8/Y9TPttc5nBlierROwgMsGfbur7jq7CdIwyqL8Ea88dBmBojn//VNqE2RhIwjgfguzCEaZ5l7GICVjuSzV/gh6JFSNAaKDFdAJxkGYEE1PRfUUgSdy0s6jab9tRzX+vWDpCvA8OGZTDkqa0f5us6knlSdMy2BBFZMmyff96EuSxoNh/XvTz0/d3edZE3QwdMODJoTMmDasuEwtvQBkDFEtiRkXa+uD2EikBFTXBFBeO1SFMqFTvWzysg/vTX2TstelK1eH/HKcKf6A+W9QYpnSLo8Y3Id+espuQJBE02gDT0xncximVcV6VeznsiuhNLUYrs6eyLGuCoq5xBiyKHRzboQfBZ6SSjhj1WHUNhnSh75x4m7qY5asWI2NARGcFecyOSDEU4IuKYhGzWoupB1wasYvfnm88KouQjlw+9H0xcMmOaZLzoR8vopMwhy5Bcd8EwtjWhtEHCA+Jcz2yRLpSSBKiMVTGUeFVKiRg/w8ufLf33vvjrTjJhuoW3++XGf2Hg0KpZgyM8IIsfsSzXlZ1xccssNY+tLhk9wbYabDpdZFDbawXW9slBSuNDRxNuE6BfHpeXiSEKwM07LsCo/ITDoVUKRf9wT69OxCV5z5Turdo6s6/4x5i/zzR4w/rJVK+kc1PTpRWm1phGpTNKjhImwBZW/lHpvjixjOPHJ7On33ce5BWIHSBBZsaIwyJbpMWU0IidWCHLVyq0EJI6ptT4vFU8QehSR2BJQFG22N+6cPnEjvf8dEt6YPz34NAnAuLowaUoQUvqAUefF92vOvus8866jJ9JG9Ngm7wRAdtE3Nifg1dpWRSaWcHczIaZgUFKs7CnEKKhiRy2OUs1hgiPS4bjueRvWnd7yne9fOdO1ZB9CoIbrkelnhlT0ydyGofWDlDdjr1vUchr4syRK1WcvhkGKIKEqo/dJ1umnGS7X+YRUrFO/5r5N3p1OnjHWTLHThBj6vQyMTjYf6jhnEqBZYgbTQuHbExeeO+y1BiEU8KsoUo+qK2MA0wvzH/lvQZwHrzZLlK+nuWa96oIYJDk4UwhNJ2GQ30uu88fG50Pp//aTdapRbqirQhh7BxkRgGB4twL5WwrL8chDsG2vvinQMQGiNlfMSDFCLvEiVhzcZkb49utANZ+9Pk8b4aT/lCCp5U1wGwuIfiLdMje+Cw9jQAAfKzGg2g9vcuGSjDV97YwVNnTnf3VTZCnr+KXvS2Qds7tkyrYYOXUBgYV17quYQRyWsdYScoxDFcLqpZ2iKb9ymddNtxI/ENSFD081sphO/ccx29IV37wyF7fZpc8pG+YR91tBYMTlGDjaoIgPENiU2uL/wGJ5/aZH77FJpn3viFDr3XdvFoQC4Ryfk7HPEFjh27CwIcnYTTBiStqOBDbbewXk6iXTnxqmxDWM6rmFEv550++cOpW3HDYXvu27qbCB/7MNaCYY/ijfY6f21oSA5JAcQz4KhgDwwXeK3dz4Nb6zcJF949y704/fvSp0KwXcbgHFuMO0JVsi9SZSJTa9ZpdwQJMbYQOJhsBnJmwMBmXOoIcM1dhWwHX8s0e3ff2Tv7CioX93xlHYXkh3bXBf9N1X4xTkuq2ZI8rs7Z4TXcMah29KVZ+xbXG97NN3B0UQ5zMXOEIi8KxHlgks2x4SVNyR+zSaxBadEKWbHSXGbd2w2lO768pE0fsN+cP3KMdE/um2Grq8HhgI2lBEOz+y6taGaBQJCh3KAaMiCtYwX3jqDFi1ZEW6Sd++5Gd33hcNo4rA+vvaC8I0qMCKwpGiqpbMkwaRQgQoBTxe1FXK22EKx73AAIYhVQkQ7jx5ID3z5cDpw8phw7ea++gb98r5ZQaqFg1FQrkLUT+sExQzfvGYarUzSpfbYf7tRNPUrR9Ee4wd5vIRzCo5VkYyyWng0qmMQdntUAho1E7uLYOvnLKcJHThICem9V1jjwoCde3ShBM8+iAb06R6u3R/veZrmL1yuarZSryytnm06YqKVonisAKPuXgkrACAqYVRuJyjiX7xsJV1y/WOUO7YYOZDu/MrRdM7BW7qRyEgAIdsr4xwtBTOubVynNg6Y2IqUjn2B60kRXVnOwCRYi1DSNn2zcNWv//xhNHro+tl1+87VD9XojxHg5ZpDSI9Lcu4q+TLLNMyZu3AZ/fLmx7PXU6be/vrZw+k7796ROpe0SOh5wDX0PNRKYYLpuGTWOTfSK6VIdtWCmfZJSaZ7eBdaXCdfalQnjxhAU798RM3b6ZRhLSqt+Rd+/4A6pULXRQJrzbg+wN6jAIsOR8XYwgAhzI9tKKPSCz7nyodqHUW5o2uxMT59zI507xcPpSnjBpEIJucwmIgrXeMEbQSsS8Zk+7jOsnmgfpCo6srmva2CSC02AW7wd24+jB75ypH04cJV79TWll2vmS8uoP+6/gldy21cE8RiAgFmBik5QGtz1m/up9cWL8teV1kqe+r+W9KTX38XvWeHUXgPEcBMGADADWyE3T3aGgZGfIFmMAnIRhFkGbMcikmdh9oj7OP1Ab270kUn7kw3f/Fw2mR4f6o6fnbDNHrshQVNnWGqCBl0QrnZbZTHymq/Lxez87EXios9xe/qVPFKxsqhIobjJ4+kn3z0HdTKUb7vT4U78x+X30vT5y1SYFdVC6q2VOK7yzL3Bf1ZMbFgrqEHgIcALHb3MWmj9elrx+1Ae2y5ccvrc8AXrqDrnpgXzgS38Cti9wnA//Cey+PkncfQhR/cm1o9Hnx6Hp196V104/T5Jn3BBDA5zykveQ4xW8HoKvYst7gZu50FoClTX29qINrbO9E5B06kDx64Fa1n8uPR8fzLi2izM39Ny+qFMkkhkdqmYqm32Q2bELCW9Zevuuw0Xivox10onpERoMMZQXYFEcWPg3p3o5cWLW+869LT96Cjd5vQ8iYpY8Ir736Kvn71wzT1+dc9ss7JpgYP0F0v6BSEBV6MHzjaM/CB2HOgNtnia8dRA+iTB21F+28/htq45WWh7/7xQTrjsnsb99Cze2d6Y9kqJ0hu9hpozYVhjxGsvj270IIlKxuvv/xDe9ARO4+nt3Lc/eSLdN7VU+l3D80meZMyCspLGaTFyikrq6SD9lHY/gW8D7EPO3ld/15d6cx3bkEn7LUZ9V+ve8vrsapw2ff/4hV084yXGp81dlDv2lx4l9NONq1vWyU8cDO5v1W/PI3bGwtU3xgM2j1dnCuUugCiJKhpOQb17tIh6GuF/30X30YTNuxHE0cNamkxuhTu/FG7Tqh93fzIbPruXx6hKx+eo2+M10afkjeofpAkU9ynjgpKQK28S/8gQTKaoa2Q6GO23ZhO328L2mHCBvRWj1sfe54+8av7lNbv372LEnRn1aJwg5xxIPGT8qhv184NQS9P/d6LbqUxQ9anLUcPavm6d5gwrPb11Auv0SWFu3rx7TPp1TeWN/u1jTmKsju62YBdj34U6yML70k6WCk7R0yRCPmuowfSyXtuUii8cbUhj2/1OOuSW+nm6S+p1HKvru2O/VhE8wQIE+RPdArLcH7XLHqXwqIjzW9b9OqbCLrR9gEVPxy4xQb0p0dfUPI0tE93uv3zh9HwQevR33LMfXUx/eHup+nim5+kR+Ys1OFEC9YJvq7CRSNKy4QTggHx2pbQBi03+sgBdOKUcXTw5LFZBDZ3PPbcyzTlS1fRoqWr1EPcc/xguvHJ+aEXJgHGwLm0UvKrsmOtRnOdnHBo3+500zkHVwKGobe2eg3d/PBs+sVt0+m3Dz5Pq4t/C/CsWgmLnK9uvRk0djvxPCNPzq7jiAG96KRdx9IRO42lsRv0o//P3nXAV1Vk728g9BZqIAihhiJNkN5FuggKKsLaG7j2rn/dta0FXREL1tVVQHBFelFEkd5BOgkQQgsdQi8J3P/MzStTzsx7obguZn6/y3u8vHLvnTlnTvnOd851/HPMYjw7eqmxI9/UOAHfBrMolOvhsDhteXb/Xn8jm+7KxGs3wWKiO/mXhdbqWgdvTl1tzE3l0oXx8/M9cVnpIjifkbz9AH7hi2XistQsbjCiashz+DGyrc0sLZo8x832NFdF1iC58+RC99rl0L1hAtrXS0DlssXO+1o7/GOCn4bxNNvtoatr4T0RmGP0pEcTz2CO8Mwz3ergjSmrjXsqePunPNsd1c5R2IPjxKkMzFuX5oNGRi9JxZYDxyykJjAZbg3GWy9MsS2z+xCum6NILRTU7VirLLpfUREd6idY8+DZGe9zt+uxbxYZa6l88YLo0ygB7/60ztpmONK523gRTgdNd3MLY+ZN0X1bRlf6M8mUr1epFPLny+13wpRPImXvUbR7aRymPNMdiedx88RnxTGgewO/u+mi5J1YumkP5qzfiRkb9+D06TPkDiaXo+p0zOSuz+w7SnCHL1QgBh0S49CiRjk04ibtldXL+lxrF2Is37gbnd+cjIPCfPbUGU8oWQiVyxShI1rMvZjlHcVjplAFtX/zGvHA5NVhly1wDzbvO4oOL0/EhCe7oH6VMud8fQL/3aFBgn+8cXtrbN1zGL+l7MFCPp9zuA+7cOt+nM08K1nWXphZGOoaFf94hFTohU6U9VO6SH60q14GzRPL8vmL8+v9Czl68GVniC4/r4ycn9Vmm1hPnWvHm4Lr6LNAsgk5aKtj9Dy1M1oMjXvL2pM76z/5YnLj+noVMHJxqhE0EFq7+YtjMebhjmhbt+J538hihfKh4xWV/CMrP+khZedBbNqVjo1pB5G88xDWpaUjdf8xbDt0wl84ts6X+qIInrPYpSvGFkSVUoVQKz4WifHFUb1cLN+tY/0ccu7sRNSiHBMWbMBNQ39FZkamRkCZ9bQ33wU83eVy5ZyhB6rC/pzH6KBUHL/mNollMGvDHvVz/MnOQ8fR8uUJ+GZAO1zbrNoFuWbh1okj+H0i17xt32Fs3nWIzyWfwz1HsOPgUW7dnECKmM/0E77pL7vZFF12LF8jlUoURHl+PfHi4LtoYvnifoGJsLhKFCmAizEE8ej9n/yCkYtStU0ifKpd+TzOWZumzqHmCtsaq5DtsjR3Mgaa2UPmkJnaU5wRQmAEMLL0P/q2SvQFHVowTDw/wn3Njm9MwRt9GuHhnldeUEGJyc1COz41Dhw5iYP8SD920j/Po8dP++cuarsL5o3xg2aFAwQLxQsXQHGu7cVC+b2GIO149dsFeGPyKqXjpxL85KNPy+pYmLSTRO0ZfqqmmEnCRUlRhzcAD7e1ScTsDXvUzwV2ylP8nvV5bzoeWbcDL97cwtmJ9tzmMhcqx8X6x1WWFOSZs2dxkltwQikEGzDm5udYsEAeP1hb6AKfU9TW2KbduP3Dn7F252GTjjnwf3FunfgGNXvtDiWLFKk5JUWzrpBhSmsiRg44MhCBJpgVbTo7qT/nUr46hDMQpIL8AiqWKIQt+4/RfsZZD09/txQTlm7FpwPan5cpn51RgguuOP6IQyyOez6egRU70tXydk04G1UswU3Mcr6gU2adpwWTqTytM1kvfZ/oUCp8S7/BJAEXFA+DuX85ecV2fMF396bnkFE4nyEARoXy5wpZd//tcZpbjIPHLcHfxi0PVXDqqeDgfDx6dS3ffTGw5lKthgdHstzijslAolyUX8B0u0IzNSgOQJ0TO8sX9pAnJhee79nALC7xVIrSuSl7Ue+50XhvwlK+Q5zBn3EIE+/VUfPR9G/jsGJ7uipzBLrruV4NzcwP1G4jarEQ04lCNXsPCueZDN8V8YYXrq1vsEXorbGSuVnd+pWJePar2c6+aJfyEBWFrZ/7Ds9/v0wpPZVpyoLP8+XNjYHd6htzG8b7e0SrrvAblZZWWhpMzpblUmx6mIQW4VJPSzdUW6ELC6O7+7evjdoyVXDgi5nGfSz85sdHLkbdJ0ZirKNa6lIbwtwcMWMtaj32DV6asELBNxv1/oEJbVe9NHroPjEDSZOkEyvomAO546gSl/HCLpgY93ap77OWUo025aYw4rNv/7Aa1R4d6YN7Tp7O/FPMY9L2/bjxzclo/49JWLb9IN2+WpOx13o3QpnYQoZCV4KOsg3uqSW4niTtqpvGwo1BoHHGUWcl10cDdP6OJCPkz88GTi5PTG58cncbe4pHA3iIaO6NH/yCNv83GlMXp3D/y7skF0ZG5hmMmZuEJk9/izs+m+WnzgB75DQ0F9xn/fDe9vR7dboqLT1DVeEpPPlyrYYWtS+QLwaf3dPWaCOsYsDDJqmwUASC73KuwD6ZsgJHtL7yl8pYkbIH9334E+o+PRrjVmwjO6Lq5adiNE4oiQHdGoS+5/ipTLN8Vt4YYQYYlYUhyZ5eeJfLtrJ06mMyFmAQRKjRHhmt1axWefy9ZwPSDZS5rWQTdcHmfbj2nWlowHf44b+sCQVZ/tfH4eOn8PHk31DjkRG46cMZWLXjENliBxY37IP+TZEoATZOy2ATRhexGHnpUDknTVslf/bMmfD/WtepgBeuqa+akp6OV1EDSVsPHMcDw+cj4cHheOmbediy+9AlYIV5mL48FT1enYDGz4/Bl3M3+Wa6RyDzZAUYNNbyc6X59YNXI49U2Xb05GkNC8L022xPjcmWdOD+y/MYo0ocjDwsRdLnWX5AH7u1irVn+jTBMu6LT1y1Q/sIM81MCZ23fudh3PH5bL5YFuCullVxY8tENK0Z/z+1MERUeN7aHRg5OwlfLdjs4/gpnrtIHOu3t6iKe7rU1+7zCdW809GAzFKowcxZ8JgZ80k7oJJ8PntDU/y2ZR8mrNghbVdm/3Q9OyNKll+dtNI/OtYsi1vb1kC3K6ug6B8geBbtWMOvW5BwfDYrGbvST9oxFoGJlNuHybvY6Ac6oFq8CjRK3XdMjXFSn4UlHS5hWDyCVzFG8a+Z2gImlDKjCkmoch8NdCFy1/IQaZJ/P9wZ3bgWXJi6T6myohhP5aCEeO8xbiG89/N6vM+PKtxX7N+8KjrUq4jGNcopmvGPMkTaSRRz/LRiK0YsSPH7g4X8Lgv4gZrI4GOHmnH44N6rjN9Zn5ZOg+z1AA0FF/ZAAmvk392Qlq7OY0wufPVIZ3R9eTyfx/1KPzDZuDN6x0k+hEAyiiPPF3PQs255dLsiAe3qVUCF0kX/UHOYceYMlibvws8rt+H7Janc+ko33SJGIRCZVE/OlAzWJ7e1ROdGlZV3Czd3uX+fPbUXHhFFNystw2hANQ0r6ZZgmSoFLdStA48AU9jj+0DVMoWxfshfjD+L2vSu/5iIleKmaQtOb0BAVWHp7xN5yD5XVESb2vFoWDUONSuU8JXK755S4bv02q37sGTjbvy6ZgfGrdyB06czSXyRLY1pZFEC77ua74DfPdUNhfPn1SwFDyXv/heOncyMiNeXf1fvPx5qaqilaMSpdapdDpOe72lcr+g62+P1CViQso+szab6pJMlx5IhUq98LK6+PB6Nq8WhIT8qa2ypF3sI93BV6l4s43M4P3k3Jq1O82MNJGUUVc5swegHQUZDuZDf08Vk8l2/bT/qPf0diXOnqiStzTEI2c0IYd0Dgk45djqxpdPvIwQx+Z2+5GSJRdJ70GTM2riHLraAWiaodxdV65DVD+fNmxvtq5VB46qlUY3/drX4LLBFmdiCF2xBiOKazXsO+wQQSWkHsYS7JL9u3BtifPEsK17GYYNcDKa5LYqDhj/ahQR9LEneieYvjjctA8f36TsFI5qFKhDoXAz7PrmdNLGPHD+FW4ZM84uXqDXnBJgTSlueV3GvRIlsi8qlUZPPYc3yYh6LISGumI+BiLbu23Cj+BwdOHoSuw8eQ8qudGzadQjrth/0CSCWbjuAs2fOkjuqXBYd8oNhqXjVlDXLzTDs3ra4yVKm/eGkZXhUYOCJJW0QZDDH7xIlrOF6dFnQbQLsIFNQNJmmhd7p1wQP9mhIXtzJjEw8+MkM/HveJmNxMmapwNKDgYwQFtAaTgRAKhcvhMtiC6B8iYIoywW/YN48KMIFyEfCBbDp4u0CMScmU2DoBVoujZvdAu657eAJbN5/FBkCQmspfKfqoq2RNdi1tPivoFN+7dY2PtKPGs8Pm+MXDsHSYiiixo9AAhH8jmED2qJv21rW9OCzX8/Gu9PWGYy8FGOpa25BwDtlwZfflidPLiTEFkICn8tCfG4L5I1B/jwxyMdfL8CVffqxDP+d6cczfNDKrsMnsD39OHYdOmGUlpOFTNpNkMFGZIUnaKUlMPTfP9wRzWvbQURNn/o2KyUHSzm6Zym3JdafvoaM6jW6al/9MoKajZTE4EvVShfBmnf7+ayvtvHZ1BV4cORCnJGEhzH77kT6tlolWsSb5PA+SDfFwbpCyZahCOFwTyTTKfi3gvny4PM7W/q1+C4zs9IDw/mCPuW2tFwCZLsfmqnYrHJJzH7tBudOOW7+Btz9+ews9BzUfvKkWU9UD9raiNsovUiFb3Elqbp80t3xrNoG1mJ5ZiomcSHd65TH0PvaI75kYevpLUraiVYvjSf3DdfGa6M007FuwnRXkHEyCyhjxC3wiHuhNbhi2n3YuOcIJi7Y6Fwg93St73OltapSWuXN8rSUkaOFk0G2DrX6h2ieaiLD5EAg0/IjzN7YwaVkw4UjIHuc6RzlPk0UN9VXv3mDU8jFECCbg0LIPUvJtebnkQtbr2/UyteC/12Quh8zVmx1nk+v5tWx+u0b0efKiqrgQqVv9uRrl8hKXA1lldSjFI22oQaZ/n6d1lkCgZkMtEzlopNpchHuEMOY2do0+DX5fEXdCmOf7eEUcjHeGr/MjMvA/E6PkEGq67DnmTt/LvnqPaLJoNISBp59sXsgO2yK9/3ffxYrnVWpIfLC01++DoP7NUX+vLkVVWbrnCGjsZj+d6kxA0mY51lIF5jJUmzrQBppE1FYSAGDrFxJo/CjOPeB/3VXa4x9pgcqRCDmEOCTF8YuUxWa3AQBNBGj55GFhgqVdigIGjzBwHbwzDcLIoKXyhYvjJGPd8M397dHxZKFDCVtKDxGpIc8ekErikC2AmCaM0ozDGNxE34Fg4WtBVpfPJX8lAIn3dQowVfUt11dJ2LceubKrRj32zYz60W4XcocAQb/PaMoi1XADNNAFDC6e8g3xuYnBBu7BV8vF2BSSd59GB9OWh4xSCIKE/56zRVIebc/Hu5YM1xz7Ll3T/oPDDbgEGBnBiUb++kc2oQweZoAU4pB/lF5AeSOyYUXrqmHDdzFubXD5REXhxiism3/kVP+bxQpmJe8NqVXmEe4XLIl4VnIWPgLJbgCEq8v23YAH02OPI9i9GlVA2ve6Ye3brzSd0N0xcpsGQGNN1uGZisBKA2UY3S+MSxxSXFB7TSkbBIaP78ndcBRizw8IwXaokopzH3xWgx/vKtfthxpiH5r9385J/T/GnFF7Txonua3E76HJ3cLlskXgoJuNF8Ime6e24wiuP7l5umlC+cLvf7smGVYuXlPVIukdGxBvH1nO6wedAPubV0duXLbpd2TupLoFrwHS9cZz9SIzGXJSqkj5poIo/mixj2vdS7JHZMbj3asjeR/9sXf+rWIuupK7ALv/LQ2dOKlhKB7lvZFug3ILPEFxedjSrPLWCna/wS3zlZu3hvVeQoutUd6XYmUIf3wep9GKFEkn/K9MGIVRLyEmT6n0nJKtlg8yybAaCvGgJlq50ApHiab94H3CSqvSY93xq+v9EGTGtEDuV4YPhfJuw6FvrOYKIumwBRMxUDIrcZU94RpLmb4qpUGDp7nadqchXt3UYECz73DVi1dJHSuomCl77vTcPDoyahvhDDnPxzYAalD+vuVU4WN9JLZHtOjBJog6Ve0P7O38WIwW+2Q5idz5JA1AStVtABe790Q2z7oj0F3tEHFbIBEtu87gps//FnR6lVLFSL5AygXzLA6GN3mTnYHagUKkrJSUx76DpkWkd9dHoId9YnejbHlg1u4a9IKl8cXVVwuJq81wg/1tJ7ljLr/us9JMKmQDT+UJphEA0ioxSSh6c/F8JdmVbDgpV748e/X+QAYlg06hW9nrgvQf4Wt6ep8Rzdak2mWh940k3bszfuYS715zDATDA3vqU3qyMxRQOXUuay4stA37D2K/u9Mjeiv66NcycL4280tsOOjW/HdA1fh2nrlw72utUijqe7h7ONm9D8nij08XQKIe202C1MFXKTvbroyARMe64RUvuCf6N2EC3z28vrpXEn2fmsq9h4+pWj4BgmlyUVNrQmnDyQVJclWSYOEksr7RID1pren+p1cszPEDn8r91uXv90Pi165Dk92udwn86C8xPA8SchJm+uhszAHy2eZ3R2jgnwqKpRwAfkbWlUrjc+5strJ1+IXD3VCo+pls53Hn7VqK279fLay9qqUKoxSAX4Ej9ggGFPdCWboLEYt+dCTGMK1NdM0TO1AE5GZM/Ch2hVLomihPFmspYHx0/rduGXwDxj2aBe/O0t2hvD1erVI9I+dB47ihyWbMWX5VkxcsyMrNacpGn1Wqc4tnv6RYJyCRAaqDSE8zR7UqYzy5YtBL66Uul6RgC5c42eH91sfx05m4GauJJdvU3vOVytTBPElChrRaoP/m2ADIu1kDZYs3iV48NikVSEXSVzjzA17cBvf2Yc90jlAmpC90aBqnH+82L8FFqxLw/QVWzFm6RYk7T6seTrMxEkwMzOpBLE0dleP4P1XKc3DuHSjOWFMLlxzeTkfotu+XkVUKXd+SD2RSuvxzk9ZoBzptzrXiVcmiiT1DOLYFSZikPyA+gYfY8sjG4IRKoJnZPMGmds9KDR5uG8toKlfzNmkTIiIMv6FL9qvHu58zrRD5UoUxh2d6vqH2FkEi+hsLvBzN+zGnJR9IU44mvDeRNp5hO9mNmpg9jwsy/K523GN37JGWbSuVR7NasVnW5nRO3kYRcg07XpD40rKxOr92GV3w5MYTKhFZPg2gYeSRfPj6ppxWUy7kgcgOPav5+c16rGu58zqkpffszZ1K/iHaA2dsjPdJ/lcuGEXZibtDmHLyU2IiN4b5Cah7TBwDxgj+OTCHxKgqvZ8DlvXFHDqMmjKldyFIvn8WVS7Df7JL09WLG7+pFvDSpi+cpvJvqzIooQTYeZm5cqlx+jbnbEDyLsYY8Zu58EVpeLmaqtEfDF3k7GrjOOLpMsr4/HdE10RV7zQed3AQvnzKsSQJ09n+FVGq7fsR9KOg1ibdhDLtx70GwWa5PyUNaJGnSl8uGBfbVChOGqXFwSRxXzGUNFrSyzcCzlSdx9CzzcnY+2uw4ovGVRS1zev5is4Chbp6S4ZLEAZia+e6jAjHm5vVzNL0LXPT1+3C+1fHIMxT3SLKtIcaYgdUxxBFJ6I6SRv34+NOw9h4650rN3G55Mrg5QDx8nurqqByZSOqLIuK8Otqyp8DmuXj/XnsAqfw+rxJVCV//bFqJP4148rcf+w+SFaKdkiKVk4P9rXr+gLurPEmGUpa0+zMpU0o+5+MGJHV3pd6bsYsYJULqvwLhn2dTy0q1vRTxsIk0w3L+bznbfJc9/jPw93uKAcY/nz5uG+Uzn/UM3f09h76Dj2cYHfd/gE9qQfx+ETp30I57FTmX4p6ZETGSjKNXiQHFLwVQp2UGF2lynGH/lzkRUomO/ikw3+tGwz+g6dwV2f08biEEM0o6xfJc4XdIPgQKNG9iwuWWiXI7AJ8hCMrGVHLgiXZkrnsXrHITT6v+8x/L526Nq4ygW9B8W5EIi1Qa0PMZ9iLgVuXdT4CyESHAhnA6QnAo0pYLGi2k48Cmx8aT6HYj5/r6Kno9zleurLWfhs9gZSI4lb+ESXy7nlFwO9Et1zhFMYCDdFy56Y9eghq4AmhKRQZboGyeKC15xCZAWh/t67IfoN/dW8AP4fgR9v/cokv2Xyk9c19jm0LtYQO784KsX9vhVR2V4cXPm8NHK+T+bPbJA3AUS6vpEUmSZy5l5wXmBUppm95MK7uqe14RWqXgTSXurVEPd9NY/08YUy6jl4Gu5uXR2v3dISsYUvPvFmcD4TLoAlcTHG7NXbcNenM33GJB2rH9z0inHlc1enOqEoj7M0Qo+HWVK9FBo0lxGMgen3KLAqT0OjaUgFRnxX75Y1/ZZERtpJCoa8NP43tPy/77B0wy78mYfordbw6f+EhNyzgNivrXdZqPsq0/O8hN9KNmdQ3stUJBnk3ulZ777l6jqoF1/McADl7/qc71z1n/wPpi5J+dPOoag9ePKLmbjqtclZQi65WzIWTdzFN29s5NOJUyETJesDBaLiVASMmVmgXFTO0UjHSCAa2RxQT8AzJj1IQSTM36F3t/Fzj0qWSkMmCXrjZi+Ow4Ch0/188Z9piCYT/f45BR3+MRmpYnFI6RR9fvLx3XXwnW3ICKvneSR/u5Xxi+A38/TsZOADgtzjs/va+1YaFZYJKu00bqUJCrBuL4/zqav/LENQen36wwokPjICQwK9642ae+m+tUuMw+0d64atohOnQcSEQ2vA0+aTbA0NCQMj/TFXyK7XYZKE1lBRV56baCzgnwRH3cplMLhvE4PNVHEBAse/5mxE9cdG4eWR83yf+lIeQqGJzpq1n/gW3y3dainhVG/sF3e2UppUns48Y0p2MLugz6Oeg9GQhEomJfC6HPRqWL2sD2uF1cQM/++ndTvR5IWxuPv9aVizZe8lLeCjZq5D/cdH4oGv5+Pg0dPGVDCNo69E4Xz48oGrlarOExlnVPitrrw1dKVrXsPuHAv76EpZJiytYxU+32B7BnNHkSV3d7oqpAO7N/A5475ekGKAbfRgkWix88qElXh96hrc3zYRA7vWMzi2/pfHqs178eHUFX5Gwjt7Fjr1ELNkNETgRu8xv0NuSsgkXDjVSZaASCrAMsKR37Ffta4e7NEIK7bsx9fzU5wxnKDPL9731bwUvyrv0R710aZOxWyhyP6wJvrRUxj2yxoMmrrKbw9lw9pDVtgBP2rco51QvpTaZDRl9xEy8KYXv+sZMBkSa3b1kYJxHnWGFHxI22o8sn8yQpzuSTtVrjGhvT4YcBV2pB/Dz+t3K+g6piurwAUIgX//53V4/5d16Fn/MvRvnYgujaqcU0/qP0KQbfLiFPx75no/LRWSCxltx+wNH0Vf9Vf+0tL43vX8PusMr2r1mmc2xQzu+JJZ5TEiesv/WRcgRJCXxtABHbD/yElMFu2UIwCpgucvWGgmr97hZ2Hu4spb9Bav+AfjiIs0BDvNrDXbMXJWEoYvTkVGoJEniHttYDgCru93D3RA81pqFkFkfpalHSRtI4+Kn8HsmS4XKOlNX9T+6CBaClM2mtFbWmXgCI7LShREyge3GjdLpEX6DJqM6QFht3YxJXIL4icK5o/BHS2qoWeTKmhWM/4PLfRCuOet3Y6xi1K4JZPF/opIfGMEN1+vBpdh+KNdDQCOYLopfvcXPhGlLUeuE1so7hLMPuG6J9ae+5LTXryOmMcM9B88lQtwmjs6LHt7Wo5XtCW+ns+jQJ1VLffHzIYIyPbC9Tvw04pt+Gruxiw8hpaxUHIUlq6tIkY1fEBb3NDK5BlYkbIbVz4/VrGmbfwWJGUUdZ8DfyCppCjUm/FhRgsmhT1ZM+hGsp+a4LC+872fMHb5NtPN12k0CIEPvp6XL3yfRbRhgi/0AmyR679oFwo8RNK2/T7768SlqZiyNi0rKElNTBQ95sW4s2VVfMh3UCr3Kyik2706UfLlGMlAQj2nFpK8JYTx1Qy7Pr6V7DYqFMwDgg5s/iYabwGT/JKaYvG0ZlwRXNeoEprXKIcrqpZB2RKF/ytzKJBr6/gcLt+0B9NXbcO4ldtx6tQZZbcErUcJxqOs/+bnm9P3D3ZAp4aVyd8cPG4pnvp2sb0oQbuvpAUFmgVJJYcEItLTGFxaBHur6rd7eK1PIzzZuwl57oIE/+8j5mLQD6tBOieMzvdSAO7g+RUtmBdX8x2oWfU41K9c2iemrFC6yEUBSIggjOjlLWCbK1L3YV7yTvySvBfHA8UeCswWFk43ja5XF3zRafax6xpb9cETX/yKIdPXm16WmxGM5mqkmEYDr4tCDkGkYFuD74xZjGe+X8pNRIIhFXYvEITAB0dCiUK4qmZZ1EsoiWoCMcfnMqFMUT/rcKHGvsPHkbr7MDbyOUzecRALN+7BDH5kSAFIK3W75fz1NSuqOL/jPnmdSqWt51HvsZFYv+tQRK5G2990uZPXXnhH7/fxPv5SSdM5pFeGTurpoim+rHhBJA3p74SGij5rd/5rNo4ezzCjzpYtibxgj6DGFbEBLuT1yhVDrfhi/HwKo1TRfIgrVhCl+CHQb8L0F4qggLSABCmA4PQ+cTITx05l+Ei63T6x4HGkHTiO1WnpWM8XiAxp1M/XystGkUhCVVqli+bHsIHtrW2CxTh07CQSHhzBFUuGvbd9lCa10bpJU6p1y8di6aC+TgNk5qqtuOOTX7Gd3x+XEEAxd1Vn1mYlyuWhggxSQJBFj/Ny/BBwVrG+gm2tiwaIOITJnXVk4iR/FLRbYg538mP7weNI2X8c6cdP0QSZFmJPi7FCW2n86e3cGnvr9tZOANEsbjV0eH2yycAr5a+NTQ5ULYaeUfFfOMB39JJBQU/iLyTqV0Dt0tYKKM1UkQV22H12BtHgSNt/FA999ismcDOJ2NjN3U6jn6U4wvUJ0Cl6DWHwCO5ji69LvsdmVoFQUg421tuaV8Wbt7WKWO323oRleHzUIoKzUJsElzkImgWW+ty4Rzuie+OqznMSrLl/GzEPQ2ckWTcGMs7jOi8LU6s1pmNxXfRdONJUw6I89eVOfaYMV9Sf3tka3ZtUjWhVdHlpbFZw2sLfThNY2l1obe6SuaDXCNqzW6j0iF5iLVPrmFF5ZrRTDrHL/Gexv+u4hiDQG/3MNRg+oJ1/kwCNPYSp9D8qosQsLzSokaSiBo/yFQMfNor+XdQyFoiS53kEeSU0RhNPa2zAUJnvUuMf6YjPH+wYUciFyfni+N9oU1IvxgZNmcU0wkOlFxtBUvHMyIURuQREFduQe9tj+rPd0EDwEVDWnwejA1B40jyTo4/RxCZeIKdEAryg4jM8eV4C+cdQrtkL/80zTDNTh4SWn4ZaCSadH+5QC6veuikqIZ+yeBN+TtotXaOJnFDWMsljR7BEhT/oy3ZQ0DfQzKoayYaFsE4+Mw9mSej2A8fw5veLovKZRI54/eB++Mf1Df16blkglHQBI+w6Xag8B+GADDiQUhGeDDvyYCeU9yzEE7rwWOU9rLaLFsyD9/7SDCv/eTO6RbE4xHh+2Dy/lxnVEUT+HYUsklmIMg3p15Vm1geSdh3GO2MXR3V+betVxII3bsRX97TxuQONkmdZmQQFMDCpVMNI+Ro9WTHrVoGGM1XgwaH3atx9wTbDRu6a2PE0+iYmffd1DSr49Gdv39WWDFzqQ9QH/PXLudpaYfQmAUsDDhZmwzVFwZ/wjXJ6bSD/+9CoUlyULweaY1sxc7hKmfHcNWh5+WVRB0pEk8aPpqzAu9PX+akcF6227RytAUbK/Inkz9paUlkCX7pZrpuSxQvnwxOd6+CuTnX9ziPRjokLN+L6IdPpbIiD2N8Z13C4I2pPNYaZz/dA81rRc6OJ/ugCOTZo8kqfncbGQe8yrW1xEN3tYQ49Bj1GYHE1bc0qDdcGWeu6X5PKeKh7fTSslj22mTvfm4Zh81OsATcykh/MhlBRdkJP8Yf7T38z4KOgj96Yv7rIFSGlFADta9ojFkKzL3y1t08NlZ0hShBHzFiHt6asxLYDx62pBWOFRMgaMGYqJ3LRROMjak6SzGuu++I1yxXD413r4sbWNbNNvLFhxwE0+dvYUEtqCzux9ZpA8QzAkkWxuPpxgXmMz+Y8CqroH5am4KMfV+PHNTtpH96jg4G2CLinhamZVndu9dttTRCMmA+dsowtmA/3tK6Ge7vUPadqSMGm+9CIhc4UmjWmQ+Ef7GnUptxHXxTc0WP4CwJeVUiP/nqUQFCPcKQCpOei+fsPL1x7Tn2zxEIR4BPRevjrhalZDQyNHY0W1KjyJIze1UiQAjURgLWDiIju39WqGm5qWR1XJsafEwRUNKds9+I4bOC7ItWKheqK4rRkPEca07X4+GiUUBw/PN/znMtRt+49jDFzk/H5zCQk7z5CL1hbexLA2lDSFvyj+7uBLt+11PWK772hYUX0b10DVzVIOGeg1qRFWRaZztbrwqQAhAxaPA1piD7MsVzQM1mwDjmm70eTRAcZVzqITicQN9aSigv+SXQGHf1Ud7JpYLRDIM5E55BpK7Zg9LJt2HfkJCnEdDNGzx6Rtmp6SxoDWj23dHNE+ueGxgnoVL8iWtetoKTvsp3vPXQC3V4bj+Vb0+07nhc53Gy7BteC8ywE6s2qlMTEZ3ucd+35uq378QufywnLUjEjeQ+8s57V5dJ7sdm6mtp8WptpT+3s4vuFeyXo0DqLbr11K4ZSeOc6pizahOvem+5fo0elyWybD+W6EMKnkMd4mJw5auA1/toMLtA8N380kD8fSsEhrfBJFjlHa7uxraqWxpinu5G1uNkdYl38tmk35q3bgfmil3XSHuwXtNI2FWnzzYkUWiSfTx5li+VHhxpl0ZwfLWuVdwIksjN2HTiKbq9PUvnTXOkwIkVqhd2ClgBrA1RtMTWpVBLfP9H1gqHYBHXUkg27sHTTHsxZvxMzNuzhltsZK5w3qk6mLBrYaJYciPx8h1rl0LR6HBpVjfPnMFiWe75j9Jwk9Pv4V3/BeoRrS4KZHGlY5riOwPz8NXPkwKGKoMf0HVqGP9npR+K9CJpfSegzBzIO9u6DfNQuWwzjnuqGymUvLEOI+KnUXYf80kjBNbaO+7Wrt6djOReUjMwzUQXSTAUQjtqKllENLyuOuvyo4XPGxaJ2QqmLUqCxOnUvegya6ncBpcxqqhzBkVM1LBxT2G3QY49sjSruiQBFTXiy6wVTbLq7lrLzILbsOYzktIPYsDMdSXxOt+w/hi3pJ3wILhmQZBa7l79RpG8rFCuAKmWKoAafu+rxxVGNr8Eq8bHZpuCOdj0OGr0QL4xZ7nZRIgWDbe4ofd1n+dNyGSMH7lEEXQxuvk/lb+wCwt+0WYamSeGRKQ8K8SZeK1QgD0YMaIdujavi9xgC0CGaDwi+OFF9JVJUAjkVRFEFz6tAvhifaEH4YYJDTqDoROMFkd8ucoFYQSONUbPW447PZvmVTTbUH7NFpV0LxxZVtmUV4IhnBEZMTG58eltz3NKhDn7PIVy4/YdP4lRmJo4F+OJEHYVALIq5yxuTNYd5cmch50pwQba1oL4YQ/ApDPz4F58xlwIMIYJVkp2hzf2PfDfvEnTxVEG/+aNe/NWxZJ1yJNPBi5DKihBgGNgu0S/BLHaePtClMMTieOLLWfhmYao7cuxIiVl3Yjjep1ln0cQudMUiSonfv7tdtjMrl+IYP38D7v1iDg4cPWUv45XMKT34DZipM2v2x3RJr+O7+TiboItoUTL/QGVSOm0mkiuPTLkBlq2oAjcBP727Na6+ovKfdnEI3P/Af8/LijHYAn6aY60EpWy7fLQ2JrO7LjIW3eXaCYtnSL+m6Ne+NnLnYn+6ORREHc99PQcjF29xFhfZmpXqUi4HeSlZIuZiM3+ayAU9kxT0gLAP4P/7yBVwozQJGeRwVLoBZt118C3d68bjtf4tULtiqT/N4liSvBPPjJiPWRv20AAki3CxCHFRa47cqkAI8IgBCrekMLXV26BCCbzRrxk6NEj4U8yhwHu8P3E5Xp28yidMoQSYxPvrVYyEuxsJv6+FwgZys/3j8M9Qgt53KHdAWTJ/muBCx5EVa/oFWHwIEs1DAAMGtE3EIz0aomp87CW7OETA8K2xS/HNotTIpZs6ZXAEE9tQpp65+9viKK44qmdx4WjiC6BT7XJ4uldDtK5T4ZKgkKLiPsN/WYuXJ/6GA0dO2fEaRIyD2tltZcXO4Gv4P1v5HFfnu/lpp6AHgnI38w99EykoR+WjCTi58QcbGsl2c25uUgkPdKmHJjXjL4mFIS531uqteIcvjCmr0+hcf4TgV/T5YCuYwpm6QXYCfVG6Aw0rFMeT19THtc2q+4Qh/+tDcBF8Pm0VBk9fi1Onz8ACkjStJIsydc0dcwTatfvdL3PUwJHqerMJ+s0fiRdm8KNtxCCObWKtPjmdqzaUCPG9TSuVxO3taqBX82oXJQ1ysUca993GLdiIz39NysqJOwKbLrYdCnln9aWUDV1tvWTNwRLxFWvsBXbUGbkzeVkY/3taV8cNraqjQZW4/6k5FDUXU5dswtczkzBVwHgVIBIRSXNhTVxKWJ9gC/RcE/ZZojkSF3QvKkEPCHsN/rCCH/nIQI2OLdaCA7p/ac3lSo6n+6LDN0UAGARa6fqmVdC2bgU/9fVHHaLrq0DwjV6Qgkmrtweq42RfjMBSE44ZiZ5CZPPbhZm2dVwF3EUuLuVvBehYzlX0Xr+Jz2PH+hV8KuncuXL94eZQoBJF15Upy1MxcslWnDqVSVpCDp/ZFGDt/dadPsJ7JQV6ir+tPjfZk8yfcwh6QNgf4n8ZYq3qskFJHaygVKouqsXh2V0AgbLr1agSmtUqh3qVSp9TG98LNY4cP4WVm/di7ro0jF+2BYtS91tdFLJqDBbwEYtsatMJWY9mlo12V3GY7i4OOP0UPSciL+tFUSjS+4oKaFlTcMbFoVbFEv8VwRd96EXjCYHO+2HFNr+LrVyFbCNgUQhSsuPiUBU9EVw04m+PZI4cOITWK5EFXfxlPP+yHjqzJMVC41nIDvUFS7n3tgVvk3VbmaqgGmpeqRRaJZZBg8qlUUUgnsoWR/EiF74XmCgyCfKNreDCPTNpF5aJ/uWeS5vbI9fR4LjJGwO6zFNNzdjho65qLldZKIti5yfPK4riJzGCLYwbJJRCYvlYVC2b1fU0LrbQBZk/wfknEJSbdx/y+eKS0g5iHhfuVdsPZU+hInu0XVS1nkdtopDov20J9qzXBDtoTy7o3jkJekDYRchb1NMlulI5JL3UOfj3OrTWMAcJM5Sq29XTFKIrZ4PyxRAfWwDl+EIRnVFFu+aCeWNQkC+o3Llz+Y+COy4j4yxOZmTyhXDWb8F89GSmXxu/7/BJbOOmeNrBE/iNL4rDxzPs1gos5jHoHdcKlGDZXEiaoqB/11JG68zTWfz3KE18RmQAnBhvKkYQeINA4VUolh+VShb2S5/jSxT0C6TE7l8k8ChgygI1JyC0R7mpffbMWew9ctLn/BOlzgJSvJvPZ8QSUEsFYzSBUOZScEZ2hHaDrVG78EOyCF9xIU+3u/pRCHogCl+Vf+sC/rSUYcJFUaOu3kPLbqA5+Ew7USexdYTv8FzEjOSipauC4JhI5hJQF48cA0nx5rKOPJ3/zrHTk/NiY3vNhufkue4vtXVF8D/tZIuOVBSzm7cMll3TEij0smE+OysbgegIPxwmuy1zRQRGBalrcy7kG91ZHg9ROUCZowZu4g/d+LcfDp0fM1NvCucWNBoq6YOhGyvv0DJPlBemxwnyxTG9JTAlBCzcXC74G3qHUHK3YSa/XGjRyY3l5RWoNScM/ZZF/3gG9ZR+3vq8M7PXVohGidmlz2ZNwaK0qPnTqLk86Vo9j2inzVR6peBFaWx+JvZCsipkKi/ta5T5BCIrNeU7Yc6fO91o6yRH5LS172eM+IB+PTCbJ+r0UTI1VPCHGNOWfZYsdosk5KFTiWZHl8z4pvwspvH3F/Usu5HOzuoMIEWqi9a1JYNRDEBpxqiI9W2fs2UYXP6pK1/qCEKxbPiu1C6gF0VYq9ps5P42Cm8LE2kk3932GqLTP5asgJl5sOL9Ycd1WEuRLUHQaEgq5LWuk354niUHabFuIkXftUsVQt6JC/nCqGJ90ZrumrDX5w8/8k/HkfWpiAhpt6YJPMt9oWmjVD/TlVaK4k6Q+WyzYQQ9OxSizHOZzXCYszblYfFeaB/F4U87lKItQxLZHYvgGlEKz9aOKpq0YYSYR7TwO3t3FQsvAUUlHsVvOnEPNleOWdOVoo9ZZy7kK6KV2ahNd8WMz/qBJvzCVtpsRbm9sm7yKo3dHerLAx1Eknu1B+l65Q6iYXPXI6VHN5+D4k31sTZopnUpJr6Xak5vMJ8y80bptEIWPaSa/toPsoCdKws5I2aHSds7aQ0zy2Va+n2rFMDSNcuMrJQbpFnMynd65rqRT9Sjzp3Bqi2YQ8AVZl7pPiptxOlyfGtciVG7NWXlyGzDjLCQoLAfr+SPTbIj5MFxTklK/kNb+Rm04Bc4zNh9AHqGtEatTL9QfYcgeLWZNIme7vQa82tytOvKVG5oqOGFFb9UmTnJ+QsKrZUhmqDnVHSQTK/MtLWtN7f3PFUpEFTXlDXgEQEBwz3RqLEpfxJMlyE1hmJ8UHeSdV8+yINOSKARA3LRVHu0oiIDuhZef325ea5tWdvlmaShbIFZz2LCMjk+RTe7lX18IWstfNk7h5Ft052IyPfnZ/EhP5tikWCuJMFiJJMPUZhPsH+HDZ8dNWiEmD1ruSGRSiKrkSKwhzCHFelFSGtF67tSqTMgCvRdFDERGxW+7HKRxU0uXm4XCCUaDjz9d6k4RoSMhDNtSsR+DFwE4MZE0IHcQ/ylv2aMHDjiXGX0nHx0i98uCK3f48cNzgCDq7zRkn5wEebRtMuRA0SRgn/uqAyc1XsGUSSRTrJdiy5DgA5SUhesMydmLSmm0psmBDkSF74rhkKRhZJkNo6Al62llStN5kzFgagfsASFoyr9dcUyYInbOFJ4ltjOd/zhIS7ku85HPi+YoEsC34Z/0yCRwHeVM5JBJkefKVt3UCdtEiSeNxueO0qCS8B9fi5zMqqiBssCjdTzLhrKY7g2SM8VLbJkVSIoAmfgkcIr2IJeFkphK1jLdg6Wc7ZmKRwBUFLgo2FvdXSptWA6FnK5fCpz1P2zLoRcXnBBDwi7+LZr+fk+yR9bRrXYWGRaKvsO40jXUak4m6ls0dBKKoUgwpTzzhSmPGK01QXecGQlrAIXgRgSjqwH7RpYKuEMAaFLXKOJ6rtSXFEXiljurXWibRkHwFp+bVUMOqzbZdEBrgj9XP6htzJHDRyPCzguiqBr/ntDfpW38ZPvyx/LONk6tZsQgQ/LTsxP+GBW7asJqQoWYUTelDCno3AHbCadlbCBkECGyPXMTqSdy9JwpQVtro3uewI0zbTDkqBy/VbUIlndh6jr9A03zma6U9ZONC6Cs1+5owsxsIcfo/grX3ETfdnFkMOLLujBkefmj0QnmE78Srvxn23Hr/Ry0nQ3Q6XOhoXq5NNwSs9DRGK+SJxrNpivrd6aLN818jKMbNtrrWRyKTp7EWHEhjRRmezETmXrD2bd2WygnWgCa56lgIois4wC/GNz8+Q5oXxx6wLUNJltLqWna/j5/8qfTOEvTcsMcLtdrPG7CTph3pfhD634UYPfjBr8DiTyxwr8saRgWo7Ynoe5/TsqwOzynUhB8tyRdkTcdRwlqZYdzHa+0TATUZuUc8eOgAiDyx2A1CSA5ICPjmc9Eh7d5stGipW6LB2906+1NzwcEIpIRJxZyvwE/4L9/I/b+ItJTJCuAkn8L7O5YO/9PeUtJOg5I2fkjEt75Ah6zsgZOYKeM3JGzsgR9JyRM3JGjqDnjJyRM3IEPWfkjJyRI+g5I2fkjBxBzxk5I2fkCHrOyBk5I0fQc0bO+FON/xdgAOGrqpU/PPf1AAAAAElFTkSuQmCC;" vertex="1" parent="1">
          <mxGeometry x="250" y="154.5" width="80" height="80" as="geometry" />
        </mxCell>
        <mxCell id="UWv910rHTFWDrx02N8dY-105" value="Custom Program&lt;br&gt;" style="sketch=0;points=[[0,0,0],[0.25,0,0],[0.5,0,0],[0.75,0,0],[1,0,0],[0,1,0],[0.25,1,0],[0.5,1,0],[0.75,1,0],[1,1,0],[0,0.25,0],[0,0.5,0],[0,0.75,0],[1,0.25,0],[1,0.5,0],[1,0.75,0]];points=[[0,0,0],[0.25,0,0],[0.5,0,0],[0.75,0,0],[1,0,0],[0,1,0],[0.25,1,0],[0.5,1,0],[0.75,1,0],[1,1,0],[0,0.25,0],[0,0.5,0],[0,0.75,0],[1,0.25,0],[1,0.5,0],[1,0.75,0]];outlineConnect=0;fontColor=#232F3E;gradientColor=#F34482;gradientDirection=north;fillColor=#BC1356;strokeColor=#ffffff;dashed=0;verticalLabelPosition=bottom;verticalAlign=top;align=center;html=1;fontSize=12;fontStyle=0;aspect=fixed;shape=mxgraph.aws4.resourceIcon;resIcon=mxgraph.aws4.cloudformation;" vertex="1" parent="1">
          <mxGeometry x="520" y="155.5" width="78" height="78" as="geometry" />
        </mxCell>
        <mxCell id="UWv910rHTFWDrx02N8dY-106" style="edgeStyle=orthogonalEdgeStyle;rounded=0;orthogonalLoop=1;jettySize=auto;html=1;entryX=0;entryY=0.5;entryDx=0;entryDy=0;entryPerimeter=0;" edge="1" source="UWv910rHTFWDrx02N8dY-107" target="UWv910rHTFWDrx02N8dY-105" parent="1">
          <mxGeometry relative="1" as="geometry" />
        </mxCell>
        <mxCell id="UWv910rHTFWDrx02N8dY-107" value="SQLite" style="sketch=0;points=[[0,0,0],[0.25,0,0],[0.5,0,0],[0.75,0,0],[1,0,0],[0,1,0],[0.25,1,0],[0.5,1,0],[0.75,1,0],[1,1,0],[0,0.25,0],[0,0.5,0],[0,0.75,0],[1,0.25,0],[1,0.5,0],[1,0.75,0]];outlineConnect=0;fontColor=#232F3E;gradientColor=#F78E04;gradientDirection=north;fillColor=#D05C17;strokeColor=#ffffff;dashed=0;verticalLabelPosition=bottom;verticalAlign=top;align=center;html=1;fontSize=12;fontStyle=0;aspect=fixed;shape=mxgraph.aws4.resourceIcon;resIcon=mxgraph.aws4.quantum_ledger_database;" vertex="1" parent="1">
          <mxGeometry x="390" y="155.5" width="78" height="78" as="geometry" />
        </mxCell>
      </root>
    </mxGraphModel>
  </diagram>
</mxfile>
